<svg id="svg" xmlns="http://www.w3.org/2000/svg" xmlns:xlink="http://www.w3.org/1999/xlink" width="400" height="705.8823529411765" viewBox="0, 0, 400,705.8823529411765" version="1.1"><g id="svgg"><path id="path0" d="M42.454 32.056 C 20.895 53.614,36.070 163.337,63.512 184.313 C 90.991 205.317,91.438 208.347,80.585 300.000 C 55.022 515.868,55.609 524.788,97.571 558.386 C 118.319 574.998,141.912 594.013,150.000 600.641 C 158.088 607.269,164.706 622.424,164.706 634.317 C 164.706 662.148,194.575 686.952,217.497 678.156 C 227.508 674.315,235.294 656.944,235.294 638.453 C 235.294 615.646,243.400 602.023,261.765 593.966 C 276.324 587.579,289.874 570.843,291.878 556.776 C 293.881 542.709,308.768 522.518,324.961 511.909 C 341.154 501.299,352.114 486.338,349.318 478.662 C 346.521 470.986,351.451 446.938,360.274 425.221 C 378.215 381.056,373.361 364.706,342.306 364.706 C 288.171 364.706,260.126 249.246,294.583 168.236 C 311.293 128.951,288.823 82.353,253.169 82.353 C 245.593 82.353,227.663 69.864,213.323 54.600 C 187.928 27.568,63.375 11.134,42.454 32.056 " stroke="none" fill="#000000" fill-rule="evenodd"></path></g></svg>