<svg id="svg" xmlns="http://www.w3.org/2000/svg" xmlns:xlink="http://www.w3.org/1999/xlink" width="400" height="137.63440860215053" viewBox="0, 0, 400,137.63440860215053"><g id="svgg"><path id="path0" d="M313.978 22.170 C 312.204 23.826,303.621 27.416,294.904 30.147 L 279.056 35.113 270.173 30.283 C 258.680 24.033,206.942 25.930,190.323 33.211 C 186.774 34.766,172.742 37.209,159.140 38.640 C 131.262 41.574,102.881 52.782,95.742 63.677 C 93.163 67.612,90.831 68.889,87.711 68.074 C 77.891 65.505,34.409 90.827,34.409 99.114 C 34.409 101.703,32.913 103.226,30.371 103.226 C 28.150 103.226,25.128 104.677,23.656 106.452 C 22.183 108.226,19.232 109.677,17.097 109.677 C 13.409 109.677,4.301 119.008,4.301 122.787 C 4.301 133.667,-0.731 133.402,194.505 132.808 L 375.269 132.258 374.538 121.034 C 374.133 114.808,375.505 103.223,377.618 95.019 C 381.058 81.664,381.152 78.139,378.578 58.693 C 377.010 46.849,376.400 34.478,377.222 31.202 C 378.526 26.007,378.175 25.388,374.471 26.357 C 372.136 26.968,367.224 25.642,363.555 23.411 C 356.285 18.990,344.086 17.931,344.086 21.722 C 344.086 24.142,330.036 23.440,321.505 20.593 C 318.963 19.745,315.885 20.389,313.978 22.170 " stroke="none" fill="#000000" fill-rule="evenodd"></path></g></svg>