<svg id="svg" version="1.1" xmlns="http://www.w3.org/2000/svg" xmlns:xlink="http://www.w3.org/1999/xlink" width="400" height="244.9612403100775" viewBox="0, 0, 400,244.9612403100775"><g id="svgg"><path id="path0" d="M273.641 41.038 C 269.805 45.121,266.667 50.965,266.667 54.024 C 266.667 58.372,265.015 59.173,259.105 57.689 C 254.946 56.645,250.677 57.192,249.619 58.903 C 246.424 64.074,234.268 62.403,228.824 56.045 C 222.084 48.172,210.853 50.861,210.853 60.346 C 210.853 68.257,204.664 74.468,189.147 82.131 C 169.035 92.064,161.975 108.790,172.192 122.298 C 177.674 129.547,178.316 136.145,173.023 130.853 C 170.977 128.806,166.175 127.132,162.354 127.132 C 158.532 127.132,154.542 125.736,153.488 124.031 C 150.998 120.001,131.173 120.001,128.682 124.031 C 127.628 125.736,122.775 127.132,117.898 127.132 C 113.020 127.132,104.763 129.574,99.547 132.558 C 91.858 136.958,88.930 137.279,84.063 134.251 C 73.070 127.414,47.725 125.698,45.446 131.637 C 43.631 136.368,42.857 136.398,36.543 131.975 C 21.184 121.217,5.820 131.439,10.332 149.415 C 12.515 158.114,29.071 168.656,41.658 169.363 C 46.663 169.645,52.398 172.118,54.403 174.860 C 59.033 181.192,82.867 181.575,89.678 175.426 C 104.095 162.412,148.386 170.368,162.860 188.572 C 167.400 194.282,213.422 200.222,217.960 195.683 C 219.979 193.665,233.241 192.248,250.123 192.248 C 275.678 192.248,279.218 191.563,282.171 186.047 C 284.861 181.019,288.663 179.845,302.252 179.845 C 311.471 179.845,319.876 178.450,320.930 176.744 C 321.984 175.039,327.387 173.643,332.936 173.643 C 347.374 173.643,361.231 158.871,358.694 146.183 C 357.400 139.713,358.193 136.482,361.374 135.262 C 366.529 133.283,367.474 122.274,362.740 119.349 C 357.467 116.090,362.640 111.628,371.693 111.628 C 377.556 111.628,382.354 108.754,387.014 102.451 C 394.310 92.582,395.668 86.822,390.698 86.822 C 388.992 86.822,387.597 84.830,387.597 82.396 C 387.597 79.961,384.109 75.226,379.845 71.872 C 370.900 64.836,369.850 57.377,377.223 53.251 C 384.000 49.459,380.412 40.310,372.148 40.310 C 368.661 40.310,363.114 38.628,359.821 36.572 C 354.896 33.496,352.717 33.846,347.523 38.546 C 341.836 43.693,339.596 43.880,324.869 40.442 C 291.883 32.740,281.321 32.863,273.641 41.038 " stroke="none" fill="#000000" fill-rule="evenodd"></path></g></svg>