<?xml version="1.0" standalone="no"?>
<!DOCTYPE svg PUBLIC "-//W3C//DTD SVG 20010904//EN"
 "http://www.w3.org/TR/2001/REC-SVG-20010904/DTD/svg10.dtd">
<svg version="1.0" xmlns="http://www.w3.org/2000/svg"
 width="130.000000pt" height="57.000000pt" viewBox="0 0 130.000000 57.000000"
 preserveAspectRatio="xMidYMid meet">
<metadata>
Created by potrace 1.16, written by Peter Selinger 2001-2019
</metadata>
<g transform="translate(0.000000,57.000000) scale(0.100000,-0.100000)"
fill="#000000" stroke="none">
<path d="M882 518 c-12 -14 -22 -32 -22 -42 0 -14 -5 -17 -24 -12 -14 3 -28 2
-31 -4 -10 -17 -49 -11 -67 9 -22 26 -58 17 -58 -14 0 -23 -41 -65 -63 -65 -6
0 -25 -11 -44 -26 -25 -19 -33 -32 -33 -57 0 -18 7 -41 15 -51 18 -24 20 -45
3 -28 -7 7 -22 12 -34 12 -13 0 -26 5 -29 10 -8 13 -72 13 -80 0 -3 -6 -19
-10 -35 -10 -16 0 -42 -8 -59 -17 -25 -15 -34 -16 -50 -6 -11 7 -41 15 -69 19
-40 5 -50 3 -55 -11 -6 -15 -9 -15 -29 -1 -50 35 -99 2 -85 -56 7 -28 61 -62
101 -64 16 -1 33 -9 38 -18 12 -21 95 -22 117 -2 10 9 43 16 86 17 61 3 75 0
105 -21 19 -14 39 -31 45 -38 15 -19 163 -38 178 -23 6 6 49 11 104 11 82 0
93 2 103 20 9 16 21 20 65 20 29 0 57 5 60 10 3 6 21 10 39 10 46 0 91 48 83
89 -4 20 -2 31 8 35 17 6 20 42 5 51 -17 11 0 25 29 25 19 0 34 9 49 30 24 31
28 50 12 50 -5 0 -10 6 -10 14 0 8 -11 23 -25 34 -29 23 -32 47 -8 60 23 13 9
42 -21 42 -14 0 -28 5 -31 10 -9 15 -31 12 -50 -6 -14 -14 -23 -15 -68 -4
-106 24 -140 24 -165 -2z"/>
</g>
</svg>
