<svg id="svg" xmlns="http://www.w3.org/2000/svg" xmlns:xlink="http://www.w3.org/1999/xlink" width="400" height="315.1515151515152" viewBox="0, 0, 400,315.1515151515152"><g id="svgg"><path id="path0" d="M175.758 69.697 C 161.371 85.011,121.212 91.704,121.212 78.788 C 121.212 75.455,116.303 72.727,110.303 72.727 C 104.303 72.727,96.721 70.054,93.454 66.787 C 85.941 59.275,52.830 68.101,25.392 84.931 C -4.532 103.285,7.861 139.699,42.309 134.643 C 59.791 132.077,63.923 137.082,61.660 158.081 C 61.451 160.025,64.537 161.724,68.519 161.855 C 83.910 162.364,94.236 167.063,101.606 176.912 C 105.823 182.547,119.352 188.002,131.670 189.034 C 149.817 190.553,154.755 193.784,157.693 206.061 C 161.441 221.718,168.187 223.257,208.272 217.601 C 226.885 214.975,233.164 221.498,239.038 249.558 C 243.192 269.409,271.440 284.848,303.604 284.848 C 330.649 284.848,337.585 276.844,327.259 257.549 C 320.711 245.315,321.779 240.872,335.635 222.707 C 344.369 211.255,351.515 199.026,351.515 195.531 C 351.515 192.035,355.800 187.531,361.037 185.522 C 369.370 182.324,369.015 179.701,358.185 164.492 C 351.380 154.936,346.999 145.930,348.450 144.480 C 349.900 143.029,340.961 141.161,328.586 140.327 C 297.744 138.250,290.335 129.342,308.214 115.832 C 331.971 97.880,323.516 81.372,291.859 83.897 C 274.215 85.304,263.491 83.108,258.656 77.096 C 251.060 67.650,217.062 54.545,200.152 54.545 C 194.564 54.545,183.586 61.364,175.758 69.697 " stroke="none" fill="#000000" fill-rule="evenodd"></path></g></svg>