<svg id="svg" xmlns="http://www.w3.org/2000/svg" xmlns:xlink="http://www.w3.org/1999/xlink" width="400" height="297.2477064220183" viewBox="0, 0, 400,297.2477064220183"><g id="svgg"><path id="path0" d="M28.022 46.384 C 23.394 80.147,24.758 87.049,38.532 99.583 C 53.476 113.182,53.832 114.986,44.037 127.439 C 40.000 132.571,36.697 135.603,36.697 134.178 C 36.697 132.752,34.427 133.856,31.651 136.632 C 26.053 142.230,24.295 192.120,29.817 188.707 C 31.583 187.616,33.028 188.472,33.028 190.609 C 33.028 192.747,36.233 194.495,40.150 194.495 C 49.738 194.495,52.559 199.755,56.881 225.688 L 60.550 247.706 83.186 248.791 C 103.273 249.754,106.089 249.031,108.204 242.369 C 109.764 237.453,113.741 234.862,119.730 234.862 C 124.934 234.862,127.889 236.455,126.589 238.558 C 122.939 244.465,135.293 247.174,141.686 241.868 C 146.567 237.818,148.060 238.046,150.996 243.293 C 153.546 247.849,159.353 249.541,172.443 249.541 C 182.315 249.541,191.413 251.193,192.661 253.211 C 201.381 267.320,240.100 250.150,241.495 231.555 C 242.267 221.265,244.331 216.514,248.030 216.514 C 251.003 216.514,258.510 210.734,264.712 203.670 C 272.625 194.658,279.097 190.826,286.402 190.826 C 292.129 190.826,297.791 189.245,298.985 187.313 C 302.090 182.291,322.492 184.423,324.640 189.995 C 326.307 194.319,343.159 193.844,347.658 189.345 C 348.649 188.354,345.921 183.043,341.595 177.543 L 333.730 167.544 344.847 156.074 C 351.552 149.156,355.963 140.738,355.963 134.860 C 355.963 129.501,357.857 120.959,360.173 115.878 C 363.492 108.592,363.298 105.330,359.255 100.445 C 352.630 92.439,295.355 66.055,284.602 66.055 C 280.067 66.055,270.940 63.353,264.319 60.050 C 253.726 54.765,249.283 54.610,227.306 58.756 C 180.264 67.633,59.713 54.500,45.272 38.926 C 33.056 25.752,30.711 26.766,28.022 46.384 " stroke="none" fill="#000000" fill-rule="evenodd"></path></g></svg>