<svg id="svg" xmlns="http://www.w3.org/2000/svg" xmlns:xlink="http://www.w3.org/1999/xlink" width="400" height="633.3333333333334" viewBox="0, 0, 400,633.3333333333334"><g id="svgg"><path id="path0" d="M287.500 61.806 C 276.042 66.007,266.667 82.282,266.667 97.972 C 266.667 116.215,238.800 137.991,189.371 158.375 C 100.530 195.011,52.013 274.810,83.176 333.039 C 92.677 350.791,99.138 371.245,97.534 378.491 C 95.930 385.738,103.328 412.780,113.975 438.585 C 124.622 464.390,133.333 492.090,133.333 500.140 C 133.333 521.809,202.974 566.667,236.614 566.667 C 270.092 566.667,316.667 486.884,316.667 429.536 C 316.667 408.204,327.484 375.306,340.706 356.429 C 382.632 296.571,336.961 43.670,287.500 61.806 " stroke="none" fill="#000000" fill-rule="evenodd"></path></g></svg>