<svg id="svg" version="1.1" xmlns="http://www.w3.org/2000/svg" xmlns:xlink="http://www.w3.org/1999/xlink" width="400" height="139.2156862745098" viewBox="0, 0, 400,139.2156862745098"><g id="svgg"><path id="path0" d="M64.706 4.902 C 63.363 6.520,61.406 7.843,60.357 7.843 C 59.307 7.843,55.704 9.828,52.349 12.255 C 48.994 14.681,43.123 18.040,39.301 19.718 C 7.692 33.599,-1.848 42.074,5.671 49.592 C 8.714 52.636,8.375 56.947,4.779 60.921 C 0.937 65.165,8.889 77.710,18.396 82.403 C 21.617 83.993,25.192 87.011,26.342 89.109 C 30.487 96.677,34.455 99.577,42.472 100.900 C 46.960 101.641,52.170 103.947,54.051 106.025 C 57.521 109.860,65.601 111.154,67.445 108.170 C 68.000 107.271,71.141 106.930,74.423 107.412 C 79.775 108.198,80.392 107.759,80.392 103.164 C 80.392 90.987,88.069 88.621,109.804 94.097 C 124.893 97.898,130.008 98.630,128.916 96.832 C 128.336 95.878,129.047 94.004,130.494 92.667 C 132.151 91.136,133.571 90.954,134.326 92.176 C 134.986 93.244,138.026 94.118,141.082 94.118 C 147.422 94.118,150.160 98.573,145.962 102.058 C 141.681 105.610,142.570 110.942,148.039 114.526 C 150.735 116.292,152.941 119.041,152.941 120.633 C 152.941 122.333,154.771 123.529,157.371 123.529 C 159.808 123.529,162.904 125.294,164.251 127.451 C 166.417 130.919,168.823 131.373,185.078 131.373 L 203.456 131.373 208.824 124.335 C 213.621 118.045,214.887 117.429,220.746 118.528 C 225.894 119.493,228.206 118.853,231.514 115.545 C 235.011 112.048,236.515 111.691,240.366 113.446 C 244.434 115.300,246.137 114.581,254.188 107.613 C 265.260 98.030,271.469 95.439,279.678 96.979 C 283.082 97.618,288.194 97.081,291.038 95.785 C 295.606 93.703,296.563 93.937,299.261 97.789 C 301.870 101.513,303.502 101.973,310.471 100.949 C 318.024 99.839,319.256 100.339,327.125 107.718 C 331.799 112.101,336.764 115.686,338.160 115.686 C 339.555 115.686,341.795 117.010,343.137 118.627 C 344.480 120.245,346.945 121.569,348.615 121.569 C 350.285 121.569,353.286 123.048,355.284 124.856 C 358.069 127.376,359.455 127.604,361.223 125.836 C 364.085 122.974,375.418 122.828,380.573 125.587 C 384.785 127.841,396.129 121.555,396.025 117.023 C 395.958 114.076,384.406 101.854,378.230 98.196 C 364.526 90.078,337.309 76.471,334.776 76.471 C 333.173 76.471,325.072 73.376,316.772 69.594 C 302.172 62.940,287.339 61.027,283.115 65.251 C 280.999 67.367,274.634 66.965,267.102 64.242 C 260.878 61.991,260.111 62.168,256.439 66.693 C 250.475 74.042,243.312 73.140,236.752 64.216 C 230.487 55.692,229.672 55.483,223.842 60.914 L 219.494 64.965 217.419 59.011 C 214.949 51.927,206.257 47.059,196.078 47.059 C 187.245 47.059,176.903 42.382,171.363 35.883 C 166.092 29.699,146.535 27.504,141.038 32.478 C 137.384 35.785,127.451 28.636,127.451 22.700 C 127.451 18.972,123.588 16.353,115.686 14.726 C 111.912 13.948,106.451 11.086,103.552 8.365 C 99.404 4.473,97.104 3.706,92.767 4.769 C 78.903 8.167,76.556 8.209,73.461 5.114 C 69.546 1.199,67.814 1.157,64.706 4.902 " stroke="none" fill="#000000" fill-rule="evenodd"></path></g></svg>