<svg id="svg" version="1.1" xmlns="http://www.w3.org/2000/svg" xmlns:xlink="http://www.w3.org/1999/xlink" width="400" height="384.8101265822785" viewBox="0, 0, 400,384.8101265822785"><g id="svgg"><path id="path0" d="M186.641 33.755 C 183.560 37.468,175.961 40.506,169.754 40.506 C 162.749 40.506,149.915 49.794,135.908 64.999 C 114.621 88.109,111.516 89.684,80.931 92.881 C 42.669 96.880,12.315 119.503,17.499 140.157 C 19.034 146.274,18.003 152.691,15.208 154.419 C 12.286 156.225,10.127 182.246,10.127 215.659 L 10.127 273.759 27.652 284.100 C 44.227 293.879,45.161 295.896,44.858 321.272 C 44.508 350.547,51.850 369.620,63.469 369.620 C 67.549 369.620,70.886 367.759,70.886 365.483 C 70.886 363.208,82.848 362.227,97.468 363.304 C 128.700 365.603,142.526 353.482,130.549 334.304 C 125.621 326.412,125.612 322.995,130.507 318.101 C 133.918 314.690,136.709 305.419,136.709 297.500 C 136.709 287.653,144.712 273.484,162.025 252.680 C 175.949 235.948,187.342 218.200,187.342 213.239 C 187.342 200.146,192.369 197.093,203.831 203.227 C 218.160 210.896,243.256 186.727,234.840 173.363 C 231.790 168.520,224.982 163.899,219.710 163.094 C 188.588 158.343,187.341 157.371,187.373 137.878 C 187.390 127.488,191.188 112.152,195.814 103.797 C 213.394 72.042,205.418 11.131,186.641 33.755 M324.439 220.703 C 315.871 227.913,308.716 238.736,308.540 244.754 L 308.219 255.696 303.831 244.822 C 296.656 227.039,288.425 225.617,275.205 239.874 C 268.427 247.184,258.551 253.165,253.258 253.165 C 242.818 253.165,236.257 259.885,241.539 265.168 C 243.348 266.977,248.413 279.257,252.794 292.456 C 259.814 313.606,262.645 316.639,276.638 317.999 C 289.863 319.285,293.042 322.170,295.660 335.264 C 299.696 355.442,298.037 356.665,276.966 349.045 C 257.393 341.968,243.038 345.201,243.038 356.686 C 243.038 376.326,294.285 389.480,306.376 372.944 C 309.749 368.331,313.677 364.557,315.104 364.557 C 330.305 364.557,364.384 342.602,359.088 336.221 C 355.647 332.074,348.909 330.184,343.589 331.872 C 329.603 336.311,332.200 326.336,348.033 314.802 C 361.299 305.139,361.514 304.296,353.096 294.994 C 341.723 282.427,341.999 278.481,354.252 278.481 C 367.721 278.481,374.063 264.837,372.722 238.743 C 371.005 205.351,351.393 198.023,324.439 220.703 M181.035 277.215 C 161.589 299.091,161.064 324.166,179.886 332.030 C 218.205 348.041,238.968 323.578,222.910 281.342 C 216.952 265.671,193.363 263.347,181.035 277.215 " stroke="none" fill="#000000" fill-rule="evenodd"></path></g></svg>