<svg id="svg" version="1.1" xmlns="http://www.w3.org/2000/svg" xmlns:xlink="http://www.w3.org/1999/xlink" width="400" height="421.6216216216216" viewBox="0, 0, 400,421.6216216216216"><g id="svgg"><path id="path0" d="M159.744 22.793 C 153.641 27.897,150.689 32.154,153.183 32.253 C 155.677 32.352,151.420 39.916,143.724 49.063 C 136.027 58.210,129.730 68.133,129.730 71.114 C 129.730 74.273,123.242 75.110,114.182 73.120 C 103.411 70.754,95.915 72.425,89.782 78.558 C 83.308 85.031,75.501 86.541,60.735 84.173 C 38.457 80.601,5.995 125.301,23.016 136.111 C 32.867 142.368,59.459 141.467,59.459 134.877 C 59.459 128.287,85.876 102.703,92.681 102.703 C 106.024 102.703,95.885 123.256,81.081 126.216 C 70.866 128.259,64.865 132.785,64.865 138.447 C 64.865 146.161,60.652 146.939,35.135 143.940 L 5.405 140.446 5.405 205.083 L 5.405 269.720 24.078 283.963 C 41.362 297.145,42.870 300.684,44.348 331.535 L 45.946 364.865 90.541 366.092 C 115.068 366.767,135.135 365.223,135.135 362.661 C 135.135 360.099,149.122 356.046,166.216 353.656 C 186.098 350.876,192.504 348.514,183.996 347.102 C 176.680 345.889,167.405 340.875,163.386 335.961 C 157.988 329.363,155.342 328.794,153.264 333.784 C 151.717 337.500,147.005 340.541,142.793 340.541 C 130.833 340.541,132.333 285.295,144.595 274.187 C 153.501 266.118,153.944 267.176,152.181 292.268 C 150.664 313.852,151.949 318.919,158.938 318.919 C 163.684 318.919,167.568 321.163,167.568 323.905 C 167.568 331.751,204.302 341.852,224.331 339.514 C 242.092 337.440,243.258 340.379,230.258 354.452 C 227.309 357.644,218.687 359.136,211.097 357.767 C 203.507 356.399,199.192 357.303,201.508 359.778 C 203.824 362.252,208.688 364.782,212.319 365.400 C 215.949 366.018,223.176 368.235,228.378 370.326 C 235.410 373.153,237.838 371.484,237.838 363.822 C 237.838 358.152,240.004 351.203,242.652 348.378 C 245.470 345.372,245.223 328.119,242.056 306.757 L 236.646 270.270 202.107 270.270 C 164.415 270.270,148.027 251.650,182.204 247.656 C 194.504 246.219,197.740 242.235,202.474 222.701 C 206.532 205.960,209.752 201.100,213.985 205.334 C 223.139 214.491,247.779 202.645,251.648 187.227 C 258.846 158.549,253.198 148.782,228.378 146.986 C 200.948 145.002,197.549 129.251,216.216 90.615 C 228.043 66.137,229.683 53.567,222.079 45.676 C 219.358 42.851,216.318 34.479,215.323 27.070 C 213.071 10.302,177.913 7.597,159.744 22.793 M344.925 217.568 C 340.254 221.284,334.877 231.014,332.978 239.189 C 328.663 257.761,318.919 258.697,318.919 240.541 C 318.919 229.893,316.177 227.027,305.991 227.027 C 296.710 227.027,292.107 230.839,289.672 240.541 C 287.003 251.174,282.847 254.054,270.167 254.054 C 254.755 254.054,248.764 260.957,258.795 267.157 C 261.402 268.768,266.302 281.074,269.683 294.503 C 274.839 314.977,277.929 318.919,288.825 318.919 C 308.611 318.919,318.919 324.466,318.919 335.115 C 318.919 340.413,323.734 350.491,329.620 357.509 C 342.202 372.514,351.126 364.907,351.269 339.055 C 351.329 328.072,354.969 322.681,364.865 318.919 C 379.288 313.435,382.225 303.306,372.277 293.358 C 367.746 288.827,369.003 283.664,377.160 273.294 C 383.201 265.614,387.309 255.103,386.289 249.936 C 378.910 212.549,378.000 210.811,365.795 210.811 C 358.987 210.811,349.596 213.851,344.925 217.568 M216.216 240.860 C 216.216 248.705,218.556 253.246,221.622 251.351 C 224.595 249.514,227.027 243.289,227.027 237.519 C 227.027 231.748,224.595 227.027,221.622 227.027 C 218.649 227.027,216.216 233.252,216.216 240.860 M254.054 358.622 C 254.054 377.143,279.551 387.668,306.757 380.377 C 321.644 376.387,322.949 362.162,308.427 362.162 C 302.657 362.162,296.432 359.730,294.595 356.757 C 289.428 348.396,254.054 350.024,254.054 358.622 M260.808 406.757 C 264.214 416.985,281.081 418.439,281.081 408.504 C 281.081 403.490,276.459 400.000,269.820 400.000 C 263.215 400.000,259.489 402.794,260.808 406.757 " stroke="none" fill="#000000" fill-rule="evenodd"></path></g></svg>