<svg id="svg" xmlns="http://www.w3.org/2000/svg" xmlns:xlink="http://www.w3.org/1999/xlink" width="400" height="326.3157894736842" viewBox="0, 0, 400,326.3157894736842"><g id="svgg"><path id="path0" d="M200.000 50.000 C 187.763 62.625,177.394 68.421,167.043 68.421 C 145.546 68.421,133.343 76.434,129.177 93.282 C 124.568 111.929,101.024 136.905,91.501 133.250 C 87.491 131.712,84.051 132.482,83.855 134.963 C 81.569 163.997,76.890 176.646,63.972 188.713 C 32.706 217.920,37.816 261.151,71.782 254.779 C 101.313 249.239,125.535 256.958,150.325 279.808 L 173.388 301.068 206.312 297.247 C 244.844 292.775,273.734 283.376,294.581 268.532 C 302.797 262.681,314.639 257.895,320.895 257.895 C 338.284 257.895,350.929 249.150,360.809 230.292 C 372.483 208.011,379.318 168.478,371.534 168.261 C 368.375 168.173,369.849 165.735,374.811 162.842 C 382.099 158.594,382.820 154.922,378.564 143.727 C 375.666 136.106,374.749 120.181,376.525 108.337 C 381.458 75.437,363.937 62.574,302.743 54.172 C 291.226 52.590,276.411 47.764,269.822 43.447 C 255.766 34.237,242.105 41.757,242.105 58.704 C 242.105 71.230,231.986 75.443,216.055 69.549 L 203.849 65.034 218.155 53.781 C 226.024 47.592,230.939 40.064,229.078 37.053 C 223.682 28.322,218.983 30.414,200.000 50.000 " stroke="none" fill="#000000" fill-rule="evenodd"></path></g></svg>