<svg id="svg" version="1.1" xmlns="http://www.w3.org/2000/svg" xmlns:xlink="http://www.w3.org/1999/xlink" width="400" height="221.35922330097085" viewBox="0, 0, 400,221.35922330097085"><g id="svgg"><path id="path0" d="M227.184 24.846 C 220.777 27.697,203.463 31.214,188.709 32.661 C 172.655 34.236,157.842 38.149,151.816 42.406 C 146.278 46.319,136.053 50.753,129.094 52.260 C 109.707 56.458,99.358 88.773,115.425 94.939 C 120.256 96.793,120.804 98.314,117.398 100.419 C 113.850 102.612,114.598 107.089,120.419 118.507 C 124.674 126.853,128.155 132.167,128.155 130.316 C 128.155 128.466,131.580 130.051,135.766 133.839 C 143.646 140.971,163.107 139.637,163.107 131.965 C 163.107 129.870,165.015 128.155,167.347 128.155 C 169.938 128.155,171.254 135.334,170.730 146.602 C 169.443 174.252,169.744 174.967,182.256 174.013 C 188.516 173.536,193.322 171.324,192.935 169.097 C 191.725 162.122,234.869 161.814,240.631 168.757 C 243.370 172.057,247.957 174.757,250.824 174.757 C 253.692 174.757,257.908 178.252,260.194 182.524 C 262.480 186.796,266.251 190.291,268.573 190.291 C 271.342 190.291,271.131 188.286,267.961 184.466 C 265.302 181.262,264.007 178.641,265.083 178.641 C 266.159 178.641,271.571 184.582,277.109 191.843 C 287.016 204.832,287.039 205.012,278.541 202.920 C 273.790 201.751,271.203 202.207,272.791 203.933 C 276.483 207.944,299.029 209.391,299.029 205.616 C 299.029 204.052,301.741 201.732,305.056 200.460 C 308.512 199.134,310.071 199.785,308.710 201.986 C 307.405 204.098,308.085 205.825,310.221 205.825 C 312.357 205.825,315.188 204.073,316.511 201.931 C 318.098 199.364,321.644 199.496,326.918 202.319 C 333.019 205.584,334.234 205.494,332.039 201.942 C 329.847 198.395,331.056 198.298,337.104 201.535 C 345.674 206.121,365.049 205.945,365.049 201.280 C 365.049 199.712,369.721 202.759,375.431 208.051 C 387.716 219.437,393.741 218.560,395.346 205.155 C 396.456 195.881,381.999 176.699,373.898 176.699 C 364.023 176.699,349.031 159.004,350.209 148.738 C 350.915 142.584,353.563 138.285,356.311 138.835 C 358.981 139.369,360.750 138.495,360.242 136.893 C 359.734 135.291,361.689 128.311,364.587 121.382 C 369.171 110.419,369.039 107.538,363.568 99.189 C 356.627 88.594,355.061 75.839,361.165 79.612 C 363.301 80.932,365.182 80.598,365.346 78.870 C 366.331 68.457,368.913 60.602,372.546 56.968 C 384.890 44.625,377.372 38.835,349.002 38.835 C 328.582 38.835,318.124 36.890,309.196 31.432 C 293.122 21.604,243.438 17.614,227.184 24.846 M46.602 73.712 C 46.602 75.889,43.981 77.670,40.777 77.670 C 33.436 77.670,33.478 79.578,41.070 91.165 C 47.087 100.348,47.410 100.395,60.392 93.941 C 74.482 86.938,75.250 85.855,70.814 79.239 C 66.869 73.353,46.602 68.727,46.602 73.712 M34.951 115.154 C 12.169 122.659,3.613 135.097,14.053 145.537 C 17.696 149.181,18.753 154.695,17.081 161.353 C 14.663 170.990,14.990 171.279,22.792 166.407 C 27.344 163.564,31.068 158.164,31.068 154.406 C 31.068 149.442,34.174 147.573,42.420 147.573 C 48.864 147.573,58.762 143.375,65.311 137.864 C 71.657 132.524,79.655 128.155,83.085 128.155 C 92.806 128.155,90.413 120.611,79.359 116.409 C 69.033 112.483,45.110 111.807,34.951 115.154 M233.010 174.757 C 238.350 178.934,244.265 182.390,246.155 182.438 C 248.045 182.485,245.148 179.029,239.717 174.757 C 234.286 170.485,228.371 167.029,226.572 167.077 C 224.773 167.124,227.670 170.580,233.010 174.757 " stroke="none" fill="#000000" fill-rule="evenodd"></path></g></svg>