<svg id="svg" version="1.1" xmlns="http://www.w3.org/2000/svg" xmlns:xlink="http://www.w3.org/1999/xlink" width="400" height="373.91304347826093" viewBox="0, 0, 400,373.91304347826093"><g id="svgg"><path id="path0" d="M109.390 3.804 C 108.652 5.897,106.121 9.752,103.767 12.371 C 99.503 17.112,99.505 17.164,104.091 24.584 C 106.623 28.682,108.696 33.662,108.696 35.651 C 108.696 41.296,120.403 44.023,128.804 40.335 C 131.728 39.052,132.609 39.689,132.609 43.086 C 132.609 46.332,135.786 48.962,144.565 52.981 L 156.522 58.455 156.492 73.249 C 156.450 94.164,155.012 98.464,148.599 96.854 C 141.632 95.106,131.966 100.456,124.569 110.156 C 121.219 114.548,116.024 120.663,113.024 123.745 C 110.024 126.827,105.133 132.285,102.155 135.876 C 99.176 139.466,91.000 146.314,83.986 151.093 C 76.971 155.872,68.449 161.739,65.047 164.130 C 59.035 168.356,53.591 174.878,48.692 183.721 C 46.974 186.822,43.290 188.350,35.649 189.130 C 26.706 190.043,25.113 190.874,25.707 194.317 C 26.141 196.837,22.884 202.012,17.252 207.751 C 7.299 217.892,6.460 226.306,14.514 235.206 C 17.475 238.478,17.697 240.510,15.779 246.760 C 14.205 251.889,14.169 254.787,15.668 255.713 C 24.659 261.270,27.107 288.432,19.820 301.793 C 14.487 311.574,20.277 330.435,28.614 330.435 C 30.906 330.435,36.617 332.391,41.304 334.783 C 45.992 337.174,52.425 339.130,55.602 339.130 C 60.794 339.130,61.234 339.734,59.968 345.109 C 57.437 355.847,57.564 357.609,60.870 357.609 C 62.663 357.609,65.096 355.408,66.276 352.717 C 69.060 346.372,69.558 346.484,76.726 355.082 L 82.776 362.337 102.731 359.594 C 113.706 358.085,123.340 357.255,124.140 357.749 C 124.940 358.243,126.751 357.254,128.165 355.551 C 129.579 353.847,133.847 351.805,137.650 351.012 C 141.453 350.219,149.201 348.090,154.866 346.282 C 160.532 344.474,166.610 343.548,168.373 344.224 C 170.260 344.948,173.364 343.186,175.915 339.943 C 179.130 335.855,181.445 334.810,184.875 335.899 C 188.112 336.926,191.076 335.887,194.750 332.435 C 199.220 328.236,200.000 328.054,200.000 331.211 C 200.000 336.000,205.697 338.173,209.650 334.892 C 211.341 333.490,217.931 332.469,224.297 332.625 C 238.519 332.972,256.216 330.514,257.787 327.973 C 260.918 322.906,274.444 325.963,273.386 331.497 C 272.089 338.278,284.640 348.723,294.655 349.197 C 300.299 349.465,301.335 348.684,301.734 343.856 C 301.992 340.745,303.684 337.371,305.495 336.358 C 307.305 335.345,308.341 333.793,307.795 332.910 C 307.249 332.027,310.408 331.104,314.814 330.858 C 328.259 330.109,344.138 325.688,352.674 320.318 C 361.817 314.567,364.020 313.986,361.711 317.935 C 360.837 319.429,362.157 318.870,364.645 316.691 C 369.470 312.465,376.087 294.956,376.087 286.414 C 376.087 280.614,383.944 270.964,387.086 272.906 C 388.210 273.601,389.130 273.076,389.130 271.739 C 389.130 270.402,389.993 269.842,391.048 270.494 C 393.102 271.763,393.790 250.682,392.019 240.742 C 391.431 237.443,390.154 235.237,389.181 235.838 C 388.207 236.440,386.835 232.780,386.131 227.705 C 385.427 222.630,384.672 217.298,384.454 215.856 C 384.236 214.415,383.243 213.739,382.246 214.354 C 381.250 214.970,380.435 214.438,380.435 213.172 C 380.435 211.906,379.701 210.985,378.804 211.127 C 374.434 211.817,371.623 210.642,372.859 208.642 C 373.617 207.417,373.430 206.632,372.444 206.899 C 368.660 207.922,360.871 203.931,362.261 201.682 C 363.061 200.387,362.769 199.913,361.613 200.627 C 358.991 202.248,347.248 194.781,349.258 192.771 C 350.065 191.964,349.828 191.229,348.732 191.138 C 342.270 190.599,338.028 189.083,337.358 187.075 C 336.938 185.814,335.208 184.783,333.514 184.783 C 331.821 184.783,330.435 183.804,330.435 182.609 C 330.435 181.413,328.804 180.435,326.812 180.435 C 324.819 180.435,323.825 179.798,324.604 179.019 C 326.750 176.873,319.132 171.887,313.587 171.808 C 310.168 171.760,308.696 170.430,308.696 167.391 C 308.696 163.567,310.841 162.100,315.539 162.712 C 316.956 162.897,316.618 153.696,315.000 148.058 C 314.522 146.392,310.847 141.949,306.834 138.185 C 301.757 133.423,299.349 129.053,298.920 123.822 C 298.580 119.687,298.080 115.815,297.807 115.217 C 297.534 114.620,297.415 113.432,297.543 112.578 C 297.670 111.725,296.318 111.585,294.539 112.267 C 290.687 113.746,290.467 112.148,293.695 106.116 C 295.517 102.712,295.466 102.033,293.478 103.261 C 291.513 104.476,291.434 103.820,293.158 100.598 C 294.893 97.356,294.593 95.107,291.912 91.280 C 289.202 87.410,289.099 86.610,291.472 87.844 C 293.642 88.973,293.565 88.594,291.212 86.574 C 289.203 84.850,287.876 80.181,287.902 74.928 L 287.945 66.161 301.577 67.029 C 324.007 68.457,332.981 57.227,319.094 45.108 C 313.960 40.628,315.061 29.083,321.265 22.335 C 323.319 20.101,324.039 19.787,322.864 21.637 C 321.436 23.884,322.320 23.642,325.530 20.905 C 328.171 18.653,329.715 15.812,328.961 14.591 C 328.206 13.370,328.651 13.028,329.949 13.830 C 332.687 15.522,333.648 14.189,335.610 5.978 L 337.039 0.000 223.886 0.000 C 118.082 0.000,110.646 0.247,109.390 3.804 " stroke="none" fill="#000000" fill-rule="evenodd"></path></g></svg>