<svg id="svg" version="1.1" xmlns="http://www.w3.org/2000/svg" xmlns:xlink="http://www.w3.org/1999/xlink" width="400" height="358.4905660377359" viewBox="0, 0, 400,358.4905660377359"><g id="svgg"><path id="path0" d="M206.132 18.847 C 199.752 22.737,199.579 23.230,199.176 38.679 C 198.832 51.860,193.571 57.428,179.746 59.242 C 164.829 61.200,151.574 71.574,157.025 77.025 C 161.386 81.386,151.111 83.411,135.372 81.293 C 127.002 80.167,119.441 79.245,118.568 79.245 C 117.695 79.245,116.981 77.227,116.981 74.759 C 116.981 68.445,113.530 66.496,104.105 67.489 C 93.960 68.557,92.825 71.250,98.626 80.485 C 101.399 84.899,103.609 91.945,104.275 98.496 L 105.369 109.256 92.428 108.279 C 82.568 107.535,78.408 108.009,74.956 110.271 C 70.729 113.040,70.183 112.972,66.821 109.257 C 59.747 101.440,53.579 99.516,46.812 103.015 C 43.503 104.727,36.073 106.443,30.303 106.829 C 12.781 108.000,7.017 113.963,14.211 123.474 C 17.741 128.141,17.722 130.189,14.151 130.189 C 10.036 130.189,10.600 131.473,17.453 137.707 C 22.181 142.009,25.412 143.298,31.564 143.341 C 39.061 143.393,61.115 149.177,68.371 152.993 C 70.173 153.941,72.787 154.717,74.181 154.717 C 75.585 154.717,76.648 156.583,76.565 158.903 C 76.467 161.632,77.713 163.351,80.142 163.840 C 84.997 164.819,88.867 169.891,87.915 174.027 C 86.634 179.589,98.976 193.636,108.258 197.181 C 117.349 200.653,122.940 215.185,116.674 219.058 C 114.684 220.288,114.861 221.112,117.538 223.069 C 120.589 225.300,120.649 226.062,118.175 231.162 C 116.673 234.259,114.871 244.009,114.170 252.830 C 111.502 286.398,106.402 307.507,101.667 304.581 C 100.744 304.011,100.288 305.081,100.654 306.961 C 101.993 313.835,104.261 316.981,107.876 316.981 C 110.716 316.981,111.297 317.857,110.377 320.755 C 109.335 324.039,110.038 324.528,115.799 324.528 C 119.440 324.528,122.944 325.377,123.585 326.415 C 124.226 327.453,126.366 328.302,128.339 328.302 C 130.312 328.302,132.977 329.426,134.260 330.799 C 135.543 332.173,138.609 332.911,141.074 332.440 C 143.539 331.969,147.404 332.491,149.664 333.599 C 155.044 336.238,167.925 337.447,167.925 335.313 C 167.925 334.397,168.986 334.005,170.283 334.442 C 171.580 334.879,173.571 333.976,174.706 332.435 C 177.023 329.291,185.154 330.481,188.922 334.515 C 190.190 335.872,193.889 336.590,197.460 336.173 C 202.611 335.572,204.780 336.527,209.336 341.404 C 214.790 347.243,235.849 350.067,235.849 344.960 C 235.849 344.100,237.335 343.366,239.151 343.329 C 242.995 343.252,253.040 337.902,249.528 337.803 C 246.250 337.710,246.491 324.451,249.858 319.644 C 254.126 313.550,275.244 301.258,277.910 303.316 C 280.784 305.534,295.653 309.067,301.887 309.012 C 308.634 308.953,312.909 310.342,323.505 316.038 C 335.365 322.412,346.816 321.399,354.959 313.256 C 365.968 302.247,375.701 295.773,381.688 295.479 C 392.172 294.964,387.683 277.358,377.067 277.358 C 371.893 277.358,367.036 266.659,369.628 260.970 C 372.303 255.099,372.421 255.611,367.183 250.373 L 362.668 245.858 367.862 242.790 C 370.718 241.103,373.599 240.266,374.264 240.930 C 374.928 241.595,375.580 240.936,375.712 239.465 C 375.845 237.995,376.155 234.850,376.402 232.476 C 376.648 230.102,375.479 227.130,373.802 225.872 C 370.281 223.230,368.603 215.094,371.580 215.094 C 374.089 215.094,373.400 211.283,370.283 207.929 C 367.301 204.720,367.254 199.538,370.182 196.611 C 371.933 194.859,371.616 193.732,368.767 191.577 C 360.557 185.368,348.688 190.466,345.949 201.378 C 345.358 203.733,344.022 205.660,342.982 205.660 C 340.216 205.660,342.943 193.286,347.274 186.183 C 349.284 182.886,350.932 179.060,350.936 177.681 C 350.950 172.826,369.950 153.072,375.190 152.465 C 379.755 151.937,380.240 151.073,380.775 142.508 C 381.098 137.349,382.280 132.022,383.403 130.670 C 384.525 129.317,384.932 127.699,384.306 127.074 C 382.772 125.540,388.014 115.631,394.614 107.589 C 402.432 98.063,401.825 94.340,392.453 94.340 C 388.302 94.340,384.906 93.491,384.906 92.453 C 384.906 91.415,382.245 90.566,378.992 90.566 C 368.296 90.566,358.890 86.652,356.662 81.274 C 354.782 76.735,347.170 73.919,347.170 77.763 C 347.170 79.947,328.725 79.570,327.358 77.358 C 326.717 76.321,324.332 75.435,322.058 75.390 C 314.269 75.236,302.771 67.021,303.365 62.036 C 304.125 55.665,299.996 48.645,296.344 50.096 C 294.723 50.741,292.123 51.586,290.566 51.974 C 289.009 52.363,285.855 53.230,283.557 53.902 C 280.095 54.913,278.820 53.954,276.132 48.316 C 273.370 42.525,271.955 41.509,266.648 41.509 C 262.453 41.509,259.637 40.273,258.053 37.736 C 256.757 35.660,254.537 33.962,253.120 33.962 C 251.703 33.962,248.810 31.759,246.691 29.065 C 243.731 25.302,241.678 24.400,237.825 25.171 C 233.598 26.016,232.484 25.304,230.721 20.634 C 228.100 13.690,216.029 12.813,206.132 18.847 " stroke="none" fill="#000000" fill-rule="evenodd"></path></g></svg>