<svg id="svg" version="1.1" xmlns="http://www.w3.org/2000/svg" xmlns:xlink="http://www.w3.org/1999/xlink" width="400" height="560" viewBox="0, 0, 400,560"><g id="svgg"><path id="path0" d="M280.996 27.461 C 280.249 28.669,280.748 30.996,282.105 32.632 C 285.111 36.253,282.804 40.719,278.734 39.157 C 273.243 37.050,275.753 41.846,282.105 45.598 C 286.819 48.383,288.464 50.949,288.592 55.717 L 288.763 62.105 291.655 55.789 C 299.580 38.481,289.970 12.940,280.996 27.461 M218.888 97.967 C 213.865 104.018,219.830 110.854,229.979 110.677 C 239.009 110.519,243.108 106.324,236.652 103.846 C 234.618 103.066,231.223 100.697,229.108 98.582 C 224.420 93.894,222.370 93.770,218.888 97.967 M213.323 121.522 C 215.117 124.423,173.661 127.594,169.966 124.837 C 163.513 120.023,155.973 129.385,159.307 138.073 C 160.104 140.151,158.864 141.053,155.208 141.053 C 148.655 141.053,146.274 149.549,151.370 154.743 C 153.222 156.630,153.789 157.999,152.632 157.785 C 143.446 156.088,133.816 166.031,138.034 172.857 C 138.662 173.872,138.244 176.368,137.105 178.403 C 135.626 181.046,135.903 183.062,138.074 185.462 C 140.821 188.496,140.348 188.697,133.189 187.544 C 126.075 186.398,125.195 185.557,124.594 179.329 C 124.227 175.513,122.549 171.862,120.867 171.216 C 118.032 170.128,103.205 178.498,103.172 181.205 C 103.150 183.101,120.068 193.684,123.122 193.684 C 124.631 193.684,126.411 195.105,127.077 196.842 C 128.773 201.260,132.585 200.777,138.285 195.422 C 142.961 191.030,143.158 191.011,143.158 194.958 C 143.158 197.220,141.263 200.436,138.947 202.105 C 136.632 203.774,134.737 206.715,134.737 208.640 C 134.737 210.565,132.686 212.677,130.180 213.332 C 126.252 214.359,126.012 214.992,128.442 217.921 C 130.942 220.932,130.649 221.164,125.860 219.962 C 119.493 218.364,116.358 221.927,120.131 226.474 C 122.244 229.019,121.982 230.185,118.733 232.703 C 115.687 235.063,115.562 235.514,118.208 234.598 C 120.117 233.938,122.226 234.282,122.895 235.364 C 124.999 238.769,134.987 235.438,137.193 230.596 C 139.372 225.815,151.579 217.280,151.579 220.538 C 151.579 221.544,149.800 226.098,147.627 230.657 C 145.453 235.217,143.010 245.332,142.198 253.136 C 141.386 260.939,139.849 267.864,138.782 268.523 C 136.264 270.079,136.261 281.498,138.778 283.053 C 141.042 284.452,147.368 278.682,147.368 275.218 C 147.368 273.511,148.011 273.485,149.651 275.125 C 150.907 276.380,153.749 276.933,155.967 276.353 C 161.438 274.922,161.462 265.251,155.998 263.823 C 151.598 262.672,148.639 252.772,151.741 249.579 C 152.946 248.339,153.684 249.339,153.684 252.211 C 153.684 254.758,154.632 256.842,155.789 256.842 C 156.947 256.842,157.895 255.895,157.895 254.737 C 157.895 253.579,159.316 252.632,161.053 252.632 C 162.789 252.632,164.211 251.684,164.211 250.526 C 164.211 249.368,165.632 248.421,167.368 248.421 C 171.225 248.421,171.240 250.029,167.447 256.842 C 164.818 261.564,164.961 262.581,168.838 266.733 L 173.160 271.360 167.161 281.470 C 163.862 287.030,161.095 292.526,161.012 293.684 C 160.929 294.842,159.720 295.553,158.325 295.263 C 153.913 294.347,155.583 302.230,160.849 307.178 C 165.497 311.543,166.074 311.637,167.927 308.327 C 169.293 305.886,170.418 305.489,171.412 307.098 C 173.325 310.194,184.677 310.181,185.710 307.082 C 186.279 305.373,187.811 305.504,191.069 307.538 C 195.093 310.052,196.837 309.735,205.882 304.850 C 217.077 298.804,226.016 299.808,216.500 306.044 C 208.103 311.546,208.906 321.344,218.637 332.105 C 225.711 339.928,234.125 344.770,230.526 338.947 C 229.811 337.789,230.672 336.842,232.441 336.842 C 236.116 336.842,234.930 342.014,229.916 347.855 C 227.472 350.703,227.334 352.158,229.285 354.510 C 231.137 356.740,231.164 357.903,229.393 358.998 C 228.078 359.810,227.502 362.387,228.113 364.724 C 228.724 367.060,227.859 370.337,226.191 372.005 C 224.523 373.673,223.158 374.229,223.158 373.241 C 223.158 372.253,220.737 371.244,217.779 371.000 C 214.271 370.709,212.907 371.373,213.856 372.909 C 214.861 374.535,212.950 374.989,207.689 374.375 C 203.497 373.885,199.650 374.477,199.141 375.690 C 198.528 377.150,197.628 377.184,196.476 375.789 C 193.550 372.248,185.555 368.421,181.081 368.421 C 175.039 368.421,175.021 380.085,181.061 381.665 C 186.365 383.052,184.772 387.898,177.783 391.639 C 174.950 393.155,172.632 395.601,172.632 397.074 C 172.632 401.656,177.350 402.928,180.149 399.100 C 184.380 393.313,192.610 395.572,192.728 402.552 C 192.781 405.693,193.454 408.892,194.223 409.661 C 196.272 411.711,189.654 423.518,187.279 422.050 C 186.170 421.365,185.263 421.689,185.263 422.770 C 185.263 423.852,182.366 425.316,178.825 426.024 C 175.284 426.733,170.911 428.788,169.107 430.592 C 167.303 432.396,164.773 433.521,163.485 433.092 C 162.197 432.662,159.436 433.902,157.348 435.847 C 148.990 443.633,161.772 456.338,172.297 450.705 C 178.716 447.270,184.863 447.949,187.220 452.354 C 188.691 455.103,190.904 455.985,194.571 455.284 C 197.735 454.679,202.668 456.043,206.999 458.719 C 215.207 463.792,219.408 464.215,225.928 460.628 C 235.930 455.124,238.246 456.885,231.558 464.910 C 227.777 469.446,226.440 469.709,213.966 468.374 C 198.864 466.756,184.869 470.208,186.742 475.087 C 187.334 476.631,186.770 478.013,185.488 478.158 C 180.146 478.761,179.243 479.002,178.118 480.128 C 177.469 480.777,176.625 483.356,176.243 485.859 C 175.441 491.113,155.392 510.189,146.842 513.833 C 143.658 515.190,141.053 517.133,141.053 518.150 C 141.053 519.168,143.658 520.148,146.842 520.330 C 150.026 520.511,155.205 520.843,158.351 521.067 C 161.496 521.292,163.572 520.670,162.963 519.685 C 162.355 518.700,163.334 517.895,165.139 517.895 C 166.944 517.895,168.421 516.984,168.421 515.871 C 168.421 509.942,196.799 508.441,203.543 514.013 C 206.750 516.662,214.737 509.005,214.737 503.282 C 214.737 501.035,215.801 498.538,217.103 497.734 C 220.983 495.335,244.211 494.604,244.211 496.880 C 244.211 498.017,249.522 498.947,256.015 498.947 C 264.798 498.947,267.552 498.251,266.775 496.227 C 266.042 494.318,268.202 493.409,274.026 493.177 C 279.563 492.956,282.709 493.860,283.490 495.897 C 284.134 497.575,286.827 498.947,289.474 498.947 C 294.470 498.947,297.873 493.897,295.482 490.029 C 294.560 488.537,296.115 488.324,300.212 489.381 C 308.494 491.517,343.316 491.976,344.558 489.966 C 345.106 489.078,346.436 488.897,347.514 489.564 C 348.592 490.230,349.474 489.716,349.474 488.421 C 349.474 487.126,350.356 486.612,351.433 487.279 C 352.511 487.945,353.988 487.527,354.716 486.350 C 355.443 485.173,357.441 484.211,359.157 484.211 C 360.872 484.211,364.989 482.204,368.306 479.752 C 371.829 477.147,375.430 475.970,376.967 476.919 C 378.575 477.913,379.067 477.686,378.232 476.335 C 377.481 475.120,378.348 473.557,380.160 472.862 C 389.252 469.373,382.453 462.115,369.748 461.748 C 358.434 461.421,346.689 456.890,356.947 456.810 C 363.743 456.757,367.816 453.289,364.719 450.193 C 360.900 446.373,361.522 444.452,366.185 445.671 C 368.428 446.258,372.429 445.222,375.074 443.369 C 377.720 441.516,379.167 440.000,378.291 440.000 C 377.414 440.000,379.435 437.323,382.782 434.052 C 391.180 425.842,394.696 407.465,389.161 400.708 C 381.842 391.772,354.760 386.261,349.474 392.632 C 346.187 396.591,338.947 396.769,338.947 392.889 C 338.947 391.294,340.368 388.810,342.105 387.368 C 347.098 383.225,345.805 375.606,339.023 369.204 C 335.209 365.604,333.656 362.773,335.029 361.924 C 336.581 360.966,336.419 358.985,334.507 355.531 C 332.983 352.778,331.938 349.816,332.184 348.947 C 332.430 348.079,331.609 347.368,330.359 347.368 C 328.929 347.368,328.601 345.026,329.474 341.053 C 330.352 337.054,330.020 334.737,328.569 334.737 C 325.482 334.737,313.470 323.113,314.764 321.377 C 315.328 320.620,315.212 320.420,314.506 320.933 C 313.799 321.446,309.640 319.605,305.263 316.842 C 300.886 314.079,296.803 312.320,296.189 312.934 C 294.922 314.201,288.342 304.803,287.579 300.636 C 285.357 288.499,278.422 271.800,273.876 267.641 C 270.876 264.896,264.970 259.505,260.753 255.660 C 256.535 251.816,252.746 248.985,252.332 249.371 C 251.918 249.756,247.120 249.383,241.669 248.541 C 236.219 247.699,232.249 247.802,232.846 248.769 C 233.444 249.735,231.518 250.526,228.566 250.526 C 223.401 250.526,223.335 250.368,226.804 246.316 C 229.048 243.695,233.015 242.105,237.310 242.105 C 244.764 242.105,247.458 235.381,240.997 232.901 C 238.375 231.895,238.859 230.466,243.628 225.142 C 246.843 221.552,252.062 214.664,255.225 209.834 C 258.388 205.004,261.940 199.908,263.119 198.510 C 264.298 197.111,265.263 194.634,265.263 193.004 C 265.263 191.375,267.249 187.517,269.675 184.433 C 272.559 180.767,273.537 177.569,272.499 175.201 C 271.625 173.209,271.084 170.798,271.297 169.844 C 271.509 168.889,270.778 168.668,269.671 169.352 C 268.565 170.035,267.064 169.632,266.337 168.455 C 264.572 165.600,210.526 165.567,210.526 168.421 C 210.526 169.579,209.816 170.414,208.947 170.277 C 208.079 170.140,206.895 170.218,206.316 170.450 C 205.737 170.682,202.421 171.279,198.947 171.775 L 192.632 172.677 198.555 167.377 C 203.388 163.053,203.872 161.843,201.187 160.813 C 195.364 158.579,203.481 149.969,212.083 149.256 C 212.964 149.183,214.158 148.576,214.737 147.908 C 215.316 147.240,214.368 147.363,212.632 148.181 C 210.895 148.999,211.842 147.967,214.737 145.887 C 217.632 143.807,222.074 140.074,224.609 137.592 C 227.144 135.109,229.901 133.688,230.736 134.434 C 231.571 135.179,231.415 134.368,230.390 132.632 C 229.365 130.895,228.799 127.816,229.132 125.789 C 229.573 123.108,228.317 122.105,224.515 122.105 C 221.642 122.105,217.638 121.471,215.616 120.695 C 213.281 119.799,212.445 120.100,213.323 121.522 M110.230 134.574 C 106.593 136.792,102.984 139.630,102.211 140.882 C 101.437 142.134,99.067 143.158,96.943 143.158 C 91.146 143.158,90.423 147.989,95.113 155.396 L 99.301 162.011 107.545 157.805 C 112.757 155.146,115.789 152.130,115.789 149.606 C 115.789 147.411,116.715 145.298,117.847 144.912 C 118.979 144.526,120.518 141.132,121.268 137.368 C 122.892 129.217,120.153 128.523,110.230 134.574 M130.038 248.421 C 128.592 250.737,125.846 252.632,123.937 252.632 C 118.844 252.632,110.636 259.929,112.442 262.851 C 113.285 264.216,114.758 264.848,115.714 264.257 C 116.671 263.666,117.997 264.598,118.661 266.328 C 121.177 272.886,136.842 256.677,136.842 247.515 C 136.842 242.904,133.179 243.392,130.038 248.421 M175.180 330.000 C 167.782 340.566,175.029 345.646,183.016 335.492 C 186.360 331.241,186.831 329.257,185.016 327.071 C 181.587 322.939,179.739 323.490,175.180 330.000 " stroke="none" fill="#000000" fill-rule="evenodd"></path></g></svg>