<?xml version="1.0" standalone="no"?>
<!DOCTYPE svg PUBLIC "-//W3C//DTD SVG 20010904//EN"
 "http://www.w3.org/TR/2001/REC-SVG-20010904/DTD/svg10.dtd">
<svg version="1.0" xmlns="http://www.w3.org/2000/svg"
 width="280.000000pt" height="174.000000pt" viewBox="0 0 280.000000 174.000000"
 preserveAspectRatio="xMidYMid meet">
<metadata>
Created by potrace 1.16, written by Peter Selinger 2001-2019
</metadata>
<g transform="translate(0.000000,174.000000) scale(0.100000,-0.100000)"
fill="#000000" stroke="none">
<path d="M2446 1701 c-29 -29 -49 -41 -75 -43 -29 -2 -39 -9 -50 -33 -17 -38
-50 -75 -75 -84 -12 -5 -20 -20 -22 -40 -3 -23 -16 -44 -40 -67 -29 -26 -37
-41 -38 -71 l-1 -38 55 -1 c91 -1 95 -3 139 -45 l42 -42 67 7 c78 8 122 21
174 53 21 13 46 23 57 23 51 0 78 42 82 125 2 33 6 44 16 41 16 -7 16 -6 -3
33 -11 21 -14 44 -9 69 9 58 -22 81 -135 99 -19 3 -45 12 -58 21 -26 17 -52 3
-52 -29 0 -24 -14 -31 -45 -23 -26 6 -26 7 -7 28 22 24 35 56 24 56 -4 0 -25
-18 -46 -39z"/>
<path d="M650 1628 c-14 -5 -41 -8 -60 -7 -56 3 -70 0 -70 -15 0 -7 7 -19 15
-26 23 -19 18 -40 -10 -40 -30 0 -34 -25 -5 -33 15 -4 20 -14 20 -41 0 -22 6
-39 18 -46 14 -9 11 -11 -18 -7 -49 6 -60 0 -60 -33 0 -23 -3 -27 -20 -23 -15
4 -20 0 -20 -13 0 -15 -3 -14 -13 6 -11 22 -20 25 -76 28 -54 3 -67 0 -87 -19
-13 -12 -24 -28 -24 -36 0 -7 -7 -13 -15 -13 -18 0 -21 -50 -3 -68 8 -8 8 -15
-2 -27 -7 -9 -16 -33 -19 -53 -5 -28 -11 -38 -29 -40 -29 -4 -29 -41 0 -66
l22 -19 -21 -10 c-12 -5 -23 -19 -25 -31 -2 -17 -11 -22 -46 -24 -34 -3 -45
-8 -54 -28 -10 -20 -8 -28 10 -47 27 -28 27 -33 2 -104 -11 -32 -20 -58 -20
-59 0 -1 9 -4 20 -7 11 -3 20 -12 20 -20 0 -8 7 -17 15 -21 18 -6 20 -27 3
-23 -6 1 -14 -7 -16 -18 -2 -11 -9 -23 -16 -27 -8 -6 -7 -8 2 -8 6 0 12 -5 12
-11 0 -14 36 -60 42 -54 3 3 13 -4 23 -15 15 -16 16 -22 5 -35 -23 -28 1 -37
69 -26 57 9 65 8 84 -9 23 -22 30 -47 16 -56 -22 -13 -5 -24 37 -24 l46 0 -25
-30 c-14 -16 -28 -39 -32 -50 -3 -11 -11 -20 -16 -20 -5 0 -9 -15 -9 -33 0
-18 -4 -37 -9 -42 -13 -14 -18 -120 -6 -120 61 3 147 20 156 31 13 16 45 19
54 5 3 -6 28 -7 55 -4 40 5 54 2 70 -12 11 -10 20 -23 20 -29 0 -28 100 -60
115 -36 8 13 62 13 70 0 9 -15 101 -12 114 3 6 8 23 12 41 9 20 -3 37 2 49 12
13 12 21 14 26 7 3 -6 16 -11 28 -11 12 0 31 -7 41 -15 29 -22 56 -19 56 5 0
11 -4 20 -10 20 -5 0 -10 9 -10 19 0 11 -5 23 -10 26 -7 4 -7 12 0 25 5 10 10
32 10 48 0 22 11 41 40 68 45 43 48 54 20 79 -11 10 -20 23 -20 30 0 17 -33
45 -54 45 -9 0 -25 13 -34 30 -9 16 -20 30 -24 30 -15 0 -8 41 7 46 20 8 19
41 -2 53 -15 8 -16 12 -4 35 10 18 49 43 127 81 62 30 116 59 119 65 3 5 17
10 31 10 15 0 24 6 24 15 0 8 6 15 14 15 7 0 19 -7 26 -15 14 -17 66 -20 75
-5 11 18 56 11 74 -12 11 -13 34 -23 62 -27 35 -5 45 -10 47 -28 3 -21 47 -73
63 -73 4 0 14 6 22 14 22 22 134 10 142 -15 6 -19 65 -57 65 -43 0 4 10 -1 23
-12 29 -26 144 -26 163 0 7 10 15 17 18 17 25 -3 28 2 22 39 -3 22 -9 59 -12
82 -8 49 -64 108 -104 108 -45 0 -70 12 -76 35 -3 13 -15 26 -27 29 -12 3 -30
19 -39 36 -19 34 -33 37 -67 13 -24 -16 -25 -15 -54 20 -16 21 -34 37 -41 37
-7 0 -28 17 -48 38 -29 29 -37 46 -39 81 -4 50 15 71 67 71 19 0 34 6 37 14 3
8 32 27 64 42 70 33 82 48 83 96 0 29 -5 40 -22 49 -45 24 -40 49 10 49 19 0
22 5 22 39 0 22 8 48 19 62 24 32 32 86 13 94 -25 9 -52 5 -135 -22 -45 -14
-102 -41 -126 -60 -24 -18 -54 -33 -65 -33 -12 0 -68 -14 -126 -31 -58 -17
-114 -33 -125 -35 -11 -3 -44 4 -73 15 -29 12 -63 21 -76 21 -13 0 -30 8 -37
18 -13 16 -12 16 4 2 17 -12 20 -12 28 2 5 10 17 14 29 11 24 -6 27 12 3 21
-15 6 -15 8 -3 17 12 8 12 12 2 16 -7 2 -19 11 -26 19 -21 21 -30 18 -50 -21
-15 -28 -22 -33 -37 -25 -33 18 -66 10 -105 -25 -21 -20 -48 -35 -62 -35 -13
0 -37 -9 -53 -21 -23 -16 -38 -19 -69 -14 -22 4 -40 9 -40 11 0 3 7 16 16 29
13 20 14 28 4 40 -9 11 -16 12 -30 3 -14 -9 -25 -9 -47 2 -15 8 -32 14 -38 15
-5 0 -16 4 -22 8 -7 5 -17 5 -23 2 -5 -3 -10 -1 -10 4 0 6 5 11 11 11 13 0
-13 37 -38 55 -12 9 -26 10 -43 3z"/>
</g>
</svg>
