<svg id="svg" xmlns="http://www.w3.org/2000/svg" xmlns:xlink="http://www.w3.org/1999/xlink" width="400" height="375.9717314487633" viewBox="0, 0, 400,375.9717314487633"><g id="svgg"><path id="path0" d="M347.210 73.006 C 341.712 78.946,339.337 80.497,335.206 80.842 C 331.062 81.188,329.672 82.101,328.096 85.512 C 325.621 90.867,320.934 96.123,317.464 97.434 C 315.764 98.077,314.601 100.146,314.277 103.102 C 313.933 106.248,312.105 109.281,308.643 112.452 C 304.579 116.175,303.483 118.262,303.349 122.531 L 303.180 127.915 310.954 128.030 C 323.845 128.221,324.422 128.410,330.602 134.468 L 336.566 140.314 345.141 139.418 C 356.409 138.240,364.253 135.891,370.293 131.886 C 373.000 130.091,376.605 128.622,378.304 128.622 C 385.569 128.622,390.106 122.274,390.106 112.111 C 390.106 109.440,390.675 107.606,391.371 108.036 C 393.777 109.523,394.194 104.723,392.035 100.395 C 390.594 97.506,390.168 94.273,390.765 90.742 C 392.142 82.593,387.700 79.324,371.737 76.736 C 369.019 76.295,365.359 74.993,363.603 73.843 C 359.893 71.411,356.184 73.404,356.184 77.828 C 356.184 81.258,354.257 82.259,349.805 81.141 C 346.174 80.230,346.160 80.177,348.764 77.211 C 351.296 74.328,355.314 66.317,354.470 65.833 C 354.246 65.705,350.979 68.933,347.210 73.006 M91.873 85.073 C 89.929 85.798,86.113 86.264,83.392 86.108 C 73.301 85.529,70.488 87.615,75.618 91.873 C 78.906 94.602,78.175 97.527,74.205 97.527 C 69.958 97.527,69.414 101.108,73.498 102.176 C 75.654 102.740,76.325 104.104,76.325 107.925 C 76.325 111.153,77.205 113.494,78.799 114.510 C 80.822 115.799,80.371 115.975,76.325 115.476 C 69.462 114.630,67.845 115.516,67.845 120.127 C 67.845 123.421,67.352 123.988,65.018 123.378 C 62.957 122.839,62.161 123.354,62.079 125.277 C 61.995 127.266,61.765 127.400,61.145 125.820 C 57.517 116.577,33.922 118.777,33.922 128.360 C 33.922 129.281,32.968 130.035,31.802 130.035 C 29.238 130.035,28.878 137.147,31.318 139.587 C 32.558 140.826,32.501 141.770,31.084 143.477 C 30.055 144.717,28.833 148.083,28.368 150.957 C 27.720 154.971,26.790 156.289,24.363 156.635 C 20.250 157.223,20.020 163.226,24.028 165.371 C 27.602 167.284,27.637 169.173,24.118 170.290 C 22.612 170.767,21.181 172.559,20.938 174.272 C 20.572 176.845,19.441 177.461,14.419 177.823 C 6.352 178.405,3.472 183.361,8.247 188.444 C 11.998 192.437,12.009 193.127,8.481 203.167 C 6.926 207.590,5.654 211.316,5.654 211.447 C 5.654 211.578,6.926 212.017,8.481 212.424 C 10.035 212.830,11.307 214.108,11.307 215.264 C 11.307 216.420,12.261 217.732,13.428 218.179 C 15.931 219.140,16.311 222.068,13.865 221.555 C 12.939 221.360,11.912 222.473,11.581 224.028 C 11.251 225.583,10.259 227.322,9.377 227.894 C 8.228 228.638,8.275 228.938,9.541 228.954 C 10.512 228.966,11.298 229.770,11.286 230.742 C 11.274 231.714,13.954 234.823,17.243 237.652 C 22.506 242.178,22.990 243.075,21.282 245.132 C 17.909 249.197,21.196 250.467,31.001 248.888 C 41.333 247.224,51.690 253.958,45.081 258.043 C 42.431 259.680,45.552 261.484,51.035 261.484 L 56.673 261.484 52.094 268.198 C 49.575 271.890,47.000 275.124,46.372 275.383 C 45.744 275.642,45.230 277.900,45.230 280.400 C 45.230 282.901,44.651 285.551,43.944 286.290 C 42.115 288.199,41.372 303.195,43.110 303.115 C 51.755 302.715,63.861 300.334,65.151 298.780 C 67.012 296.537,71.517 296.170,72.747 298.162 C 73.208 298.907,76.713 299.133,80.626 298.669 C 87.730 297.828,93.271 300.361,93.295 304.459 C 93.318 308.478,107.463 312.902,109.541 309.541 C 110.675 307.705,118.300 307.705,119.435 309.541 C 120.738 311.650,133.663 311.275,135.489 309.075 C 136.419 307.954,138.794 307.452,141.372 307.830 C 144.173 308.241,146.621 307.626,148.325 306.084 C 150.052 304.521,151.276 304.220,151.887 305.208 C 152.398 306.036,154.211 306.734,155.914 306.759 C 157.617 306.783,160.245 307.738,161.754 308.879 C 167.431 313.173,171.131 311.107,168.198 305.281 C 167.420 303.737,166.207 301.304,165.501 299.874 C 164.745 298.343,164.736 296.454,165.479 295.280 C 166.173 294.183,166.751 291.347,166.763 288.977 C 166.778 285.891,168.388 282.999,172.438 278.785 C 178.927 272.031,179.110 271.324,175.265 267.845 C 173.710 266.437,172.438 264.529,172.438 263.604 C 172.438 261.204,167.708 257.244,164.841 257.244 C 163.505 257.244,161.329 255.340,160.005 253.012 C 158.681 250.685,157.120 248.777,156.537 248.772 C 154.546 248.755,155.471 243.023,157.597 242.207 C 160.472 241.104,160.281 236.498,157.291 234.825 C 152.159 231.953,157.767 226.661,174.702 218.394 C 183.466 214.117,191.031 209.977,191.514 209.195 C 191.998 208.414,193.946 207.774,195.843 207.774 C 197.968 207.774,199.293 206.959,199.293 205.654 C 199.293 204.488,200.169 203.534,201.240 203.534 C 202.311 203.534,203.979 204.488,204.947 205.654 C 206.927 208.040,214.210 208.525,215.548 206.360 C 217.096 203.855,223.502 204.856,226.049 208.002 C 227.619 209.941,230.800 211.361,234.756 211.889 C 239.760 212.557,241.076 213.326,241.427 215.792 C 242.351 222.282,249.951 227.585,253.394 224.143 C 256.493 221.044,272.434 222.794,273.564 226.357 C 274.374 228.907,282.686 234.321,282.686 232.299 C 282.686 231.755,284.117 232.550,285.866 234.067 C 289.757 237.441,306.214 237.724,308.237 234.451 C 308.897 233.383,310.097 232.429,310.903 232.332 C 311.708 232.235,313.070 232.076,313.929 231.979 C 315.449 231.807,315.366 230.380,312.980 215.548 C 311.647 207.265,303.630 199.293,296.634 199.293 C 291.324 199.293,286.926 196.435,286.926 192.985 C 286.926 191.959,285.378 190.731,283.486 190.256 C 281.595 189.781,279.644 188.121,279.150 186.568 C 277.654 181.854,273.186 180.335,268.961 183.103 C 265.407 185.432,265.215 185.384,260.929 181.084 C 258.513 178.661,253.578 174.111,249.961 170.972 C 239.190 161.624,240.002 148.410,251.347 148.410 C 253.200 148.410,256.605 146.820,258.915 144.876 C 261.225 142.933,263.924 141.343,264.914 141.343 C 275.778 141.343,281.887 126.502,273.938 119.419 C 269.099 115.108,269.078 115.151,277.385 112.530 C 279.127 111.980,279.859 110.272,279.859 106.758 C 279.859 103.761,280.918 100.707,282.510 99.115 C 285.864 95.762,287.141 86.604,284.402 85.553 C 278.561 83.312,256.536 90.160,247.471 97.035 C 244.040 99.637,239.905 101.771,238.284 101.776 C 236.662 101.780,228.657 103.730,220.495 106.108 C 212.332 108.487,204.365 110.756,202.790 111.151 C 201.215 111.546,196.580 110.550,192.491 108.938 C 188.401 107.326,183.566 106.007,181.746 106.007 C 179.927 106.007,177.565 104.894,176.498 103.534 C 174.718 101.263,174.773 101.229,177.169 103.113 C 179.468 104.923,179.930 104.896,181.052 102.892 C 181.833 101.496,183.419 100.902,185.156 101.356 C 188.609 102.259,188.953 99.614,185.552 98.308 C 183.454 97.504,183.406 97.175,185.199 95.929 C 186.797 94.820,186.863 94.316,185.487 93.759 C 184.502 93.360,182.798 92.137,181.701 91.040 C 178.751 88.089,177.590 88.547,174.778 93.769 C 172.312 98.348,172.070 98.449,166.864 97.059 C 161.821 95.713,161.108 95.942,155.160 100.817 C 151.676 103.671,147.399 106.007,145.656 106.007 C 143.912 106.007,140.624 107.333,138.349 108.953 C 135.069 111.288,133.047 111.702,128.590 110.949 C 122.165 109.863,122.195 109.915,125.256 105.244 C 128.212 100.731,125.731 96.660,121.596 99.242 C 119.667 100.447,117.903 100.350,114.297 98.842 C 111.681 97.748,109.223 96.835,108.834 96.814 C 108.445 96.794,107.332 96.272,106.360 95.655 C 105.389 95.038,103.958 94.926,103.180 95.406 C 102.403 95.887,101.767 95.606,101.767 94.783 C 101.767 93.960,102.439 93.286,103.260 93.286 C 105.130 93.286,101.554 88.028,98.009 85.564 C 96.193 84.301,94.338 84.153,91.873 85.073 " stroke="none" fill="#000000" fill-rule="evenodd"></path></g></svg>