<svg id="svg" xmlns="http://www.w3.org/2000/svg" xmlns:xlink="http://www.w3.org/1999/xlink" width="400" height="291.0569105691057" viewBox="0, 0, 400,291.0569105691057"><g id="svgg"><path id="path0" d="M118.699 11.404 C 117.358 12.283,113.333 12.617,109.756 12.146 C 100.212 10.890,97.607 13.146,101.327 19.443 C 103.496 23.116,103.701 24.397,102.124 24.415 C 96.554 24.480,95.017 27.585,99.020 30.687 C 103.885 34.458,104.882 44.938,100.484 46.087 C 98.962 46.484,97.400 45.972,97.013 44.949 C 96.020 42.329,91.176 48.794,91.096 52.846 C 91.023 56.547,82.927 61.415,82.927 57.758 C 82.927 54.106,75.183 50.407,67.537 50.407 C 63.481 50.407,60.163 51.015,60.163 51.758 C 60.163 52.501,58.277 54.118,55.973 55.351 C 52.919 56.985,51.973 58.580,52.480 61.235 C 53.004 63.976,52.331 64.998,49.759 65.366 C 46.246 65.867,43.703 73.171,47.041 73.171 C 49.663 73.171,49.129 80.614,46.341 82.927 C 45.000 84.040,43.902 87.399,43.902 90.392 C 43.902 94.081,43.247 95.581,41.867 95.052 C 37.828 93.502,35.615 100.166,39.116 103.335 C 43.191 107.022,43.150 111.613,39.024 113.821 C 37.236 114.778,35.772 116.999,35.772 118.756 C 35.772 121.455,34.645 121.951,28.512 121.951 C 18.699 121.951,15.832 126.504,21.131 133.671 C 25.037 138.954,24.704 146.004,20.131 154.846 C 17.875 159.209,18.016 159.644,23.510 165.302 C 28.483 170.422,28.908 171.450,26.718 173.051 C 21.431 176.917,23.293 185.388,30.845 191.828 C 36.239 196.428,37.572 198.517,36.755 201.093 C 34.965 206.731,38.871 208.349,49.522 206.380 C 60.518 204.347,66.670 207.917,66.137 216.021 C 65.877 219.975,66.416 220.366,72.764 220.825 C 78.371 221.231,83.250 224.390,78.270 224.390 C 75.474 224.390,68.224 236.987,66.045 245.629 C 63.183 256.986,61.515 268.160,62.454 269.680 C 63.564 271.477,87.347 267.779,89.676 265.447 C 91.987 263.134,96.954 262.742,98.209 264.774 C 98.671 265.521,102.988 265.806,107.802 265.407 C 115.857 264.739,116.839 265.043,120.130 269.226 C 127.088 278.073,138.815 282.605,140.872 277.244 C 141.872 274.638,153.706 275.389,156.829 278.257 C 159.354 280.574,170.169 279.874,172.345 277.251 C 173.632 275.701,175.776 275.185,178.300 275.818 C 180.906 276.472,183.329 275.827,185.438 273.918 C 188.891 270.793,197.545 272.332,206.229 277.616 C 210.696 280.334,216.317 279.081,213.280 276.044 C 212.236 275.000,211.382 272.890,211.382 271.355 C 211.382 269.820,210.471 268.260,209.356 267.888 C 206.739 267.016,206.735 261.591,209.350 258.827 C 210.467 257.645,211.382 254.273,211.382 251.332 C 211.382 247.414,213.113 244.020,217.865 238.622 C 223.458 232.267,224.014 230.981,221.919 229.241 C 220.583 228.133,218.579 225.307,217.467 222.962 C 216.354 220.618,212.883 217.434,209.754 215.887 C 198.872 210.507,194.383 202.057,199.439 196.469 C 201.949 193.696,201.927 193.271,199.112 190.161 C 194.591 185.166,198.859 179.051,210.018 174.537 C 214.793 172.605,219.431 170.386,220.325 169.605 C 221.220 168.825,225.369 166.891,229.547 165.308 C 233.724 163.725,238.021 161.371,239.095 160.077 C 240.170 158.783,242.031 157.724,243.231 157.724 C 244.432 157.724,246.163 156.324,247.079 154.613 C 249.036 150.955,252.113 151.068,255.985 154.940 C 258.983 157.937,266.667 158.770,266.667 156.098 C 266.667 153.024,277.738 154.291,280.079 157.633 C 281.450 159.591,285.347 161.306,290.318 162.139 C 296.443 163.166,298.480 164.247,298.923 166.702 C 300.335 174.534,309.220 180.512,313.693 176.640 C 316.571 174.150,337.221 174.892,335.653 177.429 C 335.166 178.217,335.585 178.862,336.585 178.862 C 337.585 178.862,338.017 179.486,337.545 180.250 C 336.635 181.723,343.389 185.366,347.032 185.366 C 348.222 185.366,350.050 186.395,351.094 187.653 C 357.526 195.403,388.444 186.244,386.206 177.252 C 385.648 175.007,384.609 170.022,383.897 166.173 C 382.293 157.498,372.207 146.353,365.930 146.319 C 358.711 146.281,354.922 144.558,353.058 140.467 C 352.062 138.282,349.961 136.054,348.388 135.517 C 346.815 134.979,343.586 132.277,341.213 129.513 C 337.234 124.879,336.583 124.655,332.870 126.642 C 327.843 129.333,323.027 127.900,319.620 122.701 C 318.178 120.500,316.240 118.699,315.314 118.699 C 312.595 118.699,300.828 108.608,301.770 107.084 C 302.244 106.318,302.003 105.691,301.235 105.691 C 300.468 105.691,300.149 103.046,300.526 99.813 C 300.973 95.987,300.433 93.421,298.980 92.463 C 295.797 90.364,303.021 84.553,308.814 84.553 C 329.002 84.553,347.255 64.043,337.443 52.382 C 332.713 46.761,333.121 44.521,339.304 42.170 C 342.546 40.937,343.234 39.692,342.825 35.795 C 342.345 31.214,345.473 25.560,349.251 24.181 C 350.160 23.849,351.158 20.650,351.468 17.073 L 352.033 10.569 344.697 10.647 C 334.053 10.760,314.133 17.510,305.831 23.816 C 301.883 26.815,297.288 29.268,295.619 29.268 C 290.451 29.268,258.421 37.753,256.391 39.660 C 254.371 41.558,248.538 42.113,247.154 40.538 C 245.331 38.464,232.129 34.146,227.609 34.146 C 221.330 34.146,221.351 31.463,227.641 30.082 C 231.963 29.132,232.395 28.517,231.437 24.668 C 229.288 16.037,221.599 13.549,220.108 21.003 C 219.174 25.676,219.034 25.732,210.494 24.851 C 202.573 24.033,201.277 24.394,195.396 29.051 C 191.311 32.286,187.119 34.146,183.912 34.146 C 181.135 34.146,178.862 34.699,178.862 35.375 C 178.862 38.119,169.154 40.807,163.245 39.698 C 158.013 38.717,157.552 38.294,159.868 36.600 C 161.344 35.521,162.075 34.161,161.492 33.579 C 160.910 32.997,161.287 32.520,162.331 32.520 C 164.892 32.520,164.764 27.705,162.195 27.406 C 161.077 27.277,157.602 26.992,154.472 26.774 C 144.055 26.049,133.543 22.484,134.496 20.001 C 136.743 14.145,124.601 7.537,118.699 11.404 " stroke="none" fill="#000000" fill-rule="evenodd"></path></g></svg>