<svg id="svg" version="1.1" xmlns="http://www.w3.org/2000/svg" xmlns:xlink="http://www.w3.org/1999/xlink" width="400" height="383.33333333333337" viewBox="0, 0, 400,383.33333333333337"><g id="svgg"><path id="path0" d="M276.560 21.019 C 277.821 36.918,234.709 44.421,215.273 31.686 C 210.955 28.857,205.768 27.819,201.409 28.913 C 196.997 30.021,194.444 29.490,194.444 27.465 C 194.444 22.754,171.753 26.418,167.847 31.760 C 165.682 34.721,160.157 36.111,150.552 36.111 C 142.790 36.111,135.766 37.200,134.944 38.530 C 132.205 42.962,115.896 44.525,106.781 41.229 C 98.322 38.171,97.060 38.599,85.697 48.388 C 75.200 57.431,72.229 58.620,63.094 57.429 C 50.979 55.849,43.861 63.238,43.345 77.932 C 43.173 82.804,41.778 85.671,39.922 84.963 C 35.322 83.208,30.556 89.054,30.556 96.448 C 30.556 100.631,28.116 104.009,23.611 106.061 C 18.647 108.323,16.667 111.410,16.667 116.885 C 16.667 121.099,15.888 126.576,14.935 129.058 C 13.735 132.186,17.693 137.697,27.845 147.030 L 42.487 160.491 36.471 168.939 C 29.566 178.637,33.273 183.985,41.647 176.407 C 46.587 171.936,47.174 172.255,54.069 183.179 C 58.050 189.484,62.825 194.450,64.681 194.215 C 66.537 193.979,71.493 193.934,75.694 194.115 C 84.037 194.475,86.481 200.000,78.297 200.000 C 75.528 200.000,69.653 203.766,65.243 208.370 L 57.225 216.739 70.607 230.326 C 79.698 239.555,83.259 245.096,81.710 247.602 C 77.680 254.123,78.620 260.118,84.909 268.005 C 91.000 275.644,97.222 275.587,97.222 267.892 C 97.222 265.690,98.254 263.889,99.516 263.889 C 103.445 263.889,113.889 276.515,113.889 281.265 C 113.889 288.661,118.922 289.513,122.459 282.717 C 124.270 279.236,126.155 275.921,126.648 275.349 C 127.140 274.777,131.442 277.589,136.207 281.599 C 140.972 285.608,145.838 288.889,147.021 288.889 C 150.347 288.889,145.570 263.660,140.053 252.090 C 134.540 240.529,136.387 235.990,144.533 241.077 C 159.355 250.334,170.842 240.750,158.310 229.583 C 140.928 214.097,160.152 206.142,179.428 220.844 C 184.444 224.670,189.276 226.621,190.167 225.180 C 192.449 221.486,188.751 199.422,185.037 194.574 C 183.336 192.353,185.343 192.978,189.496 195.963 C 193.649 198.947,197.087 202.282,197.135 203.374 C 197.292 206.938,207.823 211.133,212.299 209.415 C 218.826 206.911,217.567 202.778,210.278 202.778 C 201.958 202.778,197.244 197.846,197.134 189.028 C 197.045 181.903,190.902 171.135,188.370 173.667 C 185.600 176.437,167.799 168.185,160.203 160.609 C 155.884 156.302,153.697 152.778,155.342 152.778 C 161.210 152.778,158.104 146.369,141.667 124.554 C 123.211 100.062,123.780 101.550,128.110 89.131 C 131.215 80.223,131.228 80.218,137.137 85.592 C 140.392 88.551,145.868 92.423,149.306 94.195 C 152.743 95.968,155.556 99.157,155.556 101.283 C 155.556 103.409,159.306 107.019,163.889 109.306 C 172.653 113.678,175.143 111.437,168.056 105.556 C 163.396 101.689,162.537 97.222,166.454 97.222 C 167.864 97.222,172.754 100.366,177.320 104.207 C 187.089 112.428,191.433 107.748,182.829 98.272 C 175.924 90.667,181.941 87.524,192.710 93.111 C 196.719 95.191,200.000 95.995,200.000 94.897 C 200.000 91.792,188.550 82.747,186.815 84.481 C 185.517 85.780,177.778 73.821,177.778 70.516 C 177.778 69.927,182.625 69.444,188.549 69.444 C 194.994 69.444,200.788 67.675,202.977 65.038 C 205.473 62.030,209.179 61.141,214.655 62.237 C 219.067 63.119,225.081 62.554,228.020 60.981 C 233.392 58.107,260.389 61.572,274.306 66.922 C 278.315 68.464,280.556 68.292,280.556 66.443 C 280.556 64.858,281.913 64.400,283.573 65.426 C 285.599 66.678,286.284 63.767,285.656 56.562 C 284.887 47.728,285.784 45.367,290.739 43.192 C 296.958 40.461,299.287 32.276,297.722 18.649 C 296.249 5.821,275.538 8.140,276.560 21.019 M144.444 151.389 C 144.444 153.681,143.194 155.556,141.667 155.556 C 140.139 155.556,138.889 153.681,138.889 151.389 C 138.889 149.097,140.139 147.222,141.667 147.222 C 143.194 147.222,144.444 149.097,144.444 151.389 M128.953 199.069 C 134.287 201.612,138.058 204.652,137.334 205.824 C 136.610 206.996,132.601 206.173,128.425 203.995 C 124.250 201.816,119.271 200.027,117.361 200.017 C 115.451 200.008,113.889 198.750,113.889 197.222 C 113.889 193.280,117.825 193.762,128.953 199.069 M357.350 295.701 C 349.363 303.103,347.444 315.860,353.942 318.354 C 362.578 321.668,383.777 299.126,379.116 291.585 C 376.074 286.663,364.802 288.794,357.350 295.701 M325.083 324.845 C 320.914 332.634,322.456 343.056,327.778 343.056 C 330.482 343.056,332.259 339.763,332.841 333.675 C 333.981 321.753,329.480 316.630,325.083 324.845 M169.950 332.181 C 154.284 343.153,161.705 351.551,191.693 356.786 C 206.304 359.337,215.633 362.434,217.854 365.472 C 224.225 374.185,285.963 367.703,291.535 357.737 C 296.504 348.852,291.897 340.325,285.556 346.667 C 281.182 351.040,270.225 350.949,268.746 346.528 C 268.108 344.618,263.316 342.817,258.098 342.525 C 252.880 342.234,238.242 341.494,225.569 340.881 C 205.897 339.931,201.919 338.899,198.365 333.825 C 194.904 328.884,193.324 328.430,188.993 331.135 C 185.036 333.606,182.850 333.613,179.897 331.162 C 176.904 328.678,174.616 328.912,169.950 332.181 " stroke="none" fill="#000000" fill-rule="evenodd"></path></g></svg>