<svg id="svg" version="1.1" xmlns="http://www.w3.org/2000/svg" xmlns:xlink="http://www.w3.org/1999/xlink" width="400" height="240.7079646017699" viewBox="0, 0, 400,240.7079646017699"><g id="svgg"><path id="path0" d="M292.197 24.518 C 291.082 26.322,281.803 26.934,271.576 25.878 C 253.533 24.016,252.373 24.455,232.392 40.732 C 214.298 55.471,210.793 57.046,203.487 53.717 C 196.729 50.638,193.449 51.285,185.960 57.176 C 179.492 62.263,174.034 63.742,167.645 62.138 C 156.887 59.439,143.220 67.173,139.820 77.884 C 137.044 86.633,77.279 87.761,67.191 79.255 C 58.353 71.802,48.237 75.925,40.818 90.004 C 34.802 101.423,32.458 103.027,23.675 101.738 C 14.266 100.357,13.644 100.963,15.408 109.783 C 16.457 115.029,16.002 120.749,14.397 122.493 C 4.313 133.449,6.790 168.896,18.605 182.706 C 29.693 195.666,33.020 197.743,46.018 199.825 C 48.938 200.292,51.327 202.823,51.327 205.449 C 51.327 222.531,122.587 234.669,135.947 219.863 C 139.656 215.752,146.091 212.389,150.247 212.389 C 154.404 212.389,167.169 209.950,178.615 206.969 C 192.908 203.246,200.568 202.692,203.075 205.199 C 212.964 215.087,273.084 200.160,281.042 185.840 C 283.195 181.967,294.577 166.843,306.337 152.231 C 318.096 137.619,331.126 120.081,335.292 113.258 C 339.458 106.434,349.497 96.877,357.600 92.019 C 389.345 72.985,398.311 56.637,377.003 56.637 C 374.565 56.637,366.398 50.929,358.852 43.953 C 346.434 32.473,343.713 31.457,330.171 33.255 C 317.688 34.911,314.588 34.080,311.462 28.240 C 307.595 21.015,295.773 18.731,292.197 24.518 " stroke="none" fill="#000000" fill-rule="evenodd"></path></g></svg>