<svg id="svg" xmlns="http://www.w3.org/2000/svg" xmlns:xlink="http://www.w3.org/1999/xlink" width="400" height="190.0552486187845" viewBox="0, 0, 400,190.0552486187845"><g id="svgg"><path id="path0" d="M283.945 8.894 C 283.175 10.139,283.195 14.117,283.990 17.733 C 285.570 24.929,284.474 25.452,269.941 24.432 C 264.516 24.052,260.930 25.450,256.536 29.659 L 250.538 35.406 245.326 29.858 C 238.614 22.713,225.004 22.099,220.358 28.730 L 217.262 33.152 213.261 28.730 C 204.965 19.564,179.006 27.955,179.006 39.804 L 179.006 46.615 173.635 42.645 C 170.681 40.461,167.791 36.934,167.212 34.807 C 166.434 31.946,163.866 30.939,157.349 30.939 C 147.296 30.939,145.856 33.012,145.856 47.488 C 145.856 55.933,145.346 56.911,141.469 55.898 C 139.057 55.267,135.327 55.522,133.182 56.466 C 131.037 57.410,128.287 58.270,127.072 58.378 C 125.856 58.487,124.858 60.480,124.853 62.808 C 124.840 68.277,119.421 70.170,119.075 64.825 C 118.735 59.553,118.704 59.875,120.456 50.476 C 124.155 30.638,69.552 -1.324,56.535 13.060 C 52.914 17.061,52.919 17.393,56.640 19.475 C 63.026 23.049,56.264 29.472,47.596 28.066 C 38.730 26.627,26.464 35.491,30.534 40.396 C 33.345 43.783,29.317 48.773,21.547 51.528 C 19.420 52.283,17.680 54.423,17.680 56.284 C 17.680 58.146,15.812 59.669,13.530 59.669 C 8.553 59.669,3.468 65.181,5.465 68.411 C 6.249 69.680,8.699 70.718,10.910 70.718 C 13.120 70.718,16.166 72.210,17.680 74.033 C 20.751 77.734,30.939 78.583,30.939 75.138 C 30.939 73.923,34.337 72.928,38.490 72.928 C 42.643 72.928,46.435 71.744,46.918 70.297 C 48.088 66.785,77.348 64.818,77.348 68.251 C 77.348 69.608,78.467 70.470,79.834 70.166 C 84.841 69.053,83.920 74.422,78.616 77.261 C 75.612 78.869,72.854 82.281,72.488 84.844 C 72.040 87.982,70.121 89.588,66.608 89.765 C 63.740 89.909,60.756 91.004,59.978 92.196 C 58.604 94.303,49.610 96.160,28.330 98.731 C 18.798 99.882,18.020 100.437,18.429 105.791 L 18.873 111.602 49.216 112.217 L 79.558 112.832 79.558 118.868 C 79.558 122.482,81.307 125.996,83.916 127.625 C 86.493 129.234,87.747 131.722,86.984 133.710 C 86.274 135.560,86.847 138.463,88.258 140.163 C 91.978 144.646,87.375 146.844,74.057 146.943 C 62.098 147.031,60.088 149.471,62.863 160.529 L 64.239 166.012 94.215 165.547 C 112.845 165.257,124.736 165.941,125.631 167.353 C 126.423 168.602,131.234 170.320,136.321 171.170 C 142.239 172.159,146.718 174.466,148.754 177.574 C 158.539 192.508,243.094 191.582,243.094 176.541 C 243.094 174.250,244.586 172.376,246.409 172.376 C 248.232 172.376,249.724 171.381,249.724 170.166 C 249.724 168.950,254.696 167.956,260.773 167.956 C 266.851 167.956,271.823 166.961,271.823 165.746 C 271.823 164.530,276.249 163.536,281.658 163.536 C 287.475 163.536,292.215 162.337,293.260 160.601 C 296.887 154.577,325.918 141.428,335.542 141.450 C 347.247 141.476,364.359 132.141,366.997 124.289 C 368.328 120.328,370.214 117.579,371.189 118.182 C 373.966 119.898,384.530 110.600,384.530 106.441 C 384.530 104.386,386.768 101.724,389.503 100.524 C 395.147 98.048,397.695 83.664,393.405 78.496 C 391.709 76.451,391.664 75.087,393.263 74.099 C 402.927 68.127,393.817 59.669,377.720 59.669 C 367.116 59.669,366.851 59.506,366.851 53.039 C 366.851 47.882,365.869 46.409,362.431 46.409 C 359.292 46.409,358.011 44.936,358.011 41.326 C 358.011 35.224,354.174 30.939,348.711 30.939 C 345.267 30.939,345.096 30.327,347.474 26.519 C 348.992 24.088,351.984 22.099,354.123 22.099 C 356.261 22.099,358.011 20.608,358.011 18.785 C 358.011 14.232,339.675 14.232,335.122 18.785 C 330.215 23.692,320.442 23.126,320.442 17.934 C 320.442 9.050,288.706 1.189,283.945 8.894 " stroke="none" fill="#000000" fill-rule="evenodd"></path></g></svg>