<svg id="svg" xmlns="http://www.w3.org/2000/svg" xmlns:xlink="http://www.w3.org/1999/xlink" width="400" height="442.10526315789474" viewBox="0, 0, 400,442.10526315789474"><g id="svgg"><path id="path0" d="M240.759 64.349 C 238.252 67.370,225.499 70.161,211.822 70.682 C 186.153 71.661,172.632 80.614,172.632 96.633 C 172.632 100.636,167.788 106.118,161.868 108.816 C 147.911 115.175,152.115 121.418,172.554 124.687 C 191.650 127.740,191.386 135.989,171.976 142.756 C 162.100 146.198,159.931 148.940,161.980 155.395 C 164.705 163.979,123.590 166.691,110.853 158.768 C 93.937 148.243,57.750 159.395,68.421 171.844 C 71.770 175.751,75.673 182.231,77.095 186.245 C 78.667 190.680,82.221 192.568,86.156 191.057 C 97.399 186.743,93.384 200.411,81.868 205.658 C 75.948 208.355,72.147 212.250,73.423 214.314 C 74.698 216.377,72.910 219.151,69.450 220.479 C 59.220 224.405,62.257 235.678,74.737 240.106 C 81.105 242.366,89.606 246.108,93.627 248.423 C 97.648 250.738,108.543 252.632,117.838 252.632 C 137.419 252.632,139.681 258.222,123.281 266.086 C 116.980 269.107,109.509 276.227,106.677 281.908 C 103.846 287.588,97.252 295.462,92.025 299.405 C 84.580 305.021,83.569 307.838,87.362 312.408 C 91.139 316.959,90.399 319.368,83.996 323.367 C 79.483 326.186,75.789 331.204,75.789 334.518 C 75.789 338.357,70.410 341.019,60.965 341.851 C 44.219 343.327,39.256 350.875,53.684 352.924 C 66.046 354.680,65.671 359.490,52.497 368.122 C 36.624 378.523,43.885 384.580,68.990 381.880 C 83.902 380.276,87.612 380.722,81.053 383.330 C 68.924 388.153,68.795 395.789,80.842 395.789 C 88.047 395.789,88.982 396.912,85.053 400.842 C 76.128 409.767,79.478 411.101,105.991 409.184 C 135.447 407.053,165.213 395.477,174.189 382.662 C 179.089 375.666,181.850 374.867,188.614 378.488 C 195.438 382.140,199.770 380.747,212.121 370.932 C 225.144 360.583,232.424 358.475,264.157 355.866 C 284.450 354.198,303.297 351.001,306.040 348.761 C 313.559 342.623,328.421 312.418,328.421 303.277 C 328.421 298.853,330.459 293.974,332.949 292.435 C 338.721 288.868,333.782 231.814,325.716 208.880 C 319.676 191.706,323.236 181.053,335.014 181.053 C 338.072 181.053,343.051 177.612,346.077 173.407 C 349.103 169.202,354.895 164.524,358.947 163.013 C 371.946 158.164,368.338 142.537,354.737 144.773 C 348.368 145.820,341.625 146.832,339.752 147.022 C 337.878 147.213,337.482 149.208,338.871 151.456 C 343.547 159.021,300.571 164.924,294.456 157.556 C 291.956 154.544,287.452 153.023,284.446 154.176 C 281.440 155.330,278.003 153.724,276.808 150.608 C 274.980 145.846,266.188 144.762,247.739 147.026 C 246.206 147.214,245.496 152.323,246.161 158.379 C 247.469 170.294,220.326 171.538,208.964 160.083 C 205.418 156.508,206.350 155.990,212.632 158.042 C 218.990 160.120,219.599 159.761,215.119 156.576 C 211.855 154.256,206.644 153.333,203.540 154.524 C 195.756 157.511,196.391 145.437,204.366 138.818 C 207.925 135.864,210.294 129.495,209.629 124.665 C 208.965 119.834,210.789 115.624,213.684 115.309 C 216.579 114.994,221.836 114.500,225.367 114.211 C 231.103 113.740,239.384 99.156,241.688 85.465 C 242.156 82.682,245.762 76.844,249.700 72.492 C 253.638 68.140,255.593 63.312,254.044 61.764 C 249.825 57.544,245.748 58.337,240.759 64.349 M147.368 303.158 C 147.368 305.474,145.000 307.394,142.105 307.426 C 139.211 307.458,132.105 308.546,126.316 309.844 C 116.156 312.122,116.074 311.973,123.963 305.576 C 133.104 298.162,147.368 296.689,147.368 303.158 " stroke="none" fill="#000000" fill-rule="evenodd"></path></g></svg>