<svg id="svg" version="1.1" xmlns="http://www.w3.org/2000/svg" xmlns:xlink="http://www.w3.org/1999/xlink" width="400" height="450.8474576271187" viewBox="0, 0, 400,450.8474576271187"><g id="svgg"><path id="path0" d="M164.124 60.570 C 158.446 60.929,153.684 62.184,152.476 63.640 C 149.945 66.689,140.872 66.886,139.733 63.917 C 138.877 61.687,132.141 60.282,132.440 62.396 C 132.962 66.084,131.990 69.560,130.665 68.741 C 129.819 68.218,127.340 68.506,125.157 69.381 C 122.973 70.256,122.058 71.020,123.124 71.079 C 124.189 71.138,125.502 72.336,126.041 73.741 C 127.455 77.424,113.869 75.184,109.213 70.966 C 103.295 65.605,93.928 68.798,95.093 75.779 C 96.088 81.739,91.539 83.181,85.693 78.760 C 80.809 75.066,76.443 75.734,74.268 80.508 C 73.066 83.147,70.939 84.746,68.632 84.746 C 66.595 84.746,62.493 85.960,59.518 87.445 C 56.542 88.929,52.993 89.716,51.630 89.193 C 47.897 87.760,48.291 101.323,52.104 105.537 C 54.928 108.658,54.874 108.937,50.833 112.025 C 41.843 118.897,41.973 118.674,44.679 122.618 C 46.057 124.627,48.042 126.070,49.089 125.823 C 50.456 125.501,50.495 126.305,49.225 128.678 C 44.872 136.812,47.249 145.470,54.740 148.763 C 57.346 149.909,60.778 153.110,62.367 155.878 C 65.871 161.983,71.742 162.153,76.360 156.282 C 88.502 140.845,93.529 140.181,116.430 150.989 C 132.615 158.627,133.833 159.690,133.872 166.201 C 133.887 168.587,135.018 172.019,136.387 173.829 C 137.755 175.638,138.899 179.998,138.929 183.517 C 138.972 188.553,139.795 190.231,142.797 191.403 C 147.338 193.176,157.617 203.549,157.125 205.863 C 156.935 206.757,159.080 207.959,161.892 208.534 C 165.178 209.206,172.144 214.578,181.384 223.567 C 189.292 231.260,198.189 238.627,201.155 239.938 C 204.121 241.249,207.026 243.096,207.611 244.042 C 208.196 244.988,212.381 245.763,216.911 245.763 C 227.949 245.763,229.874 246.714,234.122 254.273 C 236.441 258.399,238.618 260.400,240.149 259.813 C 241.467 259.307,244.359 260.597,246.575 262.679 C 248.792 264.761,251.613 266.105,252.845 265.665 C 257.025 264.172,261.017 267.738,261.017 272.966 C 261.017 278.822,268.866 284.729,276.663 284.739 C 280.308 284.744,281.530 285.736,282.414 289.407 C 283.031 291.970,285.333 297.665,287.531 302.062 C 289.728 306.459,291.525 311.563,291.525 313.403 C 291.525 315.243,292.288 317.220,293.220 317.797 C 296.181 319.626,295.054 323.122,290.892 325.018 C 288.257 326.218,286.497 328.829,285.793 332.582 C 284.729 338.254,284.581 338.337,271.596 340.537 C 264.379 341.760,255.206 343.817,251.212 345.109 C 241.924 348.113,229.165 348.023,223.729 344.915 C 218.707 342.045,210.824 341.637,209.261 344.167 C 208.639 345.174,206.071 345.504,203.411 344.920 C 199.437 344.047,198.053 344.746,194.850 349.245 L 191.029 354.610 196.172 359.417 C 199.000 362.060,201.683 363.854,202.133 363.404 C 203.220 362.317,210.628 365.704,221.934 372.458 C 227.006 375.487,233.342 377.966,236.013 377.966 C 239.287 377.966,242.441 379.687,245.694 383.248 C 250.748 388.782,262.174 392.290,266.405 389.607 C 267.637 388.826,267.984 388.176,267.178 388.162 C 266.372 388.147,266.944 386.256,268.449 383.958 C 271.856 378.758,271.919 374.681,268.662 370.032 C 265.799 365.944,268.100 358.275,274.983 348.965 L 278.542 344.151 280.432 347.923 C 284.766 356.572,306.536 341.967,306.712 330.292 C 306.791 325.060,308.797 323.190,317.251 320.468 C 327.181 317.272,323.766 303.612,311.445 297.241 C 305.538 294.186,305.502 290.094,311.286 279.467 C 316.001 270.804,321.177 268.612,325.271 273.545 C 326.347 274.842,330.557 276.402,334.627 277.012 C 340.767 277.933,342.383 278.985,344.127 283.193 C 348.321 293.318,359.322 292.113,359.322 281.528 C 359.322 277.505,344.655 263.769,335.593 259.306 C 331.398 257.240,326.441 254.244,324.576 252.648 C 322.712 251.052,317.754 248.712,313.559 247.449 C 292.953 241.242,287.143 236.130,293.277 229.601 C 298.694 223.835,294.069 221.187,279.609 221.778 C 258.722 222.630,240.961 208.407,232.361 183.940 C 229.255 175.102,221.708 164.407,218.578 164.407 C 215.754 164.407,193.940 148.705,192.058 145.319 C 189.047 139.899,189.240 129.403,192.373 128.201 C 195.581 126.970,195.556 122.176,192.319 117.896 C 189.066 113.595,189.098 106.841,192.373 106.568 C 193.771 106.451,195.487 106.252,196.186 106.124 C 198.864 105.637,209.420 101.052,211.465 99.488 C 214.315 97.309,225.289 96.715,226.500 98.675 C 227.027 99.528,226.130 101.197,224.506 102.384 C 219.156 106.296,226.544 127.119,233.283 127.119 C 244.179 127.119,246.201 106.646,236.464 94.915 C 235.303 93.517,233.838 90.206,233.208 87.558 C 232.447 84.364,231.259 83.051,229.677 83.658 C 228.365 84.161,224.960 82.395,222.110 79.732 C 218.476 76.337,214.372 74.540,208.371 73.715 C 202.709 72.936,199.134 71.449,197.804 69.320 C 196.699 67.550,194.952 66.102,193.923 66.102 C 192.893 66.102,190.670 64.576,188.983 62.712 C 185.838 59.237,185.574 59.214,164.124 60.570 M96.795 250.016 C 89.231 256.030,88.670 256.272,81.558 256.596 C 74.867 256.901,73.468 261.350,78.096 267.609 C 80.780 271.240,82.130 275.399,82.170 280.163 C 82.203 284.082,82.787 288.154,83.468 289.212 C 84.148 290.270,83.861 293.557,82.830 296.515 C 77.245 312.535,93.643 330.731,100.366 315.975 C 102.085 312.202,103.101 311.751,107.865 312.645 C 115.403 314.059,117.248 310.098,118.285 290.268 C 118.739 281.589,119.768 274.082,120.572 273.585 C 125.186 270.733,116.508 249.345,109.429 246.120 C 103.879 243.591,105.512 243.087,96.795 250.016 " stroke="none" fill="#000000" fill-rule="evenodd"></path></g></svg>