<svg id="svg" xmlns="http://www.w3.org/2000/svg" xmlns:xlink="http://www.w3.org/1999/xlink" width="400" height="371.13402061855675" viewBox="0, 0, 400,371.13402061855675"><g id="svgg"><path id="path0" d="M158.419 7.704 C 151.512 8.141,145.718 9.668,144.249 11.438 C 141.084 15.252,130.117 15.343,128.668 11.568 C 128.050 9.958,125.884 9.144,123.721 9.709 C 121.454 10.302,120.330 11.906,120.984 13.612 C 121.746 15.596,120.024 16.923,115.523 17.823 C 110.479 18.832,109.177 20.008,109.927 22.876 C 111.090 27.324,100.353 26.261,94.683 21.366 C 88.796 16.285,76.289 17.708,76.289 23.459 C 76.289 31.291,71.564 33.851,64.168 30.026 C 56.366 25.992,49.485 25.876,49.485 29.780 C 49.485 33.248,41.362 39.496,38.862 37.951 C 36.842 36.702,22.311 43.168,20.135 46.284 C 17.441 50.142,18.463 58.335,22.147 62.405 C 25.988 66.650,24.589 68.687,13.193 75.443 C 9.557 77.599,9.551 77.917,13.039 83.241 C 15.039 86.294,17.656 88.186,18.853 87.446 C 20.310 86.545,20.280 87.502,18.762 90.337 C 14.030 99.180,16.522 113.402,22.804 113.402 C 24.897 113.402,29.601 117.124,33.256 121.673 C 41.417 131.827,44.972 131.251,56.919 117.843 C 68.180 105.203,74.842 105.102,100.035 117.191 C 119.843 126.695,121.534 128.171,121.683 136.082 C 121.737 138.918,123.143 143.038,124.808 145.239 C 126.473 147.441,127.835 152.799,127.835 157.146 C 127.835 163.432,128.785 165.421,132.474 166.862 C 137.999 169.018,150.503 181.637,149.905 184.452 C 149.674 185.539,152.624 187.071,156.461 187.856 C 160.461 188.674,165.435 191.788,168.121 195.157 C 170.697 198.388,173.589 201.038,174.547 201.048 C 175.505 201.057,180.928 206.061,186.598 212.168 C 192.268 218.275,199.859 224.516,203.467 226.037 C 207.075 227.559,210.609 229.745,211.321 230.897 C 212.032 232.048,218.125 232.990,224.860 232.990 C 237.002 232.990,237.154 233.064,242.780 241.753 C 246.339 247.250,249.990 250.515,252.577 250.515 C 255.275 250.515,256.506 251.702,256.136 253.946 C 255.694 256.631,257.039 257.283,262.321 256.943 C 272.238 256.305,276.289 258.956,276.289 266.082 C 276.289 273.131,285.810 280.391,295.069 280.405 C 300.765 280.413,299.694 278.442,313.561 314.404 C 318.452 327.085,318.451 327.112,313.412 328.430 C 311.150 329.021,308.782 331.217,308.150 333.309 C 307.518 335.402,305.082 341.024,302.736 345.804 C 297.475 356.528,298.790 360.825,307.332 360.825 C 314.899 360.825,331.739 344.318,331.877 336.767 C 332.023 328.793,334.287 325.910,341.459 324.565 C 356.411 321.760,353.039 301.028,336.598 294.678 C 330.546 292.340,330.692 286.898,337.148 274.158 C 342.669 263.264,349.286 260.560,354.639 267.010 C 356.051 268.711,360.303 270.103,364.089 270.103 C 367.874 270.103,371.895 271.263,373.024 272.680 C 388.014 291.502,392.466 292.791,395.043 279.054 C 396.756 269.920,385.851 258.395,364.948 247.251 C 358.711 243.926,352.216 240.308,350.515 239.212 C 348.814 238.116,339.674 234.243,330.204 230.607 C 311.054 223.253,308.726 220.575,315.354 213.520 L 319.889 208.692 315.555 205.657 C 312.427 203.466,307.365 202.860,297.363 203.478 C 273.970 204.925,250.847 186.260,241.409 158.311 C 237.497 146.728,228.567 134.021,224.339 134.021 C 223.407 134.021,218.802 131.237,214.106 127.835 C 209.409 124.433,204.476 121.649,203.143 121.649 C 194.040 121.649,184.839 94.631,192.485 90.353 C 196.999 87.826,196.763 83.325,191.745 76.279 C 187.175 69.860,188.150 63.918,193.773 63.918 C 198.020 63.918,215.843 56.332,217.359 53.879 C 218.617 51.843,232.176 52.107,234.277 54.208 C 235.104 55.036,234.094 56.946,232.032 58.454 C 225.382 63.317,234.208 88.660,242.551 88.660 C 255.830 88.660,258.114 56.335,245.390 48.472 C 244.240 47.761,243.299 44.451,243.299 41.115 C 243.299 35.993,242.484 35.052,238.051 35.052 C 235.164 35.052,230.577 32.826,227.857 30.106 C 224.572 26.821,219.374 24.674,212.374 23.712 C 205.371 22.749,201.016 20.949,199.391 18.348 C 198.046 16.195,195.921 14.433,194.669 14.433 C 193.416 14.433,190.712 12.577,188.660 10.309 C 184.834 6.082,184.513 6.054,158.419 7.704 " stroke="none" fill="#000000" fill-rule="evenodd"></path></g></svg>