<svg id="svg" xmlns="http://www.w3.org/2000/svg" xmlns:xlink="http://www.w3.org/1999/xlink" width="400" height="203.27868852459017" viewBox="0, 0, 400,203.27868852459017" version="1.1"><g id="svgg"><path id="path0" d="M204.132 11.192 C 180.640 24.073,180.671 24.016,182.599 50.180 C 184.314 73.444,184.208 73.845,174.956 79.185 C 157.834 89.065,137.546 87.366,131.206 75.520 C 129.439 72.218,118.365 61.063,106.597 50.732 L 85.202 31.947 69.800 36.259 C 48.863 42.121,30.335 59.386,25.845 77.218 C 23.900 84.943,18.764 94.593,14.433 98.663 C -7.316 119.095,9.304 171.866,31.892 154.098 C 38.203 149.135,45.193 147.541,60.656 147.541 C 76.501 147.541,83.064 145.983,89.915 140.594 C 101.706 131.319,130.693 133.054,142.040 143.714 C 148.540 149.821,153.418 150.820,176.743 150.820 C 198.919 150.820,205.409 152.019,212.220 157.377 C 217.509 161.538,225.521 163.934,234.139 163.934 C 248.435 163.934,262.295 171.122,262.295 178.535 C 262.295 198.401,300.436 205.711,326.834 190.903 C 330.772 188.693,336.372 186.885,339.278 186.885 C 347.290 186.885,360.656 171.823,360.656 162.795 C 360.656 154.432,366.004 150.820,378.385 150.820 C 382.432 150.820,388.973 147.381,392.922 143.177 L 400.102 135.535 393.191 129.281 C 387.793 124.396,386.682 120.553,388.116 111.721 C 389.125 105.502,388.354 98.491,386.402 96.139 C 383.069 92.123,383.535 85.596,388.607 65.285 C 392.539 49.534,371.265 31.435,352.181 34.296 C 342.711 35.717,333.451 35.099,327.547 32.654 C 319.755 29.426,316.076 29.690,306.676 34.150 L 295.265 39.565 283.179 26.188 C 275.918 18.151,269.219 13.531,266.397 14.614 C 263.813 15.605,257.549 13.460,252.475 9.847 C 240.233 1.130,221.533 1.650,204.132 11.192 " stroke="none" fill="#000000" fill-rule="evenodd"></path></g></svg>