<svg id="svg" xmlns="http://www.w3.org/2000/svg" xmlns:xlink="http://www.w3.org/1999/xlink" width="400" height="301.4925373134328" viewBox="0, 0, 400,301.4925373134328" version="1.1"><g id="svgg"><path id="path0" d="M147.252 17.619 C 134.244 18.879,126.789 21.303,121.879 25.869 C 114.500 32.729,88.652 38.806,66.845 38.806 C 57.524 38.806,51.723 40.881,44.830 46.682 C 39.682 51.013,31.183 55.427,25.944 56.489 C 11.892 59.339,12.548 84.591,27.475 115.442 C 29.201 119.009,29.723 125.476,28.635 129.812 C 27.139 135.772,28.502 139.889,34.224 146.689 C 38.386 151.635,41.791 154.798,41.791 153.717 C 41.791 152.636,46.215 154.486,51.622 157.828 C 57.422 161.412,65.071 163.491,70.279 162.897 C 75.133 162.343,83.634 163.748,89.171 166.020 C 94.707 168.291,101.759 170.149,104.842 170.149 C 107.925 170.149,110.448 172.117,110.448 174.522 C 110.448 176.927,113.470 180.359,117.164 182.149 C 123.587 185.262,123.629 185.202,118.128 180.793 C 114.965 178.256,113.118 175.439,114.026 174.532 C 116.344 172.213,131.343 190.593,131.343 195.751 C 131.343 198.088,129.614 200.000,127.501 200.000 C 119.737 200.000,122.731 217.783,134.034 238.806 C 135.680 241.867,142.246 243.565,154.788 244.172 C 164.878 244.661,173.134 246.340,173.134 247.904 C 173.134 249.467,174.557 250.746,176.296 250.746 C 178.034 250.746,178.565 249.304,177.476 247.541 C 176.387 245.779,180.964 247.126,187.648 250.536 C 200.416 257.050,205.970 264.248,205.970 274.282 C 205.970 283.221,215.143 287.295,221.768 281.300 C 226.757 276.785,226.973 276.844,224.933 282.159 C 222.989 287.227,223.266 287.377,227.416 283.500 C 229.985 281.100,231.441 277.450,230.650 275.389 C 229.859 273.328,230.778 271.642,232.693 271.642 C 234.607 271.642,235.337 270.289,234.315 268.636 C 232.059 264.985,236.891 262.972,250.746 261.791 C 258.054 261.168,261.089 259.494,260.846 256.221 C 260.654 253.648,262.525 251.699,265.002 251.891 C 267.480 252.082,270.089 250.224,270.801 247.761 C 271.952 243.781,271.744 243.781,268.930 247.761 C 267.188 250.224,265.742 250.768,265.717 248.970 C 265.692 247.172,268.358 243.270,271.642 240.299 C 274.925 237.327,277.612 232.179,277.612 228.859 C 277.612 225.539,281.512 219.367,286.280 215.143 C 292.120 209.968,295.500 203.568,296.643 195.522 C 297.616 188.671,297.279 185.279,295.853 187.564 C 293.892 190.706,292.945 190.443,291.362 186.318 C 288.031 177.636,304.418 170.149,326.753 170.149 C 336.633 170.149,340.920 168.335,347.660 161.300 C 352.322 156.433,357.611 153.290,359.412 154.316 C 361.213 155.342,361.726 155.117,360.553 153.817 C 357.443 150.372,363.648 140.259,375.086 130.133 C 387.064 119.528,387.544 115.189,377.470 108.587 C 373.287 105.847,367.903 99.435,365.506 94.340 C 352.523 66.744,343.774 60.222,319.321 59.911 C 303.327 59.708,287.722 53.138,290.924 47.956 C 294.101 42.816,277.533 33.599,268.496 35.477 C 251.051 39.103,200.027 37.957,196.629 33.863 C 191.791 28.034,171.184 14.744,167.970 15.381 C 166.706 15.631,157.383 16.638,147.252 17.619 " stroke="none" fill="#000000" fill-rule="evenodd"></path></g></svg>