<svg id="svg" xmlns="http://www.w3.org/2000/svg" xmlns:xlink="http://www.w3.org/1999/xlink" width="400" height="450" viewBox="0, 0, 400,450"><g id="svgg"><path id="path0" d="M299.846 31.096 C 259.729 36.274,240.808 45.204,217.767 69.830 C 208.633 79.593,192.403 89.332,181.700 91.473 C 170.997 93.613,160.212 98.517,157.733 102.370 C 150.576 113.495,137.697 152.186,137.594 162.874 C 137.542 168.235,124.844 187.449,109.375 205.571 C 93.906 223.694,81.250 241.015,81.250 244.064 C 81.250 247.113,77.316 248.098,72.507 246.253 C 61.294 241.950,52.197 256.132,62.203 262.317 C 66.928 265.236,62.544 268.429,50.504 270.837 C 34.960 273.946,31.250 277.799,31.250 290.838 C 31.250 299.866,28.531 305.307,25.084 303.177 C 21.160 300.752,20.829 304.594,24.174 313.746 C 33.296 338.703,82.814 344.328,105.136 322.942 C 128.838 300.234,193.072 304.182,202.569 328.930 C 205.504 336.579,211.420 337.921,228.273 334.760 C 255.240 329.701,262.750 342.274,247.063 366.216 C 234.962 384.684,236.896 388.467,259.722 390.972 C 268.732 391.961,274.583 391.250,272.725 389.391 C 270.866 387.533,273.526 381.832,278.635 376.722 C 283.899 371.458,286.296 362.302,284.166 355.591 C 282.007 348.789,283.381 343.750,287.396 343.750 C 297.065 343.750,292.138 297.495,281.047 284.130 C 273.374 274.886,273.977 272.193,285.874 262.560 C 293.351 256.505,297.713 249.796,295.568 247.651 C 293.422 245.505,300.261 243.750,310.766 243.750 C 351.029 243.750,374.323 204.015,349.531 177.626 C 336.586 163.847,351.528 141.111,364.803 154.387 C 366.974 156.557,368.750 149.771,368.750 139.307 C 368.750 128.842,372.912 116.826,378.000 112.604 C 387.977 104.324,387.499 79.498,376.976 59.375 C 373.381 52.500,371.614 43.617,373.049 39.635 C 374.485 35.653,372.264 30.297,368.114 27.732 C 362.931 24.529,362.136 25.817,365.576 31.847 C 369.627 38.948,368.976 39.132,362.167 32.813 C 353.116 24.411,351.893 24.378,299.846 31.096 " stroke="none" fill="#000000" fill-rule="evenodd"></path></g></svg>