<svg id="svg" version="1.1" xmlns="http://www.w3.org/2000/svg" xmlns:xlink="http://www.w3.org/1999/xlink" width="400" height="481.31868131868134" viewBox="0, 0, 400,481.31868131868134"><g id="svgg"><path id="path0" d="M295.372 3.111 C 292.833 9.727,295.615 18.585,301.099 21.345 C 306.517 24.073,306.483 24.111,298.648 24.143 C 294.278 24.161,288.344 25.985,285.461 28.197 C 282.578 30.409,278.489 32.851,276.374 33.623 C 271.678 35.337,271.244 41.758,275.824 41.758 C 280.786 41.758,279.832 44.650,272.578 51.600 C 261.868 61.861,258.347 79.121,266.964 79.121 C 268.815 79.121,270.330 80.216,270.330 81.554 C 270.330 82.964,271.947 83.371,274.176 82.523 C 277.226 81.361,277.463 81.621,275.319 83.781 C 273.180 85.936,271.566 85.942,267.581 83.810 C 258.195 78.786,225.838 97.047,232.435 103.644 C 234.226 105.434,230.664 108.885,219.087 116.579 C 192.125 134.497,164.285 165.993,174.125 167.445 C 176.683 167.823,179.027 169.393,179.333 170.934 C 179.640 172.475,179.387 172.723,178.773 171.484 C 177.309 168.531,167.923 168.600,162.310 171.604 C 158.883 173.438,157.005 173.188,154.040 170.505 C 151.930 168.595,146.820 166.918,142.684 166.778 C 138.548 166.638,136.896 166.071,139.011 165.518 C 141.126 164.965,142.857 163.227,142.857 161.655 C 142.857 159.447,141.126 159.608,135.236 162.366 C 127.505 165.986,124.266 170.323,131.313 167.619 C 134.927 166.232,134.921 166.499,131.221 172.146 C 127.046 178.518,127.808 182.418,133.226 182.418 C 135.040 182.418,135.912 183.407,135.165 184.615 C 134.418 185.824,132.008 186.813,129.810 186.813 C 123.244 186.813,119.503 192.897,122.812 198.195 C 126.185 203.596,124.779 205.798,120.923 201.152 C 117.878 197.483,97.849 196.368,95.758 199.751 C 95.096 200.823,91.124 202.343,86.933 203.129 C 79.347 204.552,70.330 213.137,70.330 218.936 C 70.330 220.563,67.610 222.467,64.286 223.166 C 55.817 224.948,51.994 227.246,49.451 232.084 C 48.034 234.777,44.645 236.386,39.920 236.608 C 35.887 236.798,30.447 238.957,27.832 241.407 C 25.217 243.857,20.357 246.891,17.033 248.151 C 10.656 250.567,8.776 257.713,13.714 260.765 C 15.554 261.903,14.666 262.868,10.978 263.739 C 3.314 265.548,2.932 271.858,10.036 279.273 C 15.251 284.717,15.581 285.777,12.437 286.983 C 8.173 288.620,7.602 296.833,11.483 300.714 C 13.608 302.839,13.608 304.316,11.483 307.717 C 7.795 313.623,8.095 327.456,12.005 331.776 C 15.922 336.105,14.030 345.849,9.601 344.149 C 7.557 343.365,6.593 344.732,6.593 348.421 C 6.593 351.405,7.582 353.846,8.791 353.846 C 10.000 353.846,11.011 352.115,11.038 350.000 C 11.081 346.642,11.569 346.745,14.884 350.813 C 16.973 353.375,20.659 356.657,23.077 358.107 C 27.327 360.655,27.312 360.708,22.608 359.719 C 17.698 358.686,11.992 362.908,14.674 365.590 C 15.472 366.387,14.837 369.444,13.264 372.383 C 11.484 375.709,11.104 379.233,12.258 381.720 C 13.277 383.917,14.151 391.128,14.199 397.744 C 14.291 410.558,19.236 415.327,24.891 408.058 C 29.366 402.306,44.478 397.033,43.091 401.706 C 42.473 403.790,41.303 408.273,40.493 411.670 C 39.466 415.968,38.014 417.459,35.714 416.577 C 30.606 414.616,26.374 419.572,26.374 427.514 C 26.374 436.171,35.432 445.040,52.410 453.004 C 58.613 455.914,63.172 459.413,62.668 460.877 C 61.660 463.809,69.122 466.940,72.356 464.941 C 73.492 464.239,75.043 464.670,75.802 465.898 C 77.972 469.410,107.194 468.607,114.496 464.835 C 118.007 463.022,124.093 459.897,128.022 457.892 C 131.951 455.886,139.702 450.199,145.247 445.254 C 174.166 419.465,176.502 417.743,179.950 419.673 C 187.937 424.143,202.198 410.256,202.198 398.009 C 202.198 394.412,203.187 390.857,204.396 390.110 C 205.604 389.363,206.593 390.388,206.593 392.388 C 206.593 398.573,215.124 408.385,221.770 409.844 C 226.453 410.873,227.830 412.251,227.071 415.153 C 226.199 418.489,227.666 419.129,236.953 419.458 C 249.463 419.900,249.170 420.394,251.749 394.505 C 253.454 377.384,255.401 373.626,262.566 373.626 C 268.931 373.626,275.702 366.155,273.809 361.221 C 272.815 358.630,274.265 355.922,278.423 352.607 C 284.425 347.821,284.450 347.695,280.846 340.369 C 278.842 336.298,276.653 331.174,275.980 328.982 C 275.307 326.790,273.760 325.612,272.543 326.364 C 271.326 327.116,270.330 326.224,270.330 324.381 C 270.330 322.007,273.627 320.593,281.645 319.529 C 302.841 316.718,305.799 305.828,287.852 296.673 C 277.300 291.290,268.458 272.064,270.177 258.242 C 272.634 238.485,272.712 235.165,270.717 235.165 C 269.425 235.165,268.870 231.882,269.417 227.473 C 269.942 223.242,269.466 219.780,268.359 219.780 C 267.251 219.780,266.805 218.025,267.366 215.879 C 267.927 213.733,265.747 208.089,262.522 203.336 L 256.658 194.695 263.494 188.587 C 271.198 181.704,271.827 178.924,266.912 173.493 C 263.792 170.045,264.002 169.171,269.325 163.430 C 272.531 159.972,276.921 154.719,279.081 151.756 C 283.009 146.366,312.346 144.432,326.099 148.655 C 328.415 149.367,331.047 148.615,332.109 146.938 C 334.534 143.110,334.626 134.066,332.240 134.066 C 331.235 134.066,329.115 131.641,327.529 128.677 C 324.703 123.397,313.716 117.786,311.176 120.326 C 310.469 121.033,309.890 120.913,309.890 120.058 C 309.890 119.204,313.943 114.650,318.895 109.939 C 323.848 105.227,327.246 100.312,326.445 99.017 C 325.645 97.721,328.032 94.942,331.754 92.837 C 337.392 89.648,338.308 88.034,337.254 83.140 C 335.743 76.118,347.578 51.706,354.217 48.153 C 359.544 45.302,367.014 33.289,367.025 27.556 C 367.029 25.184,371.104 19.095,376.081 14.024 C 381.057 8.954,384.460 3.724,383.643 2.403 C 381.202 -1.548,296.900 -0.871,295.372 3.111 M217.582 95.787 C 211.664 99.071,211.951 99.301,221.978 99.301 C 231.460 99.301,231.582 99.232,228.571 95.604 C 225.374 91.752,224.840 91.761,217.582 95.787 M227.781 154.804 C 227.954 157.807,226.612 160.721,224.722 161.446 C 222.087 162.458,221.896 162.087,223.846 159.738 C 225.215 158.088,225.751 156.153,225.036 155.439 C 223.965 154.368,225.623 149.447,227.053 149.452 C 227.284 149.453,227.611 151.861,227.781 154.804 M208.791 173.626 C 208.791 174.835,206.566 175.809,203.846 175.791 C 199.847 175.763,199.532 175.349,202.198 173.626 C 206.459 170.873,208.791 170.873,208.791 173.626 M96.159 223.607 C 96.811 225.590,95.058 225.949,89.737 224.923 C 75.753 222.227,73.009 219.879,84.444 220.393 C 90.727 220.675,95.637 222.022,96.159 223.607 M36.250 379.868 C 33.599 382.518,26.378 377.369,28.745 374.516 C 30.974 371.830,31.754 371.935,34.176 375.247 C 35.731 377.374,36.664 379.453,36.250 379.868 " stroke="none" fill="#000000" fill-rule="evenodd"></path></g></svg>