<?xml version="1.0" standalone="no"?>
<!DOCTYPE svg PUBLIC "-//W3C//DTD SVG 20010904//EN"
 "http://www.w3.org/TR/2001/REC-SVG-20010904/DTD/svg10.dtd">
<svg version="1.0" xmlns="http://www.w3.org/2000/svg"
 width="298.000000pt" height="286.000000pt" viewBox="0 0 298.000000 286.000000"
 preserveAspectRatio="xMidYMid meet">

<g transform="translate(0.000000,286.000000) scale(0.100000,-0.100000)"
fill="#000000" stroke="none">
<path d="M2834 2705 c-3 -8 -3 -18 0 -23 11 -18 -39 -77 -69 -82 -43 -7 -86
-34 -115 -71 -80 -103 -108 -116 -158 -74 -42 35 -64 29 -80 -20 -14 -44 -56
-90 -97 -105 -15 -6 -50 -10 -80 -10 -30 0 -57 -4 -60 -10 -3 -5 1 -24 10 -41
22 -41 12 -75 -25 -94 -20 -10 -30 -23 -30 -38 0 -12 -4 -27 -8 -32 -15 -21
-115 -95 -128 -95 -8 0 -31 -18 -51 -41 -27 -30 -43 -39 -62 -37 -21 2 -28 11
-39 52 -8 27 -20 55 -27 62 -19 19 -95 36 -145 32 l-45 -3 0 -71 c0 -54 -4
-77 -17 -91 -10 -11 -18 -27 -18 -36 0 -28 -70 -77 -112 -77 -27 0 -55 -12
-99 -40 -34 -22 -66 -40 -72 -40 -5 0 -23 -6 -40 -14 -30 -14 -60 -19 -184
-32 l-53 -6 -62 60 c-86 82 -95 85 -192 78 -86 -7 -97 -3 -128 42 -14 21 -13
54 2 107 2 6 -2 22 -8 38 -10 24 -17 27 -55 27 -33 0 -49 6 -65 23 -29 30 -28
55 3 97 14 19 25 39 25 46 0 7 5 14 11 16 7 2 8 15 2 38 -8 31 -14 35 -44 38
-35 3 -35 3 -31 -32 6 -50 -3 -76 -37 -112 -25 -26 -29 -39 -28 -77 2 -51 -15
-72 -65 -83 -16 -4 -28 -9 -28 -13 0 -3 18 -26 40 -51 43 -48 45 -56 29 -114
-14 -52 -78 -110 -148 -137 -30 -11 -67 -31 -83 -44 -16 -14 -35 -25 -42 -25
-17 0 -25 -75 -18 -176 4 -67 7 -76 27 -84 13 -5 40 -27 61 -49 41 -45 56 -49
103 -25 29 15 34 15 58 -2 15 -9 37 -30 51 -45 13 -16 35 -34 49 -41 24 -12
32 -22 53 -68 5 -11 26 -16 73 -18 l66 -3 66 -65 c67 -66 82 -96 71 -139 -4
-15 1 -37 14 -60 25 -45 26 -93 1 -114 -10 -9 -42 -25 -70 -36 -28 -11 -51
-23 -51 -28 0 -5 11 -18 24 -28 14 -11 26 -29 28 -42 3 -20 5 -20 23 11 15 25
26 32 51 32 26 0 37 -7 53 -33 35 -57 55 -74 95 -81 33 -6 38 -5 32 9 -3 9 -1
25 4 36 13 24 54 25 121 3 42 -14 54 -15 77 -4 24 12 101 21 169 20 13 0 42
-8 65 -19 24 -10 54 -22 68 -25 14 -3 38 -17 54 -31 19 -16 41 -25 64 -25 23
0 60 -14 104 -40 39 -22 74 -40 79 -40 9 0 111 -53 134 -70 6 -4 22 -10 36
-13 14 -4 54 -35 89 -69 56 -56 64 -68 65 -104 2 -47 10 -64 30 -64 16 0 35
51 35 94 0 38 63 106 98 106 15 0 22 6 22 19 0 10 9 30 21 45 17 22 28 26 69
26 36 0 48 4 45 13 -3 7 -7 47 -8 89 -2 44 -8 83 -15 90 -18 18 -15 46 9 80
l21 29 -21 23 c-11 12 -21 30 -21 40 0 49 84 139 141 151 33 7 91 59 127 114
9 13 20 51 24 85 13 109 23 140 56 173 30 30 32 35 32 107 0 41 -4 78 -10 81
-5 3 -10 33 -10 66 0 60 -21 99 -53 99 -20 0 -104 102 -123 149 -11 29 -14 54
-10 79 4 20 9 49 11 63 2 14 13 47 25 73 11 26 20 54 20 62 0 8 4 22 10 32 5
9 21 44 35 77 19 44 46 80 103 135 124 121 163 223 112 292 -17 23 -24 50 -28
100 -4 64 -16 86 -28 53z"/>
</g>
</svg>
