<svg id="svg" version="1.1" xmlns="http://www.w3.org/2000/svg" xmlns:xlink="http://www.w3.org/1999/xlink" width="400" height="736.8421052631579" viewBox="0, 0, 400,736.8421052631579"><g id="svgg"><path id="path0" d="M119.298 17.544 C 114.493 23.333,104.633 28.070,97.386 28.070 C 81.112 28.070,80.459 49.061,94.877 108.772 C 106.674 157.626,108.318 211.682,98.313 221.687 C 94.490 225.510,89.299 244.299,86.777 263.441 C 81.630 302.506,60.607 353.847,40.550 376.337 C 19.204 400.272,15.005 466.445,34.181 476.708 C 42.399 481.106,49.123 490.613,49.123 497.836 C 49.123 507.725,52.765 510.014,63.876 507.109 C 71.991 504.987,80.959 507.020,83.807 511.628 C 93.564 527.415,91.304 639.147,80.817 659.426 C 68.045 684.124,78.236 696.661,103.329 687.121 C 114.509 682.870,136.556 683.296,165.409 688.321 C 225.787 698.835,259.649 681.103,259.649 638.971 C 259.649 624.367,265.175 604.852,271.930 595.603 C 310.289 543.075,313.692 532.473,295.966 520.704 C 275.897 507.379,276.661 490.453,298.246 470.175 C 321.263 448.552,320.385 429.502,294.737 394.096 C 270.997 361.324,269.884 357.895,282.987 357.895 C 306.863 357.895,325.563 324.549,312.698 304.915 C 306.062 294.788,301.675 285.624,302.948 284.552 C 304.221 283.480,312.368 278.906,321.053 274.388 C 339.451 264.815,341.337 251.063,325.996 238.331 C 319.885 233.259,317.102 224.461,319.622 218.174 C 327.448 198.646,328.445 172.724,322.020 155.826 C 316.847 142.219,319.358 136.442,336.843 121.729 C 382.465 83.341,355.408 32.132,292.493 37.791 C 246.944 41.888,232.472 42.544,212.281 41.424 C 205.526 41.050,193.651 42.799,185.892 45.312 C 174.679 48.943,170.124 45.482,163.695 28.449 C 154.794 4.870,134.046 -0.226,119.298 17.544 " stroke="none" fill="#000000" fill-rule="evenodd"></path></g></svg>