<svg id="svg" version="1.1" xmlns="http://www.w3.org/2000/svg" xmlns:xlink="http://www.w3.org/1999/xlink" width="400" height="286.3905325443787" viewBox="0, 0, 400,286.3905325443787"><g id="svgg"><path id="path0" d="M208.413 19.779 C 207.066 23.322,202.357 27.810,197.613 30.072 C 192.098 32.702,188.779 36.161,187.973 40.119 C 187.297 43.438,185.943 49.349,184.963 53.254 L 183.181 60.355 161.851 60.051 C 148.074 59.854,138.062 58.487,133.574 56.189 C 125.046 51.821,106.509 48.520,106.509 51.369 C 106.509 52.513,100.516 56.484,93.190 60.193 C 85.493 64.090,78.251 69.787,76.031 73.690 C 73.918 77.404,71.391 80.450,70.414 80.458 C 69.438 80.467,68.639 82.118,68.639 84.127 C 68.639 87.248,47.608 114.867,42.585 118.343 C 41.644 118.994,40.168 121.793,39.304 124.563 C 38.241 127.975,34.357 130.546,27.270 132.530 C 6.860 138.244,7.603 154.358,28.601 161.417 C 31.410 162.362,31.441 163.164,28.790 166.375 C 24.718 171.309,27.150 175.148,34.348 175.148 C 47.029 175.148,57.397 184.432,48.521 187.838 C 46.568 188.587,44.970 191.234,44.970 193.719 C 44.970 198.387,50.370 204.463,52.566 202.266 C 53.250 201.582,58.886 202.160,65.091 203.551 C 74.421 205.642,77.065 205.451,80.384 202.448 C 89.865 193.867,99.717 202.490,92.140 212.738 C 86.572 220.270,88.495 227.219,96.148 227.219 C 97.941 227.219,99.408 228.792,99.408 230.715 C 99.408 237.044,109.755 240.843,130.700 242.205 C 142.053 242.943,153.246 244.566,155.573 245.811 C 165.036 250.876,202.256 251.703,215.696 247.148 C 230.276 242.206,235.322 242.493,244.132 248.766 C 247.599 251.235,253.149 253.254,256.467 253.254 C 259.785 253.254,265.478 254.452,269.119 255.916 C 272.761 257.380,277.870 259.401,280.473 260.408 C 293.206 265.333,302.897 270.174,304.181 272.253 C 313.188 286.826,328.994 263.485,328.994 235.612 C 328.994 231.315,330.580 226.482,332.518 224.874 C 334.457 223.265,335.514 221.094,334.868 220.049 C 332.323 215.930,338.390 205.279,341.712 208.035 C 355.477 219.459,374.348 191.490,366.827 170.812 C 366.102 168.819,369.295 166.206,375.504 163.711 C 380.906 161.540,387.520 157.773,390.201 155.341 L 395.076 150.918 381.733 135.814 C 374.394 127.507,367.499 120.710,366.410 120.710 C 362.922 120.710,350.364 105.532,348.784 99.408 C 347.944 96.154,345.278 89.539,342.859 84.710 C 340.441 79.880,338.462 74.009,338.462 71.664 C 338.462 68.090,319.204 51.600,303.143 41.420 C 301.089 40.118,295.441 35.619,290.592 31.421 C 285.743 27.223,278.820 23.141,275.208 22.350 C 271.595 21.558,265.444 19.891,261.538 18.646 C 257.633 17.401,244.620 15.733,232.620 14.939 L 210.801 13.497 208.413 19.779 " stroke="none" fill="#000000" fill-rule="evenodd"></path></g></svg>