<svg id="svg" xmlns="http://www.w3.org/2000/svg" xmlns:xlink="http://www.w3.org/1999/xlink" width="400" height="594.5945945945946" viewBox="0, 0, 400,594.5945945945946"><g id="svgg"><path id="path0" d="M193.778 84.288 C 157.884 115.012,138.262 123.833,105.811 123.833 C 52.502 123.833,40.429 155.419,75.570 202.950 C 97.232 232.250,110.161 428.807,94.997 498.303 C 93.289 506.128,97.730 512.752,104.865 513.022 C 112.000 513.292,123.919 519.595,131.351 527.027 C 152.695 548.371,180.351 542.910,204.153 512.650 C 221.294 490.859,233.843 485.539,261.530 488.325 C 309.331 493.136,323.809 461.184,328.164 341.277 C 330.013 290.334,334.771 245.409,338.736 241.444 C 352.408 227.772,345.887 175.587,324.450 127.127 C 286.540 41.424,255.676 31.306,193.778 84.288 " stroke="none" fill="#000000" fill-rule="evenodd"></path></g></svg>