<svg id="svg" xmlns="http://www.w3.org/2000/svg" xmlns:xlink="http://www.w3.org/1999/xlink" width="400" height="271.18644067796606" viewBox="0, 0, 400,271.18644067796606"><g id="svgg"><path id="path0" d="M369.492 40.678 C 367.187 44.407,350.990 47.566,333.498 47.698 C 316.006 47.830,294.068 52.298,284.746 57.627 C 261.539 70.893,176.370 71.039,158.923 57.843 C 143.324 46.044,117.920 44.439,111.488 54.846 C 108.768 59.248,97.857 60.534,84.499 58.028 C 60.578 53.540,40.678 70.753,40.678 95.932 C 40.678 110.680,72.010 135.563,90.745 135.693 C 105.229 135.794,108.994 137.559,166.458 171.186 C 183.981 181.441,206.865 189.831,217.312 189.831 C 230.541 189.831,241.354 196.282,252.941 211.087 C 274.037 238.042,333.867 248.283,341.185 226.191 C 343.486 219.244,348.911 208.767,353.240 202.909 C 359.370 194.615,358.487 186.729,349.248 167.260 C 335.999 139.341,340.431 120.556,370.940 75.325 C 379.466 62.686,386.441 48.195,386.441 43.122 C 386.441 32.379,375.588 30.814,369.492 40.678 " stroke="none" fill="#000000" fill-rule="evenodd"></path></g></svg>