<svg id="svg" version="1.1" xmlns="http://www.w3.org/2000/svg" xmlns:xlink="http://www.w3.org/1999/xlink" width="400" height="338.46153846153845" viewBox="0, 0, 400,338.46153846153845"><g id="svgg"><path id="path0" d="M46.154 9.075 C 43.510 9.548,38.750 12.348,35.577 15.298 C 32.313 18.332,26.668 21.135,22.578 21.751 C 7.918 23.961,0.345 33.037,7.332 40.024 C 9.249 41.941,10.502 44.457,10.116 45.614 C 9.730 46.771,11.234 48.993,13.459 50.551 C 15.706 52.125,17.689 55.835,17.922 58.903 C 18.308 63.979,19.077 64.508,27.467 65.476 C 33.902 66.218,37.465 67.775,39.551 70.753 C 42.058 74.333,43.740 74.809,50.582 73.876 C 81.169 69.706,90.463 71.444,91.061 81.444 C 91.218 84.069,92.160 86.072,93.155 85.897 C 94.150 85.721,95.295 87.091,95.700 88.942 C 96.145 90.976,95.297 92.308,93.558 92.308 C 83.236 92.308,73.643 120.438,81.340 128.135 C 83.689 130.483,82.806 137.896,79.889 140.317 C 78.020 141.868,77.466 144.544,78.227 148.348 C 79.125 152.836,78.282 155.186,74.273 159.370 C 69.293 164.568,69.249 164.831,72.327 170.999 C 76.517 179.400,77.788 189.910,75.017 193.249 C 73.532 195.038,73.214 199.464,74.074 206.352 C 75.143 214.902,74.827 216.962,72.302 217.931 C 70.613 218.580,69.231 220.363,69.231 221.895 C 69.231 223.426,68.499 224.968,67.605 225.321 C 66.710 225.673,65.425 230.104,64.747 235.167 C 63.440 244.940,63.861 245.509,73.221 246.628 C 78.799 247.295,94.764 259.119,93.296 261.496 C 91.524 264.362,102.425 281.131,108.446 284.802 C 116.769 289.878,118.500 289.504,127.148 280.769 C 132.823 275.038,136.307 273.077,140.816 273.077 C 144.144 273.077,148.654 271.418,150.838 269.390 C 154.199 266.269,158.787 265.538,180.769 264.623 C 204.893 263.620,215.436 262.645,226.536 260.392 C 229.528 259.785,232.111 256.803,234.525 251.172 C 238.738 241.343,248.344 234.615,258.165 234.615 C 266.150 234.615,267.283 233.309,272.086 218.570 C 275.332 208.607,276.904 206.592,285.950 200.806 C 297.375 193.497,298.254 190.981,291.447 185.063 C 277.296 172.758,284.413 152.556,312.746 124.607 C 315.645 121.746,318.225 117.996,318.478 116.272 C 319.185 111.451,324.340 108.600,339.230 104.794 C 352.893 101.301,370.163 92.611,385.154 81.685 C 395.220 74.349,396.985 59.652,388.475 54.035 C 384.889 51.668,384.203 51.589,385.494 53.692 C 386.765 55.764,386.373 56.117,383.869 55.157 C 381.909 54.404,381.046 54.662,381.744 55.791 C 383.168 58.094,384.438 57.789,368.594 58.955 C 357.580 59.766,355.058 59.378,352.994 56.555 C 350.459 53.089,349.569 52.720,338.942 50.732 C 335.505 50.089,332.692 48.745,332.692 47.745 C 332.692 46.745,332.043 46.302,331.250 46.761 C 330.457 47.220,325.313 46.999,319.820 46.272 C 313.515 45.436,310.257 45.637,310.986 46.815 C 311.664 47.913,310.430 48.236,307.990 47.598 C 305.331 46.902,304.295 47.248,305.106 48.559 C 305.916 49.871,304.880 50.216,302.221 49.521 C 299.939 48.924,298.557 49.220,299.149 50.179 C 300.890 52.995,295.874 52.205,284.588 47.885 C 278.786 45.664,272.091 43.400,269.712 42.853 C 267.332 42.306,265.385 41.191,265.385 40.374 C 265.385 39.557,264.303 38.929,262.981 38.978 C 254.586 39.290,248.077 38.175,248.077 36.425 C 248.077 35.305,249.090 35.015,250.329 35.780 C 251.567 36.545,250.918 34.955,248.886 32.245 C 246.855 29.536,244.396 27.805,243.423 28.398 C 242.450 28.992,242.179 28.109,242.821 26.436 C 244.578 21.856,240.048 20.882,212.790 19.980 C 199.199 19.530,186.544 18.340,184.666 17.335 C 182.506 16.179,177.102 16.188,169.953 17.360 C 157.646 19.378,135.935 17.981,129.808 14.777 C 127.523 13.582,114.229 12.922,97.055 13.152 C 73.993 13.460,67.382 12.959,64.362 10.676 C 60.623 7.849,55.523 7.401,46.154 9.075 M111.157 296.635 C 105.206 301.341,99.146 318.723,101.938 323.077 C 103.280 325.171,103.795 325.272,103.817 323.444 C 103.833 322.060,104.718 321.465,105.783 322.124 C 106.848 322.782,108.239 321.968,108.873 320.314 C 111.347 313.868,126.923 320.288,126.923 327.753 C 126.923 333.131,134.708 335.149,146.817 332.910 C 153.811 331.617,159.470 331.540,162.510 332.696 C 171.292 336.035,191.632 337.264,193.305 334.557 C 194.365 332.842,194.008 332.523,192.124 333.503 C 190.639 334.276,191.154 333.328,193.269 331.397 C 195.385 329.465,197.338 325.721,197.609 323.077 C 198.128 318.027,194.534 311.104,193.116 314.423 C 192.635 315.550,182.907 316.346,169.621 316.346 C 143.566 316.346,140.036 314.871,126.461 298.313 C 122.722 293.752,115.767 292.989,111.157 296.635 " stroke="none" fill="#000000" fill-rule="evenodd"></path></g></svg>