<svg id="svg" version="1.1" xmlns="http://www.w3.org/2000/svg" xmlns:xlink="http://www.w3.org/1999/xlink" width="400" height="477.96610169491527" viewBox="0, 0, 400,477.96610169491527"><g id="svgg"><path id="path0" d="M138.559 6.001 C 135.064 9.251,132.203 13.059,132.203 14.463 C 132.203 15.868,130.340 19.968,128.062 23.576 C 125.785 27.184,124.310 30.525,124.785 31.000 C 125.260 31.475,124.718 32.440,123.580 33.143 C 122.162 34.019,121.918 33.673,122.805 32.042 C 123.518 30.732,122.138 31.949,119.738 34.746 C 117.339 37.542,115.349 40.448,115.315 41.202 C 115.282 41.956,114.644 42.196,113.899 41.735 C 113.153 41.274,111.571 42.453,110.384 44.355 C 109.196 46.256,109.035 47.312,110.025 46.700 C 111.124 46.020,111.434 46.607,110.820 48.207 C 110.267 49.649,109.140 50.411,108.316 49.902 C 107.493 49.393,107.235 50.062,107.744 51.388 C 108.253 52.715,107.599 54.871,106.291 56.179 C 104.983 57.487,104.168 60.233,104.480 62.280 C 104.841 64.643,103.840 66.648,101.740 67.773 C 99.920 68.746,98.836 70.599,99.331 71.888 C 99.826 73.178,99.404 74.745,98.393 75.369 C 97.382 75.994,97.067 77.333,97.692 78.345 C 98.326 79.372,98.049 79.703,97.064 79.094 C 95.348 78.033,92.394 80.472,91.246 83.898 C 90.934 84.831,89.725 85.487,88.559 85.358 C 87.394 85.228,86.452 85.991,86.467 87.053 C 86.497 89.331,89.767 94.754,89.805 92.589 C 89.819 91.776,90.975 92.060,92.373 93.220 C 93.771 94.381,94.915 94.710,94.915 93.951 C 94.915 93.193,96.116 94.053,97.583 95.862 C 99.051 97.672,99.702 98.008,99.030 96.610 C 98.102 94.681,98.304 94.525,99.867 95.963 C 101.017 97.021,101.688 100.765,101.387 104.438 L 100.847 111.017 85.078 110.414 C 71.823 109.906,68.780 110.288,65.998 112.806 C 64.178 114.453,61.060 116.631,59.070 117.646 C 57.079 118.661,54.224 121.366,52.725 123.657 C 50.819 126.570,50.687 127.400,52.288 126.418 C 54.169 125.264,54.210 125.697,52.519 128.858 C 50.814 132.042,50.918 132.956,53.127 134.192 C 54.767 135.110,55.370 136.805,54.696 138.604 C 53.495 141.804,48.883 145.796,47.426 144.896 C 45.931 143.972,46.741 152.403,48.282 153.801 C 49.060 154.507,49.080 153.941,48.328 152.542 C 47.262 150.560,47.431 150.434,49.095 151.971 C 51.598 154.282,54.755 167.615,54.949 176.695 C 55.024 180.191,55.598 183.051,56.224 183.051 C 56.851 183.051,57.191 190.297,56.981 199.153 C 56.753 208.694,57.267 215.254,58.242 215.254 C 59.147 215.254,59.404 215.737,58.815 216.327 C 58.225 216.917,59.608 218.867,61.889 220.661 C 64.170 222.456,65.861 224.798,65.645 225.866 C 65.430 226.934,66.398 227.859,67.797 227.922 C 75.993 228.289,81.470 234.922,76.244 238.153 C 75.296 238.738,74.900 239.831,75.364 240.581 C 75.827 241.331,72.488 242.438,67.943 243.041 C 58.034 244.355,54.526 247.504,58.520 251.498 C 60.008 252.986,61.332 255.927,61.463 258.034 C 61.595 260.141,62.472 262.390,63.413 263.033 C 64.413 263.717,63.242 265.683,60.596 267.764 C 56.763 270.779,56.315 271.973,57.676 275.553 C 58.910 278.799,58.700 280.006,56.770 280.747 C 55.388 281.277,54.679 282.394,55.195 283.228 C 55.710 284.063,54.299 284.746,52.058 284.746 C 45.200 284.746,42.482 289.689,41.271 304.367 C 40.025 319.456,39.040 320.789,30.172 319.375 L 23.904 318.376 24.864 330.798 C 25.444 338.305,26.751 343.965,28.166 345.102 C 29.454 346.137,30.508 348.879,30.508 351.195 C 30.508 353.512,32.034 356.787,33.898 358.475 C 35.763 360.162,37.288 362.804,37.288 364.346 C 37.288 365.887,38.408 368.629,39.777 370.439 C 41.145 372.248,42.289 374.970,42.319 376.487 C 42.349 378.005,43.576 380.245,45.047 381.466 C 46.518 382.687,49.646 387.547,51.998 392.266 C 54.350 396.986,59.820 404.514,64.154 408.996 C 71.245 416.329,71.730 417.317,68.994 418.868 C 66.963 420.018,66.304 421.697,67.010 423.921 C 67.936 426.838,67.494 427.107,63.442 426.090 C 58.223 424.780,58.075 424.311,67.364 438.518 C 71.869 445.406,73.031 448.775,72.595 453.677 C 71.898 461.501,74.769 462.575,93.220 461.390 C 108.627 460.402,112.400 457.975,109.860 450.687 C 105.763 438.935,119.949 429.689,140.144 430.949 C 155.322 431.896,157.586 430.831,162.128 420.609 L 164.131 416.102 164.269 420.439 C 164.670 433.063,171.333 432.740,175.508 419.895 C 177.094 415.012,180.184 407.033,182.373 402.164 C 189.770 385.711,187.827 375.740,180.006 390.016 C 173.458 401.969,171.942 402.731,172.575 393.751 C 172.892 389.264,173.081 381.106,172.996 375.621 C 172.911 370.137,173.639 364.688,174.615 363.513 C 175.590 362.338,176.544 357.291,176.734 352.298 C 176.949 346.654,178.025 342.488,179.578 341.285 C 181.673 339.662,181.711 338.910,179.813 336.624 C 177.904 334.323,177.952 333.898,180.124 333.898 C 192.735 333.898,230.983 307.505,224.144 303.521 C 221.508 301.985,221.601 301.792,225.000 301.746 C 227.202 301.717,228.814 300.642,228.814 299.203 C 228.814 297.833,231.141 294.991,233.986 292.888 C 238.122 289.830,238.947 288.224,238.106 284.874 C 236.984 280.401,222.412 264.523,219.363 264.450 C 218.360 264.426,215.708 262.456,213.469 260.073 C 211.104 257.556,208.163 256.061,206.456 256.508 C 204.838 256.931,202.668 256.257,201.633 255.011 C 200.599 253.764,198.722 253.139,197.464 253.622 C 190.471 256.305,185.797 218.813,192.258 211.864 C 194.865 209.061,196.498 204.779,197.085 199.208 C 197.573 194.578,198.856 190.494,199.937 190.134 C 201.264 189.691,200.977 188.457,199.051 186.328 C 195.685 182.609,196.914 177.966,201.265 177.966 C 205.162 177.966,212.205 173.108,211.040 171.223 C 209.754 169.143,211.960 164.266,213.701 165.342 C 216.000 166.763,225.424 159.041,225.424 155.736 C 225.424 152.351,233.071 145.763,237.000 145.763 C 238.455 145.763,241.678 143.815,244.162 141.435 C 246.647 139.055,250.683 136.894,253.131 136.633 C 255.580 136.372,258.988 134.887,260.705 133.333 C 262.422 131.780,264.705 130.508,265.779 130.508 C 269.347 130.508,286.240 118.709,289.330 114.058 C 291.003 111.539,296.007 105.954,300.448 101.648 L 308.524 93.818 304.262 85.802 C 298.848 75.619,298.905 74.562,305.207 68.537 C 309.337 64.588,310.219 62.585,309.475 58.844 C 308.696 54.926,309.268 53.852,312.859 52.486 C 319.946 49.792,328.573 42.381,329.136 38.505 C 329.848 33.597,341.517 30.903,345.693 34.683 C 347.918 36.696,350.391 36.918,357.722 35.759 C 362.797 34.957,368.856 34.401,371.186 34.523 C 376.830 34.820,377.597 29.376,372.980 21.803 C 368.594 14.609,368.564 9.839,372.881 5.932 C 374.746 4.245,376.271 2.220,376.271 1.432 C 376.271 0.645,324.216 0.021,260.593 0.046 L 144.915 0.092 138.559 6.001 M260.212 262.643 C 259.613 263.613,259.739 264.437,260.493 264.473 C 261.247 264.510,259.386 265.617,256.356 266.934 C 249.745 269.807,249.221 274.042,255.195 276.313 C 266.117 280.466,278.809 272.831,271.945 266.237 C 267.765 262.221,261.633 260.343,260.212 262.643 M229.619 362.879 C 216.470 366.539,209.396 381.439,214.679 394.347 C 219.006 404.921,233.898 392.555,233.898 378.387 C 233.898 370.697,234.325 369.667,237.712 369.186 C 239.809 368.888,241.537 367.881,241.551 366.949 C 241.566 366.017,242.111 364.416,242.764 363.392 C 244.212 361.119,236.958 360.836,229.619 362.879 M120.626 463.214 C 118.178 466.163,118.819 472.881,121.547 472.881 C 122.747 472.881,123.729 473.644,123.729 474.576 C 123.729 477.310,131.582 476.520,134.057 473.538 C 136.016 471.177,135.578 470.138,130.848 465.911 C 124.716 460.433,123.254 460.047,120.626 463.214 " stroke="none" fill="#000000" fill-rule="evenodd"></path></g></svg>