<svg id="svg" version="1.1" xmlns="http://www.w3.org/2000/svg" xmlns:xlink="http://www.w3.org/1999/xlink" width="400" height="216.66666666666666" viewBox="0, 0, 400,216.66666666666666"><g id="svgg"><path id="path0" d="M217.784 6.662 C 211.703 12.752,174.481 20.951,111.516 30.069 C 104.100 31.143,94.688 36.692,90.600 42.400 C 86.512 48.108,73.526 63.245,61.742 76.039 C 49.959 88.833,39.017 105.083,37.428 112.150 C 35.838 119.218,28.835 137.973,21.864 153.829 C 11.275 177.917,10.384 184.096,16.444 191.398 C 25.065 201.786,38.889 193.508,38.889 177.959 C 38.889 162.064,58.109 149.030,78.647 150.998 C 97.513 152.806,100.181 158.489,91.770 178.956 C 85.709 193.707,115.121 218.518,133.196 213.901 C 140.911 211.930,155.384 208.969,165.360 207.320 C 175.336 205.670,188.196 198.349,193.938 191.049 C 206.631 174.912,213.519 174.495,231.662 188.767 C 249.926 203.133,266.667 195.411,266.667 172.621 C 266.667 149.523,300.493 144.992,313.677 166.324 C 315.682 169.568,324.175 172.222,332.550 172.222 C 340.925 172.222,350.384 174.828,353.569 178.013 C 363.758 188.202,375.342 168.829,365.958 157.293 C 359.315 149.127,359.533 148.369,367.649 151.407 C 380.570 156.245,390.864 141.959,386.626 125.072 C 384.196 115.390,379.323 111.105,370.727 111.090 C 347.371 111.051,320.722 90.121,324.460 74.753 C 326.285 67.250,329.267 54.987,331.088 47.502 C 336.876 23.700,311.952 4.814,276.382 6.048 C 260.344 6.604,242.222 5.344,236.111 3.247 C 229.596 1.012,222.015 2.424,217.784 6.662 " stroke="none" fill="#000000" fill-rule="evenodd"></path></g></svg>