<svg id="svg" version="1.1" xmlns="http://www.w3.org/2000/svg" xmlns:xlink="http://www.w3.org/1999/xlink" width="400" height="189.0625" viewBox="0, 0, 400,189.0625"><g id="svgg"><path id="path0" d="M21.094 3.125 C 20.563 3.984,18.351 4.688,16.178 4.688 C 13.225 4.688,11.782 5.870,10.459 9.375 C 9.486 11.953,8.141 14.063,7.470 14.063 C 4.906 14.063,6.396 16.861,9.375 17.640 C 14.369 18.946,13.783 29.277,8.603 31.246 C 5.253 32.520,4.742 33.628,4.959 39.157 C 5.114 43.112,4.397 46.089,3.096 46.893 C -0.561 49.153,4.233 52.906,11.450 53.432 L 17.969 53.906 12.948 56.651 C 7.627 59.560,5.892 63.871,4.067 78.717 L 3.130 86.341 12.850 85.241 C 22.466 84.153,22.541 84.175,19.773 87.233 C 17.567 89.671,17.328 91.019,18.643 93.600 C 19.561 95.401,21.080 98.375,22.019 100.209 C 23.296 102.704,23.242 103.843,21.805 104.731 C 20.723 105.400,20.218 107.661,20.648 109.912 C 21.126 112.410,20.621 114.209,19.300 114.716 C 17.966 115.228,17.188 114.393,17.188 112.451 C 17.187 107.185,10.216 107.232,9.985 112.500 C 9.891 114.648,9.293 117.627,8.655 119.119 C 7.409 122.032,14.362 125.965,17.417 124.077 C 18.258 123.557,20.133 124.172,21.583 125.443 C 23.033 126.715,25.801 128.237,27.734 128.827 C 32.262 130.206,32.262 133.726,27.734 134.999 C 24.526 135.901,24.458 136.129,26.953 137.603 C 28.457 138.491,29.687 140.210,29.688 141.423 C 29.688 142.636,31.214 145.050,33.079 146.788 C 36.263 149.754,36.311 150.123,33.860 152.831 C 29.195 157.986,30.661 159.364,41.016 159.556 C 46.387 159.656,49.375 160.047,47.656 160.425 C 34.868 163.239,31.739 168.147,43.750 166.554 C 48.758 165.889,51.563 166.098,51.563 167.134 C 51.563 169.590,54.872 169.068,58.158 166.093 C 60.716 163.778,61.737 163.699,66.094 165.479 C 68.844 166.602,72.362 167.487,73.912 167.445 C 75.462 167.403,77.149 168.559,77.660 170.013 C 79.138 174.211,84.685 179.688,87.460 179.688 C 88.857 179.688,90.844 180.532,91.876 181.564 C 93.336 183.023,95.052 182.959,99.610 181.273 C 102.832 180.081,107.578 179.061,110.156 179.006 C 114.395 178.916,115.005 178.233,116.531 171.875 L 118.219 164.844 126.360 164.369 C 136.391 163.785,149.021 169.239,159.183 178.543 L 166.022 184.805 179.007 183.807 C 194.965 182.581,198.822 181.171,207.102 173.539 C 217.629 163.835,219.407 163.288,228.166 167.056 C 237.872 171.232,239.955 171.154,245.597 166.406 C 251.400 161.524,256.250 161.244,256.250 165.792 C 256.250 168.389,256.828 168.805,258.984 167.765 C 260.488 167.039,268.536 166.436,276.868 166.426 C 286.876 166.413,292.682 165.744,293.977 164.453 C 295.055 163.379,296.852 162.500,297.969 162.500 C 299.086 162.500,300.000 161.797,300.000 160.938 C 300.000 160.078,301.406 159.375,303.125 159.375 C 304.844 159.375,306.250 160.078,306.250 160.938 C 306.250 161.797,308.008 162.500,310.156 162.500 C 312.305 162.500,314.063 163.220,314.063 164.100 C 314.063 164.980,316.699 165.693,319.922 165.684 C 333.823 165.646,337.015 165.579,342.188 165.218 C 345.195 165.008,349.414 163.723,351.563 162.362 C 353.711 161.001,357.268 158.789,359.467 157.447 C 364.232 154.539,378.752 152.815,380.846 154.908 C 381.774 155.836,384.012 155.538,386.865 154.106 C 389.363 152.852,393.340 151.079,395.703 150.165 L 400.000 148.504 400.000 79.629 C 400.000 34.110,399.470 11.081,398.437 11.719 C 397.578 12.250,396.875 13.772,396.875 15.101 C 396.875 20.704,383.026 32.813,376.617 32.813 C 374.970 32.812,373.181 33.526,372.642 34.399 C 369.175 40.008,351.572 42.326,343.629 38.219 C 340.419 36.559,337.171 36.151,333.160 36.903 C 329.961 37.503,326.992 37.952,326.563 37.901 C 326.133 37.850,324.375 38.574,322.656 39.510 C 318.440 41.806,305.807 41.271,300.445 38.569 C 298.052 37.363,292.741 35.938,288.644 35.402 C 284.546 34.866,279.108 32.885,276.558 30.999 C 272.480 27.984,271.462 27.818,268.098 29.619 C 262.939 32.380,259.685 30.812,256.940 24.241 C 254.717 18.922,254.382 18.750,246.201 18.750 C 235.399 18.750,232.813 17.693,232.813 13.281 C 232.812 8.975,229.053 7.206,224.773 9.497 C 222.859 10.521,213.660 10.981,201.058 10.684 C 179.914 10.185,165.310 12.701,159.421 17.857 C 158.107 19.007,153.867 21.531,150.000 23.466 C 146.133 25.400,140.659 28.998,137.836 31.460 C 132.443 36.165,123.100 37.539,117.367 34.471 C 115.860 33.665,105.184 32.702,93.642 32.333 C 65.556 31.433,50.325 24.543,52.417 13.682 C 53.226 9.481,48.783 4.367,45.287 5.477 C 43.843 5.935,40.621 5.246,38.127 3.946 C 32.995 1.269,22.552 0.766,21.094 3.125 M70.313 41.486 C 81.290 42.961,89.864 48.438,81.195 48.438 C 77.175 48.438,70.057 53.010,71.199 54.858 C 71.672 55.624,67.489 56.250,61.903 56.250 C 56.317 56.250,51.312 55.547,50.781 54.688 C 49.164 52.070,43.283 52.780,44.315 55.469 C 45.395 58.284,36.782 58.881,35.070 56.110 C 34.439 55.089,31.741 54.780,28.337 55.337 L 22.656 56.268 28.375 53.169 C 31.520 51.464,35.488 48.296,37.193 46.129 C 39.467 43.239,41.772 42.188,45.836 42.188 C 48.884 42.188,51.852 41.421,52.430 40.485 C 53.032 39.511,55.580 39.158,58.382 39.662 C 61.077 40.145,66.445 40.966,70.313 41.486 " stroke="none" fill="#000000" fill-rule="evenodd"></path></g></svg>