<svg id="svg" xmlns="http://www.w3.org/2000/svg" xmlns:xlink="http://www.w3.org/1999/xlink" width="400" height="851.3618677042801" viewBox="0, 0, 400,851.3618677042801"><g id="svgg"><path id="path0" d="M111.284 7.302 C 100.192 20.131,98.175 28.461,104.280 36.222 C 110.844 44.567,106.885 48.249,91.352 48.249 L 81.332 48.249 80.279 54.830 C 79.458 59.964,79.783 61.817,81.755 63.259 C 85.276 65.833,85.679 70.287,82.700 73.688 C 80.357 76.363,80.457 76.794,84.167 79.985 C 87.618 82.953,87.949 84.014,86.643 87.931 C 85.597 91.069,85.660 92.626,86.848 93.022 C 97.599 96.606,104.716 112.750,97.295 116.721 C 92.710 119.175,94.601 122.957,100.413 122.957 C 102.357 122.957,104.339 123.979,104.818 125.227 C 105.297 126.475,109.399 129.867,113.934 132.764 C 118.469 135.660,128.132 141.807,135.409 146.424 C 150.912 156.260,150.918 156.266,150.949 163.736 C 150.964 167.453,151.884 170.005,153.543 170.933 C 155.493 172.025,155.893 173.725,155.202 177.986 C 154.701 181.074,154.945 184.005,155.745 184.499 C 158.744 186.353,156.990 189.679,150.335 194.760 C 146.560 197.642,143.400 201.051,143.314 202.335 C 142.813 209.800,142.390 211.673,141.209 211.673 C 140.486 211.673,140.327 212.374,140.856 213.230 C 141.385 214.086,141.247 214.786,140.550 214.786 C 139.852 214.786,138.366 216.854,137.247 219.381 C 136.128 221.909,133.856 224.407,132.198 224.934 C 130.540 225.460,129.183 226.544,129.183 227.342 C 129.183 228.141,127.782 228.794,126.070 228.794 C 124.358 228.794,122.957 229.472,122.957 230.301 C 122.957 231.131,121.907 231.406,120.623 230.913 C 119.339 230.420,118.288 230.749,118.288 231.643 C 118.288 233.403,117.720 233.467,102.967 233.361 C 96.803 233.316,93.453 233.871,94.051 234.837 C 94.577 235.688,93.977 236.961,92.717 237.666 C 87.499 240.586,87.879 251.621,93.198 251.621 C 96.451 251.621,99.293 253.022,102.030 255.975 L 106.065 260.329 101.670 259.324 C 87.766 256.146,79.751 256.316,77.870 259.830 C 76.439 262.505,74.879 263.154,70.740 262.798 C 66.910 262.468,64.814 263.192,63.176 265.412 C 61.360 267.873,60.518 268.096,58.937 266.537 C 55.222 262.873,53.109 264.435,52.619 271.206 C 52.227 276.624,51.577 277.821,49.027 277.821 C 46.628 277.821,45.953 278.803,46.083 282.101 C 46.175 284.455,45.608 286.381,44.823 286.381 C 44.038 286.381,43.771 286.988,44.229 287.730 C 44.688 288.471,43.679 290.331,41.987 291.862 C 38.869 294.684,37.699 301.946,40.362 301.946 C 44.988 301.946,43.279 312.936,37.743 318.788 C 34.624 322.086,35.309 329.596,38.831 330.714 C 47.566 333.486,53.549 343.680,53.006 354.864 C 52.861 357.860,52.789 362.412,52.847 364.981 C 52.906 367.549,52.948 372.451,52.943 375.874 C 52.935 380.471,53.825 382.772,56.350 384.677 C 60.758 388.002,58.085 391.816,50.857 392.517 L 45.914 392.996 46.439 401.556 C 46.727 406.265,47.603 410.350,48.384 410.636 C 49.166 410.921,49.805 412.061,49.805 413.169 C 49.805 414.277,50.856 416.055,52.140 417.121 C 57.447 421.525,53.376 431.038,40.944 443.289 C 32.036 452.066,27.402 460.694,21.758 479.006 C 16.479 496.137,19.063 503.526,33.689 513.128 C 38.921 516.562,40.760 545.039,36.009 549.031 C 33.719 550.954,32.278 554.942,31.090 562.646 C 28.963 576.434,24.845 582.618,14.337 587.803 C 3.749 593.026,-1.839 601.533,2.479 605.851 C 2.986 606.359,3.694 613.651,4.051 622.055 C 4.949 643.181,3.747 641.682,22.479 645.010 C 36.500 647.501,39.339 648.530,43.105 652.482 C 45.506 655.002,49.572 657.955,52.140 659.043 C 54.708 660.131,59.611 663.802,63.035 667.200 C 66.459 670.598,70.399 673.797,71.790 674.309 C 73.181 674.821,74.703 677.221,75.174 679.643 C 77.371 690.956,82.814 702.322,88.320 707.095 C 91.471 709.827,98.278 716.070,103.445 720.968 C 108.613 725.866,113.541 729.884,114.397 729.898 C 116.393 729.930,122.957 719.850,122.957 716.753 C 122.957 714.482,124.690 713.748,128.794 714.281 C 129.864 714.420,130.739 713.899,130.739 713.125 C 130.739 712.350,132.565 712.065,134.796 712.491 C 137.258 712.962,139.446 712.418,140.362 711.108 C 141.527 709.442,142.051 709.394,142.661 710.895 C 143.912 713.978,150.964 713.321,151.022 710.117 C 151.068 707.602,151.222 707.591,153.029 709.965 C 154.105 711.380,156.709 712.861,158.816 713.255 C 161.514 713.761,160.872 714.036,156.643 714.185 C 151.854 714.354,150.831 714.895,151.584 716.859 C 152.104 718.213,152.529 720.281,152.529 721.455 C 152.529 725.836,162.863 728.903,174.372 727.938 C 180.485 727.426,185.537 727.668,186.050 728.498 C 186.547 729.303,188.750 729.961,190.944 729.961 C 196.119 729.961,193.582 733.419,186.330 736.250 C 170.415 742.464,161.613 751.751,171.638 751.751 C 174.444 751.751,178.121 752.697,179.809 753.853 C 181.498 755.010,184.725 756.404,186.981 756.951 C 191.127 757.957,194.230 766.369,191.155 768.269 C 190.428 768.719,190.206 769.690,190.661 770.428 C 191.117 771.166,190.779 772.209,189.909 772.747 C 187.326 774.343,188.064 775.827,192.847 778.653 C 199.487 782.575,204.437 781.960,210.299 776.483 C 216.202 770.969,220.849 768.872,227.161 768.872 C 230.128 768.872,233.256 767.116,236.810 763.458 C 241.887 758.231,242.222 758.123,246.504 760.345 C 254.965 764.734,264.884 763.126,265.907 757.198 C 266.202 755.486,267.086 753.303,267.871 752.347 C 268.780 751.240,268.455 749.907,266.979 748.682 C 264.359 746.508,246.059 747.492,244.501 749.891 C 240.767 755.642,225.859 738.514,225.715 728.308 C 225.669 725.023,234.160 718.829,236.079 720.749 C 237.004 721.673,238.917 720.766,241.226 718.309 C 243.247 716.157,245.829 714.397,246.964 714.397 C 248.099 714.397,249.027 713.789,249.027 713.047 C 249.027 712.305,251.860 711.937,255.321 712.231 C 258.783 712.524,261.242 712.161,260.786 711.423 C 259.854 709.914,264.944 708.250,270.817 708.143 C 272.957 708.104,276.068 707.044,277.729 705.787 C 279.391 704.530,282.259 703.502,284.103 703.502 C 285.947 703.502,288.653 702.178,290.118 700.560 C 292.727 697.676,305.545 695.691,320.885 695.793 C 324.026 695.814,327.044 695.106,327.592 694.219 C 329.000 691.941,334.638 692.209,334.592 694.553 C 334.550 696.683,325.035 701.946,321.226 701.946 C 318.594 701.946,314.397 705.571,314.397 707.844 C 314.397 708.643,312.728 708.977,310.688 708.587 C 308.649 708.197,306.506 708.644,305.927 709.581 C 305.348 710.518,303.515 711.284,301.854 711.284 C 300.192 711.284,298.855 712.160,298.882 713.230 C 298.950 715.908,303.257 721.387,304.397 720.246 C 304.907 719.736,307.043 720.812,309.142 722.638 L 312.960 725.957 309.398 727.432 C 307.439 728.243,305.364 728.969,304.786 729.045 C 304.208 729.121,301.843 731.984,299.530 735.409 C 297.217 738.833,294.638 742.072,293.799 742.607 C 292.960 743.142,292.780 745.174,293.398 747.123 C 294.306 749.982,294.037 750.479,292.008 749.701 C 290.626 749.170,289.493 749.239,289.491 749.854 C 289.489 750.469,287.388 751.120,284.822 751.299 C 282.255 751.479,280.156 750.953,280.156 750.132 C 280.156 749.310,278.755 748.638,277.043 748.638 C 274.984 748.638,273.930 749.676,273.930 751.702 C 273.930 753.786,273.183 754.480,271.595 753.870 C 268.246 752.585,268.620 757.362,271.984 758.843 C 273.482 759.503,275.233 760.190,275.875 760.371 C 276.518 760.552,277.393 760.875,277.821 761.089 C 278.249 761.304,279.148 761.566,279.818 761.673 C 280.489 761.780,283.706 764.536,286.967 767.797 C 291.093 771.923,294.005 773.580,296.544 773.248 C 298.836 772.947,301.820 774.310,304.571 776.911 C 306.979 779.189,311.835 781.817,315.361 782.750 C 322.202 784.560,324.501 786.120,341.881 800.743 C 357.427 813.823,366.262 819.921,371.438 821.143 C 373.879 821.719,377.626 823.766,379.767 825.691 C 381.907 827.616,385.233 830.002,387.160 830.993 C 389.357 832.123,390.661 834.224,390.661 836.631 C 390.661 838.741,391.284 840.467,392.045 840.467 C 392.806 840.467,393.396 841.342,393.356 842.412 C 393.149 848.003,394.010 849.805,396.887 849.805 C 399.992 849.805,400.000 848.768,400.000 430.466 L 400.000 11.126 389.770 16.458 C 384.144 19.390,377.971 21.790,376.054 21.790 C 374.136 21.790,370.586 23.857,368.166 26.384 C 365.745 28.910,359.965 32.836,355.320 35.109 C 349.481 37.966,347.142 39.935,347.739 41.491 C 348.220 42.746,347.922 43.321,347.064 42.791 C 346.218 42.268,345.525 42.932,345.525 44.266 C 345.525 45.601,346.267 46.693,347.174 46.693 C 348.080 46.693,348.465 47.270,348.029 47.975 C 347.593 48.681,350.243 52.708,353.918 56.925 C 364.698 69.294,365.471 71.595,358.846 71.595 C 354.732 71.595,352.748 72.558,350.830 75.486 C 347.936 79.903,342.592 80.564,337.299 77.161 C 333.964 75.017,321.101 71.053,309.562 68.613 C 306.475 67.960,301.573 65.631,298.667 63.438 C 286.752 54.442,274.635 52.623,273.630 59.679 C 273.367 61.525,271.576 63.726,269.650 64.571 C 261.195 68.281,278.830 88.716,290.485 88.716 C 298.528 88.716,301.946 89.932,301.946 92.795 C 301.946 93.999,302.803 96.358,303.852 98.037 C 306.230 101.845,304.460 103.906,296.159 106.990 C 284.695 111.248,266.231 106.131,256.341 95.955 C 252.536 92.041,248.984 89.278,248.447 89.815 C 247.910 90.352,247.471 89.896,247.471 88.802 C 247.471 87.375,245.944 87.099,242.067 87.827 C 231.367 89.834,226.157 84.779,225.962 72.203 C 225.867 66.067,219.600 52.107,215.718 49.385 C 214.577 48.585,215.161 47.217,217.470 45.277 C 219.374 43.677,221.811 39.078,222.887 35.058 L 224.841 27.749 217.741 21.041 C 213.018 16.577,207.684 13.400,201.805 11.547 C 194.932 9.380,193.151 8.191,193.785 6.191 C 195.282 1.477,184.727 -0.003,150.014 0.051 L 117.510 0.102 111.284 7.302 " stroke="none" fill="#000000" fill-rule="evenodd"></path></g></svg>