<svg id="svg" version="1.1" xmlns="http://www.w3.org/2000/svg" xmlns:xlink="http://www.w3.org/1999/xlink" width="400" height="337.2549019607843" viewBox="0, 0, 400,337.2549019607843"><g id="svgg"><path id="path0" d="M104.575 16.993 C 102.785 19.150,97.416 20.915,92.645 20.915 C 87.873 20.915,83.242 22.092,82.353 23.529 C 81.464 24.967,75.107 26.144,68.225 26.144 C 59.033 26.144,54.457 27.531,50.980 31.373 C 47.067 35.697,42.928 36.601,27.046 36.601 L 7.843 36.601 7.843 45.540 C 7.843 53.377,10.906 61.855,18.779 75.817 C 19.995 77.974,22.265 82.974,23.823 86.928 C 25.381 90.882,27.717 94.265,29.014 94.444 C 30.311 94.624,32.745 94.918,34.423 95.098 C 39.986 95.694,39.864 102.281,34.262 103.746 C 26.383 105.806,28.931 130.719,37.021 130.719 C 40.322 130.719,39.659 113.908,36.223 110.471 C 34.577 108.825,37.480 109.472,42.674 111.909 C 51.498 116.049,54.322 121.759,52.478 131.731 C 51.681 136.038,63.740 146.581,67.848 145.169 C 70.880 144.127,70.748 144.672,67.320 147.341 C 61.483 151.886,69.589 167.320,77.814 167.320 C 79.049 167.320,82.612 169.698,85.731 172.604 C 88.850 175.509,92.291 177.568,93.378 177.179 C 94.465 176.789,96.939 179.778,98.877 183.820 C 101.831 189.983,103.549 190.916,109.528 189.603 C 113.449 188.742,119.527 189.184,123.034 190.585 C 127.007 192.172,127.810 193.195,125.163 193.298 C 115.169 193.688,120.302 206.083,131.222 207.928 C 142.879 209.897,147.554 208.047,137.377 205.493 C 129.724 203.572,128.571 199.509,135.294 198.155 C 137.810 197.648,145.163 201.222,151.634 206.096 C 166.737 217.472,166.886 217.632,160.121 215.129 C 152.828 212.431,130.268 214.149,132.188 217.256 C 134.159 220.444,148.314 220.250,150.318 217.007 C 151.285 215.443,156.808 217.006,164.177 220.929 C 170.916 224.516,177.615 227.452,179.064 227.453 C 189.527 227.460,237.041 261.725,233.819 266.939 C 233.023 268.227,234.205 269.281,236.447 269.281 C 239.599 269.281,240.523 266.298,240.523 256.127 C 240.523 241.250,244.585 237.616,254.989 243.184 C 259.877 245.800,262.092 245.849,265.035 243.407 C 268.062 240.895,269.552 241.333,272.554 245.619 C 274.613 248.559,280.013 252.260,284.554 253.843 C 294.186 257.200,294.841 261.579,287.782 275.423 C 283.829 283.177,283.492 285.568,286.203 286.609 C 288.596 287.527,289.230 291.078,288.272 298.214 C 287.046 307.355,287.503 308.497,292.384 308.497 C 296.031 308.497,297.401 309.733,296.463 312.178 C 295.359 315.053,299.381 316.264,314.829 317.712 C 337.070 319.796,351.211 315.452,354.346 305.573 C 355.604 301.611,356.859 300.911,358.953 303.005 C 362.063 306.115,376.784 306.778,386.275 304.235 C 391.808 302.752,392.157 301.298,392.157 279.725 L 392.157 256.791 383.197 255.110 C 372.798 253.159,371.084 249.987,374.927 239.805 C 377.137 233.952,376.910 231.922,373.820 229.895 C 370.550 227.749,370.970 226.525,376.471 222.170 C 380.065 219.324,384.540 215.714,386.413 214.147 C 392.749 208.850,389.270 190.075,381.243 186.246 C 372.681 182.162,369.432 170.159,373.940 159.275 C 375.796 154.793,376.446 147.303,375.495 141.355 C 373.607 129.545,375.475 122.876,380.672 122.876 C 385.696 122.876,385.229 119.285,379.533 114.131 C 373.632 108.791,364.379 108.516,361.536 113.597 C 359.742 116.803,356.684 116.923,341.798 114.374 C 323.422 111.226,319.763 107.380,329.412 101.354 C 336.255 97.081,336.010 94.679,327.970 87.228 C 320.934 80.708,316.340 79.298,316.340 83.660 C 316.340 87.022,308.344 86.967,303.268 83.570 C 299.863 81.292,299.992 80.453,304.249 77.200 C 307.320 74.854,308.518 71.801,307.456 69.032 C 306.523 66.601,305.072 65.298,304.233 66.138 C 303.393 66.977,299.609 64.793,295.824 61.283 C 292.039 57.774,288.158 54.902,287.200 54.902 C 286.241 54.902,286.117 52.377,286.924 49.291 C 288.234 44.282,287.576 43.845,280.797 45.213 C 276.620 46.057,269.364 45.399,264.672 43.751 C 257.804 41.339,252.877 41.624,239.406 45.214 C 230.202 47.667,219.223 49.673,215.009 49.673 C 210.667 49.673,205.296 51.939,202.614 54.902 C 194.090 64.321,170.670 60.570,153.908 47.100 C 148.512 42.764,142.558 39.169,140.676 39.111 C 138.794 39.053,132.650 33.171,127.023 26.039 C 116.485 12.685,110.240 10.168,104.575 16.993 " stroke="none" fill="#000000" fill-rule="evenodd"></path></g></svg>