<svg aria-hidden="true" style="width:0;height:0;position:absolute;overflow:hidden" xmlns="http://www.w3.org/2000/svg"><defs><symbol id="icon-poland2" viewBox="0 0 33 32"><path d="M31.709 1.734c-.034.089-.034.201 0 .257.123.201-.436.862-.772.917-.481.078-.962.38-1.287.794-.895 1.152-1.208 1.298-1.768.828-.47-.392-.716-.324-.895.224-.157.492-.627 1.007-1.085 1.175-.168.067-.559.112-.895.112s-.638.045-.671.112c-.034.056.011.269.112.459.246.459.134.839-.28 1.052-.224.112-.336.257-.336.425 0 .134-.045.302-.09.358-.168.235-1.287 1.063-1.432 1.063-.09 0-.347.201-.571.459-.302.336-.481.436-.694.414-.235-.022-.313-.123-.436-.582-.09-.302-.224-.615-.302-.694-.213-.213-1.063-.403-1.622-.358l-.503.034v.794c0 .604-.045.862-.19 1.018-.112.123-.201.302-.201.403 0 .313-.783.862-1.253.862-.302 0-.615.134-1.108.448-.38.246-.738.448-.806.448-.056 0-.257.067-.448.157-.336.157-.671.213-2.059.358l-.593.067-.694-.671c-.962-.917-1.063-.951-2.148-.873-.962.078-1.085.034-1.432-.47-.157-.235-.145-.604.022-1.197.022-.067-.022-.246-.09-.425-.112-.269-.19-.302-.615-.302-.369 0-.548-.067-.727-.257-.324-.336-.313-.615.034-1.085.157-.213.28-.436.28-.515s.056-.157.123-.179c.078-.022.09-.168.022-.425-.09-.347-.157-.392-.492-.425-.392-.034-.392-.034-.347.358.067.559-.034.85-.414 1.253-.28.291-.324.436-.313.862.022.571-.168.806-.727.929-.179.045-.313.101-.313.145 0 .034.201.291.448.571.481.537.503.627.324 1.276-.157.582-.873 1.231-1.656 1.533-.336.123-.75.347-.929.492-.179.157-.392.28-.47.28-.19 0-.28.839-.201 1.969.045.75.078.85.302.94.145.056.448.302.683.548.459.503.627.548 1.152.28.324-.168.38-.168.649.022.168.101.414.336.571.503.145.179.392.38.548.459.269.134.358.246.593.761.056.123.291.179.817.201l.738.034.738.727c.75.738.917 1.074.794 1.555-.045.168.011.414.157.671.28.503.291 1.041.011 1.276-.112.101-.47.28-.783.403s-.571.257-.571.313c0 .056.123.201.269.313.157.123.291.324.313.47.034.224.056.224.257-.123.168-.28.291-.358.571-.358.291 0 .414.078.593.369.392.638.615.828 1.063.906.369.067.425.056.358-.101-.034-.101-.011-.28.045-.403.145-.269.604-.28 1.354-.034.47.157.604.168.862.045.269-.134 1.13-.235 1.891-.224.145 0 .47.09.727.213.269.112.604.246.761.28s.425.19.604.347c.213.179.459.28.716.28s.671.157 1.164.448c.436.246.828.448.884.448.101 0 1.242.593 1.499.783.067.045.246.112.403.145.157.045.604.392.996.772.627.627.716.761.727 1.164.022.526.112.716.336.716.179 0 .392-.571.392-1.052 0-.425.705-1.186 1.096-1.186.168 0 .246-.067.246-.213 0-.112.101-.336.235-.503.19-.246.313-.291.772-.291.403 0 .537-.045.503-.145-.034-.078-.078-.526-.09-.996-.022-.492-.09-.929-.168-1.007-.201-.201-.168-.515.101-.895l.235-.324-.235-.257c-.123-.134-.235-.336-.235-.448 0-.548.94-1.555 1.578-1.689.369-.078 1.018-.66 1.421-1.276.101-.145.224-.571.269-.951.145-1.22.257-1.566.627-1.936.336-.336.358-.392.358-1.197 0-.459-.045-.873-.112-.906-.056-.034-.112-.369-.112-.738 0-.671-.235-1.108-.593-1.108-.224 0-1.164-1.141-1.376-1.667-.123-.324-.157-.604-.112-.884.045-.224.101-.548.123-.705s.145-.526.28-.817c.123-.291.224-.604.224-.694s.045-.246.112-.358c.056-.101.235-.492.392-.862.213-.492.515-.895 1.152-1.511 1.387-1.354 1.824-2.495 1.253-3.267-.19-.257-.269-.559-.313-1.119-.045-.716-.179-.962-.313-.593z"/></symbol><symbol id="icon-lithuenia" viewBox="0 0 42 32"><path d="M15.629 1.87c-1.381.134-2.172.391-2.693.876-.783.728-3.527 1.373-5.841 1.373-.989 0-1.605.22-2.337.836-.546.46-1.448.928-2.005 1.041-1.491.303-1.422 2.983.163 6.257.183.379.239 1.065.123 1.525-.159.633-.014 1.07.593 1.791.442.525.803.861.803.746s.47.082 1.043.436c.616.38 1.427.601 1.98.538.515-.059 1.417.09 2.005.331s1.336.438 1.663.438.595.209.595.464.321.62.713.81c.682.33.686.324.102-.144-.336-.269-.532-.568-.435-.665.246-.246 1.838 1.705 1.838 2.252 0 .248-.184.451-.408.451-.824 0-.506 1.887.693 4.119.175.325.872.505 2.203.57 1.071.052 1.947.23 1.947.396s.151.302.336.302c.184 0 .241-.153.125-.34s.37-.044 1.08.318c1.355.691 1.945 1.455 1.945 2.52 0 .949.974 1.381 1.677.745.53-.479.552-.473.336.091-.206.538-.177.554.264.142.273-.255.427-.642.343-.861s.014-.398.217-.398c.203 0 .281-.144.172-.319-.239-.387.273-.601 1.744-.727.776-.066 1.098-.244 1.072-.591-.02-.273.178-.48.441-.46s.54-.177.616-.438c.122-.422.1-.422-.199 0-.185.261-.338.319-.341.128s.28-.605.629-.92c.348-.315.634-.862.634-1.214s.414-1.007.92-1.456c.62-.549.979-1.229 1.1-2.083.103-.727.067-1.087-.084-.845-.208.334-.309.306-.477-.132-.354-.921 1.386-1.716 3.756-1.716 1.049 0 1.504-.193 2.219-.939.495-.517 1.056-.85 1.247-.741s.246.085.121-.053c-.33-.366.328-1.439 1.542-2.514 1.271-1.126 1.322-1.586.253-2.287-.444-.291-1.015-.971-1.27-1.512-1.378-2.929-2.307-3.621-4.902-3.654-1.698-.022-3.354-.719-3.014-1.269.337-.546-1.421-1.524-2.38-1.325-1.852.385-7.267.263-7.628-.171-.514-.619-2.701-2.029-3.042-1.962-.134.027-1.124.133-2.199.238z"/></symbol><symbol id="icon-romania" viewBox="0 0 45 32"><path d="M23.287 2.21c-.151.396-.677.897-1.207 1.15-.616.294-.987.68-1.077 1.123a43.288 43.288 0 0 1-.336 1.468l-.199.793-2.383-.034c-1.539-.022-2.658-.175-3.16-.432-.953-.488-3.024-.857-3.024-.539 0 .128-.67.572-1.488.986-.86.435-1.669 1.072-1.917 1.508-.236.415-.518.755-.628.756s-.198.185-.198.41c0 .349-2.35 3.435-2.911 3.823-.105.073-.27.386-.367.695-.119.381-.553.668-1.345.89-2.281.638-2.197 2.439.149 3.228.314.106.317.195.021.554-.455.551-.183.98.621.98 1.417 0 2.575 1.037 1.584 1.418-.218.084-.397.379-.397.657 0 .522.603 1.201.849.955.076-.076.706-.012 1.399.144 1.042.234 1.338.212 1.709-.123 1.059-.959 2.16.005 1.314 1.15-.622.842-.407 1.618.448 1.618.2 0 .364.176.364.391 0 .707 1.156 1.132 3.496 1.284 1.269.082 2.519.264 2.779.403 1.057.566 5.216.658 6.718.149 1.629-.552 2.193-.52 3.177.181.387.276 1.008.501 1.378.501s1.007.134 1.414.297c.407.164.978.389 1.269.502 1.423.55 2.506 1.091 2.649 1.323 1.006 1.628 2.773-.98 2.773-4.094 0-.48.177-1.02.394-1.2s.335-.422.263-.539c-.284-.46.394-1.65.765-1.342 1.538 1.276 3.647-1.849 2.806-4.159-.081-.223.276-.515.97-.793.604-.243 1.343-.663 1.642-.935l.545-.494-1.491-1.688c-.82-.928-1.59-1.688-1.712-1.688-.39 0-1.793-1.696-1.969-2.38-.094-.364-.392-1.103-.662-1.642s-.491-1.196-.491-1.458c0-.399-2.152-2.242-3.946-3.379-.23-.145-.861-.648-1.402-1.117s-1.315-.925-1.719-1.014c-.404-.088-1.091-.275-1.527-.414s-1.89-.325-3.231-.414l-2.438-.161-.267.702z"/></symbol><symbol id="icon-albania" viewBox="0 0 18 32"><path d="M1.925 1.453c-.977.977-.289 5.951.955 6.902 1.246.952 1.266 1.09.774 5.244-1.159 9.786-1.132 10.19.77 11.713.941.753 2.01 1.615 2.377 1.916s.667.988.667 1.527c0 1.262 1.354 2.386 2.393 1.987.454-.174.807-.962.807-1.8 0-1.034.367-1.651 1.2-2.017.66-.29 1.274-1.048 1.365-1.686s.766-1.553 1.5-2.034c.734-.481 1.231-1.159 1.104-1.507s.097-1.438.497-2.423c.813-2.002.593-2.743-.815-2.743-2.454 0-3.726-5.234-2.163-8.907.758-1.781-.261-3.893-1.877-3.893-.343 0-1.156-.566-1.806-1.258C8.522 1.249 2.875.504 1.927 1.452z"/></symbol><symbol id="icon-austria" viewBox="0 0 52 32"><path d="M35.747 5.361c-.501.533-.911 1.297-.911 1.696 0 .568-.216.673-.988.479-.543-.136-1.101-.065-1.239.159-.417.676-2.005.457-2.716-.373-.88-1.028-2.348-.677-2.348.562 0 1.033-.808 1.845-2.836 2.846-2.627 1.298-3.55 3.483-2.215 5.247.716.947.8 1.809.109 1.118-.267-.267-.895-.486-1.394-.486s-1.02-.182-1.158-.405c-.325-.526-2.915-.526-3.24 0-.138.223-.772.405-1.409.405s-1.716.319-2.397.709c-1.004.575-1.387.617-2.023.221-1.436-.893-4.747-1.117-5.045-.341-.237.618-.338.622-1.163.044-2.006-1.405-4.013-.07-3.424 2.278.285 1.136 2.448 2.514 4.092 2.606.654.037 1.403.36 1.665.718.605.827 3.718.877 4.608.074 1.883-1.7 7.669-.661 9.56 1.717.593.746 6.605 1.522 7.198.929.264-.264 1.996-.449 4.202-.449 3.338 0 3.801-.089 4.187-.81.351-.657.848-.81 2.623-.81 1.204 0 2.302-.182 2.44-.405s.843-.405 1.568-.405c1.886 0 3.696-1.93 3.365-3.587-.169-.845-.065-1.267.35-1.427.673-.259.797-1.697.178-2.079-.689-.426-.013-1.009 1.17-1.009.766 0 1.393-.375 2.001-1.199.953-1.289 1.13-2.042.481-2.042-.223 0-.405-.26-.405-.578s-.456-.937-1.013-1.375c-1.169-.919-1.306-1.894-.343-2.433.885-.495.417-1.691-.663-1.691-.456 0-1.18-.22-1.61-.488-.643-.402-.928-.356-1.607.258-.743.672-1.036.697-2.959.248-4.309-1.006-5.689-.99-6.692.078z"/></symbol><symbol id="icon-belgue" viewBox="0 0 41 32"><path d="M17.846 7.077c-1.461 1.555-5.539 2.235-5.539.923 0-.338-.498-.615-1.108-.615s-1.379-.271-1.711-.603c-.763-.763-4.125.133-6.911 1.842-3.038 1.864-1.78 5.561 1.718 5.048 1.775-.261 2.195.248 1.965 2.38-.021.197.292.37.696.383 1.563.052 2.611.529 3.36 1.529.428.572 1.802 1.126 3.053 1.231 1.843.154 2.344.482 2.642 1.729.381 1.59 1.066 1.746 5.136 1.172 1.89-.267 2.527.396 3.124 3.245.422 2.016 3.29 3.583 6.556 3.583 2.746 0 3.45-.813 2.402-2.772-.665-1.242-.556-1.693.85-3.538.887-1.163 1.612-2.405 1.612-2.759s.435-.812.967-1.016c.846-.325.81-.591-.29-2.135-.691-.97-1.136-1.885-.988-2.032s-.76-.337-2.017-.422c-3.132-.211-3.884-1.115-2.069-2.487 2.412-1.823 1.554-3.499-1.661-3.243-1.792.143-2.88-.08-3.371-.691-.771-.959-4.223-2.29-5.94-2.29-.567 0-1.682.692-2.477 1.538z"/></symbol><symbol id="icon-czechoslovakia" viewBox="0 0 92 32"><path d="M14.873 1.127c-.309.372-.759.676-1 .676s-1.07.456-1.841 1.014c-.771.558-2.121 1.33-2.999 1.715-7.266 3.191-9.458 5.139-7.73 6.867.699.7.622 1.691-.205 2.604-.883.976.945 3.859 3.13 4.938.74.365 1.562 1.059 1.826 1.541.953 1.74 1.865 2.406 3.708 2.71 1.032.17 2.229.7 2.662 1.178.798.881 2.655 1.179 3.079.493.128-.207.85-.285 1.604-.174 1.23.181 1.372.08 1.372-.976 0-2.799 1.765-3.343 6.761-2.084 3.468.874 4.644 1.042 4.393.629-.133-.219.03-.65.363-.957.381-.352.707-.394.881-.113.152.245.85.446 1.553.446 1.457 0 2.087 1.024 1.122 1.825-.984.816-.78 2.042.477 2.866.62.406 1.127 1.038 1.127 1.404 0 .391.421.666 1.018.666.56 0 1.272.406 1.581.901.498.797 1.051.901 4.787.901h4.224L48 28.579c1.103-1.446 1.394-1.587 2.74-1.335 1.183.222 1.715.075 2.475-.686.804-.804 1.15-.886 2.035-.482.935.426 1.327.261 3.177-1.341 2.545-2.203 3.972-2.798 5.859-2.444.782.147 1.957.023 2.611-.274 1.05-.479 1.27-.425 1.89.461.6.856.975.962 2.577.726 1.736-.255 2.019-.14 3.828 1.556 1.074 1.007 2.216 1.832 2.537 1.832s.836.304 1.144.676c.309.372.875.676 1.259.676s1.074.34 1.533.756c.64.579.959.632 1.365.225.658-.658 3.263-.691 4.448-.057.968.518 3.576-.927 3.552-1.968-.015-.677-2.671-3.487-4.09-4.328-3.15-1.866-9.406-4.994-9.988-4.994-.368 0-2.231-.711-4.138-1.581-3.356-1.529-6.765-1.969-7.736-.998-.486.486-1.949.394-3.681-.232-1.431-.517-1.607-.477-2.451.563-1.371 1.689-3.017 1.482-4.525-.569-1.44-1.959-1.627-2.007-2.967-.759l-.999.931-.477-1.369c-.568-1.628-2.566-2.747-4.905-2.747-2.03 0-4.408-1.075-5.681-2.569-1.212-1.421-5.707-1.926-6.97-.783-.84.76-3.123-.883-3.123-2.248 0-.857-.888-1.459-2.704-1.833-.867-.179-2.123-.837-2.789-1.462-.953-.895-1.482-1.071-2.479-.827-3.187.781-3.726.791-4.438.079-.9-.9-1.298-.91-2.012-.049z"/></symbol><symbol id="icon-denmark" viewBox="0 0 33 32"><path d="M15.521 2.807c1.561-1.881 2.225 3.184.763 5.825-.385.695-.701 1.97-.702 2.834-.003 1.621.101 1.702 2.689 2.097.438.067 1.005.451 1.258.854.7 1.111-1.387 3.121-2.579 2.483-.953-.51-1.371-.256-1.371.833 0 .413-.947 1.888-2.105 3.28-1.44 1.73-2.105 2.908-2.105 3.727 0 .659-.232 1.429-.516 1.713-.407.407-.406.691.004 1.347.996 1.595-.154 2.603-2.751 2.412-1.216-.09-2.21-.008-2.21.181s-.277.344-.617.344c-.966 0-1.577-1.586-1.548-4.021.025-2.11-.052-2.278-1.431-3.091l-1.457-.86v-4.831c0-2.779.18-4.942.423-5.093.232-.144.318-.677.19-1.186-.431-1.718 2.093-3.599 5.275-3.931 2.543-.266 2.802-.397 4.572-2.319 1.165-1.264 2.232-2.037 2.815-2.037.516 0 1.148-.253 1.404-.561zM26.98 18.353c2.241-1.886 3.872-1.277 4.015 1.5.111 2.17-.416 3.305-1.536 3.305-1.019 0-1.042.328-.096 1.373.7.774.682.844-.421 1.647-1.317.959-1.533 1.789-.37 1.419.442-.14 1.003.017 1.289.362.44.531-2.394 2.356-3.658 2.356-.119 0-.445.314-.726.697-1.005 1.375-5.267.281-5.267-1.352 0-.955 1.194-1.224 2.821-.635 1.752.634 1.89.532 1.555-1.146-.218-1.089-.482-1.329-1.582-1.436-1.164-.113-1.399-.365-1.983-2.124-.364-1.098-.785-2.119-.936-2.269-.439-.439.106-.998.975-.998.44 0 1.261-.497 1.825-1.105 1.099-1.186 1.784-1.067 2.38.411l.365.904.027-.91c.015-.5.61-1.4 1.322-2zm-11.925 4.7c1.025-1.153 2.987-.96 3.482.343 1.335 3.512-.391 5.547-3.578 4.215-1.565-.654-1.522-2.739.096-4.558z"/></symbol><symbol id="icon-estonia" viewBox="0 0 58 32"><path d="M32.842 3.592c2.35-1.045 9.532-.469 11.856.952 1.291.789 2.802 1.07 5.754 1.07 4.101 0 5.188.837 3.404 2.621-.525.525-.898 1.661-1.041 3.166-.024.25-.296.298-.604.107-.882-.545-.656 1.298.347 2.83.791 1.207.81 1.623.147 3.208-.419 1.002-.702 2.011-.628 2.242s-.182.358-.568.281c-.397-.079-.78.542-.882 1.432-.17 1.484 1.997 4.042 3.425 4.042 1.171 0 3.261 2.773 3.101 4.114-.232 1.938-1.103 2.065-2.879.419-.825-.765-1.501-1.206-1.501-.979 0 .674-2.801.7-4.04.037-.874-.468-1.049-.454-.732.059s.142.526-.74.055c-.762-.408-1.275-.427-1.504-.056-.191.31-.6.563-.909.563s-.407-.25-.218-.555c.197-.318-.029-.412-.528-.221-.479.184-.871.519-.871.745 0 .546-3.259.337-3.793-.243-.23-.25.144-.315.831-.146 1.228.302 1.225.276-.207-1.601-.801-1.05-1.583-1.909-1.739-1.909s.032.379.416.842c.458.552.489.842.088.842-.336 0-.881-.505-1.211-1.123s-.94-1.123-1.355-1.123c-.414 0-1.078-.39-1.474-.867-.833-1.004-7.07-.959-6.895.049.056.322-.639.642-1.544.711-1.809.138-1.852.035-1.666-3.963.076-1.629-.114-2.667-.489-2.667-.337 0-.613.248-.613.551 0 1.109-2.813 1.302-3.952.271-.605-.548-1.1-.777-1.1-.509s-.503-.501-1.118-1.707c-.841-1.651-.95-2.298-.437-2.615.492-.304.413-.524-.285-.792-2.323-.891-.827-5.563 1.976-6.17 1.006-.218 2.484-.859 3.285-1.425.871-.615 3.012-1.181 5.333-1.409 2.133-.209 4.636-.718 5.562-1.13zM6.737 10.656c0-.721 2.93-.052 3.5.799.641.956.53 1.113-1.507 2.125-1.877.933-1.923.926-2.793-.401-1.098-1.675-1.104-1.951-.042-1.951.463 0 .842-.257.842-.572zm-1.684 5.991c1.469-.484 4.927-.386 6.42.181 1.598.607 1.944 1.698.539 1.698-.496 0-1.652.632-2.569 1.404-.947.797-2.378 1.404-3.309 1.404-1.192 0-1.641.27-1.641.988 0 .543-.538 1.324-1.196 1.735-1.128.704-1.175.663-.826-.731.242-.962.089-1.76-.438-2.286-1.509-1.509-.272-3.307 3.021-4.392zm28.631 8.616c-.772-.604-1.191-1.103-.931-1.11s1.115.493 1.9 1.11 1.204 1.117.931 1.11c-.273-.007-1.128-.507-1.9-1.11z"/></symbol><symbol id="icon-finland" viewBox="0 0 34 32"><path d="M9.362.326c-.063.179-.28.509-.481.733-.365.406-.365.41.028 1.045.217.351.394.777.394.947 0 .483 1.002.716 1.721.401.25-.11.326-.055.326.235 0 .278.272.503 1.023.847l1.023.468-.003 1.266c-.004 1.79-.127 2.158-.675 2.02-.596-.15-1.423.308-2.057 1.138-.287.376-.731.899-.988 1.163s-.675.731-.93 1.038c-.255.307-.955.893-1.555 1.302s-1.33.911-1.621 1.116c-.514.362-.98.92-1.4 1.677-.147.265-.462.396-1.116.463-.765.078-.902.149-.851.444.037.216-.242.659-.724 1.15-.852.868-.924 1.588-.234 2.35.253.28.272.454.108.989-.135.439-.138.687-.01.766.769.476.979 2.8.355 3.944-.456.837.039 2.451.753 2.451.196 0 .685.167 1.086.372s.952.372 1.224.372c.444 0 .482.052.374.512-.217.919-.206 1.07.077 1.07.153 0 .362-.188.463-.419.238-.543.281-.533.894.202l.518.621 1.708-.235c.939-.129 1.764-.2 1.832-.158s.223-.042.344-.188c.121-.146.486-.321.812-.388s.989-.25 1.473-.405c.485-.155 1.005-.234 1.156-.176.162.062.427-.089.645-.366.275-.35.473-.439.767-.346.277.088.531-.001.845-.296.383-.359.449-.375.449-.105 0 .41.488.596.826.315.145-.12.709-.207 1.253-.194 1.217.03 2.732-.181 2.866-.398.268-.434 1.426-.172 1.335.302-.111.58.963 1.474 1.82 1.515.483.023.572-.044.606-.457.022-.266.167-.555.322-.642s.244-.22.197-.295.224-.155.601-.176c1.151-.064 2.51-.442 3.24-.902.782-.492.971-.542.773-.204-.075.128.038.08.251-.106.413-.362.979-1.86.979-2.591 0-.496.672-1.322.941-1.156.096.059.175.015.175-.1s.074-.162.164-.107c.176.109.235-1.696.083-2.546-.05-.282-.16-.471-.243-.42s-.201-.262-.261-.696-.125-.891-.144-1.014c-.019-.123-.104-.181-.189-.129s-.155.007-.155-.101-.063-.187-.14-.175c-.374.059-.615-.041-.509-.213.065-.105.049-.172-.036-.149-.324.088-.99-.254-.871-.446.068-.111.043-.151-.055-.09-.224.139-1.229-.5-1.057-.672.069-.069.049-.132-.045-.14-.553-.046-.916-.176-.973-.348-.036-.108-.184-.196-.329-.196s-.264-.084-.264-.186-.14-.186-.31-.186-.256-.055-.189-.121c.184-.184-.468-.61-.943-.617-.293-.004-.419-.118-.419-.378 0-.327.184-.453.586-.4.121.016.092-.772-.046-1.254-.041-.143-.355-.523-.699-.845-.434-.408-.641-.782-.677-1.229-.029-.354-.072-.685-.095-.736s-.034-.153-.023-.226c.011-.073-.105-.085-.257-.027-.33.127-.349-.01-.072-.526.156-.291.152-.349-.019-.244-.168.104-.175.048-.027-.228.148-.277.123-.47-.107-.797-.232-.331-.241-.4-.038-.294.186.097.179.064-.022-.109-.172-.148-.285-.547-.283-.997l.004-.75 1.167.074c1.92.122 2.688-.839 1.499-1.876-.439-.383-.345-1.371.186-1.949.176-.191.237-.218.137-.06-.122.192-.047.172.228-.063.226-.193.358-.436.294-.54s-.027-.134.085-.065c.234.145.317.031.484-.672l.122-.512h-9.684c-9.055 0-9.691.021-9.799.326z"/></symbol><symbol id="icon-france" viewBox="0 0 36 32"><path d="M18.4 1.682c-.57.347-.585.391-.621 1.77-.031 1.177-.5 1.674-1.734 1.836-1.332.175-2.515 1.101-2.028 1.587.389.389-.528.57-1.933.381-.747-.101-1.422-.183-1.5-.183s-.142-.18-.142-.4c0-.564-.308-.738-1.149-.649-.906.095-1.007.336-.489 1.16.248.394.445 1.023.504 1.608l.098.96-1.155-.087c-.88-.066-1.251-.024-1.56.178-.377.247-.426.241-.726-.091-.631-.698-1.182-.87-1.786-.557-.295.153-.959.306-1.474.34-1.564.105-2.079.637-1.436 1.486.315.417.313.599-.005.599-.367 0-.317.115.295.671.422.384.71.499 1.26.503.669.005 2.638.521 3.285.862.161.085.394.154.519.154s.22.167.213.374c-.009.244.102.397.319.441.433.087.779.54.694.909-.114.496.987 1.75 1.816 2.067.812.31 1.311 1.607.751 1.953-.178.11-.162.183.077.358.272.199.278.267.057.722-.134.276-.295 1.147-.357 1.934-.238 2.996-.693 4.881-1.116 4.619-.082-.051-.123.045-.09.212.12.614.322.894.645.894.254 0 .305.078.223.337-.093.293-.03.337.484.337.325 0 .638.076.695.168s.248.168.424.168.414.1.529.223.388.189.608.146.565.005.767.103c.48.236 1.63.343 1.63.153 0-.082.095-.117.21-.078s.293-.042.395-.179c.207-.281.933-.174 1.269.186.113.121.443.185.762.148.46-.054.653.032 1.06.467.487.521 2.367.773 2.367.317 0-.077.133-.142.295-.146.343-.007 1.24-.484.926-.493-.293-.008-.271-1.192.029-1.621.381-.544 2.266-1.641 2.504-1.457.257.198 1.584.513 2.14.508.602-.005.984.119 1.93.627 1.059.569 2.081.479 2.808-.248.983-.983 1.852-1.561 2.386-1.587.936-.046.535-1.618-.413-1.618-.462 0-.895-.955-.664-1.463.239-.524.249-.478-.218-.946l-.403-.403.464-.274c.255-.151.512-.225.571-.166s.117.001.129-.131c.012-.131.04-.412.062-.624s-.082-.477-.232-.59c-.314-.236-.464-.962-.198-.962.224 0 .162-.34-.116-.64-.266-.286-.27-.749-.009-1.01.156-.156.128-.257-.126-.449-.733-.554-1.792-.099-2.037.875-.053.21-.172.382-.265.382-.247 0-.003-1.105.383-1.739.179-.294.327-.636.327-.759.001-.433 1.697-2.197 2.165-2.251.407-.047.451-.124.499-.889.029-.46.134-.936.235-1.057s.136-.265.081-.321c-.137-.137.331-1.021.92-1.739.698-.85.644-1.183-.193-1.183-.371 0-.674-.076-.674-.168s-.238-.168-.528-.168c-.955 0-1.794-.349-1.993-.829-.168-.405-.847-.657-.847-.313 0 .195-1.646.161-1.768-.036-.057-.093-.27-.172-.473-.176-.695-.014-1.722-.747-1.669-1.192.068-.569-.301-1.195-.627-1.066-.145.058-.377.133-.516.168s-.421.112-.626.172c-.309.09-.423.005-.663-.499-.247-.517-.373-.608-.847-.608-.374 0-.626-.11-.767-.337-.116-.185-.314-.337-.44-.337s-.385-.197-.574-.437c-.264-.336-.447-.416-.791-.348-.377.075-.477.012-.634-.405-.234-.62-1.311-.698-2.195-.159z"/></symbol><symbol id="icon-germany" viewBox="0 0 34 32"><path d="M29.552 6.214c.321-.347.599-.621.618-.611.072.041-.27.723-.486.968-.222.252-.22.257.089.335.379.095.543.01.543-.282 0-.377.316-.546.631-.339.149.098.461.209.692.246 1.359.22 1.737.498 1.62 1.192-.051.301-.015.576.108.822.184.368.148.777-.056.65-.059-.037-.108.12-.108.347 0 .865-.386 1.405-1.005 1.405-.145 0-.451.125-.682.278-.514.341-1.182.541-2.141.641l-.73.076-.508-.498c-.526-.516-.575-.532-1.672-.548l-.662-.01.014-.458c.011-.363.105-.541.451-.858.295-.27.45-.528.48-.796.028-.252.127-.428.271-.482.295-.112.694-.559.905-1.015.134-.29.252-.368.605-.397.352-.029.554-.161 1.022-.667zM7.82 7.241c.21-.078.368-.066.522.042.302.21.606.657.447.657-.07 0-.127.057-.127.127s.054.094.12.053.188-.031.271.021.177.097.211.099c.033.002.242.079.465.173.307.128.457.137.621.034.352-.22.563.127.312.511-.261.398-.263.393.284.486.379.064.551.029.831-.17.194-.138.473-.251.622-.251s.512-.199.809-.442c.506-.415.567-.434.996-.32.443.118.464.11.674-.28.239-.444.338-.483.589-.232.093.093.238.197.322.231.117.047.111.09-.024.185-.153.106-.149.134.03.202.289.111.26.336-.034.259-.148-.039-.283.012-.349.131-.095.171-.135.173-.331.019-.204-.16-.209-.157-.057.036.091.116.292.21.447.21s.566.112.915.249c.348.137.743.222.877.188s.812-.227 1.507-.429c.695-.202 1.376-.368 1.514-.369s.49-.182.782-.404c.772-.585 2.646-1.168 3.143-.977.233.089.124.869-.161 1.154-.136.136-.226.395-.226.651 0 .299-.062.444-.211.491-.707.223-.705.219-.293.586.677.603.157 1.866-.768 1.866-.084 0-.314.135-.511.301s-.486.301-.644.301c-.966 0-1.035 1.125-.118 1.92.308.267.728.654.934.861.365.366.381.37.684.172.36-.236.74-.106.867.295.042.132.208.273.369.314s.293.145.293.232c0 .294.374.537.826.537.595 0 1.278.679 1.391 1.384.203 1.262.21 1.384.081 1.398l-.258.03c-.069.008-.171.089-.227.18-.172.279-1.573.255-1.904-.033-.149-.129-.271-.197-.271-.15 0 .172-.707-.289-.776-.506-.096-.303-1.453-.452-1.717-.188-.293.293-.94-.158-1.019-.711-.03-.21-.142-.275-.568-.332-.337-.045-.607-.166-.741-.331-.217-.268-.762-.353-.894-.14-.114.184-.734.143-.902-.06-.082-.099-.224-.18-.316-.18s-.166.081-.166.18c0 .111-.113.18-.294.18-.161 0-.327.054-.368.121s-.685.419-1.431.783c-1.441.704-1.919 1.154-1.482 1.398.255.142.271.534.026.628-.181.069-.26.557-.09.559.05 0 .182.163.295.361s.298.36.412.36c.244 0 .647.337.647.541 0 .079.108.241.241.361.327.296.312.356-.241.931-.345.359-.482.605-.483.867-.001.202-.05.443-.109.536-.063.1-.062.261.002.391.06.122.163.329.23.46.25.496-.065.672-.548.306-.128-.097-.352-.178-.497-.18s-.299-.062-.343-.132c-.052-.084-.156-.058-.303.075-.145.131-.353.184-.592.149-.219-.032-.422.011-.501.106-.155.187-1.255.219-1.366.04-.097-.156-.746-.156-.842 0-.177.286-1.381-.09-1.383-.433-.002-.349-.474-.564-1.078-.493-.333.04-.631.02-.671-.043-.105-.17-.488-.138-.647.053-.11.132-1.14.335-1.876.369-.148.007-.085-1.27.071-1.432.06-.063.109-.288.109-.501s.044-.405.097-.427.273-.297.487-.612l.39-.571h-.48c-.467 0-.732-.154-.507-.293.563-.348-.319-.921-1.198-.779-.835.134-1.114.026-.827-.32.145-.175.104-.251-.344-.637-.28-.241-.508-.505-.507-.588s-.066-.151-.149-.152c-.108-.001-.112-.027-.014-.09.075-.049.159-.197.188-.329s.116-.227.194-.21c.208.044.176-.206-.037-.287-.099-.038-.181-.15-.181-.248s-.108-.207-.241-.242c-.132-.035-.241-.072-.241-.083s.108-.328.241-.705c.3-.855.299-.913-.02-1.253-.406-.433-.161-.854.525-.904.427-.031.524-.083.555-.302a.447.447 0 0 1 .271-.339c.3-.095.297-.256-.008-.419-.341-.183-.322-.694.029-.744.207-.029.286-.142.341-.483.04-.245.144-.531.231-.637.121-.145.125-.226.02-.331-.208-.208-.177-.813.041-.813.099 0 .18-.064.18-.143 0-.816 2.008-1.003 2.317-.216.053.134.072.123.08-.046.007-.164.075-.207.25-.162.199.052.241.004.241-.277 0-.392.138-.468.722-.396.344.042.383.027.211-.082-.136-.086-.211-.286-.211-.56 0-.325-.057-.441-.241-.489-.348-.091-.301-.396.06-.396.338 0 .4-.249.12-.481-.437-.362-.197-.54.662-.491.232.013.556-.026.722-.088z"/></symbol><symbol id="icon-greatBritain" viewBox="0 0 23 32"><path d="M16.057 1.569c.513-.83 1.062.63.609 1.619l-.165.361-.01-.365c-.007-.272-.101-.419-.371-.578-.363-.214-.506-.488-.193-.368.233.089.364-.166.193-.373-.078-.093-.106-.226-.063-.296zm-3.549 4.029c.199-.24.316-.233.584.035.121.121.315.256.431.301.369.142.135.381-.381.39-.58.01-.921-.38-.634-.726zm-.318 1.346c-.05-.081-.002-.098.131-.047.116.044.344.081.508.081.217 0 .289.057.264.21-.019.116.013.292.072.391s.068.146.02.103-.205.039-.35.18-.399.355-.564.474-.22.178-.12.131c.099-.047.153-.054.12-.016s-.101.073-.152.077c-.492.041-.955.533-.623.66.153.059.126.128-.15.375l-.338.303.361-.052c.198-.028.388-.062.421-.076s.101-.018.15-.01c.05.008.09-.04.09-.106 0-.163 3.088-.161 3.189.002.042.067.127.09.191.051s.105-.026.093.028c-.012.055.019.192.069.306.059.135.003.318-.161.528-.139.176-.252.397-.252.49s-.055.235-.123.315c-.067.08-.27.371-.451.647s-.479.67-.663.875c-.273.304-.3.386-.15.443.369.142.215.526-.211.526-.245 0-.472.091-.6.241-.198.232-.194.241.101.241.169 0 .279-.045.245-.1s.193-.061.504-.013c.312.048.586.069.609.047s.24.14.481.359l.75.685c.26.238.656 1.192.783 1.885.044.238.42.775.492.703.035-.035.268.065.518.223s.488.263.528.234c.04-.029.047-.018.015.025-.074.099.612.763.789.763.083 0 .102.132.052.361-.05.227-.031.361.051.361.071 0 .118.041.104.09s.046.219.133.376c.109.197.119.311.03.365-.078.049.01.21.228.416.388.366.461.801.176 1.038-.099.082-.18.224-.18.316 0 .222.414.212.602-.015.302-.364 1.85-.049 2.268.462.316.386.115 1.436-.364 1.905-.191.187-.307.34-.257.34s-.033.087-.184.192c-.151.106-.38.165-.508.132-.266-.07-.302.04-.084.258.177.177-.056.375-.444.378-.586.005.085.264.732.282.726.021 1.114.436.595.635-.104.04-.153.129-.11.198.048.077.02.09-.072.033-.088-.054-.294.013-.495.162-.19.14-.425.255-.523.255s-.212.055-.254.122c-.042.067-.126.091-.188.053s-.112-.009-.112.065-.05.103-.112.065-.138-.028-.169.023c-.071.115-2.061.089-2.534-.033-.234-.06-.323-.048-.27.037.137.221-.058.51-.343.51-.151 0-.305-.078-.342-.174-.045-.116-.224-.168-.541-.155-.333.013-.456.065-.414.174.044.116-.113.155-.615.155-.371 0-.675-.053-.675-.118 0-.13-1.327-.088-1.549.049-.074.046-.135.189-.135.317 0 .327-.456.765-.64.613-.385-.318-2.007-.233-2.007.106 0 .064-.084.116-.188.116s-.159.046-.124.102c.035.056-.084.092-.264.079s-.476-.032-.658-.042c-.182-.01-.331-.066-.331-.125s.149-.169.331-.247c.489-.208 1.634-1.298 1.68-1.599.022-.143.07-.29.107-.328.064-.064.116-.078.421-.113.073-.008.105-.087.072-.175-.107-.279.693-.476 1.556-.384.713.076.789.061 1.005-.198.382-.459.25-.559-.322-.245-.373.205-.613.181-1.082-.109-.248-.153-.529-.231-.71-.196-.21.04-.336-.01-.42-.167-.135-.252-.486-.291-.853-.094-.601.322-1.332-.404-.854-.849.119-.111.277-.182.351-.157s.218-.04.321-.143.353-.221.555-.261c.202-.04.368-.124.368-.186s.052-.08.115-.041c.136.084.514-.591.397-.708-.044-.044-.082-.227-.085-.406-.007-.399-.477-.528-.719-.197-.16.219-.43.146-.43-.116 0-.084.132-.224.294-.311.399-.214.49-.491.187-.57-.345-.09-.344-.757.001-.757.256 0 .713.219.88.421.066.08.117.078.152-.006.029-.069.249-.103.488-.075.301.035.41.009.352-.084-.054-.088.024-.126.224-.109.169.014.307.072.307.128s.078.025.173-.071c.095-.095.145-.283.11-.416s-.002-.281.073-.327c.101-.063.1-.129-.006-.256-.111-.134-.104-.218.036-.38.287-.334.354-.629.144-.629-.101 0-.15.054-.109.12.206.333-.275.056-.679-.391-.556-.615-.602-1.175-.122-1.489.544-.356.033-.414-.607-.068-.517.279-.617.297-.846.154-.186-.116-.274-.124-.306-.026-.059.177-.708.178-.817.001-.057-.092-.121-.069-.199.07-.106.189-.139.184-.404-.066-.301-.283-.396-.733-.144-.681.08.017.149-.024.154-.09s.163-.38.351-.698l.343-.578-.247-.264c-.222-.237-.23-.295-.079-.565.217-.389.216-.481-.005-.481-.099 0-.18.054-.18.12s-.081.12-.18.12c-.099 0-.18.054-.18.12s-.054.12-.12.12-.12-.119-.12-.265c0-.164-.042-.221-.111-.15-.177.182-.008.748.243.814.312.082.311.634-.002.716-.127.033-.289.002-.361-.07-.094-.094-.13-.092-.13.005 0 .198-.361.528-.491.448-.144-.089-.144-.741 0-.83.061-.038.149-.433.195-.879s.186-1.024.31-1.284c.124-.261.226-.521.226-.578 0-.186-.698.302-.822.575-.126.277-.697.467-.817.272-.038-.062-.159-.082-.268-.044-.151.052-.144.027.03-.108.186-.144.201-.21.08-.356-.216-.26-.036-.463.327-.372.274.069.29.055.148-.117-.139-.167-.125-.204.099-.262.143-.037.26-.158.26-.268s.108-.278.241-.373c.132-.095.241-.279.241-.408 0-.226-.011-.224-.278.027-.326.306-.544.334-.64.081-.038-.099-.14-.18-.226-.18-.175 0-1.141-.605-1.14-.713.002-.155.849-.633 1.011-.571.096.037.192.246.213.464.034.356.085.404.491.469.409.066.436.054.279-.119-.124-.137-.14-.252-.055-.403.065-.116.089-.259.053-.317-.241-.39.309-.958.834-.861.066.012.034-.066-.072-.174-.291-.297-.155-.782.219-.782.209 0 .28-.052.234-.17-.191-.496.24-1.031.609-.756.211.158 2.58-.024 2.478-.189zm-5.891.746c.567-.346.724-.306.631.16-.043.215-.131.409-.196.431s-.118.143-.118.268c0 .144-.173.317-.471.469l-.471.24-.239-.378c-.268-.423-.227-.699.105-.699.121 0 .257-.059.301-.13s.25-.234.458-.36zm1.132 6.505c.179-.287.389-.315.389-.052 0 .524-.895 1.45-1.039 1.075-.038-.099-.114-.152-.168-.118s-.139-.002-.187-.08c-.103-.167.366-.584.657-.584.109 0 .266-.108.349-.241zm-1.825 2.349c.738-.385 1.434-.251 1.853.358.205.298.422.541.483.541s.082.074.048.165c-.035.091.021.197.124.237.316.121.205.361-.364.79-.696.524-1.339.608-1.918.25-.58-.359-.959-.285-.959.187 0 .268-.056.365-.21.365-.116 0-.21-.037-.21-.082s-.122-.114-.271-.154c-.473-.127-.877-.51-.732-.694.07-.089.162-.305.204-.48.05-.212.198-.361.438-.445.218-.076.363-.212.365-.343.006-.355.312-.668.571-.586.127.04.388-.009.58-.109zm4.404 2.313c.261-.372.366-.404.562-.167.104.125.077.238-.114.481-.456.58-.87.29-.448-.314z"/></symbol><symbol id="icon-greece" viewBox="0 0 33 32"><path d="M23.087 1.755c.105 1.327-3.494 1.954-5.116.89-.36-.236-.793-.323-1.157-.232-.368.092-.581.048-.581-.121 0-.393-1.894-.087-2.22.359-.181.247-.642.363-1.444.363-.648 0-1.234.091-1.303.202-.229.37-1.59.5-2.351.225-.706-.255-.812-.22-1.76.598-.876.755-1.124.854-1.887.755-1.011-.132-1.606.485-1.649 1.712-.014.407-.131.646-.286.587-.384-.146-.782.341-.782.959 0 .349-.204.631-.58.802-.414.189-.58.447-.58.904 0 .352-.065.809-.145 1.016-.1.261.23.721 1.078 1.5l1.222 1.124-.502.705c-.576.81-.267 1.256.432.623.412-.373.461-.347 1.037.565.332.526.731.941.886.921s.569-.023.919-.008c.696.03.9.491.217.491-.231 0-.722.314-1.09.699l-.669.699 1.117 1.134c.759.77 1.056 1.233.927 1.442-.336.544-.258 1.045.267 1.703.508.638 1.028.633 1.028-.009 0-.184.086-.334.191-.334.328 0 1.2 1.054 1.2 1.451 0 .617.42.689.715.121.151-.291.309-.567.35-.615s.4.187.798.522.804.609.903.609c.278 0-.121-2.106-.582-3.072s-.306-1.344.374-.919c1.237.773 2.196-.027 1.15-.959-1.451-1.293.154-1.957 1.763-.73.419.319.822.482.896.362.191-.308-.118-2.15-.428-2.555-.142-.185.026-.133.372.116s.634.527.638.619c.013.298.892.648 1.266.504.545-.209.44-.554-.169-.554-.695 0-1.088-.412-1.097-1.148-.007-.595-.52-1.494-.732-1.282-.231.231-1.717-.458-2.351-1.09-.361-.36-.543-.654-.406-.654.49 0 .231-.535-1.142-2.356-1.541-2.045-1.493-1.92-1.132-2.957.259-.744.26-.744.754-.295.272.247.729.57 1.016.718s.522.414.522.592.313.479.696.67c.732.365.939.178.348-.313-.389-.323-.461-.696-.134-.696.118 0 .526.262.907.583.816.686 1.178.296.46-.495-.576-.635-.074-.897.825-.431.335.174.609.241.609.149 0-.259-.956-1.014-1.101-.87-.108.108-.754-.89-.754-1.166 0-.049.405-.09.899-.09.538 0 1.022-.148 1.204-.368.208-.251.518-.325.975-.234.368.074.87.026 1.116-.105.448-.24 2.702.049 3.864.496.335.129.522.114.522-.04 0-.132.113-.171.252-.085.169.104.226-.138.174-.74-.064-.737.011-.935.424-1.116.519-.228.714-.911.583-2.049-.123-1.071-1.852-.877-1.767.198zM12.058 12.638c0-.191-.104-.348-.232-.348s-.232.157-.232.348.104.348.232.348c.127 0 .232-.157.232-.348zm-1.293 3.98c.445.212.76.466.7.564s-.395.029-.744-.153-.764-.331-.924-.332-.29-.106-.29-.233c0-.329.329-.289 1.258.154zm19.066 8.067c.622-.577 1.563-.754 1.817-.344.389.63-1.381 2.511-2.101 2.235-.542-.208-.382-1.273.285-1.891zm-2.694 2.432c.367-.686.743-.258.648.737-.049.508-.197.783-.423.783-.444 0-.573-.87-.225-1.52zm-12.95.613c.389-.273.581-.292.83-.085.246.205.429.204.759-.002.362-.226.493-.188.782.225.297.424.629.51 2.271.589 1.058.051 2.28.113 2.715.137s.836.175.889.334c.123.369 1.038.377 1.403.012.529-.529.914.182.499.924-.465.832-5.619 1.373-6.151.646-.185-.254-.964-.512-2.184-.725-2.503-.437-3.123-1.138-1.815-2.054z"/></symbol><symbol id="icon-hungary" viewBox="0 0 53 32"><path d="M38.845 3.259c-.148.24-1.382.321-2.741.181-2.399-.248-2.553-.189-5.209 1.975-2.405 1.959-2.871 2.169-3.843 1.726-.898-.409-1.334-.323-2.33.46-.86.676-1.585.873-2.435.66-1.43-.359-3.247.669-3.699 2.093-.369 1.163-8.314 1.313-9.655.182-1.175-.991-2.52-.443-3.506 1.429-.8 1.518-1.111 1.731-2.279 1.56-1.251-.184-1.334-.103-1.099 1.069.139.697.079 1.458-.134 1.69-1.341 1.456-1.011 6.169.559 8.005 1.474 1.723 1.916 1.999 3.644 2.276.388.062.706.399.706.748 0 2.271 9.473 3.885 11.249 1.916.493-.547 1.349-.994 1.901-.994s2.25-.324 3.771-.721c1.9-.495 2.918-.569 3.252-.235 1.315 1.315 9.307-.67 10.365-2.574.286-.515 1.799-2.525 3.363-4.468s3.295-4.274 3.849-5.181c.554-.907 1.888-2.178 2.966-2.824 4.22-2.53 5.412-4.704 2.579-4.704-.324 0-1.41-.759-2.413-1.686-1.651-1.526-2.013-1.661-3.813-1.422-1.66.22-2.072.11-2.487-.667-.514-.961-2.086-1.264-2.561-.495z"/></symbol><symbol id="icon-italy" viewBox="0 0 28 32"><path d="M11.649 4.299c1.522-.096 1.541-.095 1.764.152.12.132.278.241.351.241s.197.103.275.228c.094.151.348.257.75.312.426.059.717.186.975.427.202.189.444.314.537.279.112-.043.197.05.251.277.045.188.149.423.231.522.691.833.548 2.286-.226 2.286-.478 0-1.003-1.478-.623-1.756.115-.084.179-.203.142-.263-.086-.139-.865-.097-1.067.058-.145.111-.894.436-1.084.471-.05.009-.171.023-.271.032-.232.019-.235.499-.004.804.23.304.232.644.004.731-.222.085-.236.83-.022 1.215.134.24 1.682 1.355 1.882 1.355.222 0 .758.759.978 1.386.61 1.737 1.871 2.746 3.354 2.686 1.026-.042 1.355.146.97.555-.435.463-.023.826 1.44 1.267.298.09.65.256.782.369s.484.326.782.473c.643.317 1.684 1.292 1.684 1.577 0 .751-.781.837-1.079.118-.124-.299-.238-.373-.674-.439-.289-.043-.588-.154-.664-.246-.291-.35-.658-.195-.993.42-.411.754-.408 1.045.011 1.262.875.452 1.117 1.422.412 1.649-.6.193-.742.326-.748.697-.012.829-1.558 1.865-1.865 1.251l-.134-.268-.253.342c-.489.661-.652 1.205-.449 1.495.231.33.227.619-.015.988-.107.163-.147.297-.09.298s.033.047-.055.103c-.3.19-1.111-.059-1.47-.451-.231-.253-.455-.375-.687-.375-.19 0-.639-.176-.999-.391-.802-.479-1.328-.72-1.405-.643-.032.032-.222-.095-.423-.283l-.365-.341.271-.381c.227-.319.326-.369.608-.307.189.041.371.018.415-.053.111-.18.67-.151 1.027.053.386.221 1.291.227 1.951.014.283-.092.935-.238 1.447-.325.922-.156.932-.162 1.008-.565.05-.266.175-.452.362-.537.295-.135.375-.383.165-.513-.066-.041-.12-.181-.12-.312s-.128-.493-.283-.805c-.156-.312-.319-.716-.363-.898-.063-.261-.149-.331-.408-.331-.553-.001-1.11-.42-1.11-.836 0-.371-.283-.624-.58-.518-.087.031-.288-.064-.445-.212s-.363-.239-.456-.203c-.109.042-.263-.1-.428-.393-.302-.537-.438-.604-1.222-.604-.322 0-.619-.055-.66-.122s-.248-.198-.458-.291c-.211-.093-.842-.616-1.403-1.162-.656-.638-1.15-1.019-1.383-1.067-.2-.041-.352-.126-.338-.19.035-.164-.695-.9-1.017-1.026-.213-.083-.271-.202-.275-.56-.002-.25-.083-.559-.18-.688s-.177-.372-.178-.541c-.003-.462-.089-.538-1.238-1.08-1.625-.767-1.982-.72-2.844.376-.328.417-.744.405-.993-.029-.113-.196-.356-.424-.541-.505-.532-.234-.7-.848-.391-1.426.09-.168.087-.226-.01-.203-.074.018-.215-.085-.313-.227-.192-.28-.201-.264.437-.752.287-.219.291-.239.09-.46-.271-.299-.299-1.262-.034-1.16.097.037.349-.019.56-.124s.502-.192.647-.192c.164 0 .315-.114.4-.301.154-.339.464-.386.811-.124.415.314.738.211.667-.212-.083-.495.582-.722 1.002-.342.33.299 1.295.458 1.194.197-.038-.1-.131-.185-.207-.189s-.011-.058.144-.121c.155-.062.331-.083.391-.045.094.058.163-.189.126-.45-.021-.15.457-.05.518.108.081.211.725.197.904-.02.086-.103.424-.192.827-.218zM6.87 17.745c.619-.492.503-.456.897-.277.502.229 1.118 1.747.791 1.949-.057.035-.13.568-.162 1.184-.074 1.407-.205 1.689-.74 1.588-.338-.063-.41-.031-.532.236-.477 1.047-1.641-.244-1.245-1.381.073-.21.094-.443.045-.518s-.09-.364-.092-.642a1.482 1.482 0 0 0-.289-.891c-.328-.444-.229-.76.246-.782.505-.023.545-.04 1.081-.467z"/></symbol><symbol id="icon-latvia" viewBox="0 0 63 32"><path d="M32.134 1.762c-3.698 2.028-3.693 2.019-3.39 6.137.27 3.662.253 3.725-1.203 4.566-2.695 1.555-5.889 1.288-6.887-.577-.278-.52-2.021-2.276-3.874-3.902l-3.368-2.957-2.425.679c-3.296.923-6.213 3.641-6.919 6.448-.306 1.216-1.115 2.735-1.796 3.376-3.424 3.216-.807 11.524 2.748 8.727.993-.781 2.094-1.032 4.528-1.032 2.494 0 3.527-.245 4.606-1.094 1.856-1.46 6.419-1.187 8.205.491 1.023.961 1.791 1.119 5.463 1.119 3.491 0 4.513.189 5.585 1.032.833.655 2.094 1.032 3.45 1.032 2.25 0 4.432 1.132 4.432 2.298 0 3.127 6.004 4.278 10.16 1.947.62-.348 1.501-.633 1.959-.633 1.261 0 3.365-2.371 3.365-3.792 0-1.317.842-1.885 2.791-1.885.637 0 1.667-.541 2.288-1.203l1.13-1.203-1.088-.985c-.85-.769-1.025-1.374-.799-2.764.159-.979.037-2.083-.27-2.453-.525-.632-.451-1.66.347-4.857.619-2.479-2.73-5.329-5.734-4.878-1.491.224-2.948.126-3.878-.258-1.227-.508-1.806-.467-3.285.236l-1.796.852-1.903-2.106c-1.143-1.265-2.198-1.992-2.642-1.822-.407.156-1.393-.182-2.192-.75-1.927-1.372-4.871-1.29-7.61.212z"/></symbol><symbol id="icon-netherland" viewBox="0 0 28 32"><path d="M21.322 2.211c-2.853.368-4.198 1.003-5.837 2.754-.65.694-1.804 1.387-2.565 1.539s-1.528.501-1.704.775c-.509.791-1.425 3.542-1.432 4.303-.004.381-.907 1.748-2.007 3.036s-2 2.52-2 2.737-.28.287-.622.156c-.797-.306-1.444.703-.733 1.142.336.208.024.435-.832.606-1.105.221-1.369.495-1.369 1.422 0 .642-.193 1.029-.438.877-.279-.172-.303.101-.065.752.649 1.775 4.17 2.175 5.757.654 1.685-1.615 6.253-1.334 6.929.426.209.544.629.639 1.828.415 1.918-.36 2.452.534 1.336 2.237-.861 1.313-.723 1.582.9 1.76.641.07 1.057.02.925-.112s.057-.538.42-.901c.374-.374.545-1.025.393-1.503-.154-.484-.056-.842.23-.842.688 0 .337-3.289-.451-4.24-.546-.657-.503-.849.343-1.534.532-.431.842-.908.689-1.06s.334-.277 1.081-.277c2.863 0 4.52-2.826 2.757-4.702-.921-.98.142-2.597 1.086-1.653.154.154.281-.328.281-1.072s.296-1.599.658-1.899c.709-.589.675-2.354-.073-3.785-.256-.489-.381-1.121-.279-1.404s-.056-.664-.351-.846c-.369-.228-.425-.136-.18.293.288.505.242.518-.242.069-.644-.597-.731-.6-4.432-.122z"/></symbol><symbol id="icon-norway" viewBox="0 0 27 32"><path d="M19.638.207c-.169.44.016 1.029.381 1.212.36.181.358.184-.163.186-.291.001-.685.122-.877.27s-.464.309-.604.361c-.312.114-.341.541-.037.541.33 0 .266.192-.216.654-.712.682-.946 1.83-.373 1.83.123 0 .224.073.224.162 0 .094.108.121.256.064.203-.077.219-.06.076.084s-.25.144-.514.002c-.624-.334-2.775.88-2.337 1.319.119.119-.118.348-.887.86-1.793 1.191-3.643 3.285-2.989 3.382.17.025.326.13.346.232s.004.119-.037.037c-.097-.196-.721-.192-1.095.008-.228.122-.353.105-.55-.073-.14-.127-.48-.238-.755-.248s-.385-.047-.244-.084c.141-.037.256-.152.256-.257 0-.147-.115-.136-.507.047-.514.241-.729.529-.261.349.24-.092.24-.074-.006.301-.278.424-.227.683.133.683.121 0 .179.066.129.146s-.21.146-.356.146c-.437 0-.685.405-.465.757.224.359.131.505-.126.197-.202-.244-1.534-.318-1.673-.093-.044.071-.308.172-.587.225-.504.095-1.104.665-1.104 1.051 0 .108-.181.235-.402.281-.563.118-.817.271-.986.593-.094.179-.32.286-.634.301-.268.013-.63.156-.804.319s-.497.365-.718.448c-.424.161-.549.636-.221.839.122.076.063.14-.182.198-.51.12-.535.54-.063 1.033.347.362.369.432.16.513-.283.109-.321.655-.063.913.141.141.141.239 0 .466-.245.393-.225 1.312.035 1.6s.135.936-.16.823c-.136-.052-.2.039-.2.284 0 .198.066.361.146.361s.148-.115.149-.256c.003-.223.035-.216.256.054.139.17.384.389.545.485.283.169.282.173-.031.107-.326-.069-.706.212-.527.39.053.053.011.256-.094.452-.118.221-.144.455-.067.621.068.146.126.625.129 1.065.006.852.335 1.169.711.686.298-.382 1.302-.733 1.21-.422-.041.139-.119.437-.173.662-.068.286-.165.385-.318.326-.34-.13-.621.199-.621.727 0 .576.602 1.165 1.731 1.695.412.193.715.426.682.523-.067.195.429.403.644.27.076-.047.179-.018.229.064.144.233 2.087.18 2.573-.071.233-.121.638-.328.899-.462s.777-.511 1.145-.84c1.923-1.715 2.078-1.829 2.307-1.701.531.297 1.479-.626 1.479-1.44 0-.239.066-.476.146-.525s.146.018.146.151c0 .411.567 1.064 1.009 1.161.311.068.403.16.352.353-.058.222.04.264.657.286.832.029.812.062.984-1.659.113-1.138.243-1.388.719-1.388.423 0 .873-.497.747-.825-.066-.172.03-.352.307-.573.399-.318.401-.327.161-.814-.133-.271-.279-.611-.323-.757s-.148-.224-.229-.174c-.081.05-.147-.009-.147-.132 0-.158.219-.252.752-.323 1.409-.187 1.606-.911.413-1.52-.702-.358-1.289-1.636-1.175-2.555.163-1.314.169-1.534.036-1.534-.086 0-.123-.218-.086-.511.035-.281.003-.511-.07-.511s-.103-.117-.066-.259-.108-.518-.322-.834l-.39-.575.454-.406c.512-.458.554-.642.227-1.004-.207-.229-.193-.287.16-.669.213-.23.505-.579.649-.776.261-.358 2.212-.487 3.126-.206.154.047.329-.003.4-.114.161-.255.167-.856.009-.856-.067 0-.208-.161-.313-.358-.188-.351-.918-.724-1.087-.555-.047.047-.085.039-.085-.018s.269-.36.599-.673c.329-.313.555-.64.502-.726s.105-.271.353-.411c.375-.212.436-.319.366-.645-.1-.467.686-2.09 1.128-2.326.354-.19.851-.988.852-1.369 0-.158.271-.563.602-.9s.557-.685.503-.773c-.162-.263-5.767-.218-5.869.047zm-5.172 6.161c.483-.268.518-.268.731-.012.2.241.192.246-.438.246-.667 0-.686-.015-.292-.234zm.678 3.924c.011.2-.078.393-.203.442-.175.067-.188.043-.058-.114.091-.11.127-.238.079-.286-.071-.071.039-.398.134-.398.015 0 .037.16.048.356zm-1.263 1.251c0 .08-.148.145-.329.144-.266-.002-.287-.029-.11-.144.283-.183.438-.183.438 0zm-7.488 3.323c.043.132-.073.156-.427.088-.93-.179-1.112-.335-.352-.301.418.019.744.108.779.214zM2.41 25.255c-.176.176-.656-.166-.499-.356.148-.179.2-.172.361.049.103.141.165.28.138.307z"/></symbol><symbol id="icon-portugal" viewBox="0 0 17 32"><path d="M5.181.762c-.209.251-.637.457-.952.457-.707 0-.735.912-.109 3.505.512 2.122.584 4.469.149 4.904-.166.166-.391.982-.501 1.813-.224 1.697-1.137 3.926-2.008 4.903-.927 1.039-1.109 3.913-.277 4.359.357.191.649.604.649.918 0 .429.158.529.641.403.352-.092.742-.004.866.196.424.686.326 5.538-.13 6.419-.555 1.073-.112 1.617.978 1.203.486-.185 1.443-.166 2.696.052 2.622.457 4.093-.313 4.093-2.143 0-.634.24-1.482.533-1.883 1.666-2.281 1.814-2.742 1.044-3.253-.872-.579-.838-1.314.099-2.194 1-.939.961-1.766-.152-3.304-1.031-1.423-1.079-1.572-.51-1.572 1.037 0 1.849-1.448 1.29-2.301-.288-.44-.479-.838-.423-.884s.409-.245.786-.441c.799-.416.881-1.013.215-1.566-.265-.22-.386-.602-.277-.875.34-.848.383-1.974.104-2.708-.225-.591-.116-.842.644-1.481 1.981-1.667.806-3.891-1.926-3.645-1.978.178-2.607.206-3.483.158-.293-.016-.809.06-1.146.169-.487.158-.685.007-.964-.732C6.723.215 5.822-.006 5.182.765z"/></symbol><symbol id="icon-spain" viewBox="0 0 38 32"><path d="M4.364.858C5.25.7 5.732.742 6.085 1.009c.286.216.911.263 3.091.234 1.624-.022 2.881.041 3.097.154.579.303 2.632.435 3.796.244.676-.111 1.187-.112 1.391-.002.178.095 1.374.208 2.659.25 2.577.085 3.005.177 2.839.61-.061.158-.035.242.057.186s.324.108.517.364c.192.256.253.407.136.334s-.213-.045-.213.061c0 .165.615.271 1.409.241.125-.005.227.055.227.132s.184.183.409.234c.225.052.858.266 1.406.476 1.067.408 1.541.483 1.377.217-.056-.091.075-.119.29-.062.251.066.349.033.273-.091s.021-.157.273-.091c.231.06.347.03.283-.074-.069-.111.239-.13.835-.051.519.069 1.006.09 1.081.046s.136-.002.136.093.266.222.591.282c1.005.188 1.089.223 1.329.551.195.267.434.304 1.475.227 1.498-.11 1.378-.081 1.243-.299-.066-.107.016-.131.201-.06.237.091.274.057.154-.138-.122-.199-.057-.191.282.032.805.531.638 1.921-.314 2.614-1.417 1.033-3.05 1.855-4.342 2.185-1.408.36-1.895.629-1.962 1.085-.024.163-.268.518-.542.788-2.679 2.642-3.352 4.552-2.014 5.716.644.56.56.797-.52 1.488-.855.547-1.004.738-1.311 1.68-.454 1.393-.561 1.517-1.316 1.517-.929 0-1.837.636-2.235 1.565-.228.532-.472.814-.755.872-1.049.213-2.046.305-4.327.4-2.078.087-2.512.156-2.83.451-.207.192-.633.349-.948.349-.426 0-.756.185-1.292.727-.818.826-.981.861-1.768.381-.569-.347-1.6-1.933-1.432-2.203.139-.225-1.371-1.343-1.898-1.406-.885-.106-.925-.16-.801-1.084.064-.479.186-.898.27-.931s.154-.179.154-.324c0-.145.131-.313.29-.375.239-.092.269-.286.168-1.095-.081-.651-.051-1.07.089-1.239.262-.316.142-1.309-.254-2.104-.291-.583-.287-.608.184-1.099.379-.396.459-.618.374-1.042-.072-.36-.02-.613.157-.759.276-.229.359-.93.137-1.152-.728-.728.179-3.387 1.155-3.387.164 0 .245-.126.203-.318-.038-.175-.147-.305-.241-.288s-.183-.173-.198-.421c-.057-.945-.935-1.11-3.827-.716-.647.088-.806.043-1.043-.295-.197-.282-.534-.429-1.143-.499-.793-.092-.866-.142-.902-.621-.022-.29-.21-.641-.422-.79-.21-.147-.353-.357-.316-.467s-.082-.347-.263-.529c-.661-.661.055-1.519 1.441-1.728.387-.058.92-.323 1.229-.61.3-.279.75-.544 1-.588zm6.145 27.188a1.05 1.05 0 0 1 1.447.159c1.283 1.565 1.617 1.705 4.081 1.705 1.256 0 2.176-.075 2.221-.182.134-.314.474.341.425.818-.026.25-.21.604-.41.787s-.249.272-.108.199c.178-.093.212-.063.112.1-.158.256-2.081.14-2.912-.176-.287-.109-.822-.102-1.484.02-1.145.212-1.881.021-1.881-.488 0-.706-1.473-1.313-1.707-.703-.06.156-.191.233-.292.171s-.184-.006-.186.125c-.002.173-.051.163-.178-.035-.264-.412.309-2.055.872-2.5z"/></symbol><symbol id="icon-sweden" viewBox="0 0 27 32"><path d="m9.277.402.426-.396 7.745-.003c4.26-.002 7.745.04 7.745.093s-.102.188-.227.301c-.289.262-.287.581.007 1.063.309.507.258.871-.12.852-.156-.008-.562.029-.901.083-.491.078-.656.063-.805-.072-.28-.253-1.061-.073-1.108.256-.038.26-.615.756-1.09.936-.24.091-.279.163-.227.426.05.25-.009.385-.286.649-.422.403-.426.474-.063 1.156l.285.537-.541.524c-.297.288-.632.662-.744.831-.207.311-1.338 1.101-1.577 1.101-.072 0-.225.085-.34.189s-.343.203-.507.221c-.164.017-.434.162-.6.322s-.382.29-.479.29c-.263 0-.775.441-.775.668 0 .221-.631.738-.785.643-.117-.072-.264.254-.178.394.078.126-.394.451-.654.451-.291 0-.374.311-.148.56.129.143.148.225.059.255-.072.024-.158.298-.191.607-.039.373-.149.66-.323.847-.433.465-.12 2.975.349 2.796.084-.032.21.009.279.093s.215.129.323.1c.114-.03.311.07.47.239.15.16.327.291.395.293.204.005 1.18 1.068 1.255 1.367.056.224.001.332-.276.537-.19.141-.346.331-.346.423 0 .096-.108.168-.255.17-.228.003-.234.016-.057.119.458.267-2.103 2.034-2.947 2.034-.145 0-.149.028-.021.183s.125.203-.016.312c-.104.081-.176.359-.19.737-.013.334-.077.672-.142.751s-.114.443-.108.811c.006.367-.007.913-.028 1.214-.042.601.059.55.498-.25.524-.956.654-.288.158.813-.147.326-.353.86-.46 1.187-.28.86-.726.882-.752.036l-.009-.29-.134.302c-.304.684-.456.756-1.472.692-1.352-.084-2.302.535-2.028 1.321.17.488-.083.65-1.114.717-1.235.079-1.428.007-1.381-.516.029-.328-.049-.554-.35-1.015-.622-.951-.612-.92-.263-.832.271.068.301.05.239-.145-.047-.149-.003-.261.133-.338.183-.104.151-.17-.324-.661-.29-.3-.656-.804-.814-1.12s-.367-.641-.465-.723-.181-.232-.183-.333c-.002-.102-.079-.284-.17-.405s-.167-.305-.167-.408c0-.103-.102-.28-.227-.393s-.227-.332-.227-.487c0-.155-.071-.339-.157-.408-.095-.076-.182-.455-.221-.958l-.064-.832.42.067c.594.095.66.005.743-1.005.081-.983.263-1.314.722-1.314.15 0 .244-.046.21-.102s.013-.131.105-.166c.129-.05.143-.13.061-.348-.091-.24-.061-.32.196-.521.177-.139.256-.271.189-.317-.063-.043-.122-.194-.131-.335s-.097-.338-.197-.438c-.267-.267-.033-.478.631-.566.304-.04.528-.114.497-.165s-.005-.123.059-.163c.35-.216-.017-.66-.566-.685-.094-.004-.158-.066-.144-.138s-.099-.228-.251-.348c-.153-.12-.245-.251-.206-.29s.022-.072-.038-.072c-.065 0-.1-.439-.084-1.078.014-.593-.009-1.078-.051-1.078s-.08-.191-.085-.426c-.013-.608-.224-1.501-.392-1.655-.111-.103-.123-.094-.051.038.05.094.049.132-.003.084-.103-.094-.157-.658-.057-.596.098.06.406-.207.487-.421.045-.12.005-.234-.105-.295-.148-.083-.155-.144-.041-.357.113-.212.11-.241-.015-.163-.107.066-.098.01.029-.185.1-.153.292-.334.425-.402s.342-.214.464-.324c.186-.169.39-.194 1.277-.16l1.056.04.036-.44c.02-.246-.025-.497-.102-.567-.105-.096-.118-.086-.056.043.045.094.001.071-.097-.05s-.179-.179-.179-.128c0 .051-.077.029-.17-.049s-.171-.097-.172-.042c-.003.145-.221-.218-.223-.371-.001-.071.062-.122.14-.113s.159-.035.18-.098c.077-.229.275-.393.39-.322.066.041.085.019.042-.05-.042-.068-.021-.157.047-.199s.096-.147.063-.233c-.033-.086.039-.21.161-.276a.338.338 0 0 0 .183-.368c-.021-.137.034-.321.121-.408s.131-.232.097-.321-.017-.134.038-.099.131-.017.168-.113c.041-.107.02-.146-.053-.101-.066.041-.056-.03.024-.157s.185-.206.235-.175c.05.031.093.015.095-.036s.136-.245.296-.432c.161-.187.253-.269.205-.181-.059.109-.043.132.052.074.076-.047.112-.112.081-.143s.067-.255.219-.497.277-.516.277-.61.192-.349.426-.567zm8.144 17.182c.095-.154.506-.028.786.241.46.441-.39.953-1.121.675-.4-.152-.365-.436.078-.628.203-.088.327-.162.277-.165s-.059-.058-.019-.123zm-2.048 6.711c.491-.137.977-.118.88.034-.044.069-.08.176-.081.238s-.117.13-.257.15c-.227.032-.255.101-.255.616 0 .949-.997 1.776-1.287 1.069-.354-.864.12-1.862 1-2.107zm-7.297 6.717c.176-.212.274-.186.684.181.317.283.346.353.215.511-.166.2-.691.253-.691.07 0-.062-.066-.113-.146-.113-.183 0-.226-.45-.062-.647z"/></symbol><symbol id="icon-switzerland" viewBox="0 0 59 32"><path d="M32.165.984c-.898.899-6.396 2.11-15.695 3.457-1.095.159-2.485.978-3.089 1.821s-2.522 3.079-4.262 4.968c-1.74 1.89-3.356 4.29-3.591 5.333s-1.269 3.814-2.299 6.156c-1.564 3.558-1.696 4.47-.8 5.549 1.273 1.534 3.315.312 3.315-1.985 0-2.348 2.839-4.273 5.872-3.982 2.786.267 3.18 1.106 1.938 4.129-.895 2.179 3.449 5.843 6.118 5.161 1.139-.291 3.277-.728 4.75-.972s3.373-1.325 4.221-2.403c1.875-2.383 2.892-2.445 5.572-.337 2.697 2.122 5.17.981 5.17-2.385 0-3.411 4.996-4.081 6.943-.93.296.479 1.55.871 2.787.871s2.634.385 3.104.855c1.505 1.505 3.216-1.356 1.83-3.06-.981-1.206-.949-1.318.25-.869 1.908.715 3.429-1.395 2.803-3.889-.359-1.43-1.079-2.063-2.348-2.065-3.45-.006-7.385-3.097-6.833-5.367l.979-4.025C49.755 3.5 46.074.71 40.82.893c-2.369.082-5.045-.104-5.948-.414-.962-.33-2.082-.122-2.707.504z"/></symbol><symbol id="icon-turkey" viewBox="0 0 68 32"><path d="M3.57.529c-.09.145-.464.265-.832.265-.5 0-.744.2-.968.793-.165.436-.392.793-.506.793-.434 0-.182.474.322.605.845.221.746 1.97-.131 2.303-.567.216-.653.403-.617 1.339C.864 7.296.743 7.8.523 7.936c-.619.383.192 1.018 1.414 1.107l1.103.08-.85.465C1.289 10.08.996 10.81.687 13.323l-.159 1.29 1.645-.186c1.628-.184 1.64-.18 1.172.337-.373.413-.414.641-.191 1.078l.571 1.119c.216.422.207.615-.036.765-.183.113-.269.496-.196.877.081.423-.005.727-.228.813-.226.087-.357-.055-.357-.383 0-.891-1.18-.883-1.219.008-.016.364-.117.868-.225 1.12-.211.493.966 1.159 1.483.839.142-.088.46.016.705.231s.714.473 1.041.573c.766.233.766.829 0 1.045-.543.153-.554.191-.132.441.255.15.463.441.463.647s.258.614.574.908c.539.502.547.564.132 1.023-.79.873-.541 1.106 1.211 1.138.909.017 1.415.083 1.124.147-2.164.476-2.694 1.307-.661 1.037.848-.113 1.322-.077 1.322.098 0 .416.56.327 1.116-.176.433-.392.606-.405 1.343-.104.465.19 1.061.34 1.323.333s.548.189.634.435c.25.711 1.189 1.638 1.659 1.638.236 0 .573.143.747.318.247.247.538.236 1.309-.049.545-.202 1.349-.374 1.785-.384.717-.015.821-.131 1.079-1.207l.286-1.19 1.378-.08c1.698-.099 3.835.824 5.556 2.399l1.158 1.06 2.198-.169c2.701-.207 3.354-.446 4.755-1.738 1.782-1.642 2.083-1.735 3.565-1.097 1.643.707 1.995.694 2.95-.11.982-.826 1.803-.874 1.803-.104 0 .44.098.51.463.334.255-.123 1.617-.225 3.027-.227 1.694-.002 2.677-.115 2.896-.334.182-.182.487-.331.676-.331s.344-.119.344-.264c0-.146.238-.265.529-.265s.529.119.529.265c0 .145.298.264.661.264s.661.122.661.271.446.27.992.268c2.353-.006 2.893-.018 3.769-.079.509-.036 1.223-.253 1.587-.483s.966-.605 1.338-.832c.806-.492 3.264-.784 3.619-.43.157.157.536.107 1.019-.136a20.946 20.946 0 0 1 1.496-.667l.727-.281V13.478c0-7.704-.09-11.602-.265-11.494-.145.09-.264.347-.264.572 0 .948-2.344 2.998-3.429 2.998-.279 0-.582.121-.673.268-.587.949-3.566 1.342-4.911.647-.543-.281-1.093-.35-1.772-.223-.541.102-1.044.178-1.117.169s-.37.114-.661.272c-.714.389-2.852.298-3.759-.159-.405-.204-1.304-.445-1.997-.536s-1.614-.426-2.046-.745c-.69-.51-.863-.538-1.432-.234-.873.467-1.424.202-1.889-.91-.376-.9-.433-.929-1.818-.929-1.828 0-2.266-.179-2.266-.926 0-.729-.636-1.028-1.361-.64-.324.173-1.881.251-4.014.201-3.579-.084-6.051.341-7.047 1.214-.222.195-.94.622-1.595.949s-1.581.936-2.059 1.353c-.913.796-2.494 1.029-3.465.51-.255-.136-2.062-.299-4.016-.362-4.754-.152-7.332-1.319-6.978-3.157.137-.711-.615-1.577-1.207-1.389-.244.078-.79-.039-1.212-.259C5.581.215 3.814.13 3.567.529zm8.331 6.493c1.858.25 3.309 1.177 1.842 1.177-.68 0-1.885.774-1.692 1.087.08.13-.628.236-1.573.236s-1.793-.119-1.882-.264c-.274-.443-1.269-.323-1.094.132.183.476-1.275.578-1.565.108-.107-.173-.563-.225-1.14-.131l-.962.158L4.803 9c.532-.289 1.204-.825 1.492-1.192.385-.489.775-.667 1.463-.667.516 0 1.018-.13 1.116-.288.102-.165.533-.225 1.007-.139.456.082 1.365.221 2.019.309z"/></symbol><symbol id="icon-ussr" viewBox="0 0 15 32"><path d="M4.183.274c-.417.482-.493.795-.263 1.087.247.314.098.452-.486.452h-.377l-.04.247c-.031.193-.019.263.055.317.132.097.147.264.036.392-.088.101-.084.117.055.237.13.112.142.151.093.299-.039.118-.037.176.008.191.404.135.672.742.393.891-.172.092-.101.234.117.234.073 0 .148.038.166.085s.172.174.343.283l.807.513c.583.37.583.37.584.651.001.14.035.236.098.271.073.041.088.105.062.265-.019.116-.01.226.02.245.113.07.047.195-.203.386-.142.108-.261.236-.264.285-.019.281-.035.351-.079.351-.027 0-.033.026-.013.059s.015.059-.011.059-.082.078-.124.173-.127.189-.19.209c-.062.02-.113.06-.113.091s-.053.055-.117.055-.117.025-.117.057-.039.042-.088.023-.088-.006-.088.027c0 .066-.021.069-.576.065-.232-.002-.358.019-.335.055.02.032-.003.08-.05.106-.196.11-.182.525.018.525.122 0 .229.053.332.164l.152.164-.165-.038c-.523-.119-.824-.113-.895.019-.054.101-.112.125-.268.112-.144-.012-.223.015-.284.098-.068.092-.1.101-.159.042-.14-.138-.219-.079-.237.175-.015.204-.039.249-.135.249-.09 0-.116.037-.111.161.003.088-.018.161-.047.161s-.04.023-.022.051c.017.028-.021.098-.084.155-.117.106-.161.379-.061.379.174 0 .11.413-.098.633-.117.124-.091.406.041.448.328.104.553.487.533.908-.005.113-.008.284-.006.38s.004.281.004.409c0 .173.033.259.128.331.166.125.065.268-.206.295l-.186.018.02.322c.011.177.044.331.073.341s.053.054.053.095.04.108.088.149c.199.166.046.523-.421.984-.335.33-.509.654-.721 1.343-.198.644-.101.922.448 1.283.197.129.266 1.199.087 1.349-.086.072-.14.222-.185.512-.08.518-.235.751-.63.946-.398.196-.608.516-.446.678.019.019.046.293.059.609.034.794-.011.738.693.863.527.094.634.132.775.281.09.095.243.206.34.247s.281.179.409.307c.129.128.277.248.329.267s.11.109.127.201c.083.425.287.852.494 1.032.118.103.374.337.568.521s.379.335.412.336c.075.001.322-.378.322-.494 0-.085.065-.113.219-.093.04.005.073-.014.073-.043s.069-.04.152-.024c.093.018.175-.003.209-.052.044-.063.063-.064.086-.008.047.116.312.091.314-.029.002-.095.008-.095.075-.006.04.053.138.109.218.124.101.019.077.029-.082.035-.18.006-.218.027-.19.101.02.051.036.129.036.173 0 .165.388.28.821.244.23-.019.42-.01.439.021s.101.055.184.055c.194 0 .099.13-.173.236-.598.234-.929.583-.552.583.105 0 .244.036.307.079s.185.096.27.116c.156.038.272.354.157.425-.027.017-.036.053-.019.081s.004.067-.028.087c-.097.06-.069.116.11.222.25.147.436.124.656-.082.222-.207.397-.286.634-.286.112 0 .229-.066.363-.203.191-.196.203-.201.364-.117.318.165.691.105.729-.118a.46.46 0 0 1 .074-.182c.034-.042.022-.092-.034-.138-.098-.082-.786-.045-.845.045-.14.216-.701-.428-.706-.811-.002-.123.317-.356.39-.284.035.035.107.001.193-.092.076-.081.173-.147.216-.147s.078-.023.078-.051c0-.028.106-.042.237-.031s.223-.003.205-.03c-.035-.057.156-.119.377-.123.08-.001.197-.041.26-.089s.17-.086.24-.086.171-.05.226-.111c.098-.108.58-.183 1.156-.179.118.001.232-.026.252-.059.053-.086.265-.076.263.013-.002.08-.359.278-.502.278-.099 0-.257.136-.257.222 0 .03-.063.043-.139.028s-.157.002-.179.037-.091.064-.153.064-.113.033-.112.073c.003.101.164.307.207.264.019-.019.099.021.178.09l.143.125-.134.055c-.074.03-.152.058-.173.061s-.111.11-.198.239c-.087.129-.184.25-.215.271s-.038.096-.015.17c.034.107.024.126-.052.097-.052-.02-.095-.017-.095.006s-.079.048-.175.054c-.097.007-.175-.013-.175-.044s-.053-.056-.117-.056c-.077 0-.117.039-.117.115 0 .078-.028.104-.088.081-.126-.048-.112.131.015.187.056.025.122.051.146.057s.057.019.073.027c.016.008.05.018.075.022s.146.108.269.23c.155.155.265.217.36.205.086-.011.198.04.302.138.091.086.273.184.406.219.257.068.344.127.997.676.584.492.916.721 1.111.767.092.022.233.099.313.171s.205.162.278.199a.234.234 0 0 1 .132.212c0 .079.023.144.052.144s.051.033.049.073c-.008.21.025.278.133.278.117 0 .117-.039.117-15.762V.423l-.384.2c-.211.11-.444.2-.516.2s-.206.078-.296.173a2.045 2.045 0 0 1-.483.328c-.219.107-.307.181-.285.24.018.047.007.069-.025.049s-.058.005-.058.055.028.091.062.091.049.022.032.048c-.016.027.083.178.221.336.405.465.434.551.185.551-.155 0-.229.036-.301.146-.109.166-.31.191-.509.063-.125-.081-.609-.23-1.043-.321a1.245 1.245 0 0 1-.409-.195c-.448-.338-.903-.406-.941-.141a.273.273 0 0 1-.15.184c-.318.139.345.908.783.908.302 0 .431.046.431.153 0 .045.032.134.072.197.089.143.023.221-.289.337-.431.16-1.125-.032-1.497-.415-.143-.147-.277-.251-.297-.231s-.037.003-.037-.038c0-.054-.057-.064-.203-.037-.402.075-.598-.115-.605-.587-.004-.231-.239-.755-.385-.858-.043-.03-.021-.081.066-.154.072-.06.163-.233.204-.384l.073-.275-.267-.252a1.546 1.546 0 0 0-.599-.357C7.33.356 7.263.311 7.287.236c.056-.177-.34-.233-1.645-.231L4.42.007l-.234.271z"/></symbol><symbol id="icon-yugoslavia" viewBox="0 0 38 32"><path d="M9.922 1.612c-.17.205-.679.372-1.132.372s-.892.112-.977.248c-.084.136-.688.248-1.341.248-.872 0-1.306.132-1.636.496-.371.41-.764.496-2.271.496H.743v.848c0 .744.291 1.548 1.038 2.873.115.205.331.679.479 1.054s.369.696.493.713c.123.017.354.045.513.062.528.057.516.682-.015.821-.748.195-.506 2.559.262 2.559.313 0 .25-1.595-.076-1.921-.156-.156.119-.095.612.136.837.393 1.105.935.93 1.881-.076.409 1.069 1.409 1.458 1.275.288-.099.275-.047-.05.206-.554.431.215 1.896.996 1.896.117 0 .455.226.751.501s.622.471.726.434c.103-.037.338.247.522.63.28.585.443.673 1.011.549.372-.082.949-.04 1.281.093.377.151.453.248.202.257-.948.037-.461 1.213.575 1.388 1.106.187 1.55.011.584-.231-.726-.182-.836-.568-.198-.696.239-.048.936.291 1.55.753 1.433 1.079 1.447 1.095.805.857-.692-.256-2.833-.093-2.65.202.187.302 1.53.284 1.72-.024.092-.148.616 0 1.315.372.639.34 1.275.619 1.413.619.993.001 5.501 3.252 5.195 3.747-.076.122.037.222.249.222.299 0 .387-.283.387-1.248 0-1.412.385-1.756 1.373-1.228.464.248.674.253.953.021.287-.238.429-.197.713.21.195.279.708.63 1.139.78.914.319.976.734.306 2.048-.375.736-.407.963-.15 1.061.227.087.287.424.196 1.101-.116.867-.073.976.39.976.346 0 .476.117.387.349-.105.273.277.388 1.743.525 2.11.198 3.452-.214 3.75-1.152.119-.376.238-.442.437-.244.295.295 1.692.358 2.592.117.525-.141.558-.279.558-2.326v-2.176l-.85-.16c-.987-.185-1.149-.486-.785-1.452.21-.555.188-.748-.105-.94-.31-.204-.27-.32.252-.733.341-.27.766-.613.943-.761.601-.503.271-2.284-.491-2.647-.812-.387-1.121-1.526-.693-2.559.176-.425.238-1.136.148-1.7-.179-1.121-.002-1.753.491-1.753.477 0 .432-.341-.108-.83-.56-.507-1.438-.533-1.708-.051-.17.304-.46.316-1.873.074-1.744-.299-2.091-.664-1.175-1.235.649-.405.626-.633-.137-1.34-.668-.619-1.104-.752-1.104-.339 0 .319-.759.314-1.24-.009-.323-.216-.311-.296.093-.604.291-.223.405-.512.304-.775-.089-.231-.226-.354-.306-.275s-.439-.128-.798-.461c-.359-.333-.727-.605-.818-.605s-.103-.24-.026-.532c.124-.475.062-.517-.581-.387-.396.08-1.085.018-1.53-.139-.652-.229-1.119-.202-2.397.139-.873.233-1.915.423-2.315.423-.412 0-.922.215-1.176.496-.809.894-3.031.538-4.621-.74-.512-.411-1.077-.753-1.255-.758s-.762-.564-1.295-1.24c-1-1.267-1.592-1.506-2.13-.858z"/></symbol></defs></svg>