<svg aria-hidden="true" style="position: absolute; width: 0; height: 0; overflow: hidden;" version="1.1" xmlns="http://www.w3.org/2000/svg" xmlns:xlink="http://www.w3.org/1999/xlink">
<defs>
<symbol id="icon-poland2" viewBox="0 0 33 32">
<path d="M31.709 1.734c-0.034 0.089-0.034 0.201 0 0.257 0.123 0.201-0.436 0.862-0.772 0.917-0.481 0.078-0.962 0.38-1.287 0.794-0.895 1.152-1.208 1.298-1.768 0.828-0.47-0.392-0.716-0.324-0.895 0.224-0.157 0.492-0.627 1.007-1.085 1.175-0.168 0.067-0.559 0.112-0.895 0.112s-0.638 0.045-0.671 0.112c-0.034 0.056 0.011 0.269 0.112 0.459 0.246 0.459 0.134 0.839-0.28 1.052-0.224 0.112-0.336 0.257-0.336 0.425 0 0.134-0.045 0.302-0.090 0.358-0.168 0.235-1.287 1.063-1.432 1.063-0.090 0-0.347 0.201-0.571 0.459-0.302 0.336-0.481 0.436-0.694 0.414-0.235-0.022-0.313-0.123-0.436-0.582-0.090-0.302-0.224-0.615-0.302-0.694-0.213-0.213-1.063-0.403-1.622-0.358l-0.503 0.034v0.794c0 0.604-0.045 0.862-0.19 1.018-0.112 0.123-0.201 0.302-0.201 0.403 0 0.313-0.783 0.862-1.253 0.862-0.302 0-0.615 0.134-1.108 0.448-0.38 0.246-0.738 0.448-0.806 0.448-0.056 0-0.257 0.067-0.448 0.157-0.336 0.157-0.671 0.213-2.059 0.358l-0.593 0.067-0.694-0.671c-0.962-0.917-1.063-0.951-2.148-0.873-0.962 0.078-1.085 0.034-1.432-0.47-0.157-0.235-0.145-0.604 0.022-1.197 0.022-0.067-0.022-0.246-0.090-0.425-0.112-0.269-0.19-0.302-0.615-0.302-0.369 0-0.548-0.067-0.727-0.257-0.324-0.336-0.313-0.615 0.034-1.085 0.157-0.213 0.28-0.436 0.28-0.515s0.056-0.157 0.123-0.179c0.078-0.022 0.090-0.168 0.022-0.425-0.090-0.347-0.157-0.392-0.492-0.425-0.392-0.034-0.392-0.034-0.347 0.358 0.067 0.559-0.034 0.85-0.414 1.253-0.28 0.291-0.324 0.436-0.313 0.862 0.022 0.571-0.168 0.806-0.727 0.929-0.179 0.045-0.313 0.101-0.313 0.145 0 0.034 0.201 0.291 0.448 0.571 0.481 0.537 0.503 0.627 0.324 1.276-0.157 0.582-0.873 1.231-1.656 1.533-0.336 0.123-0.75 0.347-0.929 0.492-0.179 0.157-0.392 0.28-0.47 0.28-0.19 0-0.28 0.839-0.201 1.969 0.045 0.75 0.078 0.85 0.302 0.94 0.145 0.056 0.448 0.302 0.683 0.548 0.459 0.503 0.627 0.548 1.152 0.28 0.324-0.168 0.38-0.168 0.649 0.022 0.168 0.101 0.414 0.336 0.571 0.503 0.145 0.179 0.392 0.38 0.548 0.459 0.269 0.134 0.358 0.246 0.593 0.761 0.056 0.123 0.291 0.179 0.817 0.201l0.738 0.034 0.738 0.727c0.75 0.738 0.917 1.074 0.794 1.555-0.045 0.168 0.011 0.414 0.157 0.671 0.28 0.503 0.291 1.041 0.011 1.276-0.112 0.101-0.47 0.28-0.783 0.403s-0.571 0.257-0.571 0.313c0 0.056 0.123 0.201 0.269 0.313 0.157 0.123 0.291 0.324 0.313 0.47 0.034 0.224 0.056 0.224 0.257-0.123 0.168-0.28 0.291-0.358 0.571-0.358 0.291 0 0.414 0.078 0.593 0.369 0.392 0.638 0.615 0.828 1.063 0.906 0.369 0.067 0.425 0.056 0.358-0.101-0.034-0.101-0.011-0.28 0.045-0.403 0.145-0.269 0.604-0.28 1.354-0.034 0.47 0.157 0.604 0.168 0.862 0.045 0.269-0.134 1.13-0.235 1.891-0.224 0.145 0 0.47 0.090 0.727 0.213 0.269 0.112 0.604 0.246 0.761 0.28s0.425 0.19 0.604 0.347c0.213 0.179 0.459 0.28 0.716 0.28s0.671 0.157 1.164 0.448c0.436 0.246 0.828 0.448 0.884 0.448 0.101 0 1.242 0.593 1.499 0.783 0.067 0.045 0.246 0.112 0.403 0.145 0.157 0.045 0.604 0.392 0.996 0.772 0.627 0.627 0.716 0.761 0.727 1.164 0.022 0.526 0.112 0.716 0.336 0.716 0.179 0 0.392-0.571 0.392-1.052 0-0.425 0.705-1.186 1.096-1.186 0.168 0 0.246-0.067 0.246-0.213 0-0.112 0.101-0.336 0.235-0.503 0.19-0.246 0.313-0.291 0.772-0.291 0.403 0 0.537-0.045 0.503-0.145-0.034-0.078-0.078-0.526-0.090-0.996-0.022-0.492-0.090-0.929-0.168-1.007-0.201-0.201-0.168-0.515 0.101-0.895l0.235-0.324-0.235-0.257c-0.123-0.134-0.235-0.336-0.235-0.448 0-0.548 0.94-1.555 1.578-1.689 0.369-0.078 1.018-0.66 1.421-1.276 0.101-0.145 0.224-0.571 0.269-0.951 0.145-1.22 0.257-1.566 0.627-1.936 0.336-0.336 0.358-0.392 0.358-1.197 0-0.459-0.045-0.873-0.112-0.906-0.056-0.034-0.112-0.369-0.112-0.738 0-0.671-0.235-1.108-0.593-1.108-0.224 0-1.164-1.141-1.376-1.667-0.123-0.324-0.157-0.604-0.112-0.884 0.045-0.224 0.101-0.548 0.123-0.705s0.145-0.526 0.28-0.817c0.123-0.291 0.224-0.604 0.224-0.694s0.045-0.246 0.112-0.358c0.056-0.101 0.235-0.492 0.392-0.862 0.213-0.492 0.515-0.895 1.152-1.511 1.387-1.354 1.824-2.495 1.253-3.267-0.19-0.257-0.269-0.559-0.313-1.119-0.045-0.716-0.179-0.962-0.313-0.593z"></path>
</symbol>
<symbol id="icon-lithuenia" viewBox="0 0 42 32">
<path d="M15.629 1.87c-1.381 0.134-2.172 0.391-2.693 0.876-0.783 0.728-3.527 1.373-5.841 1.373-0.989 0-1.605 0.22-2.337 0.836-0.546 0.46-1.448 0.928-2.005 1.041-1.491 0.303-1.422 2.983 0.163 6.257 0.183 0.379 0.239 1.065 0.123 1.525-0.159 0.633-0.014 1.070 0.593 1.791 0.442 0.525 0.803 0.861 0.803 0.746s0.47 0.082 1.043 0.436c0.616 0.38 1.427 0.601 1.98 0.538 0.515-0.059 1.417 0.090 2.005 0.331s1.336 0.438 1.663 0.438 0.595 0.209 0.595 0.464c0 0.255 0.321 0.62 0.713 0.81 0.682 0.33 0.686 0.324 0.102-0.144-0.336-0.269-0.532-0.568-0.435-0.665 0.246-0.246 1.838 1.705 1.838 2.252 0 0.248-0.184 0.451-0.408 0.451-0.824 0-0.506 1.887 0.693 4.119 0.175 0.325 0.872 0.505 2.203 0.57 1.071 0.052 1.947 0.23 1.947 0.396s0.151 0.302 0.336 0.302c0.184 0 0.241-0.153 0.125-0.34s0.37-0.044 1.080 0.318c1.355 0.691 1.945 1.455 1.945 2.52 0 0.949 0.974 1.381 1.677 0.745 0.53-0.479 0.552-0.473 0.336 0.091-0.206 0.538-0.177 0.554 0.264 0.142 0.273-0.255 0.427-0.642 0.343-0.861s0.014-0.398 0.217-0.398c0.203 0 0.281-0.144 0.172-0.319-0.239-0.387 0.273-0.601 1.744-0.727 0.776-0.066 1.098-0.244 1.072-0.591-0.020-0.273 0.178-0.48 0.441-0.46s0.54-0.177 0.616-0.438c0.122-0.422 0.1-0.422-0.199 0-0.185 0.261-0.338 0.319-0.341 0.128s0.28-0.605 0.629-0.92c0.348-0.315 0.634-0.862 0.634-1.214s0.414-1.007 0.92-1.456c0.62-0.549 0.979-1.229 1.1-2.083 0.103-0.727 0.067-1.087-0.084-0.845-0.208 0.334-0.309 0.306-0.477-0.132-0.354-0.921 1.386-1.716 3.756-1.716 1.049 0 1.504-0.193 2.219-0.939 0.495-0.517 1.056-0.85 1.247-0.741s0.246 0.085 0.121-0.053c-0.33-0.366 0.328-1.439 1.542-2.514 1.271-1.126 1.322-1.586 0.253-2.287-0.444-0.291-1.015-0.971-1.27-1.512-1.378-2.929-2.307-3.621-4.902-3.654-1.698-0.022-3.354-0.719-3.014-1.269 0.337-0.546-1.421-1.524-2.38-1.325-1.852 0.385-7.267 0.263-7.628-0.171-0.514-0.619-2.701-2.029-3.042-1.962-0.134 0.027-1.124 0.133-2.199 0.238z"></path>
</symbol>

</defs>
</svg>