<svg aria-hidden="true" style="position: absolute; width: 0; height: 0; overflow: hidden;" version="1.1" xmlns="http://www.w3.org/2000/svg" xmlns:xlink="http://www.w3.org/1999/xlink">
<defs>
<symbol id="icon-poland2" viewBox="0 0 33 32">
<path d="M31.709 1.734c-0.034 0.089-0.034 0.201 0 0.257 0.123 0.201-0.436 0.862-0.772 0.917-0.481 0.078-0.962 0.38-1.287 0.794-0.895 1.152-1.208 1.298-1.768 0.828-0.47-0.392-0.716-0.324-0.895 0.224-0.157 0.492-0.627 1.007-1.085 1.175-0.168 0.067-0.559 0.112-0.895 0.112s-0.638 0.045-0.671 0.112c-0.034 0.056 0.011 0.269 0.112 0.459 0.246 0.459 0.134 0.839-0.28 1.052-0.224 0.112-0.336 0.257-0.336 0.425 0 0.134-0.045 0.302-0.090 0.358-0.168 0.235-1.287 1.063-1.432 1.063-0.090 0-0.347 0.201-0.571 0.459-0.302 0.336-0.481 0.436-0.694 0.414-0.235-0.022-0.313-0.123-0.436-0.582-0.090-0.302-0.224-0.615-0.302-0.694-0.213-0.213-1.063-0.403-1.622-0.358l-0.503 0.034v0.794c0 0.604-0.045 0.862-0.19 1.018-0.112 0.123-0.201 0.302-0.201 0.403 0 0.313-0.783 0.862-1.253 0.862-0.302 0-0.615 0.134-1.108 0.448-0.38 0.246-0.738 0.448-0.806 0.448-0.056 0-0.257 0.067-0.448 0.157-0.336 0.157-0.671 0.213-2.059 0.358l-0.593 0.067-0.694-0.671c-0.962-0.917-1.063-0.951-2.148-0.873-0.962 0.078-1.085 0.034-1.432-0.47-0.157-0.235-0.145-0.604 0.022-1.197 0.022-0.067-0.022-0.246-0.090-0.425-0.112-0.269-0.19-0.302-0.615-0.302-0.369 0-0.548-0.067-0.727-0.257-0.324-0.336-0.313-0.615 0.034-1.085 0.157-0.213 0.28-0.436 0.28-0.515s0.056-0.157 0.123-0.179c0.078-0.022 0.090-0.168 0.022-0.425-0.090-0.347-0.157-0.392-0.492-0.425-0.392-0.034-0.392-0.034-0.347 0.358 0.067 0.559-0.034 0.85-0.414 1.253-0.28 0.291-0.324 0.436-0.313 0.862 0.022 0.571-0.168 0.806-0.727 0.929-0.179 0.045-0.313 0.101-0.313 0.145 0 0.034 0.201 0.291 0.448 0.571 0.481 0.537 0.503 0.627 0.324 1.276-0.157 0.582-0.873 1.231-1.656 1.533-0.336 0.123-0.75 0.347-0.929 0.492-0.179 0.157-0.392 0.28-0.47 0.28-0.19 0-0.28 0.839-0.201 1.969 0.045 0.75 0.078 0.85 0.302 0.94 0.145 0.056 0.448 0.302 0.683 0.548 0.459 0.503 0.627 0.548 1.152 0.28 0.324-0.168 0.38-0.168 0.649 0.022 0.168 0.101 0.414 0.336 0.571 0.503 0.145 0.179 0.392 0.38 0.548 0.459 0.269 0.134 0.358 0.246 0.593 0.761 0.056 0.123 0.291 0.179 0.817 0.201l0.738 0.034 0.738 0.727c0.75 0.738 0.917 1.074 0.794 1.555-0.045 0.168 0.011 0.414 0.157 0.671 0.28 0.503 0.291 1.041 0.011 1.276-0.112 0.101-0.47 0.28-0.783 0.403s-0.571 0.257-0.571 0.313c0 0.056 0.123 0.201 0.269 0.313 0.157 0.123 0.291 0.324 0.313 0.47 0.034 0.224 0.056 0.224 0.257-0.123 0.168-0.28 0.291-0.358 0.571-0.358 0.291 0 0.414 0.078 0.593 0.369 0.392 0.638 0.615 0.828 1.063 0.906 0.369 0.067 0.425 0.056 0.358-0.101-0.034-0.101-0.011-0.28 0.045-0.403 0.145-0.269 0.604-0.28 1.354-0.034 0.47 0.157 0.604 0.168 0.862 0.045 0.269-0.134 1.13-0.235 1.891-0.224 0.145 0 0.47 0.090 0.727 0.213 0.269 0.112 0.604 0.246 0.761 0.28s0.425 0.19 0.604 0.347c0.213 0.179 0.459 0.28 0.716 0.28s0.671 0.157 1.164 0.448c0.436 0.246 0.828 0.448 0.884 0.448 0.101 0 1.242 0.593 1.499 0.783 0.067 0.045 0.246 0.112 0.403 0.145 0.157 0.045 0.604 0.392 0.996 0.772 0.627 0.627 0.716 0.761 0.727 1.164 0.022 0.526 0.112 0.716 0.336 0.716 0.179 0 0.392-0.571 0.392-1.052 0-0.425 0.705-1.186 1.096-1.186 0.168 0 0.246-0.067 0.246-0.213 0-0.112 0.101-0.336 0.235-0.503 0.19-0.246 0.313-0.291 0.772-0.291 0.403 0 0.537-0.045 0.503-0.145-0.034-0.078-0.078-0.526-0.090-0.996-0.022-0.492-0.090-0.929-0.168-1.007-0.201-0.201-0.168-0.515 0.101-0.895l0.235-0.324-0.235-0.257c-0.123-0.134-0.235-0.336-0.235-0.448 0-0.548 0.94-1.555 1.578-1.689 0.369-0.078 1.018-0.66 1.421-1.276 0.101-0.145 0.224-0.571 0.269-0.951 0.145-1.22 0.257-1.566 0.627-1.936 0.336-0.336 0.358-0.392 0.358-1.197 0-0.459-0.045-0.873-0.112-0.906-0.056-0.034-0.112-0.369-0.112-0.738 0-0.671-0.235-1.108-0.593-1.108-0.224 0-1.164-1.141-1.376-1.667-0.123-0.324-0.157-0.604-0.112-0.884 0.045-0.224 0.101-0.548 0.123-0.705s0.145-0.526 0.28-0.817c0.123-0.291 0.224-0.604 0.224-0.694s0.045-0.246 0.112-0.358c0.056-0.101 0.235-0.492 0.392-0.862 0.213-0.492 0.515-0.895 1.152-1.511 1.387-1.354 1.824-2.495 1.253-3.267-0.19-0.257-0.269-0.559-0.313-1.119-0.045-0.716-0.179-0.962-0.313-0.593z"></path>
</symbol>
<symbol id="icon-lithuenia" viewBox="0 0 42 32">
<path d="M15.629 1.87c-1.381 0.134-2.172 0.391-2.693 0.876-0.783 0.728-3.527 1.373-5.841 1.373-0.989 0-1.605 0.22-2.337 0.836-0.546 0.46-1.448 0.928-2.005 1.041-1.491 0.303-1.422 2.983 0.163 6.257 0.183 0.379 0.239 1.065 0.123 1.525-0.159 0.633-0.014 1.070 0.593 1.791 0.442 0.525 0.803 0.861 0.803 0.746s0.47 0.082 1.043 0.436c0.616 0.38 1.427 0.601 1.98 0.538 0.515-0.059 1.417 0.090 2.005 0.331s1.336 0.438 1.663 0.438 0.595 0.209 0.595 0.464c0 0.255 0.321 0.62 0.713 0.81 0.682 0.33 0.686 0.324 0.102-0.144-0.336-0.269-0.532-0.568-0.435-0.665 0.246-0.246 1.838 1.705 1.838 2.252 0 0.248-0.184 0.451-0.408 0.451-0.824 0-0.506 1.887 0.693 4.119 0.175 0.325 0.872 0.505 2.203 0.57 1.071 0.052 1.947 0.23 1.947 0.396s0.151 0.302 0.336 0.302c0.184 0 0.241-0.153 0.125-0.34s0.37-0.044 1.080 0.318c1.355 0.691 1.945 1.455 1.945 2.52 0 0.949 0.974 1.381 1.677 0.745 0.53-0.479 0.552-0.473 0.336 0.091-0.206 0.538-0.177 0.554 0.264 0.142 0.273-0.255 0.427-0.642 0.343-0.861s0.014-0.398 0.217-0.398c0.203 0 0.281-0.144 0.172-0.319-0.239-0.387 0.273-0.601 1.744-0.727 0.776-0.066 1.098-0.244 1.072-0.591-0.020-0.273 0.178-0.48 0.441-0.46s0.54-0.177 0.616-0.438c0.122-0.422 0.1-0.422-0.199 0-0.185 0.261-0.338 0.319-0.341 0.128s0.28-0.605 0.629-0.92c0.348-0.315 0.634-0.862 0.634-1.214s0.414-1.007 0.92-1.456c0.62-0.549 0.979-1.229 1.1-2.083 0.103-0.727 0.067-1.087-0.084-0.845-0.208 0.334-0.309 0.306-0.477-0.132-0.354-0.921 1.386-1.716 3.756-1.716 1.049 0 1.504-0.193 2.219-0.939 0.495-0.517 1.056-0.85 1.247-0.741s0.246 0.085 0.121-0.053c-0.33-0.366 0.328-1.439 1.542-2.514 1.271-1.126 1.322-1.586 0.253-2.287-0.444-0.291-1.015-0.971-1.27-1.512-1.378-2.929-2.307-3.621-4.902-3.654-1.698-0.022-3.354-0.719-3.014-1.269 0.337-0.546-1.421-1.524-2.38-1.325-1.852 0.385-7.267 0.263-7.628-0.171-0.514-0.619-2.701-2.029-3.042-1.962-0.134 0.027-1.124 0.133-2.199 0.238z"></path>
</symbol>
<symbol id="icon-romania" viewBox="0 0 45 32">
<path d="M23.287 2.21c-0.151 0.396-0.677 0.897-1.207 1.15-0.616 0.294-0.987 0.68-1.077 1.123-0.076 0.371-0.227 1.031-0.336 1.468l-0.199 0.793-2.383-0.034c-1.539-0.022-2.658-0.175-3.16-0.432-0.953-0.488-3.024-0.857-3.024-0.539 0 0.128-0.67 0.572-1.488 0.986-0.86 0.435-1.669 1.072-1.917 1.508-0.236 0.415-0.518 0.755-0.628 0.756s-0.198 0.185-0.198 0.41c0 0.349-2.35 3.435-2.911 3.823-0.105 0.073-0.27 0.386-0.367 0.695-0.119 0.381-0.553 0.668-1.345 0.89-2.281 0.638-2.197 2.439 0.149 3.228 0.314 0.106 0.317 0.195 0.021 0.554-0.455 0.551-0.183 0.98 0.621 0.98 1.417 0 2.575 1.037 1.584 1.418-0.218 0.084-0.397 0.379-0.397 0.657 0 0.522 0.603 1.201 0.849 0.955 0.076-0.076 0.706-0.012 1.399 0.144 1.042 0.234 1.338 0.212 1.709-0.123 1.059-0.959 2.16 0.005 1.314 1.15-0.622 0.842-0.407 1.618 0.448 1.618 0.2 0 0.364 0.176 0.364 0.391 0 0.707 1.156 1.132 3.496 1.284 1.269 0.082 2.519 0.264 2.779 0.403 1.057 0.566 5.216 0.658 6.718 0.149 1.629-0.552 2.193-0.52 3.177 0.181 0.387 0.276 1.008 0.501 1.378 0.501s1.007 0.134 1.414 0.297c0.407 0.164 0.978 0.389 1.269 0.502 1.423 0.55 2.506 1.091 2.649 1.323 1.006 1.628 2.773-0.98 2.773-4.094 0-0.48 0.177-1.020 0.394-1.2s0.335-0.422 0.263-0.539c-0.284-0.46 0.394-1.65 0.765-1.342 1.538 1.276 3.647-1.849 2.806-4.159-0.081-0.223 0.276-0.515 0.97-0.793 0.604-0.243 1.343-0.663 1.642-0.935l0.545-0.494-1.491-1.688c-0.82-0.928-1.59-1.688-1.712-1.688-0.39 0-1.793-1.696-1.969-2.38-0.094-0.364-0.392-1.103-0.662-1.642s-0.491-1.196-0.491-1.458c0-0.399-2.152-2.242-3.946-3.379-0.23-0.145-0.861-0.648-1.402-1.117s-1.315-0.925-1.719-1.014c-0.404-0.088-1.091-0.275-1.527-0.414s-1.89-0.325-3.231-0.414l-2.438-0.161-0.267 0.702z"></path>
</symbol>
<symbol id="icon-albania" viewBox="0 0 18 32">
<path d="M1.925 1.453c-0.977 0.977-0.289 5.951 0.955 6.902 1.246 0.952 1.266 1.090 0.774 5.244-1.159 9.786-1.132 10.19 0.77 11.713 0.941 0.753 2.010 1.615 2.377 1.916s0.667 0.988 0.667 1.527c0 1.262 1.354 2.386 2.393 1.987 0.454-0.174 0.807-0.962 0.807-1.8 0-1.034 0.367-1.651 1.2-2.017 0.66-0.29 1.274-1.048 1.365-1.686s0.766-1.553 1.5-2.034c0.734-0.481 1.231-1.159 1.104-1.507s0.097-1.438 0.497-2.423c0.813-2.002 0.593-2.743-0.815-2.743-2.454 0-3.726-5.234-2.163-8.907 0.758-1.781-0.261-3.893-1.877-3.893-0.343 0-1.156-0.566-1.806-1.258-1.151-1.225-6.798-1.97-7.746-1.022z"></path>
</symbol>
<symbol id="icon-austria3" viewBox="0 0 73 32">
<path d="M49.516 2.919c-0.674 0.786-1.235 1.796-1.235 2.358 0 0.786-0.281 0.954-1.347 0.674-0.786-0.168-1.572-0.112-1.74 0.225-0.561 0.954-2.751 0.618-3.761-0.505-1.235-1.46-3.256-0.954-3.256 0.786 0 1.291-2.302 3.649-3.537 3.649-0.337 0-1.404 0.618-2.47 1.46-1.404 1.067-1.853 1.796-1.853 3.2 0 1.011 0.393 2.302 0.842 2.863 1.011 1.347 1.123 2.526 0.168 1.572-0.393-0.393-1.235-0.674-1.909-0.674-0.73 0-1.46-0.281-1.628-0.561-0.449-0.73-4.042-0.73-4.491 0-0.168 0.337-1.067 0.561-1.965 0.561s-2.358 0.449-3.312 0.954c-1.404 0.842-1.909 0.898-2.807 0.337-0.618-0.393-2.302-0.842-3.874-1.067-2.246-0.281-2.807-0.168-3.088 0.618-0.337 0.842-0.505 0.842-1.628 0.056-2.807-1.965-5.558-0.112-4.772 3.144 0.393 1.572 3.425 3.481 5.67 3.593 0.898 0.056 1.853 0.505 2.133 1.011 0.674 1.179 5.333 1.235 6.568 0.112 0.561-0.505 2.414-0.898 4.828-0.954 3.425-0.168 4.211 0 5.895 1.179 1.067 0.786 2.189 1.74 2.526 2.133 0.842 1.067 9.151 2.133 9.993 1.291 0.337-0.337 2.751-0.618 5.839-0.618 4.603 0 5.221-0.112 5.782-1.123 0.505-0.898 1.179-1.123 3.649-1.123 1.628 0 3.2-0.281 3.368-0.561 0.168-0.337 1.179-0.561 2.189-0.561 2.582 0 5.109-2.695 4.66-4.997-0.225-1.123-0.112-1.74 0.449-1.965 0.954-0.337 1.123-2.358 0.281-2.863-0.954-0.618 0-1.403 1.628-1.403 1.067 0 1.909-0.505 2.751-1.684 1.347-1.74 1.572-2.807 0.674-2.807-0.281 0-0.561-0.337-0.561-0.786s-0.618-1.291-1.403-1.909c-1.628-1.291-1.796-2.639-0.449-3.368 1.291-0.73 0.505-2.358-1.179-2.358-0.786 0-1.572-0.281-1.74-0.561-0.505-0.842-1.74-0.674-2.807 0.337-0.786 0.786-1.291 0.842-3.818 0.225-5.951-1.347-7.86-1.347-9.263 0.112z"></path>
</symbol>
<symbol id="icon-belgium" viewBox="0 0 41 32">
<path d="M17.846 7.077c-1.461 1.555-5.539 2.235-5.539 0.923 0-0.338-0.498-0.615-1.108-0.615s-1.379-0.271-1.711-0.603c-0.763-0.763-4.125 0.133-6.911 1.842-3.038 1.864-1.78 5.561 1.718 5.048 1.775-0.261 2.195 0.248 1.965 2.38-0.021 0.197 0.292 0.37 0.696 0.383 1.563 0.052 2.611 0.529 3.36 1.529 0.428 0.572 1.802 1.126 3.053 1.231 1.843 0.154 2.344 0.482 2.642 1.729 0.381 1.59 1.066 1.746 5.136 1.172 1.89-0.267 2.527 0.396 3.124 3.245 0.422 2.016 3.29 3.583 6.556 3.583 2.746 0 3.45-0.813 2.402-2.772-0.665-1.242-0.556-1.693 0.85-3.538 0.887-1.163 1.612-2.405 1.612-2.759s0.435-0.812 0.967-1.016c0.846-0.325 0.81-0.591-0.29-2.135-0.691-0.97-1.136-1.885-0.988-2.032s-0.76-0.337-2.017-0.422c-3.132-0.211-3.884-1.115-2.069-2.487 2.412-1.823 1.554-3.499-1.661-3.243-1.792 0.143-2.88-0.080-3.371-0.691-0.771-0.959-4.223-2.29-5.94-2.29-0.567 0-1.682 0.692-2.477 1.538z"></path>
</symbol>
<symbol id="icon-czechoslovakia" viewBox="0 0 92 32">
<path d="M14.873 1.127c-0.309 0.372-0.759 0.676-1 0.676s-1.070 0.456-1.841 1.014c-0.771 0.558-2.121 1.33-2.999 1.715-7.266 3.191-9.458 5.139-7.73 6.867 0.699 0.7 0.622 1.691-0.205 2.604-0.883 0.976 0.945 3.859 3.13 4.938 0.74 0.365 1.562 1.059 1.826 1.541 0.953 1.74 1.865 2.406 3.708 2.71 1.032 0.17 2.229 0.7 2.662 1.178 0.798 0.881 2.655 1.179 3.079 0.493 0.128-0.207 0.85-0.285 1.604-0.174 1.23 0.181 1.372 0.080 1.372-0.976 0-2.799 1.765-3.343 6.761-2.084 3.468 0.874 4.644 1.042 4.393 0.629-0.133-0.219 0.030-0.65 0.363-0.957 0.381-0.352 0.707-0.394 0.881-0.113 0.152 0.245 0.85 0.446 1.553 0.446 1.457 0 2.087 1.024 1.122 1.825-0.984 0.816-0.78 2.042 0.477 2.866 0.62 0.406 1.127 1.038 1.127 1.404 0 0.391 0.421 0.666 1.018 0.666 0.56 0 1.272 0.406 1.581 0.901 0.498 0.797 1.051 0.901 4.787 0.901h4.224l1.234-1.618c1.103-1.446 1.394-1.587 2.74-1.335 1.183 0.222 1.715 0.075 2.475-0.686 0.804-0.804 1.15-0.886 2.035-0.482 0.935 0.426 1.327 0.261 3.177-1.341 2.545-2.203 3.972-2.798 5.859-2.444 0.782 0.147 1.957 0.023 2.611-0.274 1.050-0.479 1.27-0.425 1.89 0.461 0.6 0.856 0.975 0.962 2.577 0.726 1.736-0.255 2.019-0.14 3.828 1.556 1.074 1.007 2.216 1.832 2.537 1.832s0.836 0.304 1.144 0.676c0.309 0.372 0.875 0.676 1.259 0.676s1.074 0.34 1.533 0.756c0.64 0.579 0.959 0.632 1.365 0.225 0.658-0.658 3.263-0.691 4.448-0.057 0.968 0.518 3.576-0.927 3.552-1.968-0.015-0.677-2.671-3.487-4.090-4.328-3.15-1.866-9.406-4.994-9.988-4.994-0.368 0-2.231-0.711-4.138-1.581-3.356-1.529-6.765-1.969-7.736-0.998-0.486 0.486-1.949 0.394-3.681-0.232-1.431-0.517-1.607-0.477-2.451 0.563-1.371 1.689-3.017 1.482-4.525-0.569-1.44-1.959-1.627-2.007-2.967-0.759l-0.999 0.931-0.477-1.369c-0.568-1.628-2.566-2.747-4.905-2.747-2.030 0-4.408-1.075-5.681-2.569-1.212-1.421-5.707-1.926-6.97-0.783-0.84 0.76-3.123-0.883-3.123-2.248 0-0.857-0.888-1.459-2.704-1.833-0.867-0.179-2.123-0.837-2.789-1.462-0.953-0.895-1.482-1.071-2.479-0.827-3.187 0.781-3.726 0.791-4.438 0.079-0.9-0.9-1.298-0.91-2.012-0.049z"></path>
</symbol>
<symbol id="icon-denmark" viewBox="0 0 33 32">
<path d="M15.521 2.807c1.561-1.881 2.225 3.184 0.763 5.825-0.385 0.695-0.701 1.97-0.702 2.834-0.003 1.621 0.101 1.702 2.689 2.097 0.438 0.067 1.005 0.451 1.258 0.854 0.7 1.111-1.387 3.121-2.579 2.483-0.953-0.51-1.371-0.256-1.371 0.833 0 0.413-0.947 1.888-2.105 3.28-1.44 1.73-2.105 2.908-2.105 3.727 0 0.659-0.232 1.429-0.516 1.713-0.407 0.407-0.406 0.691 0.004 1.347 0.996 1.595-0.154 2.603-2.751 2.412-1.216-0.090-2.21-0.008-2.21 0.181s-0.277 0.344-0.617 0.344c-0.966 0-1.577-1.586-1.548-4.021 0.025-2.11-0.052-2.278-1.431-3.091l-1.457-0.86v-4.831c0-2.779 0.18-4.942 0.423-5.093 0.232-0.144 0.318-0.677 0.19-1.186-0.431-1.718 2.093-3.599 5.275-3.931 2.543-0.266 2.802-0.397 4.572-2.319 1.165-1.264 2.232-2.037 2.815-2.037 0.516 0 1.148-0.253 1.404-0.561zM26.98 18.353c2.241-1.886 3.872-1.277 4.015 1.5 0.111 2.17-0.416 3.305-1.536 3.305-1.019 0-1.042 0.328-0.096 1.373 0.7 0.774 0.682 0.844-0.421 1.647-1.317 0.959-1.533 1.789-0.37 1.419 0.442-0.14 1.003 0.017 1.289 0.362 0.44 0.531-2.394 2.356-3.658 2.356-0.119 0-0.445 0.314-0.726 0.697-1.005 1.375-5.267 0.281-5.267-1.352 0-0.955 1.194-1.224 2.821-0.635 1.752 0.634 1.89 0.532 1.555-1.146-0.218-1.089-0.482-1.329-1.582-1.436-1.164-0.113-1.399-0.365-1.983-2.124-0.364-1.098-0.785-2.119-0.936-2.269-0.439-0.439 0.106-0.998 0.975-0.998 0.44 0 1.261-0.497 1.825-1.105 1.099-1.186 1.784-1.067 2.38 0.411l0.365 0.904 0.027-0.91c0.015-0.5 0.61-1.4 1.322-2zM15.055 23.053c1.025-1.153 2.987-0.96 3.482 0.343 1.335 3.512-0.391 5.547-3.578 4.215-1.565-0.654-1.522-2.739 0.096-4.558z"></path>
</symbol>
<symbol id="icon-estonia" viewBox="0 0 58 32">
<path d="M32.842 3.592c2.35-1.045 9.532-0.469 11.856 0.952 1.291 0.789 2.802 1.070 5.754 1.070 4.101 0 5.188 0.837 3.404 2.621-0.525 0.525-0.898 1.661-1.041 3.166-0.024 0.25-0.296 0.298-0.604 0.107-0.882-0.545-0.656 1.298 0.347 2.83 0.791 1.207 0.81 1.623 0.147 3.208-0.419 1.002-0.702 2.011-0.628 2.242s-0.182 0.358-0.568 0.281c-0.397-0.079-0.78 0.542-0.882 1.432-0.17 1.484 1.997 4.042 3.425 4.042 1.171 0 3.261 2.773 3.101 4.114-0.232 1.938-1.103 2.065-2.879 0.419-0.825-0.765-1.501-1.206-1.501-0.979 0 0.674-2.801 0.7-4.040 0.037-0.874-0.468-1.049-0.454-0.732 0.059s0.142 0.526-0.74 0.055c-0.762-0.408-1.275-0.427-1.504-0.056-0.191 0.31-0.6 0.563-0.909 0.563s-0.407-0.25-0.218-0.555c0.197-0.318-0.029-0.412-0.528-0.221-0.479 0.184-0.871 0.519-0.871 0.745 0 0.546-3.259 0.337-3.793-0.243-0.23-0.25 0.144-0.315 0.831-0.146 1.228 0.302 1.225 0.276-0.207-1.601-0.801-1.050-1.583-1.909-1.739-1.909s0.032 0.379 0.416 0.842c0.458 0.552 0.489 0.842 0.088 0.842-0.336 0-0.881-0.505-1.211-1.123s-0.94-1.123-1.355-1.123c-0.414 0-1.078-0.39-1.474-0.867-0.833-1.004-7.070-0.959-6.895 0.049 0.056 0.322-0.639 0.642-1.544 0.711-1.809 0.138-1.852 0.035-1.666-3.963 0.076-1.629-0.114-2.667-0.489-2.667-0.337 0-0.613 0.248-0.613 0.551 0 1.109-2.813 1.302-3.952 0.271-0.605-0.548-1.1-0.777-1.1-0.509s-0.503-0.501-1.118-1.707c-0.841-1.651-0.95-2.298-0.437-2.615 0.492-0.304 0.413-0.524-0.285-0.792-2.323-0.891-0.827-5.563 1.976-6.17 1.006-0.218 2.484-0.859 3.285-1.425 0.871-0.615 3.012-1.181 5.333-1.409 2.133-0.209 4.636-0.718 5.562-1.13zM6.737 10.656c0-0.721 2.93-0.052 3.5 0.799 0.641 0.956 0.53 1.113-1.507 2.125-1.877 0.933-1.923 0.926-2.793-0.401-1.098-1.675-1.104-1.951-0.042-1.951 0.463 0 0.842-0.257 0.842-0.572zM5.053 16.647c1.469-0.484 4.927-0.386 6.42 0.181 1.598 0.607 1.944 1.698 0.539 1.698-0.496 0-1.652 0.632-2.569 1.404-0.947 0.797-2.378 1.404-3.309 1.404-1.192 0-1.641 0.27-1.641 0.988 0 0.543-0.538 1.324-1.196 1.735-1.128 0.704-1.175 0.663-0.826-0.731 0.242-0.962 0.089-1.76-0.438-2.286-1.509-1.509-0.272-3.307 3.021-4.392zM33.684 25.263c-0.772-0.604-1.191-1.103-0.931-1.11s1.115 0.493 1.9 1.11 1.204 1.117 0.931 1.11c-0.273-0.007-1.128-0.507-1.9-1.11z"></path>
</symbol>
<symbol id="icon-finland" viewBox="0 0 34 32">
<path d="M9.362 0.326c-0.063 0.179-0.28 0.509-0.481 0.733-0.365 0.406-0.365 0.41 0.028 1.045 0.217 0.351 0.394 0.777 0.394 0.947 0 0.483 1.002 0.716 1.721 0.401 0.25-0.11 0.326-0.055 0.326 0.235 0 0.278 0.272 0.503 1.023 0.847l1.023 0.468-0.003 1.266c-0.004 1.79-0.127 2.158-0.675 2.020-0.596-0.15-1.423 0.308-2.057 1.138-0.287 0.376-0.731 0.899-0.988 1.163s-0.675 0.731-0.93 1.038c-0.255 0.307-0.955 0.893-1.555 1.302s-1.33 0.911-1.621 1.116c-0.514 0.362-0.98 0.92-1.4 1.677-0.147 0.265-0.462 0.396-1.116 0.463-0.765 0.078-0.902 0.149-0.851 0.444 0.037 0.216-0.242 0.659-0.724 1.15-0.852 0.868-0.924 1.588-0.234 2.35 0.253 0.28 0.272 0.454 0.108 0.989-0.135 0.439-0.138 0.687-0.010 0.766 0.769 0.476 0.979 2.8 0.355 3.944-0.456 0.837 0.039 2.451 0.753 2.451 0.196 0 0.685 0.167 1.086 0.372s0.952 0.372 1.224 0.372c0.444 0 0.482 0.052 0.374 0.512-0.217 0.919-0.206 1.070 0.077 1.070 0.153 0 0.362-0.188 0.463-0.419 0.238-0.543 0.281-0.533 0.894 0.202l0.518 0.621 1.708-0.235c0.939-0.129 1.764-0.2 1.832-0.158s0.223-0.042 0.344-0.188c0.121-0.146 0.486-0.321 0.812-0.388s0.989-0.25 1.473-0.405c0.485-0.155 1.005-0.234 1.156-0.176 0.162 0.062 0.427-0.089 0.645-0.366 0.275-0.35 0.473-0.439 0.767-0.346 0.277 0.088 0.531-0.001 0.845-0.296 0.383-0.359 0.449-0.375 0.449-0.105 0 0.41 0.488 0.596 0.826 0.315 0.145-0.12 0.709-0.207 1.253-0.194 1.217 0.030 2.732-0.181 2.866-0.398 0.268-0.434 1.426-0.172 1.335 0.302-0.111 0.58 0.963 1.474 1.82 1.515 0.483 0.023 0.572-0.044 0.606-0.457 0.022-0.266 0.167-0.555 0.322-0.642s0.244-0.22 0.197-0.295 0.224-0.155 0.601-0.176c1.151-0.064 2.51-0.442 3.24-0.902 0.782-0.492 0.971-0.542 0.773-0.204-0.075 0.128 0.038 0.080 0.251-0.106 0.413-0.362 0.979-1.86 0.979-2.591 0-0.496 0.672-1.322 0.941-1.156 0.096 0.059 0.175 0.015 0.175-0.1s0.074-0.162 0.164-0.107c0.176 0.109 0.235-1.696 0.083-2.546-0.050-0.282-0.16-0.471-0.243-0.42s-0.201-0.262-0.261-0.696-0.125-0.891-0.144-1.014c-0.019-0.123-0.104-0.181-0.189-0.129s-0.155 0.007-0.155-0.101-0.063-0.187-0.14-0.175c-0.374 0.059-0.615-0.041-0.509-0.213 0.065-0.105 0.049-0.172-0.036-0.149-0.324 0.088-0.99-0.254-0.871-0.446 0.068-0.111 0.043-0.151-0.055-0.090-0.224 0.139-1.229-0.5-1.057-0.672 0.069-0.069 0.049-0.132-0.045-0.14-0.553-0.046-0.916-0.176-0.973-0.348-0.036-0.108-0.184-0.196-0.329-0.196s-0.264-0.084-0.264-0.186c0-0.102-0.14-0.186-0.31-0.186s-0.256-0.055-0.189-0.121c0.184-0.184-0.468-0.61-0.943-0.617-0.293-0.004-0.419-0.118-0.419-0.378 0-0.327 0.184-0.453 0.586-0.4 0.121 0.016 0.092-0.772-0.046-1.254-0.041-0.143-0.355-0.523-0.699-0.845-0.434-0.408-0.641-0.782-0.677-1.229-0.029-0.354-0.072-0.685-0.095-0.736s-0.034-0.153-0.023-0.226c0.011-0.073-0.105-0.085-0.257-0.027-0.33 0.127-0.349-0.010-0.072-0.526 0.156-0.291 0.152-0.349-0.019-0.244-0.168 0.104-0.175 0.048-0.027-0.228 0.148-0.277 0.123-0.47-0.107-0.797-0.232-0.331-0.241-0.4-0.038-0.294 0.186 0.097 0.179 0.064-0.022-0.109-0.172-0.148-0.285-0.547-0.283-0.997l0.004-0.75 1.167 0.074c1.92 0.122 2.688-0.839 1.499-1.876-0.439-0.383-0.345-1.371 0.186-1.949 0.176-0.191 0.237-0.218 0.137-0.060-0.122 0.192-0.047 0.172 0.228-0.063 0.226-0.193 0.358-0.436 0.294-0.54s-0.027-0.134 0.085-0.065c0.234 0.145 0.317 0.031 0.484-0.672l0.122-0.512h-9.684c-9.055 0-9.691 0.021-9.799 0.326z"></path>
</symbol>
<symbol id="icon-france" viewBox="0 0 36 32">
<path d="M18.4 1.682c-0.57 0.347-0.585 0.391-0.621 1.77-0.031 1.177-0.5 1.674-1.734 1.836-1.332 0.175-2.515 1.101-2.028 1.587 0.389 0.389-0.528 0.57-1.933 0.381-0.747-0.101-1.422-0.183-1.5-0.183s-0.142-0.18-0.142-0.4c0-0.564-0.308-0.738-1.149-0.649-0.906 0.095-1.007 0.336-0.489 1.16 0.248 0.394 0.445 1.023 0.504 1.608l0.098 0.96-1.155-0.087c-0.88-0.066-1.251-0.024-1.56 0.178-0.377 0.247-0.426 0.241-0.726-0.091-0.631-0.698-1.182-0.87-1.786-0.557-0.295 0.153-0.959 0.306-1.474 0.34-1.564 0.105-2.079 0.637-1.436 1.486 0.315 0.417 0.313 0.599-0.005 0.599-0.367 0-0.317 0.115 0.295 0.671 0.422 0.384 0.71 0.499 1.26 0.503 0.669 0.005 2.638 0.521 3.285 0.862 0.161 0.085 0.394 0.154 0.519 0.154s0.22 0.167 0.213 0.374c-0.009 0.244 0.102 0.397 0.319 0.441 0.433 0.087 0.779 0.54 0.694 0.909-0.114 0.496 0.987 1.75 1.816 2.067 0.812 0.31 1.311 1.607 0.751 1.953-0.178 0.11-0.162 0.183 0.077 0.358 0.272 0.199 0.278 0.267 0.057 0.722-0.134 0.276-0.295 1.147-0.357 1.934-0.238 2.996-0.693 4.881-1.116 4.619-0.082-0.051-0.123 0.045-0.090 0.212 0.12 0.614 0.322 0.894 0.645 0.894 0.254 0 0.305 0.078 0.223 0.337-0.093 0.293-0.030 0.337 0.484 0.337 0.325 0 0.638 0.076 0.695 0.168s0.248 0.168 0.424 0.168c0.176 0 0.414 0.1 0.529 0.223s0.388 0.189 0.608 0.146 0.565 0.005 0.767 0.103c0.48 0.236 1.63 0.343 1.63 0.153 0-0.082 0.095-0.117 0.21-0.078s0.293-0.042 0.395-0.179c0.207-0.281 0.933-0.174 1.269 0.186 0.113 0.121 0.443 0.185 0.762 0.148 0.46-0.054 0.653 0.032 1.060 0.467 0.487 0.521 2.367 0.773 2.367 0.317 0-0.077 0.133-0.142 0.295-0.146 0.343-0.007 1.24-0.484 0.926-0.493-0.293-0.008-0.271-1.192 0.029-1.621 0.381-0.544 2.266-1.641 2.504-1.457 0.257 0.198 1.584 0.513 2.14 0.508 0.602-0.005 0.984 0.119 1.93 0.627 1.059 0.569 2.081 0.479 2.808-0.248 0.983-0.983 1.852-1.561 2.386-1.587 0.936-0.046 0.535-1.618-0.413-1.618-0.462 0-0.895-0.955-0.664-1.463 0.239-0.524 0.249-0.478-0.218-0.946l-0.403-0.403 0.464-0.274c0.255-0.151 0.512-0.225 0.571-0.166s0.117 0.001 0.129-0.131c0.012-0.131 0.040-0.412 0.062-0.624s-0.082-0.477-0.232-0.59c-0.314-0.236-0.464-0.962-0.198-0.962 0.224 0 0.162-0.34-0.116-0.64-0.266-0.286-0.27-0.749-0.009-1.010 0.156-0.156 0.128-0.257-0.126-0.449-0.733-0.554-1.792-0.099-2.037 0.875-0.053 0.21-0.172 0.382-0.265 0.382-0.247 0-0.003-1.105 0.383-1.739 0.179-0.294 0.327-0.636 0.327-0.759 0.001-0.433 1.697-2.197 2.165-2.251 0.407-0.047 0.451-0.124 0.499-0.889 0.029-0.46 0.134-0.936 0.235-1.057s0.136-0.265 0.081-0.321c-0.137-0.137 0.331-1.021 0.92-1.739 0.698-0.85 0.644-1.183-0.193-1.183-0.371 0-0.674-0.076-0.674-0.168s-0.238-0.168-0.528-0.168c-0.955 0-1.794-0.349-1.993-0.829-0.168-0.405-0.847-0.657-0.847-0.313 0 0.195-1.646 0.161-1.768-0.036-0.057-0.093-0.27-0.172-0.473-0.176-0.695-0.014-1.722-0.747-1.669-1.192 0.068-0.569-0.301-1.195-0.627-1.066-0.145 0.058-0.377 0.133-0.516 0.168s-0.421 0.112-0.626 0.172c-0.309 0.090-0.423 0.005-0.663-0.499-0.247-0.517-0.373-0.608-0.847-0.608-0.374 0-0.626-0.11-0.767-0.337-0.116-0.185-0.314-0.337-0.44-0.337s-0.385-0.197-0.574-0.437c-0.264-0.336-0.447-0.416-0.791-0.348-0.377 0.075-0.477 0.012-0.634-0.405-0.234-0.62-1.311-0.698-2.195-0.159z"></path>
</symbol>

<symbol id="icon-easternPrussia" viewBox="0 0 39 32">
<path d="M19.613 4.903c-1.2 1.238-2.217 1.806-3.232 1.806-2.108 0-3.305 0.786-3.713 2.438-0.452 1.829-2.761 4.278-3.695 3.919-0.393-0.151-0.731-0.075-0.75 0.168-0.224 2.847-0.683 4.088-1.95 5.271-3.066 2.864-2.565 7.104 0.766 6.479 2.896-0.543 5.271 0.214 7.702 2.454l2.262 2.085 3.229-0.375c3.779-0.439 6.612-1.36 8.656-2.816 0.806-0.574 1.967-1.043 2.58-1.043 1.705 0 2.945-0.858 3.914-2.707 1.145-2.185 1.815-6.062 1.052-6.083-0.31-0.009-0.165-0.248 0.321-0.531 0.715-0.417 0.785-0.777 0.368-1.874-0.284-0.747-0.374-2.309-0.2-3.47 0.484-3.226-1.234-4.488-7.235-5.312-1.129-0.155-2.582-0.628-3.228-1.052-1.378-0.903-2.718-0.166-2.718 1.496 0 1.228-0.992 1.641-2.555 1.063l-1.197-0.443 1.403-1.104c0.772-0.607 1.254-1.345 1.071-1.64-0.529-0.856-0.99-0.651-2.852 1.27z"></path>
</symbol>

<symbol id="icon-germany2" viewBox="0 0 44 32">
<path d="M13.050 1.254c-0.147 0.097-0.59 0.133-0.983 0.082-1.049-0.138-1.336 0.11-0.927 0.802 0.238 0.404 0.261 0.545 0.088 0.547-0.612 0.007-0.781 0.349-0.341 0.69 0.535 0.415 0.645 1.567 0.161 1.693-0.167 0.044-0.339-0.013-0.382-0.125-0.109-0.288-0.642 0.423-0.651 0.868-0.008 0.407-0.898 0.942-0.898 0.54s-0.851-0.808-1.692-0.808c-0.446 0-0.811 0.067-0.811 0.149s-0.207 0.259-0.461 0.395c-0.336 0.18-0.44 0.355-0.384 0.647 0.058 0.301-0.016 0.414-0.299 0.454-0.386 0.055-0.666 0.858-0.299 0.858 0.288 0 0.23 0.818-0.077 1.073-0.147 0.122-0.268 0.492-0.268 0.821 0 0.406-0.072 0.571-0.224 0.512-0.444-0.17-0.687 0.562-0.302 0.911 0.448 0.405 0.444 0.91-0.010 1.153-0.197 0.105-0.358 0.349-0.358 0.543 0 0.297-0.124 0.351-0.798 0.351-1.079 0-1.394 0.501-0.812 1.289 0.429 0.581 0.393 1.356-0.11 2.328-0.248 0.48-0.233 0.527 0.372 1.15 0.547 0.563 0.593 0.676 0.353 0.852-0.581 0.425-0.377 1.356 0.454 2.064 0.593 0.506 0.74 0.735 0.65 1.019-0.197 0.62 0.233 0.798 1.404 0.581 1.209-0.224 1.885 0.169 1.827 1.060-0.029 0.435 0.031 0.478 0.729 0.528 0.616 0.045 1.153 0.392 0.605 0.392-0.307 0-1.104 1.385-1.344 2.335-0.315 1.249-0.498 2.477-0.395 2.644 0.122 0.198 2.737-0.209 2.993-0.465 0.254-0.254 0.8-0.297 0.938-0.074 0.051 0.082 0.525 0.113 1.055 0.070 0.886-0.073 0.994-0.040 1.355 0.42 0.765 0.973 2.054 1.471 2.28 0.882 0.11-0.287 1.411-0.204 1.754 0.111 0.278 0.255 1.467 0.178 1.706-0.111 0.142-0.17 0.377-0.227 0.655-0.158 0.287 0.072 0.553 0.001 0.785-0.209 0.38-0.344 1.331-0.174 2.286 0.407 0.491 0.299 1.109 0.161 0.775-0.173-0.115-0.115-0.209-0.347-0.209-0.516s-0.1-0.34-0.223-0.381c-0.288-0.096-0.288-0.692-0.001-0.996 0.123-0.13 0.223-0.501 0.223-0.824 0-0.431 0.19-0.804 0.713-1.397 0.615-0.699 0.676-0.84 0.446-1.031-0.147-0.122-0.367-0.433-0.489-0.69s-0.504-0.608-0.848-0.778c-1.196-0.591-1.69-1.521-1.134-2.135 0.276-0.305 0.274-0.352-0.036-0.694-0.497-0.549-0.028-1.221 1.199-1.718 0.525-0.212 1.035-0.456 1.133-0.542s0.555-0.298 1.014-0.472c0.459-0.174 0.932-0.433 1.050-0.575s0.323-0.259 0.455-0.259c0.132 0 0.322-0.154 0.423-0.342 0.215-0.402 0.553-0.39 0.979 0.036 0.33 0.329 1.174 0.421 1.174 0.127 0-0.338 1.217-0.199 1.475 0.169 0.151 0.215 0.579 0.404 1.126 0.495 0.673 0.113 0.897 0.232 0.946 0.502 0.155 0.861 1.132 1.518 1.624 1.093 0.316-0.274 2.587-0.192 2.414 0.087-0.054 0.087-0.007 0.158 0.102 0.158s0.157 0.069 0.106 0.153c-0.1 0.162 0.642 0.562 1.043 0.562 0.131 0 0.332 0.113 0.447 0.251 0.707 0.852 4.106-0.155 3.86-1.144-0.061-0.247-0.176-0.795-0.254-1.218-0.176-0.954-1.285-2.179-1.975-2.183-0.794-0.004-1.21-0.194-1.415-0.643-0.109-0.24-0.34-0.485-0.513-0.544s-0.528-0.356-0.789-0.66c-0.437-0.509-0.509-0.534-0.917-0.316-0.553 0.296-1.082 0.138-1.457-0.433-0.159-0.242-0.372-0.44-0.473-0.44-0.299 0-1.593-1.109-1.489-1.277 0.052-0.084 0.026-0.153-0.059-0.153s-0.119-0.291-0.078-0.646c0.049-0.421-0.010-0.703-0.17-0.808-0.35-0.231 0.444-0.87 1.081-0.87 2.22 0 4.226-2.255 3.148-3.537-0.52-0.618-0.475-0.864 0.205-1.123 0.356-0.136 0.432-0.272 0.387-0.701-0.053-0.504 0.291-1.125 0.706-1.277 0.1-0.037 0.21-0.388 0.244-0.781l0.062-0.715-0.807 0.009c-1.17 0.012-3.36 0.755-4.273 1.448-0.434 0.33-0.939 0.599-1.123 0.599-0.568 0-4.090 0.933-4.313 1.143-0.222 0.209-0.863 0.27-1.016 0.097-0.2-0.228-1.652-0.703-2.149-0.703-0.69 0-0.688-0.295 0.004-0.447 0.475-0.104 0.523-0.172 0.417-0.595-0.236-0.949-1.082-1.222-1.246-0.403-0.103 0.514-0.118 0.52-1.057 0.423-0.871-0.090-1.013-0.050-1.66 0.462-0.449 0.356-0.91 0.56-1.263 0.56-0.305 0-0.555 0.061-0.555 0.135 0 0.302-1.067 0.597-1.717 0.475-0.575-0.108-0.626-0.154-0.371-0.341 0.162-0.119 0.243-0.268 0.179-0.332s-0.023-0.116 0.092-0.116c0.282 0 0.267-0.529-0.015-0.562-0.123-0.014-0.505-0.046-0.849-0.070-1.145-0.080-2.301-0.472-2.196-0.745 0.247-0.644-1.088-1.37-1.737-0.945z"></path>
</symbol>

<symbol id="icon-greatBritain" viewBox="0 0 23 32">
<path d="M16.057 1.569c0.513-0.83 1.062 0.63 0.609 1.619l-0.165 0.361-0.010-0.365c-0.007-0.272-0.101-0.419-0.371-0.578-0.363-0.214-0.506-0.488-0.193-0.368 0.233 0.089 0.364-0.166 0.193-0.373-0.078-0.093-0.106-0.226-0.063-0.296zM12.508 5.598c0.199-0.24 0.316-0.233 0.584 0.035 0.121 0.121 0.315 0.256 0.431 0.301 0.369 0.142 0.135 0.381-0.381 0.39-0.58 0.010-0.921-0.38-0.634-0.726zM12.19 6.944c-0.050-0.081-0.002-0.098 0.131-0.047 0.116 0.044 0.344 0.081 0.508 0.081 0.217 0 0.289 0.057 0.264 0.21-0.019 0.116 0.013 0.292 0.072 0.391s0.068 0.146 0.020 0.103c-0.048-0.043-0.205 0.039-0.35 0.18s-0.399 0.355-0.564 0.474-0.22 0.178-0.12 0.131c0.099-0.047 0.153-0.054 0.12-0.016s-0.101 0.073-0.152 0.077c-0.492 0.041-0.955 0.533-0.623 0.66 0.153 0.059 0.126 0.128-0.15 0.375l-0.338 0.303 0.361-0.052c0.198-0.028 0.388-0.062 0.421-0.076s0.101-0.018 0.15-0.010c0.050 0.008 0.090-0.040 0.090-0.106 0-0.163 3.088-0.161 3.189 0.002 0.042 0.067 0.127 0.090 0.191 0.051s0.105-0.026 0.093 0.028c-0.012 0.055 0.019 0.192 0.069 0.306 0.059 0.135 0.003 0.318-0.161 0.528-0.139 0.176-0.252 0.397-0.252 0.49s-0.055 0.235-0.123 0.315c-0.067 0.080-0.27 0.371-0.451 0.647s-0.479 0.67-0.663 0.875c-0.273 0.304-0.3 0.386-0.15 0.443 0.369 0.142 0.215 0.526-0.211 0.526-0.245 0-0.472 0.091-0.6 0.241-0.198 0.232-0.194 0.241 0.101 0.241 0.169 0 0.279-0.045 0.245-0.1s0.193-0.061 0.504-0.013c0.312 0.048 0.586 0.069 0.609 0.047s0.24 0.14 0.481 0.359c0.241 0.22 0.578 0.528 0.75 0.685 0.26 0.238 0.656 1.192 0.783 1.885 0.044 0.238 0.42 0.775 0.492 0.703 0.035-0.035 0.268 0.065 0.518 0.223s0.488 0.263 0.528 0.234c0.040-0.029 0.047-0.018 0.015 0.025-0.074 0.099 0.612 0.763 0.789 0.763 0.083 0 0.102 0.132 0.052 0.361-0.050 0.227-0.031 0.361 0.051 0.361 0.071 0 0.118 0.041 0.104 0.090s0.046 0.219 0.133 0.376c0.109 0.197 0.119 0.311 0.030 0.365-0.078 0.049 0.010 0.21 0.228 0.416 0.388 0.366 0.461 0.801 0.176 1.038-0.099 0.082-0.18 0.224-0.18 0.316 0 0.222 0.414 0.212 0.602-0.015 0.302-0.364 1.85-0.049 2.268 0.462 0.316 0.386 0.115 1.436-0.364 1.905-0.191 0.187-0.307 0.34-0.257 0.34s-0.033 0.087-0.184 0.192c-0.151 0.106-0.38 0.165-0.508 0.132-0.266-0.070-0.302 0.040-0.084 0.258 0.177 0.177-0.056 0.375-0.444 0.378-0.586 0.005 0.085 0.264 0.732 0.282 0.726 0.021 1.114 0.436 0.595 0.635-0.104 0.040-0.153 0.129-0.11 0.198 0.048 0.077 0.020 0.090-0.072 0.033-0.088-0.054-0.294 0.013-0.495 0.162-0.19 0.14-0.425 0.255-0.523 0.255s-0.212 0.055-0.254 0.122c-0.042 0.067-0.126 0.091-0.188 0.053s-0.112-0.009-0.112 0.065-0.050 0.103-0.112 0.065-0.138-0.028-0.169 0.023c-0.071 0.115-2.061 0.089-2.534-0.033-0.234-0.060-0.323-0.048-0.27 0.037 0.137 0.221-0.058 0.51-0.343 0.51-0.151 0-0.305-0.078-0.342-0.174-0.045-0.116-0.224-0.168-0.541-0.155-0.333 0.013-0.456 0.065-0.414 0.174 0.044 0.116-0.113 0.155-0.615 0.155-0.371 0-0.675-0.053-0.675-0.118 0-0.13-1.327-0.088-1.549 0.049-0.074 0.046-0.135 0.189-0.135 0.317 0 0.327-0.456 0.765-0.64 0.613-0.385-0.318-2.007-0.233-2.007 0.106 0 0.064-0.084 0.116-0.188 0.116s-0.159 0.046-0.124 0.102c0.035 0.056-0.084 0.092-0.264 0.079s-0.476-0.032-0.658-0.042c-0.182-0.010-0.331-0.066-0.331-0.125s0.149-0.169 0.331-0.247c0.489-0.208 1.634-1.298 1.68-1.599 0.022-0.143 0.070-0.29 0.107-0.328 0.064-0.064 0.116-0.078 0.421-0.113 0.073-0.008 0.105-0.087 0.072-0.175-0.107-0.279 0.693-0.476 1.556-0.384 0.713 0.076 0.789 0.061 1.005-0.198 0.382-0.459 0.25-0.559-0.322-0.245-0.373 0.205-0.613 0.181-1.082-0.109-0.248-0.153-0.529-0.231-0.71-0.196-0.21 0.040-0.336-0.010-0.42-0.167-0.135-0.252-0.486-0.291-0.853-0.094-0.601 0.322-1.332-0.404-0.854-0.849 0.119-0.111 0.277-0.182 0.351-0.157s0.218-0.040 0.321-0.143 0.353-0.221 0.555-0.261c0.202-0.040 0.368-0.124 0.368-0.186s0.052-0.080 0.115-0.041c0.136 0.084 0.514-0.591 0.397-0.708-0.044-0.044-0.082-0.227-0.085-0.406-0.007-0.399-0.477-0.528-0.719-0.197-0.16 0.219-0.43 0.146-0.43-0.116 0-0.084 0.132-0.224 0.294-0.311 0.399-0.214 0.49-0.491 0.187-0.57-0.345-0.090-0.344-0.757 0.001-0.757 0.256 0 0.713 0.219 0.88 0.421 0.066 0.080 0.117 0.078 0.152-0.006 0.029-0.069 0.249-0.103 0.488-0.075 0.301 0.035 0.41 0.009 0.352-0.084-0.054-0.088 0.024-0.126 0.224-0.109 0.169 0.014 0.307 0.072 0.307 0.128s0.078 0.025 0.173-0.071c0.095-0.095 0.145-0.283 0.11-0.416s-0.002-0.281 0.073-0.327c0.101-0.063 0.1-0.129-0.006-0.256-0.111-0.134-0.104-0.218 0.036-0.38 0.287-0.334 0.354-0.629 0.144-0.629-0.101 0-0.15 0.054-0.109 0.12 0.206 0.333-0.275 0.056-0.679-0.391-0.556-0.615-0.602-1.175-0.122-1.489 0.544-0.356 0.033-0.414-0.607-0.068-0.517 0.279-0.617 0.297-0.846 0.154-0.186-0.116-0.274-0.124-0.306-0.026-0.059 0.177-0.708 0.178-0.817 0.001-0.057-0.092-0.121-0.069-0.199 0.070-0.106 0.189-0.139 0.184-0.404-0.066-0.301-0.283-0.396-0.733-0.144-0.681 0.080 0.017 0.149-0.024 0.154-0.090s0.163-0.38 0.351-0.698l0.343-0.578-0.247-0.264c-0.222-0.237-0.23-0.295-0.079-0.565 0.217-0.389 0.216-0.481-0.005-0.481-0.099 0-0.18 0.054-0.18 0.12s-0.081 0.12-0.18 0.12c-0.099 0-0.18 0.054-0.18 0.12s-0.054 0.12-0.12 0.12c-0.066 0-0.12-0.119-0.12-0.265 0-0.164-0.042-0.221-0.111-0.15-0.177 0.182-0.008 0.748 0.243 0.814 0.312 0.082 0.311 0.634-0.002 0.716-0.127 0.033-0.289 0.002-0.361-0.070-0.094-0.094-0.13-0.092-0.13 0.005 0 0.198-0.361 0.528-0.491 0.448-0.144-0.089-0.144-0.741 0-0.83 0.061-0.038 0.149-0.433 0.195-0.879s0.186-1.024 0.31-1.284c0.124-0.261 0.226-0.521 0.226-0.578 0-0.186-0.698 0.302-0.822 0.575-0.126 0.277-0.697 0.467-0.817 0.272-0.038-0.062-0.159-0.082-0.268-0.044-0.151 0.052-0.144 0.027 0.030-0.108 0.186-0.144 0.201-0.21 0.080-0.356-0.216-0.26-0.036-0.463 0.327-0.372 0.274 0.069 0.29 0.055 0.148-0.117-0.139-0.167-0.125-0.204 0.099-0.262 0.143-0.037 0.26-0.158 0.26-0.268s0.108-0.278 0.241-0.373c0.132-0.095 0.241-0.279 0.241-0.408 0-0.226-0.011-0.224-0.278 0.027-0.326 0.306-0.544 0.334-0.64 0.081-0.038-0.099-0.14-0.18-0.226-0.18-0.175 0-1.141-0.605-1.14-0.713 0.002-0.155 0.849-0.633 1.011-0.571 0.096 0.037 0.192 0.246 0.213 0.464 0.034 0.356 0.085 0.404 0.491 0.469 0.409 0.066 0.436 0.054 0.279-0.119-0.124-0.137-0.14-0.252-0.055-0.403 0.065-0.116 0.089-0.259 0.053-0.317-0.241-0.39 0.309-0.958 0.834-0.861 0.066 0.012 0.034-0.066-0.072-0.174-0.291-0.297-0.155-0.782 0.219-0.782 0.209 0 0.28-0.052 0.234-0.17-0.191-0.496 0.24-1.031 0.609-0.756 0.211 0.158 2.58-0.024 2.478-0.189zM6.299 7.69c0.567-0.346 0.724-0.306 0.631 0.16-0.043 0.215-0.131 0.409-0.196 0.431s-0.118 0.143-0.118 0.268c0 0.144-0.173 0.317-0.471 0.469l-0.471 0.24-0.239-0.378c-0.268-0.423-0.227-0.699 0.105-0.699 0.121 0 0.257-0.059 0.301-0.13s0.25-0.234 0.458-0.36zM7.431 14.195c0.179-0.287 0.389-0.315 0.389-0.052 0 0.524-0.895 1.45-1.039 1.075-0.038-0.099-0.114-0.152-0.168-0.118s-0.139-0.002-0.187-0.080c-0.103-0.167 0.366-0.584 0.657-0.584 0.109 0 0.266-0.108 0.349-0.241zM5.606 16.544c0.738-0.385 1.434-0.251 1.853 0.358 0.205 0.298 0.422 0.541 0.483 0.541s0.082 0.074 0.048 0.165c-0.035 0.091 0.021 0.197 0.124 0.237 0.316 0.121 0.205 0.361-0.364 0.79-0.696 0.524-1.339 0.608-1.918 0.25-0.58-0.359-0.959-0.285-0.959 0.187 0 0.268-0.056 0.365-0.21 0.365-0.116 0-0.21-0.037-0.21-0.082s-0.122-0.114-0.271-0.154c-0.473-0.127-0.877-0.51-0.732-0.694 0.070-0.089 0.162-0.305 0.204-0.48 0.050-0.212 0.198-0.361 0.438-0.445 0.218-0.076 0.363-0.212 0.365-0.343 0.006-0.355 0.312-0.668 0.571-0.586 0.127 0.040 0.388-0.009 0.58-0.109zM10.010 18.857c0.261-0.372 0.366-0.404 0.562-0.167 0.104 0.125 0.077 0.238-0.114 0.481-0.456 0.58-0.87 0.29-0.448-0.314z"></path>
</symbol>
<symbol id="icon-greece" viewBox="0 0 33 32">
<path d="M23.087 1.755c0.105 1.327-3.494 1.954-5.116 0.89-0.36-0.236-0.793-0.323-1.157-0.232-0.368 0.092-0.581 0.048-0.581-0.121 0-0.393-1.894-0.087-2.22 0.359-0.181 0.247-0.642 0.363-1.444 0.363-0.648 0-1.234 0.091-1.303 0.202-0.229 0.37-1.59 0.5-2.351 0.225-0.706-0.255-0.812-0.22-1.76 0.598-0.876 0.755-1.124 0.854-1.887 0.755-1.011-0.132-1.606 0.485-1.649 1.712-0.014 0.407-0.131 0.646-0.286 0.587-0.384-0.146-0.782 0.341-0.782 0.959 0 0.349-0.204 0.631-0.58 0.802-0.414 0.189-0.58 0.447-0.58 0.904 0 0.352-0.065 0.809-0.145 1.016-0.1 0.261 0.23 0.721 1.078 1.5l1.222 1.124-0.502 0.705c-0.576 0.81-0.267 1.256 0.432 0.623 0.412-0.373 0.461-0.347 1.037 0.565 0.332 0.526 0.731 0.941 0.886 0.921s0.569-0.023 0.919-0.008c0.696 0.030 0.9 0.491 0.217 0.491-0.231 0-0.722 0.314-1.090 0.699l-0.669 0.699 1.117 1.134c0.759 0.77 1.056 1.233 0.927 1.442-0.336 0.544-0.258 1.045 0.267 1.703 0.508 0.638 1.028 0.633 1.028-0.009 0-0.184 0.086-0.334 0.191-0.334 0.328 0 1.2 1.054 1.2 1.451 0 0.617 0.42 0.689 0.715 0.121 0.151-0.291 0.309-0.567 0.35-0.615s0.4 0.187 0.798 0.522c0.398 0.335 0.804 0.609 0.903 0.609 0.278 0-0.121-2.106-0.582-3.072s-0.306-1.344 0.374-0.919c1.237 0.773 2.196-0.027 1.15-0.959-1.451-1.293 0.154-1.957 1.763-0.73 0.419 0.319 0.822 0.482 0.896 0.362 0.191-0.308-0.118-2.15-0.428-2.555-0.142-0.185 0.026-0.133 0.372 0.116s0.634 0.527 0.638 0.619c0.013 0.298 0.892 0.648 1.266 0.504 0.545-0.209 0.44-0.554-0.169-0.554-0.695 0-1.088-0.412-1.097-1.148-0.007-0.595-0.52-1.494-0.732-1.282-0.231 0.231-1.717-0.458-2.351-1.090-0.361-0.36-0.543-0.654-0.406-0.654 0.49 0 0.231-0.535-1.142-2.356-1.541-2.045-1.493-1.92-1.132-2.957 0.259-0.744 0.26-0.744 0.754-0.295 0.272 0.247 0.729 0.57 1.016 0.718s0.522 0.414 0.522 0.592 0.313 0.479 0.696 0.67c0.732 0.365 0.939 0.178 0.348-0.313-0.389-0.323-0.461-0.696-0.134-0.696 0.118 0 0.526 0.262 0.907 0.583 0.816 0.686 1.178 0.296 0.46-0.495-0.576-0.635-0.074-0.897 0.825-0.431 0.335 0.174 0.609 0.241 0.609 0.149 0-0.259-0.956-1.014-1.101-0.87-0.108 0.108-0.754-0.89-0.754-1.166 0-0.049 0.405-0.090 0.899-0.090 0.538 0 1.022-0.148 1.204-0.368 0.208-0.251 0.518-0.325 0.975-0.234 0.368 0.074 0.87 0.026 1.116-0.105 0.448-0.24 2.702 0.049 3.864 0.496 0.335 0.129 0.522 0.114 0.522-0.040 0-0.132 0.113-0.171 0.252-0.085 0.169 0.104 0.226-0.138 0.174-0.74-0.064-0.737 0.011-0.935 0.424-1.116 0.519-0.228 0.714-0.911 0.583-2.049-0.123-1.071-1.852-0.877-1.767 0.198zM12.058 12.638c0-0.191-0.104-0.348-0.232-0.348s-0.232 0.157-0.232 0.348 0.104 0.348 0.232 0.348c0.127 0 0.232-0.157 0.232-0.348zM10.765 16.618c0.445 0.212 0.76 0.466 0.7 0.564s-0.395 0.029-0.744-0.153c-0.349-0.182-0.764-0.331-0.924-0.332s-0.29-0.106-0.29-0.233c0-0.329 0.329-0.289 1.258 0.154zM29.831 24.685c0.622-0.577 1.563-0.754 1.817-0.344 0.389 0.63-1.381 2.511-2.101 2.235-0.542-0.208-0.382-1.273 0.285-1.891zM27.137 27.117c0.367-0.686 0.743-0.258 0.648 0.737-0.049 0.508-0.197 0.783-0.423 0.783-0.444 0-0.573-0.87-0.225-1.52zM14.187 27.73c0.389-0.273 0.581-0.292 0.83-0.085 0.246 0.205 0.429 0.204 0.759-0.002 0.362-0.226 0.493-0.188 0.782 0.225 0.297 0.424 0.629 0.51 2.271 0.589 1.058 0.051 2.28 0.113 2.715 0.137s0.836 0.175 0.889 0.334c0.123 0.369 1.038 0.377 1.403 0.012 0.529-0.529 0.914 0.182 0.499 0.924-0.465 0.832-5.619 1.373-6.151 0.646-0.185-0.254-0.964-0.512-2.184-0.725-2.503-0.437-3.123-1.138-1.815-2.054z"></path>
</symbol>
<symbol id="icon-hungary" viewBox="0 0 53 32">
<path d="M38.845 3.259c-0.148 0.24-1.382 0.321-2.741 0.181-2.399-0.248-2.553-0.189-5.209 1.975-2.405 1.959-2.871 2.169-3.843 1.726-0.898-0.409-1.334-0.323-2.33 0.46-0.86 0.676-1.585 0.873-2.435 0.66-1.43-0.359-3.247 0.669-3.699 2.093-0.369 1.163-8.314 1.313-9.655 0.182-1.175-0.991-2.52-0.443-3.506 1.429-0.8 1.518-1.111 1.731-2.279 1.56-1.251-0.184-1.334-0.103-1.099 1.069 0.139 0.697 0.079 1.458-0.134 1.69-1.341 1.456-1.011 6.169 0.559 8.005 1.474 1.723 1.916 1.999 3.644 2.276 0.388 0.062 0.706 0.399 0.706 0.748 0 2.271 9.473 3.885 11.249 1.916 0.493-0.547 1.349-0.994 1.901-0.994s2.25-0.324 3.771-0.721c1.9-0.495 2.918-0.569 3.252-0.235 1.315 1.315 9.307-0.67 10.365-2.574 0.286-0.515 1.799-2.525 3.363-4.468s3.295-4.274 3.849-5.181c0.554-0.907 1.888-2.178 2.966-2.824 4.22-2.53 5.412-4.704 2.579-4.704-0.324 0-1.41-0.759-2.413-1.686-1.651-1.526-2.013-1.661-3.813-1.422-1.66 0.22-2.072 0.11-2.487-0.667-0.514-0.961-2.086-1.264-2.561-0.495z"></path>
</symbol>
<symbol id="icon-italy" viewBox="0 0 28 32">
<path d="M11.649 4.299c1.522-0.096 1.541-0.095 1.764 0.152 0.12 0.132 0.278 0.241 0.351 0.241s0.197 0.103 0.275 0.228c0.094 0.151 0.348 0.257 0.75 0.312 0.426 0.059 0.717 0.186 0.975 0.427 0.202 0.189 0.444 0.314 0.537 0.279 0.112-0.043 0.197 0.050 0.251 0.277 0.045 0.188 0.149 0.423 0.231 0.522 0.691 0.833 0.548 2.286-0.226 2.286-0.478 0-1.003-1.478-0.623-1.756 0.115-0.084 0.179-0.203 0.142-0.263-0.086-0.139-0.865-0.097-1.067 0.058-0.145 0.111-0.894 0.436-1.084 0.471-0.050 0.009-0.171 0.023-0.271 0.032-0.232 0.019-0.235 0.499-0.004 0.804 0.23 0.304 0.232 0.644 0.004 0.731-0.222 0.085-0.236 0.83-0.022 1.215 0.134 0.24 1.682 1.355 1.882 1.355 0.222 0 0.758 0.759 0.978 1.386 0.61 1.737 1.871 2.746 3.354 2.686 1.026-0.042 1.355 0.146 0.97 0.555-0.435 0.463-0.023 0.826 1.44 1.267 0.298 0.090 0.65 0.256 0.782 0.369s0.484 0.326 0.782 0.473c0.643 0.317 1.684 1.292 1.684 1.577 0 0.751-0.781 0.837-1.079 0.118-0.124-0.299-0.238-0.373-0.674-0.439-0.289-0.043-0.588-0.154-0.664-0.246-0.291-0.35-0.658-0.195-0.993 0.42-0.411 0.754-0.408 1.045 0.011 1.262 0.875 0.452 1.117 1.422 0.412 1.649-0.6 0.193-0.742 0.326-0.748 0.697-0.012 0.829-1.558 1.865-1.865 1.251l-0.134-0.268-0.253 0.342c-0.489 0.661-0.652 1.205-0.449 1.495 0.231 0.33 0.227 0.619-0.015 0.988-0.107 0.163-0.147 0.297-0.090 0.298s0.033 0.047-0.055 0.103c-0.3 0.19-1.111-0.059-1.47-0.451-0.231-0.253-0.455-0.375-0.687-0.375-0.19 0-0.639-0.176-0.999-0.391-0.802-0.479-1.328-0.72-1.405-0.643-0.032 0.032-0.222-0.095-0.423-0.283l-0.365-0.341 0.271-0.381c0.227-0.319 0.326-0.369 0.608-0.307 0.189 0.041 0.371 0.018 0.415-0.053 0.111-0.18 0.67-0.151 1.027 0.053 0.386 0.221 1.291 0.227 1.951 0.014 0.283-0.092 0.935-0.238 1.447-0.325 0.922-0.156 0.932-0.162 1.008-0.565 0.050-0.266 0.175-0.452 0.362-0.537 0.295-0.135 0.375-0.383 0.165-0.513-0.066-0.041-0.12-0.181-0.12-0.312s-0.128-0.493-0.283-0.805c-0.156-0.312-0.319-0.716-0.363-0.898-0.063-0.261-0.149-0.331-0.408-0.331-0.553-0.001-1.11-0.42-1.11-0.836 0-0.371-0.283-0.624-0.58-0.518-0.087 0.031-0.288-0.064-0.445-0.212s-0.363-0.239-0.456-0.203c-0.109 0.042-0.263-0.1-0.428-0.393-0.302-0.537-0.438-0.604-1.222-0.604-0.322 0-0.619-0.055-0.66-0.122s-0.248-0.198-0.458-0.291c-0.211-0.093-0.842-0.616-1.403-1.162-0.656-0.638-1.15-1.019-1.383-1.067-0.2-0.041-0.352-0.126-0.338-0.19 0.035-0.164-0.695-0.9-1.017-1.026-0.213-0.083-0.271-0.202-0.275-0.56-0.002-0.25-0.083-0.559-0.18-0.688s-0.177-0.372-0.178-0.541c-0.003-0.462-0.089-0.538-1.238-1.080-1.625-0.767-1.982-0.72-2.844 0.376-0.328 0.417-0.744 0.405-0.993-0.029-0.113-0.196-0.356-0.424-0.541-0.505-0.532-0.234-0.7-0.848-0.391-1.426 0.090-0.168 0.087-0.226-0.010-0.203-0.074 0.018-0.215-0.085-0.313-0.227-0.192-0.28-0.201-0.264 0.437-0.752 0.287-0.219 0.291-0.239 0.090-0.46-0.271-0.299-0.299-1.262-0.034-1.16 0.097 0.037 0.349-0.019 0.56-0.124s0.502-0.192 0.647-0.192c0.164 0 0.315-0.114 0.4-0.301 0.154-0.339 0.464-0.386 0.811-0.124 0.415 0.314 0.738 0.211 0.667-0.212-0.083-0.495 0.582-0.722 1.002-0.342 0.33 0.299 1.295 0.458 1.194 0.197-0.038-0.1-0.131-0.185-0.207-0.189s-0.011-0.058 0.144-0.121c0.155-0.062 0.331-0.083 0.391-0.045 0.094 0.058 0.163-0.189 0.126-0.45-0.021-0.15 0.457-0.050 0.518 0.108 0.081 0.211 0.725 0.197 0.904-0.020 0.086-0.103 0.424-0.192 0.827-0.218zM6.87 17.745c0.619-0.492 0.503-0.456 0.897-0.277 0.502 0.229 1.118 1.747 0.791 1.949-0.057 0.035-0.13 0.568-0.162 1.184-0.074 1.407-0.205 1.689-0.74 1.588-0.338-0.063-0.41-0.031-0.532 0.236-0.477 1.047-1.641-0.244-1.245-1.381 0.073-0.21 0.094-0.443 0.045-0.518s-0.090-0.364-0.092-0.642c-0.003-0.338-0.099-0.633-0.289-0.891-0.328-0.444-0.229-0.76 0.246-0.782 0.505-0.023 0.545-0.040 1.081-0.467z"></path>
</symbol>
<symbol id="icon-latvia" viewBox="0 0 63 32">
<path d="M32.134 1.762c-3.698 2.028-3.693 2.019-3.39 6.137 0.27 3.662 0.253 3.725-1.203 4.566-2.695 1.555-5.889 1.288-6.887-0.577-0.278-0.52-2.021-2.276-3.874-3.902l-3.368-2.957-2.425 0.679c-3.296 0.923-6.213 3.641-6.919 6.448-0.306 1.216-1.115 2.735-1.796 3.376-3.424 3.216-0.807 11.524 2.748 8.727 0.993-0.781 2.094-1.032 4.528-1.032 2.494 0 3.527-0.245 4.606-1.094 1.856-1.46 6.419-1.187 8.205 0.491 1.023 0.961 1.791 1.119 5.463 1.119 3.491 0 4.513 0.189 5.585 1.032 0.833 0.655 2.094 1.032 3.45 1.032 2.25 0 4.432 1.132 4.432 2.298 0 3.127 6.004 4.278 10.16 1.947 0.62-0.348 1.501-0.633 1.959-0.633 1.261 0 3.365-2.371 3.365-3.792 0-1.317 0.842-1.885 2.791-1.885 0.637 0 1.667-0.541 2.288-1.203l1.13-1.203-1.088-0.985c-0.85-0.769-1.025-1.374-0.799-2.764 0.159-0.979 0.037-2.083-0.27-2.453-0.525-0.632-0.451-1.66 0.347-4.857 0.619-2.479-2.73-5.329-5.734-4.878-1.491 0.224-2.948 0.126-3.878-0.258-1.227-0.508-1.806-0.467-3.285 0.236l-1.796 0.852-1.903-2.106c-1.143-1.265-2.198-1.992-2.642-1.822-0.407 0.156-1.393-0.182-2.192-0.75-1.927-1.372-4.871-1.29-7.61 0.212z"></path>
</symbol>
<symbol id="icon-netherland" viewBox="0 0 28 32">
<path d="M21.322 2.211c-2.853 0.368-4.198 1.003-5.837 2.754-0.65 0.694-1.804 1.387-2.565 1.539s-1.528 0.501-1.704 0.775c-0.509 0.791-1.425 3.542-1.432 4.303-0.004 0.381-0.907 1.748-2.007 3.036s-2 2.52-2 2.737-0.28 0.287-0.622 0.156c-0.797-0.306-1.444 0.703-0.733 1.142 0.336 0.208 0.024 0.435-0.832 0.606-1.105 0.221-1.369 0.495-1.369 1.422 0 0.642-0.193 1.029-0.438 0.877-0.279-0.172-0.303 0.101-0.065 0.752 0.649 1.775 4.17 2.175 5.757 0.654 1.685-1.615 6.253-1.334 6.929 0.426 0.209 0.544 0.629 0.639 1.828 0.415 1.918-0.36 2.452 0.534 1.336 2.237-0.861 1.313-0.723 1.582 0.9 1.76 0.641 0.070 1.057 0.020 0.925-0.112s0.057-0.538 0.42-0.901c0.374-0.374 0.545-1.025 0.393-1.503-0.154-0.484-0.056-0.842 0.23-0.842 0.688 0 0.337-3.289-0.451-4.24-0.546-0.657-0.503-0.849 0.343-1.534 0.532-0.431 0.842-0.908 0.689-1.060s0.334-0.277 1.081-0.277c2.863 0 4.52-2.826 2.757-4.702-0.921-0.98 0.142-2.597 1.086-1.653 0.154 0.154 0.281-0.328 0.281-1.072s0.296-1.599 0.658-1.899c0.709-0.589 0.675-2.354-0.073-3.785-0.256-0.489-0.381-1.121-0.279-1.404s-0.056-0.664-0.351-0.846c-0.369-0.228-0.425-0.136-0.18 0.293 0.288 0.505 0.242 0.518-0.242 0.069-0.644-0.597-0.731-0.6-4.432-0.122z"></path>
</symbol>
<symbol id="icon-norway" viewBox="0 0 27 32">
<path d="M19.638 0.207c-0.169 0.44 0.016 1.029 0.381 1.212 0.36 0.181 0.358 0.184-0.163 0.186-0.291 0.001-0.685 0.122-0.877 0.27s-0.464 0.309-0.604 0.361c-0.312 0.114-0.341 0.541-0.037 0.541 0.33 0 0.266 0.192-0.216 0.654-0.712 0.682-0.946 1.83-0.373 1.83 0.123 0 0.224 0.073 0.224 0.162 0 0.094 0.108 0.121 0.256 0.064 0.203-0.077 0.219-0.060 0.076 0.084s-0.25 0.144-0.514 0.002c-0.624-0.334-2.775 0.88-2.337 1.319 0.119 0.119-0.118 0.348-0.887 0.86-1.793 1.191-3.643 3.285-2.989 3.382 0.17 0.025 0.326 0.13 0.346 0.232s0.004 0.119-0.037 0.037c-0.097-0.196-0.721-0.192-1.095 0.008-0.228 0.122-0.353 0.105-0.55-0.073-0.14-0.127-0.48-0.238-0.755-0.248s-0.385-0.047-0.244-0.084c0.141-0.037 0.256-0.152 0.256-0.257 0-0.147-0.115-0.136-0.507 0.047-0.514 0.241-0.729 0.529-0.261 0.349 0.24-0.092 0.24-0.074-0.006 0.301-0.278 0.424-0.227 0.683 0.133 0.683 0.121 0 0.179 0.066 0.129 0.146s-0.21 0.146-0.356 0.146c-0.437 0-0.685 0.405-0.465 0.757 0.224 0.359 0.131 0.505-0.126 0.197-0.202-0.244-1.534-0.318-1.673-0.093-0.044 0.071-0.308 0.172-0.587 0.225-0.504 0.095-1.104 0.665-1.104 1.051 0 0.108-0.181 0.235-0.402 0.281-0.563 0.118-0.817 0.271-0.986 0.593-0.094 0.179-0.32 0.286-0.634 0.301-0.268 0.013-0.63 0.156-0.804 0.319s-0.497 0.365-0.718 0.448c-0.424 0.161-0.549 0.636-0.221 0.839 0.122 0.076 0.063 0.14-0.182 0.198-0.51 0.12-0.535 0.54-0.063 1.033 0.347 0.362 0.369 0.432 0.16 0.513-0.283 0.109-0.321 0.655-0.063 0.913 0.141 0.141 0.141 0.239 0 0.466-0.245 0.393-0.225 1.312 0.035 1.6s0.135 0.936-0.16 0.823c-0.136-0.052-0.2 0.039-0.2 0.284 0 0.198 0.066 0.361 0.146 0.361s0.148-0.115 0.149-0.256c0.003-0.223 0.035-0.216 0.256 0.054 0.139 0.17 0.384 0.389 0.545 0.485 0.283 0.169 0.282 0.173-0.031 0.107-0.326-0.069-0.706 0.212-0.527 0.39 0.053 0.053 0.011 0.256-0.094 0.452-0.118 0.221-0.144 0.455-0.067 0.621 0.068 0.146 0.126 0.625 0.129 1.065 0.006 0.852 0.335 1.169 0.711 0.686 0.298-0.382 1.302-0.733 1.21-0.422-0.041 0.139-0.119 0.437-0.173 0.662-0.068 0.286-0.165 0.385-0.318 0.326-0.34-0.13-0.621 0.199-0.621 0.727 0 0.576 0.602 1.165 1.731 1.695 0.412 0.193 0.715 0.426 0.682 0.523-0.067 0.195 0.429 0.403 0.644 0.27 0.076-0.047 0.179-0.018 0.229 0.064 0.144 0.233 2.087 0.18 2.573-0.071 0.233-0.121 0.638-0.328 0.899-0.462s0.777-0.511 1.145-0.84c1.923-1.715 2.078-1.829 2.307-1.701 0.531 0.297 1.479-0.626 1.479-1.44 0-0.239 0.066-0.476 0.146-0.525s0.146 0.018 0.146 0.151c0 0.411 0.567 1.064 1.009 1.161 0.311 0.068 0.403 0.16 0.352 0.353-0.058 0.222 0.040 0.264 0.657 0.286 0.832 0.029 0.812 0.062 0.984-1.659 0.113-1.138 0.243-1.388 0.719-1.388 0.423 0 0.873-0.497 0.747-0.825-0.066-0.172 0.030-0.352 0.307-0.573 0.399-0.318 0.401-0.327 0.161-0.814-0.133-0.271-0.279-0.611-0.323-0.757s-0.148-0.224-0.229-0.174c-0.081 0.050-0.147-0.009-0.147-0.132 0-0.158 0.219-0.252 0.752-0.323 1.409-0.187 1.606-0.911 0.413-1.52-0.702-0.358-1.289-1.636-1.175-2.555 0.163-1.314 0.169-1.534 0.036-1.534-0.086 0-0.123-0.218-0.086-0.511 0.035-0.281 0.003-0.511-0.070-0.511s-0.103-0.117-0.066-0.259-0.108-0.518-0.322-0.834l-0.39-0.575 0.454-0.406c0.512-0.458 0.554-0.642 0.227-1.004-0.207-0.229-0.193-0.287 0.16-0.669 0.213-0.23 0.505-0.579 0.649-0.776 0.261-0.358 2.212-0.487 3.126-0.206 0.154 0.047 0.329-0.003 0.4-0.114 0.161-0.255 0.167-0.856 0.009-0.856-0.067 0-0.208-0.161-0.313-0.358-0.188-0.351-0.918-0.724-1.087-0.555-0.047 0.047-0.085 0.039-0.085-0.018s0.269-0.36 0.599-0.673c0.329-0.313 0.555-0.64 0.502-0.726s0.105-0.271 0.353-0.411c0.375-0.212 0.436-0.319 0.366-0.645-0.1-0.467 0.686-2.090 1.128-2.326 0.354-0.19 0.851-0.988 0.852-1.369 0-0.158 0.271-0.563 0.602-0.9s0.557-0.685 0.503-0.773c-0.162-0.263-5.767-0.218-5.869 0.047zM14.466 6.368c0.483-0.268 0.518-0.268 0.731-0.012 0.2 0.241 0.192 0.246-0.438 0.246-0.667 0-0.686-0.015-0.292-0.234zM15.144 10.292c0.011 0.2-0.078 0.393-0.203 0.442-0.175 0.067-0.188 0.043-0.058-0.114 0.091-0.11 0.127-0.238 0.079-0.286-0.071-0.071 0.039-0.398 0.134-0.398 0.015 0 0.037 0.16 0.048 0.356zM13.881 11.543c0 0.080-0.148 0.145-0.329 0.144-0.266-0.002-0.287-0.029-0.11-0.144 0.283-0.183 0.438-0.183 0.438 0zM6.393 14.866c0.043 0.132-0.073 0.156-0.427 0.088-0.93-0.179-1.112-0.335-0.352-0.301 0.418 0.019 0.744 0.108 0.779 0.214zM2.41 25.255c-0.176 0.176-0.656-0.166-0.499-0.356 0.148-0.179 0.2-0.172 0.361 0.049 0.103 0.141 0.165 0.28 0.138 0.307z"></path>
</symbol>
<symbol id="icon-portugal" viewBox="0 0 17 32">
<path d="M5.181 0.762c-0.209 0.251-0.637 0.457-0.952 0.457-0.707 0-0.735 0.912-0.109 3.505 0.512 2.122 0.584 4.469 0.149 4.904-0.166 0.166-0.391 0.982-0.501 1.813-0.224 1.697-1.137 3.926-2.008 4.903-0.927 1.039-1.109 3.913-0.277 4.359 0.357 0.191 0.649 0.604 0.649 0.918 0 0.429 0.158 0.529 0.641 0.403 0.352-0.092 0.742-0.004 0.866 0.196 0.424 0.686 0.326 5.538-0.13 6.419-0.555 1.073-0.112 1.617 0.978 1.203 0.486-0.185 1.443-0.166 2.696 0.052 2.622 0.457 4.093-0.313 4.093-2.143 0-0.634 0.24-1.482 0.533-1.883 1.666-2.281 1.814-2.742 1.044-3.253-0.872-0.579-0.838-1.314 0.099-2.194 1-0.939 0.961-1.766-0.152-3.304-1.031-1.423-1.079-1.572-0.51-1.572 1.037 0 1.849-1.448 1.29-2.301-0.288-0.44-0.479-0.838-0.423-0.884s0.409-0.245 0.786-0.441c0.799-0.416 0.881-1.013 0.215-1.566-0.265-0.22-0.386-0.602-0.277-0.875 0.34-0.848 0.383-1.974 0.104-2.708-0.225-0.591-0.116-0.842 0.644-1.481 1.981-1.667 0.806-3.891-1.926-3.645-1.978 0.178-2.607 0.206-3.483 0.158-0.293-0.016-0.809 0.060-1.146 0.169-0.487 0.158-0.685 0.007-0.964-0.732-0.387-1.024-1.288-1.245-1.928-0.474z"></path>
</symbol>
<symbol id="icon-spain" viewBox="0 0 38 32">
<path d="M4.364 0.858c0.886-0.158 1.368-0.116 1.721 0.151 0.286 0.216 0.911 0.263 3.091 0.234 1.624-0.022 2.881 0.041 3.097 0.154 0.579 0.303 2.632 0.435 3.796 0.244 0.676-0.111 1.187-0.112 1.391-0.002 0.178 0.095 1.374 0.208 2.659 0.25 2.577 0.085 3.005 0.177 2.839 0.61-0.061 0.158-0.035 0.242 0.057 0.186s0.324 0.108 0.517 0.364c0.192 0.256 0.253 0.407 0.136 0.334s-0.213-0.045-0.213 0.061c0 0.165 0.615 0.271 1.409 0.241 0.125-0.005 0.227 0.055 0.227 0.132s0.184 0.183 0.409 0.234c0.225 0.052 0.858 0.266 1.406 0.476 1.067 0.408 1.541 0.483 1.377 0.217-0.056-0.091 0.075-0.119 0.29-0.062 0.251 0.066 0.349 0.033 0.273-0.091s0.021-0.157 0.273-0.091c0.231 0.060 0.347 0.030 0.283-0.074-0.069-0.111 0.239-0.13 0.835-0.051 0.519 0.069 1.006 0.090 1.081 0.046s0.136-0.002 0.136 0.093c0 0.095 0.266 0.222 0.591 0.282 1.005 0.188 1.089 0.223 1.329 0.551 0.195 0.267 0.434 0.304 1.475 0.227 1.498-0.11 1.378-0.081 1.243-0.299-0.066-0.107 0.016-0.131 0.201-0.060 0.237 0.091 0.274 0.057 0.154-0.138-0.122-0.199-0.057-0.191 0.282 0.032 0.805 0.531 0.638 1.921-0.314 2.614-1.417 1.033-3.050 1.855-4.342 2.185-1.408 0.36-1.895 0.629-1.962 1.085-0.024 0.163-0.268 0.518-0.542 0.788-2.679 2.642-3.352 4.552-2.014 5.716 0.644 0.56 0.56 0.797-0.52 1.488-0.855 0.547-1.004 0.738-1.311 1.68-0.454 1.393-0.561 1.517-1.316 1.517-0.929 0-1.837 0.636-2.235 1.565-0.228 0.532-0.472 0.814-0.755 0.872-1.049 0.213-2.046 0.305-4.327 0.4-2.078 0.087-2.512 0.156-2.83 0.451-0.207 0.192-0.633 0.349-0.948 0.349-0.426 0-0.756 0.185-1.292 0.727-0.818 0.826-0.981 0.861-1.768 0.381-0.569-0.347-1.6-1.933-1.432-2.203 0.139-0.225-1.371-1.343-1.898-1.406-0.885-0.106-0.925-0.16-0.801-1.084 0.064-0.479 0.186-0.898 0.27-0.931s0.154-0.179 0.154-0.324c0-0.145 0.131-0.313 0.29-0.375 0.239-0.092 0.269-0.286 0.168-1.095-0.081-0.651-0.051-1.070 0.089-1.239 0.262-0.316 0.142-1.309-0.254-2.104-0.291-0.583-0.287-0.608 0.184-1.099 0.379-0.396 0.459-0.618 0.374-1.042-0.072-0.36-0.020-0.613 0.157-0.759 0.276-0.229 0.359-0.93 0.137-1.152-0.728-0.728 0.179-3.387 1.155-3.387 0.164 0 0.245-0.126 0.203-0.318-0.038-0.175-0.147-0.305-0.241-0.288s-0.183-0.173-0.198-0.421c-0.057-0.945-0.935-1.11-3.827-0.716-0.647 0.088-0.806 0.043-1.043-0.295-0.197-0.282-0.534-0.429-1.143-0.499-0.793-0.092-0.866-0.142-0.902-0.621-0.022-0.29-0.21-0.641-0.422-0.79-0.21-0.147-0.353-0.357-0.316-0.467s-0.082-0.347-0.263-0.529c-0.661-0.661 0.055-1.519 1.441-1.728 0.387-0.058 0.92-0.323 1.229-0.61 0.3-0.279 0.75-0.544 1-0.588zM10.509 28.046c0.436-0.345 1.093-0.273 1.447 0.159 1.283 1.565 1.617 1.705 4.081 1.705 1.256 0 2.176-0.075 2.221-0.182 0.134-0.314 0.474 0.341 0.425 0.818-0.026 0.25-0.21 0.604-0.41 0.787s-0.249 0.272-0.108 0.199c0.178-0.093 0.212-0.063 0.112 0.1-0.158 0.256-2.081 0.14-2.912-0.176-0.287-0.109-0.822-0.102-1.484 0.020-1.145 0.212-1.881 0.021-1.881-0.488 0-0.706-1.473-1.313-1.707-0.703-0.060 0.156-0.191 0.233-0.292 0.171s-0.184-0.006-0.186 0.125c-0.002 0.173-0.051 0.163-0.178-0.035-0.264-0.412 0.309-2.055 0.872-2.5z"></path>
</symbol>
<symbol id="icon-sweden" viewBox="0 0 27 32">
<path d="M9.277 0.402l0.426-0.396 7.745-0.003c4.26-0.002 7.745 0.040 7.745 0.093s-0.102 0.188-0.227 0.301c-0.289 0.262-0.287 0.581 0.007 1.063 0.309 0.507 0.258 0.871-0.12 0.852-0.156-0.008-0.562 0.029-0.901 0.083-0.491 0.078-0.656 0.063-0.805-0.072-0.28-0.253-1.061-0.073-1.108 0.256-0.038 0.26-0.615 0.756-1.090 0.936-0.24 0.091-0.279 0.163-0.227 0.426 0.050 0.25-0.009 0.385-0.286 0.649-0.422 0.403-0.426 0.474-0.063 1.156l0.285 0.537-0.541 0.524c-0.297 0.288-0.632 0.662-0.744 0.831-0.207 0.311-1.338 1.101-1.577 1.101-0.072 0-0.225 0.085-0.34 0.189s-0.343 0.203-0.507 0.221c-0.164 0.017-0.434 0.162-0.6 0.322s-0.382 0.29-0.479 0.29c-0.263 0-0.775 0.441-0.775 0.668 0 0.221-0.631 0.738-0.785 0.643-0.117-0.072-0.264 0.254-0.178 0.394 0.078 0.126-0.394 0.451-0.654 0.451-0.291 0-0.374 0.311-0.148 0.56 0.129 0.143 0.148 0.225 0.059 0.255-0.072 0.024-0.158 0.298-0.191 0.607-0.039 0.373-0.149 0.66-0.323 0.847-0.433 0.465-0.12 2.975 0.349 2.796 0.084-0.032 0.21 0.009 0.279 0.093s0.215 0.129 0.323 0.1c0.114-0.030 0.311 0.070 0.47 0.239 0.15 0.16 0.327 0.291 0.395 0.293 0.204 0.005 1.18 1.068 1.255 1.367 0.056 0.224 0.001 0.332-0.276 0.537-0.19 0.141-0.346 0.331-0.346 0.423 0 0.096-0.108 0.168-0.255 0.17-0.228 0.003-0.234 0.016-0.057 0.119 0.458 0.267-2.103 2.034-2.947 2.034-0.145 0-0.149 0.028-0.021 0.183s0.125 0.203-0.016 0.312c-0.104 0.081-0.176 0.359-0.19 0.737-0.013 0.334-0.077 0.672-0.142 0.751s-0.114 0.443-0.108 0.811c0.006 0.367-0.007 0.913-0.028 1.214-0.042 0.601 0.059 0.55 0.498-0.25 0.524-0.956 0.654-0.288 0.158 0.813-0.147 0.326-0.353 0.86-0.46 1.187-0.28 0.86-0.726 0.882-0.752 0.036l-0.009-0.29-0.134 0.302c-0.304 0.684-0.456 0.756-1.472 0.692-1.352-0.084-2.302 0.535-2.028 1.321 0.17 0.488-0.083 0.65-1.114 0.717-1.235 0.079-1.428 0.007-1.381-0.516 0.029-0.328-0.049-0.554-0.35-1.015-0.622-0.951-0.612-0.92-0.263-0.832 0.271 0.068 0.301 0.050 0.239-0.145-0.047-0.149-0.003-0.261 0.133-0.338 0.183-0.104 0.151-0.17-0.324-0.661-0.29-0.3-0.656-0.804-0.814-1.12s-0.367-0.641-0.465-0.723-0.181-0.232-0.183-0.333c-0.002-0.102-0.079-0.284-0.17-0.405s-0.167-0.305-0.167-0.408c0-0.103-0.102-0.28-0.227-0.393s-0.227-0.332-0.227-0.487c0-0.155-0.071-0.339-0.157-0.408-0.095-0.076-0.182-0.455-0.221-0.958l-0.064-0.832 0.42 0.067c0.594 0.095 0.66 0.005 0.743-1.005 0.081-0.983 0.263-1.314 0.722-1.314 0.15 0 0.244-0.046 0.21-0.102s0.013-0.131 0.105-0.166c0.129-0.050 0.143-0.13 0.061-0.348-0.091-0.24-0.061-0.32 0.196-0.521 0.177-0.139 0.256-0.271 0.189-0.317-0.063-0.043-0.122-0.194-0.131-0.335s-0.097-0.338-0.197-0.438c-0.267-0.267-0.033-0.478 0.631-0.566 0.304-0.040 0.528-0.114 0.497-0.165s-0.005-0.123 0.059-0.163c0.35-0.216-0.017-0.66-0.566-0.685-0.094-0.004-0.158-0.066-0.144-0.138s-0.099-0.228-0.251-0.348c-0.153-0.12-0.245-0.251-0.206-0.29s0.022-0.072-0.038-0.072c-0.065 0-0.1-0.439-0.084-1.078 0.014-0.593-0.009-1.078-0.051-1.078s-0.080-0.191-0.085-0.426c-0.013-0.608-0.224-1.501-0.392-1.655-0.111-0.103-0.123-0.094-0.051 0.038 0.050 0.094 0.049 0.132-0.003 0.084-0.103-0.094-0.157-0.658-0.057-0.596 0.098 0.060 0.406-0.207 0.487-0.421 0.045-0.12 0.005-0.234-0.105-0.295-0.148-0.083-0.155-0.144-0.041-0.357 0.113-0.212 0.11-0.241-0.015-0.163-0.107 0.066-0.098 0.010 0.029-0.185 0.1-0.153 0.292-0.334 0.425-0.402s0.342-0.214 0.464-0.324c0.186-0.169 0.39-0.194 1.277-0.16l1.056 0.040 0.036-0.44c0.020-0.246-0.025-0.497-0.102-0.567-0.105-0.096-0.118-0.086-0.056 0.043 0.045 0.094 0.001 0.071-0.097-0.050s-0.179-0.179-0.179-0.128c0 0.051-0.077 0.029-0.17-0.049s-0.171-0.097-0.172-0.042c-0.003 0.145-0.221-0.218-0.223-0.371-0.001-0.071 0.062-0.122 0.14-0.113s0.159-0.035 0.18-0.098c0.077-0.229 0.275-0.393 0.39-0.322 0.066 0.041 0.085 0.019 0.042-0.050-0.042-0.068-0.021-0.157 0.047-0.199s0.096-0.147 0.063-0.233c-0.033-0.086 0.039-0.21 0.161-0.276 0.141-0.075 0.208-0.21 0.183-0.368-0.021-0.137 0.034-0.321 0.121-0.408s0.131-0.232 0.097-0.321c-0.034-0.089-0.017-0.134 0.038-0.099s0.131-0.017 0.168-0.113c0.041-0.107 0.020-0.146-0.053-0.101-0.066 0.041-0.056-0.030 0.024-0.157s0.185-0.206 0.235-0.175c0.050 0.031 0.093 0.015 0.095-0.036s0.136-0.245 0.296-0.432c0.161-0.187 0.253-0.269 0.205-0.181-0.059 0.109-0.043 0.132 0.052 0.074 0.076-0.047 0.112-0.112 0.081-0.143s0.067-0.255 0.219-0.497c0.152-0.242 0.277-0.516 0.277-0.61s0.192-0.349 0.426-0.567zM17.421 17.584c0.095-0.154 0.506-0.028 0.786 0.241 0.46 0.441-0.39 0.953-1.121 0.675-0.4-0.152-0.365-0.436 0.078-0.628 0.203-0.088 0.327-0.162 0.277-0.165s-0.059-0.058-0.019-0.123zM15.373 24.295c0.491-0.137 0.977-0.118 0.88 0.034-0.044 0.069-0.080 0.176-0.081 0.238s-0.117 0.13-0.257 0.15c-0.227 0.032-0.255 0.101-0.255 0.616 0 0.949-0.997 1.776-1.287 1.069-0.354-0.864 0.12-1.862 1-2.107zM8.076 31.012c0.176-0.212 0.274-0.186 0.684 0.181 0.317 0.283 0.346 0.353 0.215 0.511-0.166 0.2-0.691 0.253-0.691 0.070 0-0.062-0.066-0.113-0.146-0.113-0.183 0-0.226-0.45-0.062-0.647z"></path>
</symbol>
<symbol id="icon-switzerland" viewBox="0 0 59 32">
<path d="M32.165 0.984c-0.898 0.899-6.396 2.11-15.695 3.457-1.095 0.159-2.485 0.978-3.089 1.821s-2.522 3.079-4.262 4.968c-1.74 1.89-3.356 4.29-3.591 5.333s-1.269 3.814-2.299 6.156c-1.564 3.558-1.696 4.47-0.8 5.549 1.273 1.534 3.315 0.312 3.315-1.985 0-2.348 2.839-4.273 5.872-3.982 2.786 0.267 3.18 1.106 1.938 4.129-0.895 2.179 3.449 5.843 6.118 5.161 1.139-0.291 3.277-0.728 4.75-0.972s3.373-1.325 4.221-2.403c1.875-2.383 2.892-2.445 5.572-0.337 2.697 2.122 5.17 0.981 5.17-2.385 0-3.411 4.996-4.081 6.943-0.93 0.296 0.479 1.55 0.871 2.787 0.871s2.634 0.385 3.104 0.855c1.505 1.505 3.216-1.356 1.83-3.060-0.981-1.206-0.949-1.318 0.25-0.869 1.908 0.715 3.429-1.395 2.803-3.889-0.359-1.43-1.079-2.063-2.348-2.065-3.45-0.006-7.385-3.097-6.833-5.367 0.27-1.108 0.71-2.919 0.979-4.025 0.855-3.515-2.826-6.305-8.080-6.122-2.369 0.082-5.045-0.104-5.948-0.414-0.962-0.33-2.082-0.122-2.707 0.504z"></path>
</symbol>
<symbol id="icon-turkey" viewBox="0 0 68 32">
<path d="M3.57 0.529c-0.090 0.145-0.464 0.265-0.832 0.265-0.5 0-0.744 0.2-0.968 0.793-0.165 0.436-0.392 0.793-0.506 0.793-0.434 0-0.182 0.474 0.322 0.605 0.845 0.221 0.746 1.97-0.131 2.303-0.567 0.216-0.653 0.403-0.617 1.339 0.026 0.669-0.095 1.173-0.315 1.309-0.619 0.383 0.192 1.018 1.414 1.107l1.103 0.080-0.85 0.465c-0.901 0.492-1.194 1.222-1.503 3.735l-0.159 1.29 1.645-0.186c1.628-0.184 1.64-0.18 1.172 0.337-0.373 0.413-0.414 0.641-0.191 1.078 0.155 0.305 0.412 0.808 0.571 1.119 0.216 0.422 0.207 0.615-0.036 0.765-0.183 0.113-0.269 0.496-0.196 0.877 0.081 0.423-0.005 0.727-0.228 0.813-0.226 0.087-0.357-0.055-0.357-0.383-0-0.891-1.18-0.883-1.219 0.008-0.016 0.364-0.117 0.868-0.225 1.12-0.211 0.493 0.966 1.159 1.483 0.839 0.142-0.088 0.46 0.016 0.705 0.231s0.714 0.473 1.041 0.573c0.766 0.233 0.766 0.829 0 1.045-0.543 0.153-0.554 0.191-0.132 0.441 0.255 0.15 0.463 0.441 0.463 0.647s0.258 0.614 0.574 0.908c0.539 0.502 0.547 0.564 0.132 1.023-0.79 0.873-0.541 1.106 1.211 1.138 0.909 0.017 1.415 0.083 1.124 0.147-2.164 0.476-2.694 1.307-0.661 1.037 0.848-0.113 1.322-0.077 1.322 0.098 0 0.416 0.56 0.327 1.116-0.176 0.433-0.392 0.606-0.405 1.343-0.104 0.465 0.19 1.061 0.34 1.323 0.333s0.548 0.189 0.634 0.435c0.25 0.711 1.189 1.638 1.659 1.638 0.236 0 0.573 0.143 0.747 0.318 0.247 0.247 0.538 0.236 1.309-0.049 0.545-0.202 1.349-0.374 1.785-0.384 0.717-0.015 0.821-0.131 1.079-1.207l0.286-1.19 1.378-0.080c1.698-0.099 3.835 0.824 5.556 2.399l1.158 1.060 2.198-0.169c2.701-0.207 3.354-0.446 4.755-1.738 1.782-1.642 2.083-1.735 3.565-1.097 1.643 0.707 1.995 0.694 2.95-0.11 0.982-0.826 1.803-0.874 1.803-0.104 0 0.44 0.098 0.51 0.463 0.334 0.255-0.123 1.617-0.225 3.027-0.227 1.694-0.002 2.677-0.115 2.896-0.334 0.182-0.182 0.487-0.331 0.676-0.331s0.344-0.119 0.344-0.264c0-0.146 0.238-0.265 0.529-0.265s0.529 0.119 0.529 0.265c0 0.145 0.298 0.264 0.661 0.264s0.661 0.122 0.661 0.271 0.446 0.27 0.992 0.268c2.353-0.006 2.893-0.018 3.769-0.079 0.509-0.036 1.223-0.253 1.587-0.483s0.966-0.605 1.338-0.832c0.806-0.492 3.264-0.784 3.619-0.43 0.157 0.157 0.536 0.107 1.019-0.136 0.423-0.212 1.096-0.512 1.496-0.667l0.727-0.281v-11.658c0-7.704-0.090-11.602-0.265-11.494-0.145 0.090-0.264 0.347-0.264 0.572 0 0.948-2.344 2.998-3.429 2.998-0.279-0-0.582 0.121-0.673 0.268-0.587 0.949-3.566 1.342-4.911 0.647-0.543-0.281-1.093-0.35-1.772-0.223-0.541 0.102-1.044 0.178-1.117 0.169s-0.37 0.114-0.661 0.272c-0.714 0.389-2.852 0.298-3.759-0.159-0.405-0.204-1.304-0.445-1.997-0.536s-1.614-0.426-2.046-0.745c-0.69-0.51-0.863-0.538-1.432-0.234-0.873 0.467-1.424 0.202-1.889-0.91-0.376-0.9-0.433-0.929-1.818-0.929-1.828 0-2.266-0.179-2.266-0.926-0-0.729-0.636-1.028-1.361-0.64-0.324 0.173-1.881 0.251-4.014 0.201-3.579-0.084-6.051 0.341-7.047 1.214-0.222 0.195-0.94 0.622-1.595 0.949s-1.581 0.936-2.059 1.353c-0.913 0.796-2.494 1.029-3.465 0.51-0.255-0.136-2.062-0.299-4.016-0.362-4.754-0.152-7.332-1.319-6.978-3.157 0.137-0.711-0.615-1.577-1.207-1.389-0.244 0.078-0.79-0.039-1.212-0.259-0.869-0.453-2.636-0.538-2.883-0.139zM11.901 7.022c1.858 0.25 3.309 1.177 1.842 1.177-0.68 0-1.885 0.774-1.692 1.087 0.080 0.13-0.628 0.236-1.573 0.236s-1.793-0.119-1.882-0.264c-0.274-0.443-1.269-0.323-1.094 0.132 0.183 0.476-1.275 0.578-1.565 0.108-0.107-0.173-0.563-0.225-1.14-0.131l-0.962 0.158 0.968-0.525c0.532-0.289 1.204-0.825 1.492-1.192 0.385-0.489 0.775-0.667 1.463-0.667 0.516 0 1.018-0.13 1.116-0.288 0.102-0.165 0.533-0.225 1.007-0.139 0.456 0.082 1.365 0.221 2.019 0.309z"></path>
</symbol>
<symbol id="icon-ussr" viewBox="0 0 15 32">
<path d="M4.183 0.274c-0.417 0.482-0.493 0.795-0.263 1.087 0.247 0.314 0.098 0.452-0.486 0.452h-0.377l-0.040 0.247c-0.031 0.193-0.019 0.263 0.055 0.317 0.132 0.097 0.147 0.264 0.036 0.392-0.088 0.101-0.084 0.117 0.055 0.237 0.13 0.112 0.142 0.151 0.093 0.299-0.039 0.118-0.037 0.176 0.008 0.191 0.404 0.135 0.672 0.742 0.393 0.891-0.172 0.092-0.101 0.234 0.117 0.234 0.073 0 0.148 0.038 0.166 0.085s0.172 0.174 0.343 0.283c0.17 0.109 0.534 0.34 0.807 0.513 0.583 0.37 0.583 0.37 0.584 0.651 0.001 0.14 0.035 0.236 0.098 0.271 0.073 0.041 0.088 0.105 0.062 0.265-0.019 0.116-0.010 0.226 0.020 0.245 0.113 0.070 0.047 0.195-0.203 0.386-0.142 0.108-0.261 0.236-0.264 0.285-0.019 0.281-0.035 0.351-0.079 0.351-0.027 0-0.033 0.026-0.013 0.059s0.015 0.059-0.011 0.059c-0.026 0-0.082 0.078-0.124 0.173s-0.127 0.189-0.19 0.209c-0.062 0.020-0.113 0.060-0.113 0.091s-0.053 0.055-0.117 0.055-0.117 0.025-0.117 0.057-0.039 0.042-0.088 0.023-0.088-0.006-0.088 0.027c0 0.066-0.021 0.069-0.576 0.065-0.232-0.002-0.358 0.019-0.335 0.055 0.020 0.032-0.003 0.080-0.050 0.106-0.196 0.11-0.182 0.525 0.018 0.525 0.122 0 0.229 0.053 0.332 0.164l0.152 0.164-0.165-0.038c-0.523-0.119-0.824-0.113-0.895 0.019-0.054 0.101-0.112 0.125-0.268 0.112-0.144-0.012-0.223 0.015-0.284 0.098-0.068 0.092-0.1 0.101-0.159 0.042-0.14-0.138-0.219-0.079-0.237 0.175-0.015 0.204-0.039 0.249-0.135 0.249-0.090 0-0.116 0.037-0.111 0.161 0.003 0.088-0.018 0.161-0.047 0.161s-0.040 0.023-0.022 0.051c0.017 0.028-0.021 0.098-0.084 0.155-0.117 0.106-0.161 0.379-0.061 0.379 0.174 0 0.11 0.413-0.098 0.633-0.117 0.124-0.091 0.406 0.041 0.448 0.328 0.104 0.553 0.487 0.533 0.908-0.005 0.113-0.008 0.284-0.006 0.38s0.004 0.281 0.004 0.409c-0 0.173 0.033 0.259 0.128 0.331 0.166 0.125 0.065 0.268-0.206 0.295l-0.186 0.018 0.020 0.322c0.011 0.177 0.044 0.331 0.073 0.341s0.053 0.054 0.053 0.095 0.040 0.108 0.088 0.149c0.199 0.166 0.046 0.523-0.421 0.984-0.335 0.33-0.509 0.654-0.721 1.343-0.198 0.644-0.101 0.922 0.448 1.283 0.197 0.129 0.266 1.199 0.087 1.349-0.086 0.072-0.14 0.222-0.185 0.512-0.080 0.518-0.235 0.751-0.63 0.946-0.398 0.196-0.608 0.516-0.446 0.678 0.019 0.019 0.046 0.293 0.059 0.609 0.034 0.794-0.011 0.738 0.693 0.863 0.527 0.094 0.634 0.132 0.775 0.281 0.090 0.095 0.243 0.206 0.34 0.247s0.281 0.179 0.409 0.307c0.129 0.128 0.277 0.248 0.329 0.267s0.11 0.109 0.127 0.201c0.083 0.425 0.287 0.852 0.494 1.032 0.118 0.103 0.374 0.337 0.568 0.521s0.379 0.335 0.412 0.336c0.075 0.001 0.322-0.378 0.322-0.494 0-0.085 0.065-0.113 0.219-0.093 0.040 0.005 0.073-0.014 0.073-0.043s0.069-0.040 0.152-0.024c0.093 0.018 0.175-0.003 0.209-0.052 0.044-0.063 0.063-0.064 0.086-0.008 0.047 0.116 0.312 0.091 0.314-0.029 0.002-0.095 0.008-0.095 0.075-0.006 0.040 0.053 0.138 0.109 0.218 0.124 0.101 0.019 0.077 0.029-0.082 0.035-0.18 0.006-0.218 0.027-0.19 0.101 0.020 0.051 0.036 0.129 0.036 0.173 0 0.165 0.388 0.28 0.821 0.244 0.23-0.019 0.42-0.010 0.439 0.021s0.101 0.055 0.184 0.055c0.194 0 0.099 0.13-0.173 0.236-0.598 0.234-0.929 0.583-0.552 0.583 0.105 0 0.244 0.036 0.307 0.079s0.185 0.096 0.27 0.116c0.156 0.038 0.272 0.354 0.157 0.425-0.027 0.017-0.036 0.053-0.019 0.081s0.004 0.067-0.028 0.087c-0.097 0.060-0.069 0.116 0.11 0.222 0.25 0.147 0.436 0.124 0.656-0.082 0.222-0.207 0.397-0.286 0.634-0.286 0.112 0 0.229-0.066 0.363-0.203 0.191-0.196 0.203-0.201 0.364-0.117 0.318 0.165 0.691 0.105 0.729-0.118 0.011-0.064 0.044-0.146 0.074-0.182 0.034-0.042 0.022-0.092-0.034-0.138-0.098-0.082-0.786-0.045-0.845 0.045-0.14 0.216-0.701-0.428-0.706-0.811-0.002-0.123 0.317-0.356 0.39-0.284 0.035 0.035 0.107 0.001 0.193-0.092 0.076-0.081 0.173-0.147 0.216-0.147s0.078-0.023 0.078-0.051c0-0.028 0.106-0.042 0.237-0.031s0.223-0.003 0.205-0.030c-0.035-0.057 0.156-0.119 0.377-0.123 0.080-0.001 0.197-0.041 0.26-0.089s0.17-0.086 0.24-0.086 0.171-0.050 0.226-0.111c0.098-0.108 0.58-0.183 1.156-0.179 0.118 0.001 0.232-0.026 0.252-0.059 0.053-0.086 0.265-0.076 0.263 0.013-0.002 0.080-0.359 0.278-0.502 0.278-0.099 0-0.257 0.136-0.257 0.222 0 0.030-0.063 0.043-0.139 0.028s-0.157 0.002-0.179 0.037-0.091 0.064-0.153 0.064c-0.062 0-0.113 0.033-0.112 0.073 0.003 0.101 0.164 0.307 0.207 0.264 0.019-0.019 0.099 0.021 0.178 0.090l0.143 0.125-0.134 0.055c-0.074 0.030-0.152 0.058-0.173 0.061s-0.111 0.11-0.198 0.239c-0.087 0.129-0.184 0.25-0.215 0.271s-0.038 0.096-0.015 0.17c0.034 0.107 0.024 0.126-0.052 0.097-0.052-0.020-0.095-0.017-0.095 0.006s-0.079 0.048-0.175 0.054c-0.097 0.007-0.175-0.013-0.175-0.044s-0.053-0.056-0.117-0.056c-0.077 0-0.117 0.039-0.117 0.115 0 0.078-0.028 0.104-0.088 0.081-0.126-0.048-0.112 0.131 0.015 0.187 0.056 0.025 0.122 0.051 0.146 0.057s0.057 0.019 0.073 0.027c0.016 0.008 0.050 0.018 0.075 0.022s0.146 0.108 0.269 0.23c0.155 0.155 0.265 0.217 0.36 0.205 0.086-0.011 0.198 0.040 0.302 0.138 0.091 0.086 0.273 0.184 0.406 0.219 0.257 0.068 0.344 0.127 0.997 0.676 0.584 0.492 0.916 0.721 1.111 0.767 0.092 0.022 0.233 0.099 0.313 0.171s0.205 0.162 0.278 0.199c0.083 0.042 0.132 0.121 0.132 0.212 0 0.079 0.023 0.144 0.052 0.144s0.051 0.033 0.049 0.073c-0.008 0.21 0.025 0.278 0.133 0.278 0.117 0 0.117-0.039 0.117-15.762v-15.762l-0.384 0.2c-0.211 0.11-0.444 0.2-0.516 0.2s-0.206 0.078-0.296 0.173c-0.091 0.095-0.308 0.243-0.483 0.328-0.219 0.107-0.307 0.181-0.285 0.24 0.018 0.047 0.007 0.069-0.025 0.049s-0.058 0.005-0.058 0.055c0 0.050 0.028 0.091 0.062 0.091s0.049 0.022 0.032 0.048c-0.016 0.027 0.083 0.178 0.221 0.336 0.405 0.465 0.434 0.551 0.185 0.551-0.155 0-0.229 0.036-0.301 0.146-0.109 0.166-0.31 0.191-0.509 0.063-0.125-0.081-0.609-0.23-1.043-0.321-0.116-0.025-0.3-0.112-0.409-0.195-0.448-0.338-0.903-0.406-0.941-0.141-0.010 0.069-0.077 0.152-0.15 0.184-0.318 0.139 0.345 0.908 0.783 0.908 0.302 0 0.431 0.046 0.431 0.153 0 0.045 0.032 0.134 0.072 0.197 0.089 0.143 0.023 0.221-0.289 0.337-0.431 0.16-1.125-0.032-1.497-0.415-0.143-0.147-0.277-0.251-0.297-0.231s-0.037 0.003-0.037-0.038c0-0.054-0.057-0.064-0.203-0.037-0.402 0.075-0.598-0.115-0.605-0.587-0.004-0.231-0.239-0.755-0.385-0.858-0.043-0.030-0.021-0.081 0.066-0.154 0.072-0.060 0.163-0.233 0.204-0.384l0.073-0.275-0.267-0.252c-0.178-0.168-0.378-0.287-0.599-0.357-0.258-0.081-0.325-0.126-0.301-0.201 0.056-0.177-0.34-0.233-1.645-0.231l-1.222 0.002-0.234 0.271z"></path>
</symbol>
<symbol id="icon-yugoslavia" viewBox="0 0 38 32">
<path d="M9.922 1.612c-0.17 0.205-0.679 0.372-1.132 0.372s-0.892 0.112-0.977 0.248c-0.084 0.136-0.688 0.248-1.341 0.248-0.872 0-1.306 0.132-1.636 0.496-0.371 0.41-0.764 0.496-2.271 0.496h-1.822v0.848c0 0.744 0.291 1.548 1.038 2.873 0.115 0.205 0.331 0.679 0.479 1.054s0.369 0.696 0.493 0.713c0.123 0.017 0.354 0.045 0.513 0.062 0.528 0.057 0.516 0.682-0.015 0.821-0.748 0.195-0.506 2.559 0.262 2.559 0.313 0 0.25-1.595-0.076-1.921-0.156-0.156 0.119-0.095 0.612 0.136 0.837 0.393 1.105 0.935 0.93 1.881-0.076 0.409 1.069 1.409 1.458 1.275 0.288-0.099 0.275-0.047-0.050 0.206-0.554 0.431 0.215 1.896 0.996 1.896 0.117 0 0.455 0.226 0.751 0.501s0.622 0.471 0.726 0.434c0.103-0.037 0.338 0.247 0.522 0.63 0.28 0.585 0.443 0.673 1.011 0.549 0.372-0.082 0.949-0.040 1.281 0.093 0.377 0.151 0.453 0.248 0.202 0.257-0.948 0.037-0.461 1.213 0.575 1.388 1.106 0.187 1.55 0.011 0.584-0.231-0.726-0.182-0.836-0.568-0.198-0.696 0.239-0.048 0.936 0.291 1.55 0.753 1.433 1.079 1.447 1.095 0.805 0.857-0.692-0.256-2.833-0.093-2.65 0.202 0.187 0.302 1.53 0.284 1.72-0.024 0.092-0.148 0.616-0 1.315 0.372 0.639 0.34 1.275 0.619 1.413 0.619 0.993 0.001 5.501 3.252 5.195 3.747-0.076 0.122 0.037 0.222 0.249 0.222 0.299 0 0.387-0.283 0.387-1.248 0-1.412 0.385-1.756 1.373-1.228 0.464 0.248 0.674 0.253 0.953 0.021 0.287-0.238 0.429-0.197 0.713 0.21 0.195 0.279 0.708 0.63 1.139 0.78 0.914 0.319 0.976 0.734 0.306 2.048-0.375 0.736-0.407 0.963-0.15 1.061 0.227 0.087 0.287 0.424 0.196 1.101-0.116 0.867-0.073 0.976 0.39 0.976 0.346 0 0.476 0.117 0.387 0.349-0.105 0.273 0.277 0.388 1.743 0.525 2.11 0.198 3.452-0.214 3.75-1.152 0.119-0.376 0.238-0.442 0.437-0.244 0.295 0.295 1.692 0.358 2.592 0.117 0.525-0.141 0.558-0.279 0.558-2.326v-2.176l-0.85-0.16c-0.987-0.185-1.149-0.486-0.785-1.452 0.21-0.555 0.188-0.748-0.105-0.94-0.31-0.204-0.27-0.32 0.252-0.733 0.341-0.27 0.766-0.613 0.943-0.761 0.601-0.503 0.271-2.284-0.491-2.647-0.812-0.387-1.121-1.526-0.693-2.559 0.176-0.425 0.238-1.136 0.148-1.7-0.179-1.121-0.002-1.753 0.491-1.753 0.477 0 0.432-0.341-0.108-0.83-0.56-0.507-1.438-0.533-1.708-0.051-0.17 0.304-0.46 0.316-1.873 0.074-1.744-0.299-2.091-0.664-1.175-1.235 0.649-0.405 0.626-0.633-0.137-1.34-0.668-0.619-1.104-0.752-1.104-0.339 0 0.319-0.759 0.314-1.24-0.009-0.323-0.216-0.311-0.296 0.093-0.604 0.291-0.223 0.405-0.512 0.304-0.775-0.089-0.231-0.226-0.354-0.306-0.275s-0.439-0.128-0.798-0.461c-0.359-0.333-0.727-0.605-0.818-0.605s-0.103-0.24-0.026-0.532c0.124-0.475 0.062-0.517-0.581-0.387-0.396 0.080-1.085 0.018-1.53-0.139-0.652-0.229-1.119-0.202-2.397 0.139-0.873 0.233-1.915 0.423-2.315 0.423-0.412 0-0.922 0.215-1.176 0.496-0.809 0.894-3.031 0.538-4.621-0.74-0.512-0.411-1.077-0.753-1.255-0.758s-0.762-0.564-1.295-1.24c-1-1.267-1.592-1.506-2.13-0.858z"></path>
</symbol>

<symbol id="icon-iceland" viewBox="0 0 67 32">
<path d="M47.808 1.498c-0.13 0.21-0.126 0.879 0.008 1.488 0.266 1.212 0.081 1.3-2.365 1.128-0.913-0.064-1.517 0.171-2.257 0.88l-1.010 0.968-0.878-0.934c-1.13-1.203-3.422-1.306-4.204-0.19l-0.521 0.745-0.674-0.745c-1.397-1.543-5.768-0.13-5.768 1.865v1.147l-0.904-0.668c-0.497-0.368-0.984-0.962-1.081-1.32-0.131-0.482-0.563-0.651-1.661-0.651-1.693 0-1.935 0.349-1.935 2.786 0 1.422-0.086 1.587-0.739 1.416-0.406-0.106-1.034-0.063-1.395 0.096s-0.824 0.304-1.029 0.322c-0.205 0.018-0.373 0.354-0.374 0.746-0.002 0.921-0.915 1.24-0.973 0.34-0.057-0.888-0.062-0.833 0.233-2.416 0.623-3.34-8.571-8.722-10.762-6.3-0.61 0.674-0.609 0.73 0.018 1.080 1.075 0.602-0.063 1.683-1.523 1.446-1.493-0.242-3.558 1.25-2.873 2.076 0.473 0.57-0.205 1.41-1.513 1.874-0.358 0.127-0.651 0.487-0.651 0.801s-0.315 0.57-0.699 0.57c-0.838 0-1.694 0.928-1.358 1.472 0.132 0.214 0.544 0.388 0.917 0.388s0.885 0.251 1.14 0.558c0.517 0.623 2.232 0.766 2.232 0.186 0-0.205 0.572-0.372 1.271-0.372s1.338-0.199 1.419-0.443c0.197-0.591 5.124-0.922 5.124-0.345 0 0.228 0.188 0.374 0.419 0.322 0.843-0.187 0.688 0.717-0.205 1.195-0.506 0.271-0.97 0.845-1.032 1.277-0.075 0.528-0.399 0.799-0.99 0.829-0.483 0.024-0.985 0.209-1.116 0.409-0.231 0.355-1.746 0.667-5.329 1.1-1.605 0.194-1.736 0.287-1.667 1.189l0.075 0.978 10.218 0.207v1.016c0 0.608 0.294 1.2 0.734 1.474 0.434 0.271 0.645 0.69 0.517 1.025-0.12 0.311-0.023 0.8 0.214 1.087 0.626 0.755-0.149 1.125-2.391 1.142-2.014 0.015-2.352 0.426-1.885 2.288l0.232 0.923 5.047-0.078c3.137-0.049 5.139 0.066 5.29 0.304 0.133 0.21 0.943 0.5 1.8 0.643 0.996 0.167 1.751 0.555 2.093 1.078 1.648 2.514 15.884 2.359 15.884-0.174 0-0.386 0.251-0.701 0.558-0.701s0.558-0.168 0.558-0.372c0-0.205 0.837-0.372 1.86-0.372s1.861-0.168 1.861-0.372c0-0.205 0.745-0.372 1.656-0.372 0.979 0 1.778-0.202 1.953-0.494 0.611-1.014 5.499-3.228 7.119-3.224 1.971 0.004 4.852-1.567 5.296-2.889 0.224-0.667 0.542-1.13 0.706-1.028 0.468 0.289 2.246-1.277 2.246-1.977 0-0.346 0.377-0.794 0.837-0.996 0.95-0.417 1.379-2.839 0.657-3.709-0.286-0.344-0.293-0.574-0.024-0.74 1.627-1.006 0.093-2.43-2.617-2.43-1.785 0-1.83-0.027-1.83-1.116 0-0.868-0.165-1.116-0.744-1.116-0.529 0-0.744-0.248-0.744-0.856 0-1.027-0.646-1.749-1.566-1.749-0.58 0-0.609-0.103-0.208-0.744 0.256-0.409 0.759-0.744 1.12-0.744s0.655-0.251 0.655-0.558c0-0.767-3.087-0.767-3.854 0-0.826 0.826-2.472 0.731-2.472-0.143 0-1.496-5.343-2.819-6.145-1.522z"></path>
</symbol>

<symbol id="icon-denmark5" viewBox="0 0 30 32">
<path d="M12.124 1.73c1.379-1.153 4.047-0.948 4.218 0.325 0.076 0.562 0.306 1.198 0.513 1.412 0.577 0.599 0.453 1.553-0.445 3.411-1.417 2.932-1.159 4.128 0.923 4.278 1.884 0.136 2.312 0.878 1.766 3.054-0.294 1.17-2.164 2.069-2.859 1.374-0.321-0.321-0.566 0.047-0.874 1.318-0.359 1.483-0.605 1.785-1.538 1.894-2.594 0.303-1.35 1.716 1.511 1.716h2.621l0.411 2.769c0.24 1.621 0.259 2.931 0.045 3.159-0.201 0.214-0.365 0.742-0.365 1.172 0 0.582-0.184 0.708-0.718 0.494-0.395-0.159-0.943-0.327-1.219-0.374s-0.645-0.239-0.821-0.427c-0.176-0.188 0.152-0.256 0.728-0.153s1.23-0.009 1.454-0.252c0.987-1.068 0.898-1.291-0.45-1.134-1.52 0.177-4.308-0.589-4.308-1.185 0-0.208-0.295-0.378-0.655-0.378-0.53 0-0.628-0.385-0.513-2.023 0.134-1.904 0.1-1.985-0.576-1.372-0.931 0.843-1.044 5.036-0.137 5.036 0.32 0 0.677-0.231 0.795-0.513 0.158-0.379 0.359-0.336 0.768 0.165 0.305 0.373 1.009 0.753 1.564 0.846 0.646 0.107 0.16 0.286-1.349 0.497-1.297 0.181-2.359 0.489-2.359 0.683s-1.523 0.312-3.385 0.26l-3.385-0.093-0.121-2.53c-0.112-2.341-0.227-2.61-1.538-3.611l-1.417-1.081v-9.812l2.256 0.265c1.937 0.228 2.256 0.169 2.256-0.417 0-0.43 0.455-0.773 1.231-0.928 1.124-0.225 1.893-1.785 0.88-1.785-0.516 0-2.521 1.942-2.521 2.442s-2.018 0.569-2.766 0.094c-1.292-0.82 1.172-4.213 2.863-3.942 1.121 0.18 1.713 0.065 2.205-0.426 0.465-0.465 1.034-0.592 1.852-0.413 0.688 0.151 1.18 0.088 1.18-0.152 0-0.226 0.478-0.979 1.062-1.674s0.907-1.268 0.718-1.276 0.035-0.331 0.498-0.718zM26.179 16.513c0.355-0.282 1.067-0.513 1.584-0.513 0.926 0 0.995 0.132 1.555 2.969 0.077 0.392-0.234 1.19-0.693 1.773-0.619 0.787-0.715 1.179-0.371 1.523 0.755 0.755 0.532 1.524-0.563 1.94-0.751 0.286-1.027 0.695-1.032 1.528-0.011 1.962-0.688 2.539-1.643 1.401-0.447-0.533-0.812-1.298-0.812-1.7 0-0.808-0.782-1.229-2.284-1.229-0.827 0-1.061-0.299-1.453-1.853-0.257-1.019-0.628-1.953-0.826-2.076-0.761-0.471-0.307-0.994 0.863-0.994 0.962 0 1.278-0.219 1.48-1.026 0.185-0.736 0.534-1.026 1.239-1.026 0.773 0 0.981 0.218 0.981 1.026 0 1.378 0.74 1.307 1.067-0.103 0.144-0.62 0.552-1.359 0.907-1.641zM16.41 18.281c0-0.577 0.185-1.050 0.41-1.050s0.41 0.358 0.41 0.796c0 0.438-0.185 0.91-0.41 1.050-0.233 0.144-0.41-0.201-0.41-0.796zM19.282 27.218c0-0.653 2.685-0.776 3.077-0.142 0.139 0.226 0.612 0.41 1.050 0.41 1.102 0 1.003 1.080-0.127 1.382-2.065 0.553-4-0.245-4-1.651zM19.795 30.872c-0.1-0.301 0.183-0.513 0.684-0.513 0.504 0 0.855 0.265 0.855 0.645 0 0.754-1.28 0.644-1.539-0.133z"></path>
</symbol>

<symbol id="icon-bulgaria" viewBox="0 0 43 32">
<path d="M3.017 4.993c-0.498 3.635-0.351 4.378 1.131 5.727 1.609 1.464 1.647 1.658 0.593 2.999-0.435 0.552-0.79 0.879-0.79 0.725s-0.244-0.035-0.543 0.264c-0.603 0.603-0.792 5.974-0.197 5.606 0.19-0.117 0.346-0.025 0.346 0.205s0.345 0.418 0.767 0.418c1.032 0 1.336 0.566 1.801 3.358l0.395 2.37 2.437 0.117c2.162 0.104 2.466 0.026 2.693-0.691 0.168-0.529 0.596-0.808 1.241-0.808 0.56 0 0.878 0.172 0.738 0.398-0.393 0.636 0.937 0.928 1.625 0.356 0.525-0.436 0.686-0.411 1.002 0.153 0.275 0.49 0.9 0.673 2.309 0.673 1.063 0 2.042 0.178 2.177 0.395 0.939 1.519 5.107-0.33 5.257-2.331 0.083-1.108 0.305-1.619 0.704-1.619 0.32 0 1.128-0.622 1.796-1.383 0.852-0.97 1.549-1.383 2.335-1.383 0.617 0 1.226-0.17 1.355-0.378 0.334-0.541 2.531-0.311 2.762 0.289 0.179 0.465 1.994 0.414 2.478-0.070 0.107-0.107-0.187-0.678-0.653-1.271l-0.847-1.076 1.197-1.235c0.722-0.745 1.197-1.651 1.197-2.284 0-0.577 0.204-1.496 0.453-2.043 0.357-0.784 0.336-1.136-0.099-1.661-0.713-0.862-6.879-3.702-8.037-3.702-0.488 0-1.471-0.291-2.184-0.646-1.14-0.569-1.619-0.586-3.985-0.139-5.064 0.956-18.042-0.458-19.597-2.135-1.315-1.418-1.568-1.309-1.857 0.803z"></path>
</symbol>

<symbol id="icon-italy3" viewBox="0 0 35 32">
<path d="M13.659 0.664c-0.596 0.038-1.095 0.169-1.222 0.322-0.273 0.329-1.219 0.337-1.343 0.011-0.053-0.139-0.24-0.209-0.427-0.16-0.195 0.051-0.292 0.189-0.236 0.337 0.066 0.171-0.083 0.285-0.471 0.363-0.435 0.087-0.547 0.188-0.482 0.436 0.1 0.384-0.825 0.292-1.314-0.13-0.508-0.438-1.586-0.315-1.586 0.18 0 0.675-0.407 0.896-1.045 0.566-0.673-0.348-1.266-0.358-1.266-0.021 0 0.299-0.7 0.838-0.916 0.705-0.174-0.108-1.427 0.45-1.615 0.719-0.232 0.333-0.144 1.039 0.173 1.39 0.331 0.366 0.211 0.542-0.772 1.124-0.314 0.186-0.314 0.213-0.013 0.672 0.172 0.263 0.398 0.426 0.501 0.363 0.126-0.078 0.123 0.005-0.008 0.249-0.408 0.762-0.193 1.989 0.349 1.989 0.18 0 0.586 0.321 0.901 0.713 0.704 0.876 1.010 0.826 2.040-0.33 0.971-1.090 1.545-1.099 3.718-0.056 1.708 0.819 1.854 0.947 1.867 1.629 0.005 0.245 0.126 0.6 0.269 0.79s0.261 0.652 0.261 1.027c0 0.542 0.082 0.713 0.4 0.838 0.476 0.186 1.554 1.274 1.503 1.517-0.020 0.094 0.234 0.226 0.565 0.293 0.345 0.071 0.774 0.339 1.005 0.63 0.222 0.279 0.471 0.507 0.554 0.508s0.55 0.432 1.039 0.959 1.143 1.065 1.454 1.196c0.311 0.131 0.616 0.32 0.677 0.419s0.587 0.18 1.167 0.18c1.047 0 1.060 0.006 1.545 0.756 0.307 0.474 0.622 0.755 0.845 0.755 0.233 0 0.339 0.102 0.307 0.296-0.038 0.232 0.078 0.288 0.533 0.258 0.855-0.055 1.204 0.174 1.204 0.788 0 0.608 0.821 1.234 1.619 1.235 0.491 0.001 0.399-0.169 1.594 2.931 0.422 1.093 0.422 1.096-0.013 1.209-0.195 0.051-0.399 0.24-0.454 0.421s-0.265 0.665-0.467 1.077c-0.454 0.925-0.34 1.295 0.396 1.295 0.652 0 2.104-1.423 2.116-2.074 0.013-0.688 0.208-0.936 0.826-1.052 1.289-0.242 0.998-2.029-0.419-2.577-0.522-0.202-0.509-0.671 0.047-1.769 0.476-0.939 1.047-1.172 1.508-0.616 0.122 0.147 0.488 0.267 0.815 0.267s0.673 0.1 0.77 0.222c1.292 1.623 1.676 1.734 1.899 0.55 0.148-0.788-0.793-1.781-2.595-2.742-0.538-0.287-1.098-0.599-1.244-0.693s-0.935-0.428-1.751-0.742c-1.651-0.634-1.852-0.865-1.28-1.473l0.391-0.416-0.374-0.262c-0.27-0.189-0.706-0.241-1.569-0.188-2.017 0.125-4.011-1.485-4.824-3.894-0.337-0.999-1.107-2.094-1.472-2.094-0.080 0-0.477-0.24-0.882-0.533s-0.83-0.533-0.945-0.533c-0.785 0-1.578-2.33-0.919-2.698 0.389-0.218 0.369-0.606-0.064-1.213-0.394-0.553-0.31-1.066 0.175-1.066 0.366 0 1.903-0.654 2.034-0.866 0.108-0.176 1.278-0.153 1.459 0.028 0.071 0.071-0.016 0.236-0.194 0.366-0.573 0.419 0.188 2.604 0.907 2.604 1.145 0 1.342-2.787 0.245-3.465-0.099-0.061-0.18-0.347-0.18-0.634 0-0.442-0.070-0.523-0.453-0.523-0.249 0-0.644-0.192-0.879-0.426-0.283-0.283-0.731-0.468-1.335-0.551s-0.979-0.238-1.119-0.462c-0.116-0.186-0.299-0.338-0.407-0.338s-0.341-0.16-0.518-0.356c-0.33-0.364-0.358-0.367-2.607-0.225z"></path>
</symbol>

<symbol id="icon-corsica" viewBox="0 0 20 32">
<path d="M14.526 3.123c-0.579 0.212-1.053 1.035-1.053 1.827 0 0.922-1.408 2.022-3.905 3.052-4.489 1.851-6.94 5.883-5.366 8.825 0.48 0.897 0.806 1.93 0.725 2.297s0.293 1.733 0.831 3.036 0.978 2.703 0.978 3.11c0 1.095 3.519 3.361 5.218 3.361 1.692 0 4.045-4.031 4.045-6.929 0-1.078 0.547-2.74 1.215-3.694 2.118-3.024-0.189-15.803-2.688-14.886z"></path>
</symbol>

<symbol id="icon-sicily" viewBox="0 0 47 32">
<path d="M43.6 4.8c-0.272 0.44-2.183 0.813-4.247 0.828s-4.653 0.543-5.753 1.172c-2.738 1.565-12.788 1.583-14.847 0.026-1.841-1.392-4.838-1.582-5.597-0.354-0.321 0.519-1.608 0.671-3.185 0.375-2.823-0.53-5.171 1.502-5.171 4.473 0 1.74 3.697 4.676 5.908 4.692 1.709 0.012 2.153 0.22 8.934 4.188 2.068 1.21 4.768 2.2 6.001 2.2 1.561 0 2.837 0.761 4.204 2.508 2.489 3.181 9.549 4.389 10.413 1.782 0.272-0.82 0.912-2.056 1.422-2.747 0.723-0.979 0.619-1.909-0.471-4.207-1.563-3.294-1.040-5.511 2.56-10.848 1.006-1.491 1.829-3.201 1.829-3.8 0-1.268-1.281-1.452-2-0.288z"></path>
</symbol>

<symbol id="icon-sardynia" viewBox="0 0 22 32">
<path d="M10.429 4.536c-1.932 1.654-2.988 2.128-4.734 2.128-2.869 0-3.519 1.7-1.628 4.258 1.166 1.577 1.862 12.155 1.046 15.895-0.092 0.421 0.147 0.778 0.531 0.792s1.025 0.354 1.425 0.754c1.149 1.149 2.637 0.855 3.918-0.774 0.922-1.173 1.598-1.459 3.088-1.309 2.573 0.259 3.352-1.461 3.586-7.914 0.099-2.742 0.356-5.159 0.569-5.373 0.736-0.736 0.385-3.544-0.769-6.152-2.040-4.612-3.701-5.157-7.033-2.306z"></path>
</symbol>

<symbol id="icon-algieria" viewBox="0 0 93 32">
<path d="M73 5.155c-0.412 0.385-2.408 1.22-4.435 1.855l-3.685 1.155-2.065-1.123c-2.672-1.453-14.701-1.012-18.565 0.681-0.825 0.362-4.088 0.93-7.25 1.262-6.482 0.682-13.080 3.288-14.74 5.821-0.6 0.915-1.142 1.212-1.867 1.022-2.283-0.597-12.393 5.29-12.393 7.217 0 0.602-0.348 0.956-0.939 0.956-0.516 0-1.219 0.337-1.561 0.75s-1.029 0.75-1.525 0.75c-0.857 0-2.975 2.169-2.975 3.048 0 2.53-1.17 2.468 44.222 2.33l42.028-0.128-0.17-2.61c-0.094-1.448 0.225-4.141 0.716-6.049 0.8-3.105 0.822-3.925 0.223-8.446-0.365-2.754-0.506-5.63-0.315-6.392 0.303-1.208 0.222-1.352-0.64-1.126-0.543 0.142-1.685-0.166-2.538-0.685-1.69-1.028-4.527-1.274-4.527-0.393 0 0.563-3.267 0.399-5.25-0.263-0.591-0.197-1.307-0.047-1.75 0.367z"></path>
</symbol>

<symbol id="icon-irleandNorth" viewBox="0 0 42 32">
<path d="M18.484 4.821c-1.323 0.69-3.241 1.036-4.263 0.769-2.055-0.537-4.367 1.784-4.415 4.431-0.016 0.868-0.945 1.926-2.065 2.352-4.331 1.646-6.381 8.39-3.378 11.108 2.853 2.582 8.97 2.996 8.97 0.607 0-2.871 2.34-3.234 6.725-1.044 8.327 4.159 23.125-3.599 16.83-8.823-0.733-0.609-1.333-1.486-1.333-1.949 0-6.439-10.352-10.958-17.072-7.452z"></path>
</symbol>

<symbol id="icon-GB1" viewBox="0 0 23 32">
<path d="M16.057 1.569c0.513-0.83 1.062 0.63 0.609 1.619l-0.165 0.361-0.010-0.365c-0.007-0.272-0.101-0.419-0.371-0.578-0.363-0.214-0.506-0.488-0.193-0.368 0.233 0.089 0.364-0.166 0.193-0.373-0.078-0.093-0.106-0.226-0.063-0.296zM12.508 5.598c0.199-0.24 0.316-0.233 0.584 0.035 0.121 0.121 0.315 0.256 0.431 0.301 0.369 0.142 0.135 0.381-0.381 0.39-0.58 0.010-0.921-0.38-0.634-0.726zM12.19 6.944c-0.050-0.081-0.002-0.098 0.131-0.047 0.116 0.044 0.344 0.081 0.508 0.081 0.217 0 0.289 0.057 0.264 0.21-0.019 0.116 0.013 0.292 0.072 0.391s0.068 0.146 0.020 0.103c-0.048-0.043-0.205 0.039-0.35 0.18s-0.399 0.355-0.564 0.474-0.22 0.178-0.12 0.131c0.099-0.047 0.153-0.054 0.12-0.016s-0.101 0.073-0.152 0.077c-0.492 0.041-0.955 0.533-0.623 0.66 0.153 0.059 0.126 0.128-0.15 0.375l-0.338 0.303 0.361-0.052c0.198-0.028 0.388-0.062 0.421-0.076s0.101-0.018 0.15-0.010c0.050 0.008 0.090-0.040 0.090-0.106 0-0.163 3.088-0.161 3.189 0.002 0.042 0.067 0.127 0.090 0.191 0.051s0.105-0.026 0.093 0.028c-0.012 0.055 0.019 0.192 0.069 0.306 0.059 0.135 0.003 0.318-0.161 0.528-0.139 0.176-0.252 0.397-0.252 0.49s-0.055 0.235-0.123 0.315c-0.067 0.080-0.27 0.371-0.451 0.647s-0.479 0.67-0.663 0.875c-0.273 0.304-0.3 0.386-0.15 0.443 0.369 0.142 0.215 0.526-0.211 0.526-0.245 0-0.472 0.091-0.6 0.241-0.198 0.232-0.194 0.241 0.101 0.241 0.169 0 0.279-0.045 0.245-0.1s0.193-0.061 0.504-0.013c0.312 0.048 0.586 0.069 0.609 0.047s0.24 0.14 0.481 0.359c0.241 0.22 0.578 0.528 0.75 0.685 0.26 0.238 0.656 1.192 0.783 1.885 0.044 0.238 0.42 0.775 0.492 0.703 0.035-0.035 0.268 0.065 0.518 0.223s0.488 0.263 0.528 0.234c0.040-0.029 0.047-0.018 0.015 0.025-0.074 0.099 0.612 0.763 0.789 0.763 0.083 0 0.102 0.132 0.052 0.361-0.050 0.227-0.031 0.361 0.051 0.361 0.071 0 0.118 0.041 0.104 0.090s0.046 0.219 0.133 0.376c0.109 0.197 0.119 0.311 0.030 0.365-0.078 0.049 0.010 0.21 0.228 0.416 0.388 0.366 0.461 0.801 0.176 1.038-0.099 0.082-0.18 0.224-0.18 0.316 0 0.222 0.414 0.212 0.602-0.015 0.302-0.364 1.85-0.049 2.268 0.462 0.316 0.386 0.115 1.436-0.364 1.905-0.191 0.187-0.307 0.34-0.257 0.34s-0.033 0.087-0.184 0.192c-0.151 0.106-0.38 0.165-0.508 0.132-0.266-0.070-0.302 0.040-0.084 0.258 0.177 0.177-0.056 0.375-0.444 0.378-0.586 0.005 0.085 0.264 0.732 0.282 0.726 0.021 1.114 0.436 0.595 0.635-0.104 0.040-0.153 0.129-0.11 0.198 0.048 0.077 0.020 0.090-0.072 0.033-0.088-0.054-0.294 0.013-0.495 0.162-0.19 0.14-0.425 0.255-0.523 0.255s-0.212 0.055-0.254 0.122c-0.042 0.067-0.126 0.091-0.188 0.053s-0.112-0.009-0.112 0.065-0.050 0.103-0.112 0.065-0.138-0.028-0.169 0.023c-0.071 0.115-2.061 0.089-2.534-0.033-0.234-0.060-0.323-0.048-0.27 0.037 0.137 0.221-0.058 0.51-0.343 0.51-0.151 0-0.305-0.078-0.342-0.174-0.045-0.116-0.224-0.168-0.541-0.155-0.333 0.013-0.456 0.065-0.414 0.174 0.044 0.116-0.113 0.155-0.615 0.155-0.371 0-0.675-0.053-0.675-0.118 0-0.13-1.327-0.088-1.549 0.049-0.074 0.046-0.135 0.189-0.135 0.317 0 0.327-0.456 0.765-0.64 0.613-0.385-0.318-2.007-0.233-2.007 0.106 0 0.064-0.084 0.116-0.188 0.116s-0.159 0.046-0.124 0.102c0.035 0.056-0.084 0.092-0.264 0.079s-0.476-0.032-0.658-0.042c-0.182-0.010-0.331-0.066-0.331-0.125s0.149-0.169 0.331-0.247c0.489-0.208 1.634-1.298 1.68-1.599 0.022-0.143 0.070-0.29 0.107-0.328 0.064-0.064 0.116-0.078 0.421-0.113 0.073-0.008 0.105-0.087 0.072-0.175-0.107-0.279 0.693-0.476 1.556-0.384 0.713 0.076 0.789 0.061 1.005-0.198 0.382-0.459 0.25-0.559-0.322-0.245-0.373 0.205-0.613 0.181-1.082-0.109-0.248-0.153-0.529-0.231-0.71-0.196-0.21 0.040-0.336-0.010-0.42-0.167-0.135-0.252-0.486-0.291-0.853-0.094-0.601 0.322-1.332-0.404-0.854-0.849 0.119-0.111 0.277-0.182 0.351-0.157s0.218-0.040 0.321-0.143 0.353-0.221 0.555-0.261c0.202-0.040 0.368-0.124 0.368-0.186s0.052-0.080 0.115-0.041c0.136 0.084 0.514-0.591 0.397-0.708-0.044-0.044-0.082-0.227-0.085-0.406-0.007-0.399-0.477-0.528-0.719-0.197-0.16 0.219-0.43 0.146-0.43-0.116 0-0.084 0.132-0.224 0.294-0.311 0.399-0.214 0.49-0.491 0.187-0.57-0.345-0.090-0.344-0.757 0.001-0.757 0.256 0 0.713 0.219 0.88 0.421 0.066 0.080 0.117 0.078 0.152-0.006 0.029-0.069 0.249-0.103 0.488-0.075 0.301 0.035 0.41 0.009 0.352-0.084-0.054-0.088 0.024-0.126 0.224-0.109 0.169 0.014 0.307 0.072 0.307 0.128s0.078 0.025 0.173-0.071c0.095-0.095 0.145-0.283 0.11-0.416s-0.002-0.281 0.073-0.327c0.101-0.063 0.1-0.129-0.006-0.256-0.111-0.134-0.104-0.218 0.036-0.38 0.287-0.334 0.354-0.629 0.144-0.629-0.101 0-0.15 0.054-0.109 0.12 0.206 0.333-0.275 0.056-0.679-0.391-0.556-0.615-0.602-1.175-0.122-1.489 0.544-0.356 0.033-0.414-0.607-0.068-0.517 0.279-0.617 0.297-0.846 0.154-0.186-0.116-0.274-0.124-0.306-0.026-0.059 0.177-0.708 0.178-0.817 0.001-0.057-0.092-0.121-0.069-0.199 0.070-0.106 0.189-0.139 0.184-0.404-0.066-0.301-0.283-0.396-0.733-0.144-0.681 0.080 0.017 0.149-0.024 0.154-0.090s0.163-0.38 0.351-0.698l0.343-0.578-0.247-0.264c-0.222-0.237-0.23-0.295-0.079-0.565 0.217-0.389 0.216-0.481-0.005-0.481-0.099 0-0.18 0.054-0.18 0.12s-0.081 0.12-0.18 0.12c-0.099 0-0.18 0.054-0.18 0.12s-0.054 0.12-0.12 0.12c-0.066 0-0.12-0.119-0.12-0.265 0-0.164-0.042-0.221-0.111-0.15-0.177 0.182-0.008 0.748 0.243 0.814 0.312 0.082 0.311 0.634-0.002 0.716-0.127 0.033-0.289 0.002-0.361-0.070-0.094-0.094-0.13-0.092-0.13 0.005 0 0.198-0.361 0.528-0.491 0.448-0.144-0.089-0.144-0.741 0-0.83 0.061-0.038 0.149-0.433 0.195-0.879s0.186-1.024 0.31-1.284c0.124-0.261 0.226-0.521 0.226-0.578 0-0.186-0.698 0.302-0.822 0.575-0.126 0.277-0.697 0.467-0.817 0.272-0.038-0.062-0.159-0.082-0.268-0.044-0.151 0.052-0.144 0.027 0.030-0.108 0.186-0.144 0.201-0.21 0.080-0.356-0.216-0.26-0.036-0.463 0.327-0.372 0.274 0.069 0.29 0.055 0.148-0.117-0.139-0.167-0.125-0.204 0.099-0.262 0.143-0.037 0.26-0.158 0.26-0.268s0.108-0.278 0.241-0.373c0.132-0.095 0.241-0.279 0.241-0.408 0-0.226-0.011-0.224-0.278 0.027-0.326 0.306-0.544 0.334-0.64 0.081-0.038-0.099-0.14-0.18-0.226-0.18-0.175 0-1.141-0.605-1.14-0.713 0.002-0.155 0.849-0.633 1.011-0.571 0.096 0.037 0.192 0.246 0.213 0.464 0.034 0.356 0.085 0.404 0.491 0.469 0.409 0.066 0.436 0.054 0.279-0.119-0.124-0.137-0.14-0.252-0.055-0.403 0.065-0.116 0.089-0.259 0.053-0.317-0.241-0.39 0.309-0.958 0.834-0.861 0.066 0.012 0.034-0.066-0.072-0.174-0.291-0.297-0.155-0.782 0.219-0.782 0.209 0 0.28-0.052 0.234-0.17-0.191-0.496 0.24-1.031 0.609-0.756 0.211 0.158 2.58-0.024 2.478-0.189zM6.299 7.69c0.567-0.346 0.724-0.306 0.631 0.16-0.043 0.215-0.131 0.409-0.196 0.431s-0.118 0.143-0.118 0.268c0 0.144-0.173 0.317-0.471 0.469l-0.471 0.24-0.239-0.378c-0.268-0.423-0.227-0.699 0.105-0.699 0.121 0 0.257-0.059 0.301-0.13s0.25-0.234 0.458-0.36zM7.431 14.195c0.179-0.287 0.389-0.315 0.389-0.052 0 0.524-0.895 1.45-1.039 1.075-0.038-0.099-0.114-0.152-0.168-0.118s-0.139-0.002-0.187-0.080c-0.103-0.167 0.366-0.584 0.657-0.584 0.109 0 0.266-0.108 0.349-0.241zM10.010 18.857c0.261-0.372 0.366-0.404 0.562-0.167 0.104 0.125 0.077 0.238-0.114 0.481-0.456 0.58-0.87 0.29-0.448-0.314z"></path>
</symbol>

<symbol id="icon-irleand" viewBox="0 0 29 32">
<path d="M17.426 4.658c-0.181 0.219-1.105 0.421-2.095 0.458-1.858 0.071-2.837 0.719-2.837 1.878 0 0.29-0.351 0.687-0.779 0.882-1.010 0.46-0.706 0.912 0.773 1.149 1.382 0.221 1.363 0.818-0.042 1.308-0.715 0.249-0.872 0.448-0.724 0.915 0.197 0.621-2.779 0.818-3.701 0.244-1.224-0.762-3.844 0.045-3.071 0.946 0.242 0.283 0.525 0.752 0.628 1.042 0.114 0.321 0.371 0.458 0.656 0.348 0.814-0.312 0.523 0.677-0.31 1.057-0.428 0.195-0.704 0.477-0.611 0.627s-0.037 0.35-0.288 0.446c-0.74 0.284-0.521 1.1 0.383 1.421 0.461 0.164 1.076 0.434 1.367 0.602s1.080 0.305 1.752 0.305c1.417 0 1.581 0.405 0.394 0.974-0.456 0.219-0.997 0.734-1.202 1.145s-0.682 0.981-1.061 1.266c-0.539 0.407-0.612 0.61-0.338 0.941 0.273 0.329 0.22 0.504-0.244 0.793-0.327 0.204-0.594 0.567-0.594 0.807 0 0.278-0.389 0.471-1.073 0.531-1.212 0.107-1.571 0.653-0.527 0.801 0.895 0.127 0.868 0.475-0.086 1.1-1.149 0.753-0.623 1.191 1.194 0.996 1.079-0.116 1.348-0.084 0.873 0.105-0.878 0.349-0.887 0.902-0.015 0.902 0.521 0 0.589 0.081 0.305 0.366-0.646 0.646-0.404 0.743 1.516 0.604 2.132-0.154 4.287-0.992 4.936-1.92 0.355-0.506 0.555-0.564 1.044-0.302 0.494 0.264 0.807 0.163 1.701-0.547 0.943-0.749 1.47-0.902 3.766-1.090 1.469-0.121 2.833-0.352 3.032-0.514 0.544-0.444 1.62-2.631 1.62-3.292 0-0.32 0.148-0.673 0.328-0.785 0.418-0.258 0.060-4.388-0.524-6.048-0.437-1.243-0.18-2.014 0.673-2.014 0.221 0 0.582-0.249 0.801-0.553s0.638-0.643 0.932-0.752c0.941-0.351 0.68-1.482-0.305-1.32-0.461 0.076-0.949 0.149-1.085 0.163s-0.164 0.158-0.064 0.321c0.338 0.548-2.772 0.975-3.215 0.442-0.181-0.218-0.507-0.328-0.725-0.245s-0.466-0.033-0.553-0.258c-0.132-0.345-0.769-0.423-2.104-0.259-0.111 0.014-0.162 0.383-0.114 0.822 0.095 0.862-1.87 0.952-2.692 0.123-0.257-0.259-0.189-0.296 0.265-0.148 0.46 0.15 0.504 0.124 0.18-0.106-0.236-0.168-0.613-0.235-0.838-0.149-0.563 0.216-0.517-0.658 0.060-1.137 0.258-0.214 0.429-0.675 0.381-1.024s0.084-0.654 0.293-0.677 0.59-0.059 0.846-0.079c0.415-0.034 1.015-1.090 1.181-2.081 0.034-0.201 0.295-0.624 0.58-0.939s0.427-0.664 0.314-0.777c-0.305-0.305-0.6-0.248-0.962 0.187zM10.667 21.943c0 0.168-0.171 0.307-0.381 0.309s-0.724 0.081-1.143 0.175c-0.735 0.165-0.741 0.154-0.17-0.309 0.662-0.537 1.694-0.643 1.694-0.175z"></path>
</symbol>

<symbol id="icon-play-solid" viewBox="0 0 28 32">
<path d="M26.525 13.419l-22-13.006c-1.788-1.056-4.525-0.031-4.525 2.581v26.006c0 2.344 2.544 3.756 4.525 2.581l22-13c1.962-1.156 1.969-4.006 0-5.162z"></path>
</symbol>

<symbol id="icon-pause-solid" viewBox="0 0 28 32">
<path d="M9 29.938h-6c-1.656 0-3-1.344-3-3v-22c0-1.656 1.344-3 3-3h6c1.656 0 3 1.344 3 3v22c0 1.656-1.344 3-3 3zM28 26.938v-22c0-1.656-1.344-3-3-3h-6c-1.656 0-3 1.344-3 3v22c0 1.656 1.344 3 3 3h6c1.656 0 3-1.344 3-3z"></path>
</symbol>

</defs>
</svg>